<?xml version="1.0" standalone="no"?>
<!DOCTYPE svg PUBLIC "-//W3C//DTD SVG 1.1//EN" "http://www.w3.org/Graphics/SVG/1.1/DTD/svg11.dtd" >
<svg xmlns="http://www.w3.org/2000/svg" xmlns:xlink="http://www.w3.org/1999/xlink" version="1.1">
<metadata>
Created by FontForge 20170731 at Wed Jan 14 18:44:23 2015
 By ,,,
2014 published by FontShop International GmbH
</metadata>
<defs>
<font id="WebFontFont" horiz-adv-x="615" >
  <font-face 
    font-family="WebFontFont"
    font-weight="400"
    font-style="italic"
    font-stretch="normal"
    units-per-em="1000"
    panose-1="2 1 5 4 4 1 1 1 1 2"
    ascent="787"
    descent="-213"
    x-height="508"
    cap-height="665"
    bbox="-334 -244 1180 961"
    underline-thickness="60"
    underline-position="-160"
    slope="-6"
    unicode-range="U+0020-FEFF"
  />
<missing-glyph horiz-adv-x="693" 
d="M565 0h-476l58 665h476zM230 610l285 -497l43 497h-328zM482 55l-285 497l-43 -497h328z" />
    <glyph glyph-name="T_h.liga" unicode="Th" horiz-adv-x="1034" 
d="M1018 57q-28 -29 -63.5 -47t-68.5 -18q-24 0 -41.5 12.5t-17.5 41.5q0 20 8 66t17 99.5t17 104t8 79.5q0 34 -14 50.5t-47 16.5h-13q-8 0 -19 -2q-45 -54 -90 -166t-99 -294q-11 -5 -25 -6.5t-30 -1.5l-19 13l64 641q-9 -12 -23 -20t-29.5 -12.5t-31 -6t-27.5 -1.5
q-26 0 -59.5 4t-65.5 7l-48 -569l80 -5v-20l-3 -23h-251v39q20 8 46 13t48 7l49 560h-119l-34 -112l-48 5q-1 11 -1.5 20.5t-0.5 21.5q0 29 5 59t18 67l13 1l210 -16h140q41 0 77 7t60 18l5 52q14 4 29.5 7t29.5 4l20 -13l-42 -332q-6 -58 -15.5 -118t-18.5 -114l11 -3
q31 102 56 168t50 104t52.5 53t64.5 15q51 0 85 -27.5t34 -93.5q0 -24 -5 -63.5t-12.5 -85.5t-16 -96t-16.5 -95q25 0 52 12.5t50 29.5z" />
    <glyph glyph-name="T_k.liga" unicode="Tk" horiz-adv-x="1017" 
d="M979 56q-27 -29 -60.5 -46.5t-67.5 -17.5q-22 0 -37 8t-25 23t-17.5 37t-14.5 49q-11 41 -15.5 70t-4.5 48l61 15q38 34 63 77.5t25 85.5q0 29 -15.5 43t-52.5 14h-14q-8 0 -18 -2q-45 -53 -91 -165.5t-100 -294.5q-11 -5 -25 -6.5t-30 -1.5l-19 13l64 641
q-9 -12 -23 -20t-29.5 -12.5t-31 -6t-27.5 -1.5q-26 0 -59.5 4t-65.5 7l-48 -569l80 -5v-20l-3 -23h-251v39q20 8 46 13t48 7l49 560h-119l-34 -112l-48 5q-1 11 -1.5 20.5t-0.5 21.5q0 29 5 59t18 67l13 1l210 -16h140q41 0 77 7t60 18l5 52q14 4 29.5 7t29.5 4l20 -13
l-42 -332q-6 -58 -15.5 -118t-18.5 -114l11 -3q33 106 58.5 172.5t50.5 103.5t52.5 50.5t64.5 13.5q27 0 51.5 -6t43 -20t29.5 -36t11 -54q0 -36 -13.5 -67t-36.5 -56.5t-53 -43.5t-62 -28q12 -42 26 -79.5t36 -69.5q25 2 49 13t48 27z" />
    <glyph glyph-name="T_l.liga" unicode="Tl" horiz-adv-x="738" 
d="M728 55q-26 -27 -63.5 -45t-71.5 -18q-27 0 -46 15t-19 55q0 20 5 73.5t13.5 130.5t18.5 174.5t21 206.5q-9 -13 -23 -21t-29.5 -12.5t-31 -6t-28.5 -1.5q-26 0 -59.5 4t-65.5 7l-48 -569l80 -5v-20l-3 -23h-251v39q20 8 46 13t48 7l49 560h-119l-34 -112l-48 5
q-1 11 -1.5 20.5t-0.5 21.5q0 29 5 59t18 67l13 1l210 -16h140q41 0 77 7t60 18l5 52q14 4 29 7t31 4l19 -13q-10 -87 -22 -190.5t-23 -201.5t-19 -177.5t-9 -118.5q23 0 55.5 12t56.5 28z" />
    <glyph glyph-name="Tbar_h.liga" unicode="&#x166;h" horiz-adv-x="1034" 
d="M1018 57q-28 -29 -63.5 -47t-68.5 -18q-24 0 -41.5 12.5t-17.5 41.5q0 20 8 66t17 99.5t17 104t8 79.5q0 34 -14 50.5t-47 16.5h-13q-8 0 -19 -2q-45 -54 -90 -166t-99 -294q-11 -5 -25 -6.5t-30 -1.5l-19 13l64 641q-9 -12 -23 -20t-29.5 -12.5t-31 -6t-27.5 -1.5
q-26 0 -59.5 4t-65.5 7l-25 -299h135v-17l-5 -36h-135l-18 -217l80 -5v-20l-3 -23h-251v39q20 8 46 13t48 7l18 206h-129v17l5 36h129l26 301h-119l-34 -112l-48 5q-1 11 -1.5 20.5t-0.5 21.5q0 29 5 59t18 67l13 1l210 -16h140q41 0 77 7t60 18l5 52q14 4 29.5 7t29.5 4
l20 -13l-42 -332q-6 -58 -15.5 -118t-18.5 -114l11 -3q31 102 56 168t50 104t52.5 53t64.5 15q51 0 85 -27.5t34 -93.5q0 -24 -5 -63.5t-12.5 -85.5t-16 -96t-16.5 -95q25 0 52 12.5t50 29.5z" />
    <glyph glyph-name="Tcaron_h.liga" unicode="&#x164;h" horiz-adv-x="1034" 
d="M1018 57q-28 -29 -63.5 -47t-68.5 -18q-24 0 -41.5 12.5t-17.5 41.5q0 20 8 66t17 99.5t17 104t8 79.5q0 34 -14 50.5t-47 16.5h-13q-8 0 -19 -2q-45 -54 -90 -166t-99 -294q-11 -5 -25 -6.5t-30 -1.5l-19 13l64 641q-9 -12 -23 -20t-29.5 -12.5t-31 -6t-27.5 -1.5
q-26 0 -59.5 4t-65.5 7l-48 -569l80 -5v-20l-3 -23h-251v39q20 8 46 13t48 7l49 560h-119l-34 -112l-48 5q-1 11 -1.5 20.5t-0.5 21.5q0 29 5 59t18 67l13 1l210 -16h140q41 0 77 7t60 18l5 52q14 4 29.5 7t29.5 4l20 -13l-42 -332q-6 -58 -15.5 -118t-18.5 -114l11 -3
q31 102 56 168t50 104t52.5 53t64.5 15q51 0 85 -27.5t34 -93.5q0 -24 -5 -63.5t-12.5 -85.5t-16 -96t-16.5 -95q25 0 52 12.5t50 29.5zM340 803l86 81h54l-148 -161h-46l-92 133l60 36l77 -89h9z" />
    <glyph glyph-name="f_b.liga" unicode="fb" horiz-adv-x="828" 
d="M660 513q29 0 53 -8t41 -27.5t26.5 -52.5t9.5 -82q0 -56 -13.5 -119t-44.5 -115.5t-81.5 -87t-123.5 -34.5q-20 0 -43 2.5t-46.5 7t-45.5 9.5t-40 11l65 668q-23 8 -50.5 11.5t-56.5 3.5q-20 0 -36.5 -2t-33.5 -8q-7 -12 -13 -27.5t-11.5 -38t-11 -55.5t-10.5 -81h110
v-20l-7 -31h-108l-39 -411q-12 -129 -55.5 -184t-114.5 -55q-38 0 -76 14t-63 41l17 41q34 -13 79.5 -27t95.5 -14q17 21 25 57t13 84l40 448l-76 6v38q16 5 38.5 10t42.5 9q16 133 66 196t141 63q31 0 56.5 -6t48.5 -17q27 18 54 23l20 -13l-42 -332q-8 -60 -18.5 -122.5
t-20.5 -119.5l11 -3q32 109 58 177t51.5 106.5t54 52.5t64.5 14zM606 44q27 25 46 61.5t31 77.5t17.5 84.5t5.5 83.5q0 64 -14.5 87.5t-48.5 23.5q-13 0 -31 -3q-20 -22 -39 -56t-40.5 -83t-46 -115t-54.5 -152q25 -8 52.5 -13.5t53.5 -5.5q21 0 38 3t30 7z" />
    <glyph glyph-name="f_f.liga" unicode="ff" horiz-adv-x="564" 
d="M544 694q-9 -3 -17 -6t-16 -8q-5 -12 -10 -27t-9.5 -37t-9.5 -53t-9 -75h113v-20l-7 -31h-111l-39 -411q-6 -63 -20 -106t-37 -68.5t-55 -36.5t-74 -11q-45 0 -82 10.5t-66 30.5q-43 -58 -116 -58q-38 0 -75.5 14t-62.5 41l17 41q34 -13 79.5 -27t95.5 -14q17 21 25 57
t13 84l40 448l-76 6v38q16 5 38.5 10t42.5 9q8 70 23.5 117t39 74.5t55.5 39t73 11.5q47 0 87.5 -12.5t69.5 -35.5q33 40 72 52.5t74 12.5q37 0 60.5 -10t41.5 -31l-21 -57zM441 653q-29 12 -65.5 20t-76.5 8q-38 0 -72 -9q-6 -11 -11 -31t-9 -45t-7 -53t-6 -55h176l25 4
q7 54 18.5 93t27.5 68zM327 437h-138l-39 -411q-9 -87 -33 -143q28 -11 62 -17.5t70 -6.5q39 0 74 9q11 17 18 50t9 65l40 450z" />
    <glyph glyph-name="f_f_b.liga" unicode="ffb" horiz-adv-x="1111" 
d="M943 513q29 0 53 -8t41 -27.5t26.5 -52.5t9.5 -82q0 -56 -13.5 -119t-44.5 -115.5t-81.5 -87t-123.5 -34.5q-20 0 -43.5 2.5t-47.5 7t-46.5 9.5t-40.5 11l64 668q-23 8 -50.5 11.5t-56.5 3.5q-20 0 -36.5 -2t-33.5 -8q-7 -12 -13 -27.5t-11.5 -38t-11 -55.5t-10.5 -81
h110v-20l-7 -31h-108l-39 -411q-6 -63 -20 -106t-37 -68.5t-55 -36.5t-74 -11q-45 0 -82 10.5t-66 30.5q-43 -58 -116 -58q-38 0 -75.5 14t-62.5 41l17 41q34 -13 79.5 -27t95.5 -14q17 21 25 57t13 84l40 448l-76 6v38q16 5 38.5 10t42.5 9q8 70 23.5 117t39 74.5t55.5 39
t73 11.5q46 0 85.5 -12t68.5 -35q52 64 141 64q31 0 56.5 -6t48.5 -17q27 18 54 23l20 -13l-42 -332q-6 -58 -16.5 -123t-18.5 -119l11 -3q32 109 58 177t51.5 106.5t54 52.5t64.5 14zM439 654q-29 12 -65 19.5t-75 7.5q-38 0 -72 -9q-6 -11 -11 -31t-9 -45t-7 -53t-6 -55
h176l25 4q12 103 44 162zM889 44q27 25 46 61.5t31 77.5t17.5 84.5t5.5 83.5q0 64 -14.5 87.5t-48.5 23.5q-13 0 -31 -3q-20 -22 -39 -56t-40.5 -83t-46 -115t-54.5 -152q25 -8 52.5 -13.5t53.5 -5.5q21 0 38 3t30 7zM327 437h-138l-39 -411q-9 -87 -33 -143
q28 -11 62 -17.5t70 -6.5q39 0 74 9q11 17 18 50t9 65l40 450z" />
    <glyph glyph-name="f_f_h.liga" unicode="ffh" horiz-adv-x="1143" 
d="M1127 57q-28 -29 -63.5 -47t-68.5 -18q-24 0 -41.5 12.5t-17.5 41.5q0 20 8 66t17 99.5t17 104t8 79.5q0 34 -14 50.5t-47 16.5h-13q-8 0 -19 -2q-45 -54 -90 -166t-99 -294q-11 -5 -25 -6.5t-30 -1.5l-19 13l66 680q-23 8 -50.5 11.5t-56.5 3.5q-20 0 -36.5 -2t-33.5 -8
q-7 -12 -13 -27.5t-11.5 -38t-11 -55.5t-10.5 -81h110v-20l-7 -31h-108l-39 -411q-6 -63 -20 -106t-37 -68.5t-55 -36.5t-74 -11q-45 0 -82 10.5t-66 30.5q-43 -58 -116 -58q-38 0 -75.5 14t-62.5 41l17 41q34 -13 79.5 -27t95.5 -14q17 21 25 57t13 84l40 448l-76 6v38
q16 5 38.5 10t42.5 9q8 70 23.5 117t39 74.5t55.5 39t73 11.5q46 0 85.5 -12t68.5 -35q52 64 141 64q31 0 56.5 -6t48.5 -17q27 18 54 23l20 -13l-42 -332q-6 -58 -15 -118t-17 -114l11 -3q31 102 56 168t50 104t52.5 53t64.5 15q51 0 85 -27.5t34 -93.5q0 -24 -5 -63.5
t-12.5 -85.5t-16 -96t-16.5 -95q25 0 52 12.5t50 29.5zM327 437h-138l-39 -411q-9 -87 -33 -143q28 -11 62 -17.5t70 -6.5q39 0 74 9q11 17 18 50t9 65l40 450zM439 654q-29 12 -65 19.5t-75 7.5q-38 0 -72 -9q-6 -11 -11 -31t-9 -45t-7 -53t-6 -55h176l25 4q12 103 44 162z
" />
    <glyph glyph-name="f_f_i.liga" unicode="ffi" horiz-adv-x="829" 
d="M819 57q-28 -29 -61.5 -47t-66.5 -18q-24 0 -41.5 12.5t-17.5 44.5q0 12 2.5 40t6.5 65t9 78.5t10 80.5t9 72t7 52h-208l-39 -411q-6 -63 -20 -106t-37 -68.5t-55 -36.5t-74 -11q-45 0 -82 10.5t-66 30.5q-43 -58 -116 -58q-38 0 -75.5 14t-62.5 41l17 41
q34 -13 79.5 -27t95.5 -14q17 21 25 57t13 84l40 448l-76 6v38q16 5 38.5 10t42.5 9q8 70 23.5 117t39 74.5t55.5 39t73 11.5q48 0 88 -13t69 -36q29 35 68 50.5t90 15.5q63 0 102 -22t53 -63l-34 -51l-133 86q-29 1 -47 -2.5t-35 -10.5q-7 -12 -14.5 -27.5t-15 -38.5
t-14 -55.5t-11.5 -80.5h161q26 8 53 13t51 7l20 -13q-2 -16 -5.5 -47t-8 -70t-9.5 -83.5t-10.5 -88.5t-10 -84t-7.5 -70q25 0 49.5 12.5t47.5 29.5zM441 653q-29 12 -65.5 20t-76.5 8q-38 0 -72 -9q-6 -11 -11 -31t-9 -45t-7 -53t-6 -55h175l27 6q12 99 45 159zM326 437
h-137l-39 -411q-9 -87 -33 -143q28 -11 62 -17.5t70 -6.5q39 0 74 9q11 17 18 50t9 65l39 448z" />
    <glyph glyph-name="f_f_j.liga" unicode="ffj" horiz-adv-x="814" 
d="M634 488q26 8 53 13.5t51 7.5l20 -13l-56 -484q-13 -118 -56.5 -171t-112.5 -53q-56 0 -87 34l17 41q23 -6 54 -12.5t65 -6.5q19 23 28 58t14 80l52 455h-208l-39 -411q-6 -63 -20 -106t-37 -68.5t-55 -36.5t-74 -11q-45 0 -82 10.5t-66 30.5q-43 -58 -116 -58
q-38 0 -75.5 14t-62.5 41l17 41q34 -13 79.5 -27t95.5 -14q17 21 25 57t13 84l40 448l-76 6v38q16 5 38.5 10t42.5 9q8 70 23.5 117t39 74.5t55.5 39t73 11.5q48 0 88 -13t69 -36q29 35 68 50.5t90 15.5q63 0 102 -22t53 -63l-34 -51l-133 86q-29 1 -47 -2.5t-35 -10.5
q-7 -12 -14.5 -27.5t-15 -38.5t-14 -55.5t-11.5 -80.5h161zM441 653q-29 12 -65.5 20t-76.5 8q-38 0 -72 -9q-6 -11 -11 -31t-9 -45t-7 -53t-6 -55h175l27 6q12 99 45 159zM326 437h-137l-39 -411q-9 -87 -33 -143q28 -11 62 -17.5t70 -6.5q39 0 74 9q11 17 18 50t9 65
l39 448z" />
    <glyph glyph-name="f_f_k.liga" unicode="ffk" horiz-adv-x="1126" 
d="M1088 55q-27 -29 -60.5 -46.5t-67.5 -17.5q-23 0 -37.5 8.5t-25 24t-17.5 37t-14 47.5q-11 41 -15.5 70t-4.5 48l61 15q38 34 63 77.5t25 85.5q0 29 -15.5 43t-52.5 14h-14q-8 0 -18 -2q-45 -53 -91 -165.5t-100 -294.5q-11 -5 -25 -6.5t-30 -1.5l-19 13l66 681
q-23 8 -50.5 11.5t-56.5 3.5q-20 0 -36.5 -2t-33.5 -8q-7 -12 -13 -27.5t-11.5 -38t-11 -55.5t-10.5 -81h110v-20l-7 -31h-108l-39 -411q-6 -63 -20 -106t-37 -68.5t-55 -36.5t-74 -11q-45 0 -82 10.5t-66 30.5q-43 -58 -116 -58q-38 0 -75.5 14t-62.5 41l17 41
q34 -13 79.5 -27t95.5 -14q17 21 25 57t13 84l40 448l-76 6v38q16 5 38.5 10t42.5 9q8 70 23.5 117t39 74.5t55.5 39t73 11.5q46 0 85.5 -12t68.5 -35q52 64 141 64q31 0 56.5 -6t48.5 -17q27 18 54 23l20 -13l-42 -332q-6 -58 -15 -118.5t-17 -114.5l11 -3
q33 106 58.5 172.5t50.5 103.5t52.5 50.5t64.5 13.5q27 0 51.5 -6t43 -20t29.5 -36t11 -54q0 -36 -13.5 -67t-36.5 -56.5t-53 -43.5t-62 -28q12 -42 26 -79.5t36 -69.5q25 2 49 13t48 27zM327 437h-138l-39 -411q-9 -87 -33 -143q28 -11 62 -17.5t70 -6.5q39 0 74 9
q11 17 18 50t9 65l40 450zM439 654q-29 12 -65 19.5t-75 7.5q-38 0 -72 -9q-6 -11 -11 -31t-9 -45t-7 -53t-6 -55h176l25 4q12 103 44 162z" />
    <glyph glyph-name="f_f_l.liga" unicode="ffl" horiz-adv-x="844" 
d="M834 55q-26 -27 -63.5 -45t-71.5 -18q-27 0 -46 15t-19 56q0 22 6 82t15.5 144.5t21.5 186.5t24 207q-51 17 -112 17q-20 0 -36.5 -2t-33.5 -8q-7 -12 -13 -27.5t-11.5 -38t-11 -55.5t-10.5 -81h110v-20l-7 -31h-108l-39 -411q-6 -63 -20 -106t-37 -68.5t-55 -36.5
t-74 -11q-45 0 -82 10.5t-66 30.5q-43 -58 -116 -58q-38 0 -75.5 14t-62.5 41l17 41q34 -13 79.5 -27t95.5 -14q17 21 25 57t13 84l40 448l-76 6v38q16 5 38.5 10t42.5 9q8 70 23.5 117t39 74.5t55.5 39t73 11.5q46 0 85.5 -12t68.5 -35q52 64 141 64q32 0 58.5 -7t49.5 -18
q11 10 25.5 16t30.5 9l19 -13q-7 -58 -15 -124t-16.5 -134t-16.5 -134t-14.5 -123t-10.5 -102t-5 -71q23 0 55.5 12t56.5 28zM439 654q-29 12 -65 19.5t-75 7.5q-38 0 -72 -9q-6 -11 -11 -31t-9 -45t-7 -53t-6 -55h176l25 4q12 103 44 162zM327 437h-138l-39 -411
q-9 -87 -33 -143q28 -11 62 -17.5t70 -6.5q39 0 74 9q11 17 18 50t9 65l40 450z" />
    <glyph glyph-name="f_h.liga" unicode="fh" horiz-adv-x="864" 
d="M848 57q-28 -29 -63.5 -47t-68.5 -18q-24 0 -41.5 12.5t-17.5 41.5q0 20 8 66t17 99.5t17 104t8 79.5q0 34 -14 50.5t-47 16.5h-13q-8 0 -19 -2q-45 -54 -90 -166t-99 -294q-11 -5 -25 -6.5t-30 -1.5l-19 13l66 680q-23 8 -50.5 11.5t-56.5 3.5q-20 0 -36.5 -2t-33.5 -8
q-7 -12 -13 -27.5t-11.5 -38t-11 -55.5t-10.5 -81h110v-20l-7 -31h-108l-39 -411q-12 -129 -55.5 -184t-114.5 -55q-38 0 -76 14t-63 41l17 41q34 -13 79.5 -27t95.5 -14q17 21 25 57t13 84l40 448l-76 6v38q16 5 38.5 10t42.5 9q16 133 66 196t141 63q31 0 56.5 -6
t48.5 -17q27 18 54 23l20 -13l-42 -332q-6 -58 -15 -118t-17 -114l11 -3q31 102 56 168t50 104t52.5 53t64.5 15q51 0 85 -27.5t34 -93.5q0 -24 -5 -63.5t-12.5 -85.5t-16 -96t-16.5 -95q25 0 52 12.5t50 29.5z" />
    <glyph glyph-name="f_hbar.liga" unicode="f&#x127;" horiz-adv-x="864" 
d="M848 57q-28 -29 -63.5 -47t-68.5 -18q-24 0 -41.5 12.5t-17.5 41.5q0 20 8 66t17 99.5t17 104t8 79.5q0 34 -14 50.5t-47 16.5h-13q-8 0 -19 -2q-45 -54 -90 -166t-99 -294q-11 -5 -25 -6.5t-30 -1.5l-19 13l66 680q-23 8 -50.5 11.5t-56.5 3.5q-20 0 -36.5 -2t-33.5 -8
q-7 -12 -13 -27.5t-11.5 -38t-11 -55.5t-10.5 -81h110v-20l-7 -31h-108l-39 -411q-12 -129 -55.5 -184t-114.5 -55q-38 0 -76 14t-63 41l17 41q34 -13 79.5 -27t95.5 -14q17 21 25 57t13 84l40 448l-76 6v38q16 5 38.5 10t42.5 9q16 133 66 196t141 63q31 0 56.5 -6
t48.5 -17q27 18 54 23l20 -13l-9 -75h140v-20l-6 -27h-140l-27 -210q-6 -58 -15 -118t-17 -114l11 -3q31 102 56 168t50 104t52.5 53t64.5 15q51 0 85 -27.5t34 -93.5q0 -24 -5 -63.5t-12.5 -85.5t-16 -96t-16.5 -95q25 0 52 12.5t50 29.5z" />
    <glyph glyph-name="f_i.liga" unicode="fi" horiz-adv-x="549" 
d="M539 57q-28 -29 -61.5 -47t-66.5 -18q-24 0 -41.5 12.5t-17.5 44.5q0 12 2.5 40t6.5 65t9 78.5t10 80.5t9 72t7 52h-206l-40 -411q-13 -129 -56 -184t-114 -55q-38 0 -76 14t-63 41l17 41q34 -13 79.5 -27t95.5 -14q17 21 25 57t13 84l40 448l-76 6v38q17 5 40 10t43 9
q16 138 72.5 198.5t153.5 60.5q63 0 100.5 -22t51.5 -63l-34 -51l-130 86q-29 1 -47 -2.5t-35 -10.5q-7 -12 -14.5 -27.5t-15 -38.5t-14 -55.5t-11.5 -80.5h159q26 8 53 13t51 7l20 -13q-2 -16 -5.5 -47t-8 -70t-9.5 -83.5t-10.5 -88.5t-10 -84t-7.5 -70q25 0 49.5 12.5
t47.5 29.5z" />
    <glyph glyph-name="f_icircumflex.liga" unicode="f&#xee;" horiz-adv-x="549" 
d="M427 52q25 0 49.5 12.5t47.5 29.5l15 -37q-28 -29 -61.5 -47t-66.5 -18q-24 0 -41.5 12.5t-17.5 44.5q0 12 2.5 40t6.5 65t9 78.5t10 80.5t9 72t7 52h-206l-40 -411q-13 -129 -56 -184t-114 -55q-38 0 -76 14t-63 41l17 41q34 -13 79.5 -27t95.5 -14q17 21 25 57t13 84
l40 448l-76 6v38q16 5 39 10t43 9q8 73 24 122t40 77.5t57 40.5t76 12q35 0 65 -7t53 -18l27 41h46l64 -151l-58 -28l-50 94h-9l-62 -94h-48l66 101q-18 3 -38.5 5t-43.5 2q-55 0 -101 -13q-6 -12 -10 -32.5t-8 -46t-6.5 -54t-5.5 -57.5h159q26 8 53 13t51 7l20 -13
q-2 -16 -5.5 -47t-8 -70t-9.5 -83.5t-10.5 -88.5t-10 -84t-7.5 -70z" />
    <glyph glyph-name="f_imacron.liga" unicode="f&#x12b;" horiz-adv-x="550" 
d="M355 623q-2 4 -2 16q0 7 1.5 20.5t6.5 24.5q-21 3 -47 3q-17 0 -40.5 -1.5t-48.5 -7.5q-6 -12 -10 -32.5t-8 -46t-6.5 -54t-5.5 -57.5h160q26 8 53 13t51 7l20 -13q-2 -16 -5.5 -47t-8 -70t-9.5 -83.5t-10.5 -88.5t-10 -84t-7.5 -70q25 0 49.5 12.5t47.5 29.5l15 -37
q-28 -29 -61.5 -47t-66.5 -18q-24 0 -41.5 12.5t-17.5 44.5q0 12 2.5 40t6.5 65t9 78.5t10 80.5t9 72t7 52h-207l-40 -411q-13 -129 -56 -184t-114 -55q-38 0 -76 14t-63 41l17 41q34 -13 79.5 -27t95.5 -14q17 21 25 57t13 84l40 448l-76 6v38q16 5 39 10t43 9
q9 75 26.5 123t42.5 76t57 38.5t70 10.5q96 0 147 -57h99q2 -4 2 -17q0 -7 -1.5 -20t-7.5 -25h-197z" />
    <glyph glyph-name="f_iogonek.liga" unicode="f&#x12f;" horiz-adv-x="550" 
d="M457 -166q13 0 26 3t24 8l5 -31q-33 -27 -83 -27q-48 0 -69.5 22t-21.5 54q0 20 8 38.5t20 34t27.5 28t30.5 21.5l-3 9q-5 -1 -10 -1q-24 0 -41 12t-17 44q0 12 2.5 40t6.5 65t9 78.5t10 80.5t9 72t7 52h-207l-40 -411q-13 -129 -56 -184t-114 -55q-38 0 -76 14t-63 41
l17 41q34 -13 79.5 -27t95.5 -14q17 21 25 57t13 84l40 448l-76 6v38q17 5 40 10t43 9q16 138 72.5 198.5t153.5 60.5q63 0 101.5 -22t52.5 -63l-34 -51l-132 86q-29 1 -47 -2.5t-35 -10.5q-7 -12 -14.5 -27.5t-15 -38.5t-14 -55.5t-11.5 -80.5h160q26 8 53 13t51 7l20 -13
q-2 -16 -5.5 -47t-8 -70t-9.5 -83.5t-10.5 -88.5t-10 -84t-7.5 -70q25 0 49.5 12.5t47.5 29.5l15 -37q-18 -15 -41 -34t-44 -41t-35.5 -46.5t-14.5 -50.5t14 -38.5t38 -12.5z" />
    <glyph glyph-name="f_j.liga" unicode="fj" horiz-adv-x="534" 
d="M354 488q26 8 53 13t51 7l20 -13l-56 -483q-14 -118 -57 -171t-112 -53q-56 0 -87 34l17 41q23 -6 54 -12.5t65 -6.5q19 23 28 58t14 80l52 455q-53 0 -103.5 0.5t-102.5 0.5l-40 -411q-13 -129 -56 -184t-114 -55q-38 0 -76 14t-63 41l17 41q34 -13 79.5 -27t95.5 -14
q17 21 25 57t13 84l40 447l-76 6v39q16 5 39 9.5t43 8.5q17 139 73.5 199.5t153.5 60.5q63 0 100.5 -22t51.5 -63l-34 -51l-130 86q-29 1 -47 -2.5t-35 -10.5q-7 -12 -14.5 -27.5t-15 -38.5t-14 -55.5t-11.5 -80.5z" />
    <glyph glyph-name="f_k.liga" unicode="fk" horiz-adv-x="847" 
d="M809 55q-27 -29 -60.5 -46.5t-67.5 -17.5q-23 0 -37.5 8.5t-25 24t-17.5 37t-14 47.5q-11 41 -15.5 70t-4.5 48l61 15q38 34 63 77.5t25 85.5q0 29 -15.5 43t-52.5 14h-14q-8 0 -18 -2q-45 -53 -91 -165.5t-100 -294.5q-11 -5 -25 -6.5t-30 -1.5l-19 14l66 680
q-23 8 -50.5 11.5t-56.5 3.5q-20 0 -36.5 -2t-33.5 -8q-7 -12 -13 -27.5t-11.5 -38t-11 -55.5t-10.5 -81h110v-20l-7 -31h-108l-39 -411q-12 -129 -55.5 -184t-114.5 -55q-38 0 -76 14t-63 41l17 41q34 -13 79.5 -27t95.5 -14q17 21 25 57t13 84l40 448l-76 6v38
q16 5 38.5 10t42.5 9q16 133 66 196t141 63q31 0 56.5 -6t48.5 -17q27 18 54 23l20 -13l-42 -332q-6 -58 -15 -118t-17 -114l11 -4q33 106 58.5 172.5t50.5 103.5t52.5 50.5t64.5 13.5q27 0 51.5 -6t43 -20t29.5 -36t11 -54q0 -36 -13.5 -67t-36.5 -56.5t-53 -43.5t-62 -28
q12 -42 26 -79.5t36 -69.5q25 2 49 13t48 27z" />
    <glyph glyph-name="f_l.liga" unicode="fl" horiz-adv-x="565" 
d="M555 55q-26 -27 -63.5 -45t-71.5 -18q-27 0 -46 15t-19 56q0 22 6 82t15.5 144.5t21.5 186.5t24 207q-51 17 -112 17q-20 0 -36.5 -2t-33.5 -8q-7 -12 -13 -27.5t-11.5 -38t-11 -55.5t-10.5 -81h110v-20l-7 -31h-108l-39 -411q-12 -129 -55.5 -184t-114.5 -55
q-38 0 -76 14t-63 41l17 41q34 -13 79.5 -27t95.5 -14q17 21 25 57t13 84l40 448l-76 6v38q16 5 38.5 10t42.5 9q16 133 66 196t141 63q32 0 58.5 -7t49.5 -18q11 10 25.5 16t30.5 9l19 -13q-7 -58 -15 -124t-16.5 -134t-16.5 -134t-14.5 -123t-10.5 -102t-5 -71
q23 0 55.5 12t56.5 28z" />
    <glyph glyph-name="f_lacute.liga" unicode="f&#x13a;" horiz-adv-x="568" 
d="M431 52q23 0 55.5 12t56.5 28l15 -37q-26 -27 -63.5 -45t-71.5 -18q-27 0 -46 15t-19 56q0 22 5.5 77.5t14.5 134t20 173.5t23 195q-52 20 -120 20q-20 0 -36.5 -2t-33.5 -7q-7 -12 -12 -26.5t-9 -33.5t-7.5 -44.5t-7.5 -61.5h110v-20l-7 -31h-108l-40 -411
q-13 -129 -56 -184t-114 -55q-38 0 -76 14t-63 41l17 41q34 -13 79.5 -27t95.5 -14q17 21 25 57t13 84l40 448l-75 6v38q16 5 39 10t43 9q14 106 60.5 164t135.5 58q33 0 61 -7.5t52 -19.5q24 21 59 27l19 -13q-6 -58 -14 -122l-16 -127q-8 -63 -15.5 -124.5t-13.5 -114.5
t-10 -95t-5 -68zM461 753l77 141h24q15 -7 28 -19.5t21 -29.5l-100 -92h-50z" />
    <glyph glyph-name="f_lcaron.liga" unicode="f&#x13e;" horiz-adv-x="620" 
d="M557 55q-26 -27 -63.5 -45t-71.5 -18q-27 0 -46 15t-19 56q0 22 6 82t15.5 144.5t21.5 186.5t24 207q-51 17 -112 17q-20 0 -36.5 -2t-33.5 -8q-7 -12 -13 -27.5t-11.5 -38t-11 -55.5t-10.5 -81h110v-20l-7 -31h-108l-39 -411q-12 -129 -55.5 -184t-114.5 -55
q-38 0 -76 14t-63 41l17 41q34 -13 79.5 -27t95.5 -14q17 21 25 57t13 84l40 448l-76 6v38q16 5 38.5 10t42.5 9q16 133 66 196t141 63q32 0 58.5 -7t49.5 -18q11 10 25.5 16t30.5 9l19 -13q-7 -58 -15 -124t-16.5 -134t-16.5 -134t-14.5 -123t-10.5 -102t-5 -71
q23 0 55.5 12t56.5 28zM621 753q17 0 31 -4.5t22 -9.5q-5 -59 -21.5 -106.5t-54.5 -98.5h-35l31 122v93q6 2 13.5 3t13.5 1z" />
    <glyph glyph-name="uni021A_h.liga" unicode="&#x21a;h" horiz-adv-x="1034" 
d="M1018 57q-28 -29 -63.5 -47t-68.5 -18q-24 0 -41.5 12.5t-17.5 41.5q0 20 8 66t17 99.5t17 104t8 79.5q0 34 -14 50.5t-47 16.5h-13q-8 0 -19 -2q-45 -54 -90 -166t-99 -294q-11 -5 -25 -6.5t-30 -1.5l-19 13l64 641q-9 -12 -23 -20t-29.5 -12.5t-31 -6t-27.5 -1.5
q-26 0 -59.5 4t-65.5 7l-48 -569l80 -5v-20l-3 -23h-251v39q20 8 46 13t48 7l49 560h-119l-34 -112l-48 5q-1 11 -1.5 20.5t-0.5 21.5q0 29 5 59t18 67l13 1l210 -16h140q41 0 77 7t60 18l5 52q14 4 29.5 7t29.5 4l20 -13l-42 -332q-6 -58 -15.5 -118t-18.5 -114l11 -3
q31 102 56 168t50 104t52.5 53t64.5 15q51 0 85 -27.5t34 -93.5q0 -24 -5 -63.5t-12.5 -85.5t-16 -96t-16.5 -95q25 0 52 12.5t50 29.5zM240 -56q25 0 44 -11q5 -6 7 -18t2 -26q0 -48 -25 -83.5t-69 -49.5l-12 24q23 15 38.5 31.5t15.5 44.5v12l-36 6l5 67q13 3 30 3z" />
    <glyph glyph-name="uni030A_acutecomb.liga" unicode="&#x30a;&#x301;" horiz-adv-x="1" 
d="M-5 909q16 -10 26.5 -20t18.5 -24l-113 -94h-47l91 138h24zM-96 736q41 0 64 -21t23 -63q0 -52 -32 -77t-76 -25q-42 0 -65.5 21t-23.5 63q0 26 9 45t24 32t35 19t42 6zM-102 696q-6 0 -13.5 -1.5t-12.5 -4.5q-7 -8 -12 -23t-5 -34q0 -23 8.5 -33t23.5 -10q6 0 13.5 1.5
t12.5 4.5q7 8 12 23t5 34q0 23 -8.5 33t-23.5 10z" />
    <glyph glyph-name=".notdef" horiz-adv-x="693" 
d="M565 0h-476l58 665h476zM230 610l285 -497l43 497h-328zM482 55l-285 497l-43 -497h328z" />
    <glyph glyph-name="glyph1" horiz-adv-x="0" 
 />
    <glyph glyph-name="glyph2" horiz-adv-x="250" 
 />
    <glyph glyph-name="space" unicode=" " horiz-adv-x="250" 
 />
    <glyph glyph-name="exclam" unicode="!" horiz-adv-x="256" 
d="M216 663q-4 -41 -11.5 -101.5t-16.5 -127t-19.5 -133t-20.5 -120.5h-48q3 50 6 116t5.5 133.5t4 129.5t3.5 103q21 7 40 11t42 4zM121 110q8 0 16.5 -1t14.5 -3q5 -10 8 -18.5t3 -20.5q0 -18 -6.5 -34t-15.5 -33h-68l-5 103q8 2 23 4.5t30 2.5z" />
    <glyph glyph-name="quotedbl" unicode="&#x22;" horiz-adv-x="379" 
d="M320 514h-51v205q17 6 38.5 10t42.5 4l14 -14zM172 514h-51v205q17 6 38.5 10t42.5 4l14 -14z" />
    <glyph glyph-name="numbersign" unicode="#" horiz-adv-x="516" 
d="M377 206h88v-68l-102 -13l-24 -138h-43l-14 14l22 128h-140l-24 -142h-44l-13 14l22 128h-73v67l87 13l30 179h-86v68l100 13l24 139h44l13 -14l-22 -129h139l25 143h43l14 -14l-22 -129h73v-67l-87 -13zM348 388h-139l-31 -182h139z" />
    <glyph glyph-name="dollar" unicode="$" horiz-adv-x="473" 
d="M265 339q39 -24 67 -44t46 -40.5t27 -43t9 -52.5q0 -28 -8 -54.5t-28.5 -47.5t-54.5 -34.5t-85 -15.5l-8 -132l-47 -5l-8 6l13 132q-48 3 -82 14t-57 23q-3 19 -4.5 34.5t-1.5 33.5t1.5 38.5t3.5 43.5l55 5l27 -130q30 -11 63 -12l21 215q-62 38 -93.5 73.5t-31.5 91.5
q0 68 42 105.5t109 43.5l8 133l46 5l8 -6l-13 -132q18 -2 34 -6t30 -10l1 9q14 4 24.5 6t23.5 2l20 -13q1 -5 1.5 -12t0.5 -17q0 -27 -4.5 -63.5t-10.5 -66.5h-52l-6 114q-17 4 -34.5 5.5t-32.5 2.5zM165 450q0 -30 14 -47.5t47 -39.5l11 172q-9 -1 -17 -3t-15 -4
q-40 -26 -40 -78zM303 73q14 11 22 28t8 49q0 18 -3.5 30.5t-13 23t-25 21t-39.5 25.5l-11 -192q17 1 33 4t29 11z" />
    <glyph glyph-name="percent" unicode="%" horiz-adv-x="806" 
d="M671 596q-132 -156 -243 -312.5t-202 -305.5l-44 22l-4 13q39 56 91.5 130t108 148t107.5 140t88 107l-8 7q-39 -38 -76 -49.5t-72 -11.5q-42 0 -78 12q5 -28 5 -51q0 -32 -8 -68t-26.5 -67t-50 -51.5t-78.5 -20.5q-35 0 -59 11.5t-39 31.5t-22 47t-7 57q0 46 12 85
t32.5 68t47 47t55.5 23l11 -35q-39 -17 -63 -63t-24 -121q0 -57 16 -83t51 -26q21 0 42 8q15 14 24.5 36.5t15 47t8 47.5t2.5 37q0 21 -4 42.5t-10 40.5q-9 8 -16.5 18.5t-15.5 22.5q16 22 33 32h18q10 -14 18 -28t14 -29q26 -14 53.5 -18.5t47.5 -4.5q40 0 90 19.5
t112 78.5l44 -22zM638 355q34 0 58 -11.5t39.5 -31.5t22.5 -46.5t7 -56.5q0 -33 -9 -72t-30 -72.5t-54 -55.5t-81 -22q-33 0 -57 11.5t-39.5 31t-22.5 46t-7 56.5q0 33 9 72t29.5 72.5t53.5 56t81 22.5zM645 37q15 14 24.5 36.5t15 47t8 48t2.5 41.5q0 55 -18 79t-49 24
q-21 0 -43 -8q-14 -15 -23.5 -37t-15 -46t-8 -48t-2.5 -42q0 -103 67 -103q21 0 42 8z" />
    <glyph glyph-name="ampersand" unicode="&#x26;" horiz-adv-x="673" 
d="M554 319q-1 -74 -30.5 -128.5t-68.5 -95.5q42 -41 86.5 -77t89.5 -65l-18 -36q-51 8 -106 42.5t-108 85.5q-35 -24 -79.5 -41t-102.5 -17q-40 0 -74.5 9.5t-60.5 29.5t-41 51t-15 75q0 40 12.5 71t35 54.5t53 40t67.5 26.5q-16 39 -24.5 76t-8.5 70q0 46 16.5 81.5t43 59
t60 35.5t66.5 12q57 0 91.5 -32.5t34.5 -87.5q0 -33 -13 -66t-37.5 -63t-59.5 -55.5t-80 -43.5q26 -57 64 -110.5t85 -101.5q13 22 22.5 45.5t16 52t9.5 62.5t3 78q35 10 75 16.5t75 8.5l15 -16v-46h-94zM279 620q-14 -18 -24 -49t-10 -75q0 -68 26 -135q39 27 62.5 54
t35.5 52t16 47.5t4 40.5q0 41 -14 58.5t-43 17.5q-12 0 -26.5 -3t-26.5 -8zM110 167q0 -33 11 -57.5t30 -40.5t44 -24t52 -8q28 0 60.5 8.5t65.5 25.5q-51 54 -94.5 117t-72.5 127q-96 -58 -96 -148z" />
    <glyph glyph-name="quotesingle" unicode="'" horiz-adv-x="231" 
d="M172 514h-51v205q17 6 38.5 10t42.5 4l14 -14z" />
    <glyph glyph-name="parenleft" unicode="(" horiz-adv-x="289" 
d="M266 735q-41 -76 -66.5 -149.5t-40 -142.5t-20 -133t-5.5 -121q0 -52 3.5 -97.5t11 -89t19 -86.5t26.5 -89l-35 -16q-25 41 -43.5 88t-30.5 97.5t-18 103t-6 104.5q0 56 7.5 126t27 143.5t53 146t84.5 133.5z" />
    <glyph glyph-name="parenright" unicode=")" horiz-adv-x="288" 
d="M137 753q25 -41 43.5 -88t30.5 -97.5t18 -103t6 -104.5q0 -56 -9 -126t-29 -143.5t-54 -146t-83 -133.5l-33 18q39 76 65 149.5t41.5 142.5t22 133t6.5 121q0 52 -4 97.5t-11.5 89t-18.5 86.5t-26 89z" />
    <glyph glyph-name="asterisk" unicode="*" horiz-adv-x="458" 
d="M306 566q23 -17 44.5 -38.5t32.5 -38.5q6 -9 9 -15.5t7 -15.5l-42 -34l-19 -9q-15 12 -23 25q-9 14 -21 43.5t-21 58.5zM253 544q-11 -26 -27.5 -56t-30.5 -47q-7 -8 -12.5 -13.5t-13.5 -12.5l-40 26l-14 16q6 12 10.5 19t8.5 12q12 15 38 38t51 41zM324 777q1 -5 1 -9
v-8q0 -53 -32 -126h-39q-5 23 -8 46.5t-3 43.5q0 17 2 30t7 27h51zM107 684q10 -1 19.5 -3t14.5 -4q18 -6 44.5 -21.5t50.5 -32.5l-15 -37q-29 0 -60.5 4t-51.5 11q-14 5 -31 14l18 51zM463 615q-9 -5 -17.5 -9t-15.5 -6q-19 -6 -51 -10.5t-63 -5.5l-9 37q25 17 53.5 32
t51.5 23q17 6 34 7l15 -46z" />
    <glyph glyph-name="plus" unicode="+" 
d="M529 305l-5 -40h-182l-24 -207h-48l-15 7l23 200h-182v17l5 40h183l24 206h46l17 -7l-23 -199h181v-17z" />
    <glyph glyph-name="comma" unicode="," horiz-adv-x="217" 
d="M87 100q16 0 28 -2.5t23 -10.5q5 -9 8 -24.5t3 -34.5q0 -24 -6 -51t-22.5 -53t-46 -48.5t-75.5 -37.5l-13 27q20 10 39 23.5t33.5 29t23.5 33.5t9 36v12l-43 8l6 90q16 3 33 3z" />
    <glyph glyph-name="hyphen" unicode="-" horiz-adv-x="324" 
d="M273 262h-217v19l5 44h217v-19z" />
    <glyph glyph-name="period" unicode="." horiz-adv-x="217" 
d="M95 113q8 0 16.5 -1t14.5 -3q5 -10 8 -19t3 -21q0 -18 -6.5 -35t-15.5 -34h-68l-5 106q8 2 23 4.5t30 2.5z" />
    <glyph glyph-name="slash" unicode="/" horiz-adv-x="297" 
d="M33 -182h-46l-10 10l291 892h46l10 -10z" />
    <glyph glyph-name="zero" unicode="0" horiz-adv-x="538" 
d="M310 607q49 0 84 -19.5t57.5 -53t32.5 -78t10 -93.5q0 -56 -13.5 -122t-43.5 -122.5t-78.5 -94t-118.5 -37.5q-49 0 -84 19.5t-57.5 53t-33 78t-10.5 94.5q0 37 6 79t18.5 84t32.5 80t48.5 67.5t65.5 47t84 17.5zM298 560q-18 0 -34.5 -4t-32.5 -12q-26 -25 -43.5 -65
t-28 -85.5t-15.5 -91.5t-5 -84q0 -94 28 -139t85 -45q36 0 68 16q26 25 43 65.5t27.5 86t15 91t4.5 81.5q0 94 -27 140t-85 46z" />
    <glyph glyph-name="one" unicode="1" horiz-adv-x="358" 
d="M306 22l-3 -22h-279v40q24 7 55 11.5t55 5.5l42 435q-23 -9 -53 -12.5t-58 -4.5v24l4 26q36 2 80 19.5t82 62.5l30 -9l-53 -551l98 -5v-20z" />
    <glyph glyph-name="two" unicode="2" horiz-adv-x="439" 
d="M376 122q3 -26 3 -45q0 -51 -19 -94h-51q-21 0 -54.5 2t-69.5 6t-70 10t-56 14l-38 -28q-20 5 -36 16l-1 12q43 36 100 84t109 103t88 115t36 120q0 29 -9 49t-23.5 32.5t-33 18t-37.5 5.5q-41 0 -70.5 -24t-29.5 -76q0 -11 1.5 -24t6.5 -30l-32 -13q-20 20 -29 38.5
t-9 43.5q0 32 14 59.5t38 48t56.5 32t69.5 11.5q38 0 69.5 -12.5t54 -34.5t35 -52.5t12.5 -65.5q0 -50 -23.5 -100t-64 -99.5t-94.5 -98.5t-114 -96h199l22 79z" />
    <glyph glyph-name="three" unicode="3" horiz-adv-x="465" 
d="M298 274q96 -38 96 -144q0 -47 -17.5 -86t-48.5 -67.5t-74.5 -44t-95.5 -15.5q-67 0 -133 26l7 39q46 -6 83 -6q104 0 149.5 41t45.5 112q0 40 -17 70t-64 47q-19 -6 -39.5 -11t-37.5 -7l-15 12q-3 12 -3 24q0 6 0.5 11.5t1.5 10.5q1 2 8 3.5t16.5 2.5t20.5 1.5t21 0.5
h14q7 0 13 -1q19 10 36.5 24t31 32t22 40t8.5 50t-9 48t-23.5 32t-33.5 17.5t-39 5.5q-29 0 -50 -9.5t-34.5 -25t-19.5 -34.5t-6 -37v-10q0 -5 1 -12l-34 -5q-11 17 -16 32t-5 32q0 26 12.5 50.5t35.5 43t56.5 30t74.5 11.5q43 0 75.5 -12.5t54.5 -34.5t33 -52t11 -66
q0 -35 -10 -61t-26 -45t-36.5 -31.5t-40.5 -21.5v-10z" />
    <glyph glyph-name="four" unicode="4" horiz-adv-x="482" 
d="M446 132l-5 -38h-89q-5 -42 -8.5 -82t-6.5 -82h-75q3 42 6.5 82t8.5 82h-245l-15 35q46 94 90 186t79 186l-25 92l68 18q17 -16 26 -33t9 -40q0 -24 -10.5 -56.5t-32.5 -78t-57 -106.5t-84 -143l4 -9q28 2 54.5 4t54.5 2h90q5 42 10.5 82.5t12.5 82.5q28 16 62 22l13 -11
q-7 -45 -12.5 -88t-10.5 -88h88v-19z" />
    <glyph glyph-name="five" unicode="5" horiz-adv-x="445" 
d="M162 341q56 0 98.5 -15.5t71 -43t42.5 -64.5t14 -80q0 -48 -17 -88.5t-47 -70t-72.5 -46t-93.5 -16.5q-65 0 -131 26l8 44q43 -6 80 -6q101 0 145.5 44t44.5 115q0 40 -13.5 66.5t-42 43t-72.5 25.5t-104 14l35 307l56 12q20 -9 48 -16.5t59 -7.5q27 0 64 6.5t69 17.5
l10 -33q-31 -31 -70.5 -49t-87.5 -18q-28 0 -54.5 6t-49.5 16l-28 -190q11 1 20 1h18z" />
    <glyph glyph-name="six" unicode="6" horiz-adv-x="521" 
d="M400 678q19 0 36.5 -2t35.5 -6l1 -38q-92 0 -155.5 -32.5t-103 -88.5t-57.5 -130.5t-18 -159.5q0 -24 3 -56t14 -61t34 -49.5t63 -20.5q30 0 65 13q38 31 54.5 77.5t16.5 99.5q0 36 -6.5 60.5t-18.5 39.5t-28.5 21t-35.5 6q-26 0 -51 -7.5t-42 -15.5l-7 33q31 30 62.5 40
t58.5 10q32 0 59.5 -10.5t48 -31.5t32.5 -53.5t12 -77.5q0 -58 -19.5 -104.5t-52.5 -79t-76 -50t-90 -17.5q-61 0 -96.5 27t-54 66t-24 81.5t-5.5 73.5q0 84 24 163.5t68.5 142t108.5 100t144 37.5z" />
    <glyph glyph-name="seven" unicode="7" horiz-adv-x="459" 
d="M483 575q-84 -119 -140 -211.5t-90.5 -159.5t-50.5 -109t-20 -60l16 -97l-65 -22q-15 8 -27.5 28t-12.5 49q0 40 24 96t65 125t96 149t116 168h-250l-22 -79h-50q-2 14 -3.5 29.5t-1.5 31.5q0 52 16 91q43 0 91 -2t93.5 -6t85 -10t65.5 -14l22 31q10 -2 21 -6.5t19 -9.5z
" />
    <glyph glyph-name="eight" unicode="8" horiz-adv-x="507" 
d="M329 342q24 -15 44.5 -29t36 -31.5t24.5 -40t9 -53.5q0 -34 -12 -69.5t-38 -65t-67.5 -48t-101.5 -18.5q-80 0 -129.5 38t-49.5 118q0 42 13.5 73.5t34.5 55t46 39t49 25.5v10q-19 12 -36 25.5t-30.5 31t-21.5 39.5t-8 51q0 36 13.5 69.5t39.5 59t64 41t86 15.5
q36 0 67 -9t53.5 -28t35.5 -47t13 -65q0 -40 -14 -69t-34 -50t-44 -35t-43 -23v-10zM175 510q0 -45 28 -74t74 -57l11 -7q50 30 72 68.5t22 85.5q0 46 -21.5 75t-69.5 29q-38 0 -72 -16q-20 -17 -32 -45.5t-12 -58.5zM311 51q22 18 35 50t13 66q0 23 -7 41t-22.5 34.5
t-39.5 33.5t-58 38l-7 4q-27 -15 -45.5 -34t-30.5 -41t-17 -46t-5 -47q0 -53 25.5 -84t80.5 -31q20 0 41 4t37 12z" />
    <glyph glyph-name="nine" unicode="9" horiz-adv-x="523" 
d="M298 608q61 0 96.5 -27t54 -66t24 -81.5t5.5 -73.5q0 -84 -24 -163.5t-68.5 -142t-108.5 -100t-144 -37.5q-19 0 -36.5 2t-35.5 6l-1 38q91 0 155 32.5t103.5 88.5t57.5 130.5t18 159.5q0 24 -3 55t-14 59t-34 47.5t-63 19.5q-30 0 -65 -13q-38 -31 -54.5 -77.5
t-16.5 -99.5q0 -36 6.5 -60t18.5 -39t28 -21t35 -6q27 0 52 9.5t42 18.5l7 -33q-31 -30 -62.5 -40t-58.5 -10q-32 0 -59.5 10.5t-48 31.5t-32.5 53.5t-12 77.5q0 58 19.5 104.5t52.5 79t76 50t90 17.5z" />
    <glyph glyph-name="colon" unicode=":" horiz-adv-x="217" 
d="M95 113q8 0 16.5 -1t14.5 -3q5 -10 8 -19t3 -21q0 -18 -6.5 -35t-15.5 -34h-68l-5 106q8 2 23 4.5t30 2.5zM133 505q8 0 16.5 -1t14.5 -3q5 -10 8 -19t3 -21q0 -18 -6.5 -35t-15.5 -34h-68l-5 106q8 2 23 4.5t30 2.5z" />
    <glyph glyph-name="semicolon" unicode=";" horiz-adv-x="217" 
d="M87 100q16 0 28 -2.5t23 -10.5q5 -9 8 -24.5t3 -34.5q0 -24 -6 -51t-22.5 -53t-46 -48.5t-75.5 -37.5l-13 27q20 10 39 23.5t33.5 29t23.5 33.5t9 36v12l-43 8l6 90q16 3 33 3zM133 505q8 0 16.5 -1t14.5 -3q5 -10 8 -19t3 -21q0 -18 -6.5 -35t-15.5 -34h-68l-5 106
q8 2 23 4.5t30 2.5z" />
    <glyph glyph-name="less" unicode="&#x3c;" 
d="M184 296v-10l311 -187l-27 -58l-375 217l7 72l425 217l22 -54z" />
    <glyph glyph-name="equal" unicode="=" 
d="M512 165h-428v17l5 40h428v-17zM535 365h-428v17l5 40h428v-17z" />
    <glyph glyph-name="greater" unicode="&#x3e;" 
d="M525 258l-425 -217l-22 54l363 197v10l-311 187l27 58l375 -217z" />
    <glyph glyph-name="question" unicode="?" horiz-adv-x="330" 
d="M157 670q47 0 79.5 -15.5t53 -40.5t29.5 -57.5t9 -65.5q0 -22 -5.5 -46.5t-23.5 -50.5t-52.5 -53t-91.5 -53l-13 -107h-51q-2 16 -5 37.5t-3 43.5q0 24 5 40.5t16 29t29.5 24.5t44.5 27q28 17 47.5 31t31 27.5t16.5 28.5t5 35q0 14 -3 38q-26 20 -70 33.5t-113 13.5l8 75
q15 2 29 3.5t28 1.5zM122 110q8 0 16.5 -1t14.5 -3q5 -10 8 -18.5t3 -20.5q0 -18 -6.5 -34t-15.5 -33h-68l-5 103q8 2 23 4.5t30 2.5z" />
    <glyph glyph-name="at" unicode="@" horiz-adv-x="861" 
d="M510 698q81 0 141.5 -23t101 -65t60.5 -101t20 -130q0 -77 -21.5 -137t-56.5 -101.5t-79 -63t-89 -21.5q-23 0 -39.5 8.5t-16.5 34.5q0 10 3 28.5t9 48.5t14.5 74t19.5 105l-10 2q-28 -93 -50 -153.5t-44.5 -95t-48 -48t-58.5 -13.5q-26 0 -48.5 7.5t-39.5 25t-26.5 47
t-9.5 73.5q0 50 14 105.5t42.5 101.5t72.5 76t105 30q28 0 53 -7.5t42 -27.5l3 28q11 4 28.5 5.5t31.5 1.5l17 -11l-45 -397q78 12 120 80.5t42 176.5q0 63 -15.5 115.5t-46.5 90.5t-78.5 59t-111.5 21q-74 0 -143.5 -28.5t-123.5 -82t-86.5 -130t-32.5 -172.5
q0 -86 27 -146t75 -98t115 -55t147 -17v-36q-19 -5 -38.5 -7.5t-47.5 -2.5q-73 0 -138 21.5t-114 65.5t-78 111.5t-29 159.5q0 99 34.5 184.5t95.5 148.5t145.5 98.5t185.5 35.5zM415 104q18 22 34 51.5t33.5 69.5t36.5 92.5t43 120.5q-20 12 -43.5 18.5t-46.5 6.5
q-16 0 -32 -2.5t-27 -6.5q-24 -23 -41 -53t-27.5 -64t-15 -70t-4.5 -70q0 -57 14.5 -76t49.5 -19h11q7 0 15 2z" />
    <glyph glyph-name="A" unicode="A" horiz-adv-x="638" 
d="M608 23l-3 -23h-224v39q14 7 35 12t37 7l-33 141h-232l-59 -151l75 -5v-20l-3 -23h-205v39q15 8 36.5 13t37.5 7q59 143 120 284.5t128 284.5l-11 47l16 13q17 0 34 -1.5t30 -6.5q36 -159 74 -316.5t80 -316.5l67 -4v-20zM408 249q-17 74 -33 147t-32 147h-10
q-34 -74 -65 -147t-60 -147h200z" />
    <glyph glyph-name="B" unicode="B" horiz-adv-x="565" 
d="M387 340q62 -17 89.5 -50.5t27.5 -90.5q0 -38 -13 -74t-42.5 -64t-76.5 -44.5t-114 -16.5h-233v39q19 7 41 12t44 8l47 552l-80 5v20l3 24q23 2 50.5 4t54 3.5t50 2t39.5 0.5q61 0 105 -11t71.5 -31.5t40.5 -49.5t13 -65q0 -58 -30 -100t-87 -63v-10zM216 368h133
q11 9 23 23.5t21.5 33.5t15.5 42t6 49q0 51 -30 77.5t-106 26.5h-41zM382 75q10 10 16.5 26t10 33.5t5 34.5t1.5 29q0 28 -6 50.5t-21.5 38.5t-41.5 24.5t-65 8.5h-69l-24 -270h75q37 0 68 5.5t51 19.5z" />
    <glyph glyph-name="C" unicode="C" horiz-adv-x="581" 
d="M273 606q-27 -16 -50.5 -48t-41 -75.5t-27.5 -96.5t-10 -110q0 -62 11 -104.5t31.5 -69t50 -38.5t67.5 -12q16 0 38.5 5t48 15.5t53 27.5t54.5 42l19 -37q-54 -60 -116.5 -89t-121.5 -29q-60 0 -103 20.5t-70 58t-40 89.5t-13 115q0 77 20.5 150.5t61 130.5t101 92
t141.5 35q32 0 55.5 -6.5t42.5 -17.5l1 16q14 4 24.5 6t23.5 2l20 -13q1 -5 1.5 -12t0.5 -17q0 -27 -4.5 -64.5t-10.5 -75.5h-52l-5 110q-24 9 -52.5 14t-54.5 5q-44 0 -94 -19z" />
    <glyph glyph-name="D" unicode="D" horiz-adv-x="637" 
d="M299 670q86 0 144 -21t93 -58.5t50 -90.5t15 -116q0 -62 -15 -129.5t-52 -124t-100.5 -93.5t-159.5 -37h-249v39q19 7 41 12t44 8l47 552l-80 5v20l3 24q27 2 58.5 4t62 3.5t56.5 2t42 0.5zM416 89q27 28 45 63.5t29 75t15.5 80t4.5 78.5q0 118 -43.5 177t-145.5 58
l-84 -1l-49 -570h77q52 0 87 10t64 29z" />
    <glyph glyph-name="E" unicode="E" horiz-adv-x="556" 
d="M214 366l181 7l10 -18l-6 -46l-189 8l-23 -271h209l34 107l53 -6q1 -11 1.5 -20.5t0.5 -21.5q0 -29 -5 -56t-18 -64l-13 -1l-298 16h-127v39q19 7 41 12t44 8l47 552l-80 4v20l4 25q57 2 116.5 3.5t116.5 1.5h150q13 5 26 9t25 4l20 -13q1 -5 1.5 -12t0.5 -17
q0 -27 -4.5 -61.5t-10.5 -64.5h-52l-5 98l-229 10z" />
    <glyph glyph-name="F" unicode="F" horiz-adv-x="518" 
d="M522 665q1 -5 1.5 -12t0.5 -17q0 -27 -4.5 -61.5t-10.5 -64.5h-52l-5 98l-216 10l-23 -272l182 7l10 -18l-6 -46l-191 8l-21 -248l91 -5v-21l-3 -23h-251v39q17 8 42 13t43 7l47 552l-80 4v20l4 25q57 2 116.5 3.5t116.5 1.5h138q13 5 26 9t25 4z" />
    <glyph glyph-name="G" unicode="G" horiz-adv-x="624" 
d="M582 250q-19 -9 -46 -13l-19 -236l-19 -13q-16 0 -26 1.5t-21 6.5l-4 35q-32 -24 -70 -34t-78 -10q-121 0 -183 76t-62 210q0 76 20.5 148.5t61 129.5t101 92t140.5 35q35 0 62.5 -6t47.5 -17l1 15q14 4 24.5 6t23.5 2l20 -13q1 -5 1.5 -12t0.5 -17q0 -27 -4.5 -64.5
t-10.5 -75.5h-52l-5 111q-23 8 -55.5 13t-58.5 5q-49 0 -99 -19q-27 -16 -50.5 -48t-41 -75.5t-27.5 -96.5t-10 -110q0 -47 8 -90t27.5 -75.5t52 -51.5t80.5 -19q34 0 71 10t65 28l10 162l-79 4v21l4 24h199v-39z" />
    <glyph glyph-name="H" unicode="H" horiz-adv-x="705" 
d="M701 626q-18 -8 -42.5 -13t-44.5 -7l-49 -558l82 -5v-20l-3 -23h-242v39q17 8 42 13t43 7l22 259h-298l-23 -270l82 -5v-20l-3 -23h-242v39q17 8 42 13t43 7l47 558l-80 5v20l3 23h244v-39q-18 -8 -43 -13t-45 -7l-21 -239h298l21 250l-80 5v20l3 23h244v-39z" />
    <glyph glyph-name="I" unicode="I" horiz-adv-x="328" 
d="M324 626q-18 -8 -42.5 -13t-44.5 -7l-49 -558l82 -5v-20l-3 -23h-242v39q17 8 42 13t43 7l47 558l-80 5v20l3 23h244v-39z" />
    <glyph glyph-name="J" unicode="J" horiz-adv-x="433" 
d="M433 626q-19 -8 -43 -13t-44 -7l-44 -496q-5 -52 -15 -92.5t-29.5 -68.5t-50.5 -43t-77 -15q-52 0 -96.5 17.5t-70.5 47.5l17 41q50 -20 106 -32.5t99 -14.5q11 16 20 45.5t14 86.5l47 533l-143 5v20l4 25h306v-39z" />
    <glyph glyph-name="K" unicode="K" horiz-adv-x="639" 
d="M633 626q-16 -6 -36.5 -11.5t-39.5 -7.5q-45 -65 -93 -129t-104 -130q36 -89 75.5 -166.5t72.5 -127.5l72 4l6 -41q-47 -25 -88 -25q-33 0 -51 15.5t-32 35.5q-26 40 -54.5 110t-51.5 158h-99l-22 -263l82 -5v-20l-3 -23h-242v39q17 8 42 13t43 7l47 558l-80 5v20l3 23
h244v-39q-18 -8 -43 -13t-45 -7l-22 -249l102 6q48 63 90.5 127t80.5 127l-81 5v20l3 23h224v-39z" />
    <glyph glyph-name="L" unicode="L" horiz-adv-x="517" 
d="M469 147q1 -11 1.5 -20.5t0.5 -21.5q0 -29 -5 -56t-18 -64l-13 -1l-282 16h-128v39q19 7 41 12t44 8l47 558l-80 5v20l3 23h254v-39q-20 -8 -47.5 -13t-49.5 -7l-49 -560h194l34 107z" />
    <glyph glyph-name="M" unicode="M" horiz-adv-x="836" 
d="M819 626q-19 -8 -44.5 -13t-45.5 -7q-2 -60 -4 -131t-5 -144.5t-6 -146t-6 -135.5l82 -6v-20l-3 -23h-240v39q17 7 40 12t41 7q5 64 10 137t10 145.5t9 140.5t6 122h-10q-21 -46 -44.5 -102.5t-51.5 -126t-61 -154.5t-72 -187q-20 -11 -44 -14l-15 4q-20 100 -40 193.5
t-37.5 171t-30.5 133.5t-19 82h-10q-7 -50 -15.5 -118.5t-18 -143.5t-18 -151.5t-15.5 -140.5l86 -6v-20l-3 -23h-228v39q16 7 41 12t44 7q8 63 17.5 136t20 147t20.5 143.5t19 125.5l-85 6v20l3 23q52 4 100.5 5t108.5 1q11 -41 26 -103.5t30 -133.5t28.5 -143.5
t22.5 -133.5h10q44 125 92 252.5t108 261.5h197v-39z" />
    <glyph glyph-name="N" unicode="N" horiz-adv-x="703" 
d="M703 626q-17 -8 -43 -13t-44 -7l-54 -606q-14 -5 -27 -7t-27 -4h-17l-202 436q-45 98 -73 175h-10l-35 -551l86 -6v-20l-3 -23h-228v39q18 8 42.5 13.5t41.5 6.5l48 551l-81 6v20l3 23q24 1 46 2.5t44 2t46 1t52 0.5l166 -359q26 -54 46 -103.5t37 -87.5h10l28 501l-86 6
v20l3 23h231v-39z" />
    <glyph glyph-name="O" unicode="O" horiz-adv-x="659" 
d="M378 678q119 0 182.5 -77.5t63.5 -212.5q0 -75 -20 -147t-60.5 -128.5t-101.5 -91t-142 -34.5q-119 0 -182.5 77.5t-63.5 212.5q0 75 20 147t60.5 128.5t101.5 91t142 34.5zM365 625q-23 0 -44 -4.5t-47 -14.5q-27 -16 -50.5 -48t-41 -75.5t-27.5 -96.5t-10 -110
q0 -47 8 -90t27.5 -75.5t52 -51.5t80.5 -19q23 0 44 4.5t47 14.5q27 16 50.5 48t41 75.5t27.5 96.5t10 110q0 47 -8 90t-27.5 75.5t-52 51.5t-80.5 19z" />
    <glyph glyph-name="P" unicode="P" horiz-adv-x="531" 
d="M285 667q71 0 115.5 -15.5t69 -41.5t33.5 -59.5t9 -68.5q0 -60 -17 -103t-45.5 -70.5t-66 -40t-77.5 -12.5q-13 0 -25 1t-23 3v41q41 2 65.5 6t44.5 11q28 29 40.5 69.5t12.5 90.5q0 32 -5.5 58.5t-20.5 45t-41 28.5t-66 10h-53l-48 -571l103 -5v-21l-3 -23h-263v39
q17 8 42 13t43 7l48 552l-81 4v20l4 25q48 2 102.5 4.5t102.5 2.5z" />
    <glyph glyph-name="Q" unicode="Q" horiz-adv-x="662" 
d="M378 678q60 0 106 -20.5t77 -58.5t47 -92t16 -122q0 -66 -15 -131.5t-44.5 -119.5t-73 -91.5t-101.5 -46.5l-1 -10q39 -30 75 -50t70.5 -32.5t70.5 -18t75 -5.5q15 0 35.5 1t47.5 3l4 -38q-22 -11 -55 -20t-79 -9q-59 0 -106 15.5t-83.5 39t-61.5 51.5t-38 53v39
q49 15 84.5 48t58.5 80.5t34.5 106.5t11.5 127q0 49 -7 94t-26 79.5t-51 54.5t-83 20q-23 0 -44.5 -4.5t-47.5 -14.5q-27 -16 -50.5 -48t-41 -75.5t-27.5 -96.5t-10 -110q0 -97 35 -162.5t121 -87.5l-11 -39q-117 5 -176.5 83.5t-59.5 209.5q0 73 20 144.5t60.5 128
t101.5 91t142 34.5z" />
    <glyph glyph-name="R" unicode="R" horiz-adv-x="592" 
d="M568 17q-47 -25 -88 -25q-33 0 -51 15.5t-32 35.5q-26 40 -51 100.5t-46 135.5h-92l-18 -231l86 -5v-20l-3 -23h-248v39q17 8 42 13t43 7l47 552l-80 5v20l3 24q27 2 55 4t55 3.5t50 2t39 0.5q65 0 110 -13t73.5 -36t41 -55.5t12.5 -71.5t-11 -71t-31 -58t-47.5 -46
t-59.5 -33q30 -70 62.5 -131.5t60.5 -100.5l72 4zM345 331q46 33 63.5 76t17.5 86q0 65 -34 94.5t-105 29.5h-50l-24 -286h132z" />
    <glyph glyph-name="S" unicode="S" horiz-adv-x="503" 
d="M218 614q-19 -12 -32 -34.5t-13 -55.5q0 -25 8.5 -44.5t22.5 -36.5t33.5 -32t42.5 -30l30 -20q25 -17 49.5 -36.5t43.5 -43.5t31 -53.5t12 -68.5q0 -32 -10.5 -63t-35 -55t-66 -39t-103.5 -15q-63 0 -107.5 13.5t-75.5 28.5q-4 21 -5.5 38.5t-1.5 36.5t1.5 38.5t4.5 43.5
l53 5l26 -130q24 -12 49.5 -16.5t56.5 -4.5q27 0 51.5 3.5t42.5 14.5q15 13 24 35t9 51q0 27 -7.5 46.5t-21 35.5t-31 29.5t-38.5 27.5l-32 22q-65 44 -100.5 90t-35.5 110q0 42 15 74t41 54t61 33.5t76 11.5q34 0 59 -7t45 -18l1 17q14 4 24.5 6t23.5 2l20 -13
q1 -5 1.5 -12t0.5 -17q0 -27 -4.5 -63.5t-10.5 -66.5h-52l-5 101q-23 8 -50.5 13t-51.5 5q-16 0 -34.5 -2.5t-34.5 -8.5z" />
    <glyph glyph-name="T" unicode="T" horiz-adv-x="536" 
d="M546 665q1 -5 1.5 -12t0.5 -17q0 -27 -4.5 -61.5t-10.5 -64.5h-52l-5 99l-127 7l-48 -568l90 -5v-20l-3 -23h-261v39q20 8 46 13t48 7l49 560h-119l-34 -112l-48 5q-1 11 -1.5 20.5t-0.5 21.5q0 29 5 59t18 67l13 1l210 -16h162q13 5 26 9t25 4z" />
    <glyph glyph-name="U" unicode="U" horiz-adv-x="660" 
d="M677 626q-18 -8 -45 -14t-45 -6q-3 -49 -7 -103.5t-7.5 -106.5t-7.5 -97.5t-8 -75.5q-14 -114 -73.5 -175t-165.5 -61q-102 0 -155 56.5t-53 165.5q0 28 3 75t8 103.5t11 116t11 112.5l-81 6v20l3 23h245v-39q-19 -7 -43 -12t-44 -7q-6 -64 -12.5 -125.5t-11 -115
t-7.5 -96.5t-3 -70q0 -86 33.5 -123t102.5 -37q31 0 57.5 6t48.5 17q23 20 40 59t25 108l7 77q5 47 9 99.5t7.5 107t6.5 102.5l-78 6v20l3 23h226v-39z" />
    <glyph glyph-name="V" unicode="V" horiz-adv-x="626" 
d="M649 626q-12 -6 -29 -10.5t-32 -7.5q-21 -67 -53 -149.5t-67 -166t-69.5 -160.5t-60.5 -132q-14 -5 -28.5 -6.5t-29.5 -1.5l-18 12q-16 63 -35.5 143t-39.5 163.5t-39 164t-34 143.5l-65 4v20l3 23h225v-39q-15 -7 -36 -12t-38 -7q13 -65 28.5 -138t30.5 -144.5
t29 -136.5t24 -114h10q20 46 47 112.5t55.5 140.5t54.5 149.5t44 140.5l-85 5v20l3 23h205v-39z" />
    <glyph glyph-name="W" unicode="W" horiz-adv-x="951" 
d="M969 626q-12 -6 -29 -10.5t-32 -7.5q-20 -67 -50 -149.5t-63 -166t-66 -160.5t-58 -132q-14 -5 -28.5 -6.5t-29.5 -1.5l-18 12q-9 43 -20 95t-22 108t-21.5 114.5t-20.5 114.5h-10q-35 -113 -77.5 -217.5t-92.5 -218.5q-14 -5 -28.5 -6.5t-29.5 -1.5l-18 12
q-15 63 -32.5 143t-35 163.5t-34 164t-30.5 143.5l-65 4v20l3 23h225v-39q-15 -8 -36.5 -13t-37.5 -7q12 -65 24.5 -137.5t25.5 -144t25 -136.5t21 -114h10q16 38 36.5 92.5t42.5 115.5t44 124t41 118l-19 95l-42 3v20l3 23h205v-39q-16 -8 -38.5 -13t-38.5 -7
q12 -65 25 -137.5t25.5 -144t24.5 -136.5t21 -114h10q19 46 44 112.5t51.5 140.5t51 149.5t41.5 140.5l-85 5v20l3 23h205v-39z" />
    <glyph glyph-name="X" unicode="X" horiz-adv-x="647" 
d="M590 607q-51 -66 -100.5 -129.5t-105.5 -127.5q38 -71 78.5 -147t78.5 -156l65 -4v-20l-3 -23h-251v39q18 7 44.5 12.5t43.5 7.5q-31 69 -57.5 125.5t-52.5 104.5h-10q-46 -57 -87 -115.5t-87 -124.5l79 -6v-20l-3 -23h-212v39q14 7 33.5 12t33.5 7q27 35 56 71.5t58 72
t56.5 68.5t51.5 62q-41 75 -76.5 142.5t-70.5 142.5l-70 5v20l3 23h251v-39l-84 -18q29 -67 54.5 -120t47.5 -94h10q20 27 39 53.5t37.5 53.5t38 55t41.5 60l-77 6v20l3 23h201v-39q-12 -6 -27.5 -11.5t-29.5 -7.5z" />
    <glyph glyph-name="Y" unicode="Y" horiz-adv-x="616" 
d="M562 606q-42 -94 -95.5 -184.5t-114.5 -184.5l-17 -189l87 -5v-20l-3 -23h-258v39q9 4 21 7t25 6t25.5 4.5t22.5 2.5l16 180q-20 52 -40 103.5t-39.5 100t-38.5 92.5t-35 82l-69 5v20l3 23h234v-39q-15 -7 -38.5 -12t-43.5 -7q13 -33 29.5 -73.5t32.5 -82.5t31.5 -83
t27.5 -75h10q45 73 91 156.5t78 166.5l-76 6v20l3 23h208v-39q-17 -8 -38.5 -13.5t-38.5 -6.5z" />
    <glyph glyph-name="Z" unicode="Z" horiz-adv-x="551" 
d="M505 147q1 -11 1.5 -20.5t0.5 -21.5q0 -29 -5 -56t-18 -64l-13 -1l-349 16l-86 -1l-7 21q80 121 138.5 207t99.5 146.5t68 99.5t45 64.5t30 42t23 32.5l-3 7l-288 -11l-14 -98h-52q-3 24 -4.5 49t-1.5 45q0 38 6 61l21 13q13 0 24 -4t24 -9h392l8 -20
q-71 -107 -125 -187.5t-93.5 -139.5t-68 -100t-49.5 -71t-38 -52l-31 -42l4 -7h274l34 107z" />
    <glyph glyph-name="bracketleft" unicode="[" horiz-adv-x="294" 
d="M180 690q1 -14 0.5 -27.5t-0.5 -27.5q-2 -101 -7 -196.5t-12.5 -189t-18.5 -186.5t-24 -188l97 -5l-3 -46h-131l-22 19l71 897h153v-45z" />
    <glyph glyph-name="backslash" unicode="\" horiz-adv-x="458" 
d="M369.002 -182h45.9971l10 10l-290.982 892h-45.9971l-10 -10z" />
    <glyph glyph-name="bracketright" unicode="]" horiz-adv-x="293" 
d="M171 -176h-153v45l103 5v55q2 101 7 196.5t12.5 189t18 186.5t24.5 188l-97 5l3 46h131l22 -19z" />
    <glyph glyph-name="asciicircum" unicode="^" horiz-adv-x="423" 
d="M367 470l-115 175h-10l-137 -175l-50 34l175 229h72l123 -229z" />
    <glyph glyph-name="underscore" unicode="_" horiz-adv-x="411" 
d="M324 -133h-323v17l4 33h323v-17z" />
    <glyph glyph-name="grave" unicode="`" horiz-adv-x="233" 
d="M193 573l-110 144q14 18 29 30t36 20h24l68 -194h-47z" />
    <glyph glyph-name="a" unicode="a" horiz-adv-x="554" 
d="M544 57q-28 -29 -64 -47t-69 -18q-23 0 -39.5 11.5t-16.5 40.5q0 13 3.5 34t10 55t16 83t22.5 118l-11 3q-32 -109 -58 -177t-51.5 -106.5t-54 -52.5t-64.5 -14q-29 0 -53 8t-41 27.5t-26.5 51.5t-9.5 81q0 57 14 120t45 116t79 87.5t117 34.5q31 0 59.5 -9t48.5 -30
l3 31q11 5 25.5 6.5t30.5 1.5l19 -13l-51 -448q23 0 50.5 12.5t50.5 29.5zM217 41q19 22 38.5 56.5t40.5 82.5t45 111.5t52 144.5q-23 14 -50.5 22t-54.5 8q-18 0 -35.5 -3t-30.5 -7q-27 -26 -46 -62t-31 -77t-17.5 -84.5t-5.5 -83.5q0 -64 14.5 -87.5t48.5 -23.5q14 0 32 3
z" />
    <glyph glyph-name="b" unicode="b" horiz-adv-x="536" 
d="M368 513q29 0 53 -8t41 -27.5t26.5 -52.5t9.5 -82q0 -56 -13.5 -119t-44.5 -115.5t-81.5 -87t-123.5 -34.5q-20 0 -43 2.5t-46.5 7t-45.5 9.5t-40 11l67 665l-68 10l4 38q28 8 62.5 14.5t66.5 8.5l19 -13l-42 -332q-10 -69 -19 -125t-21 -117l11 -3q32 109 58 177
t51.5 106.5t54 52.5t64.5 14zM314 44q27 25 46 61.5t31 77.5t17.5 84.5t5.5 83.5q0 64 -14.5 87.5t-48.5 23.5q-13 0 -31 -3q-20 -22 -39 -56t-40.5 -83t-46 -115t-54.5 -152q25 -8 52.5 -13.5t53.5 -5.5q21 0 38 3t30 7z" />
    <glyph glyph-name="c" unicode="c" horiz-adv-x="430" 
d="M207 50q28 0 69 17t86 58l18 -36q-45 -51 -93.5 -76.5t-97.5 -25.5q-41 0 -70 17t-47.5 45.5t-27 65.5t-8.5 77q0 48 13 104.5t42 104.5t75.5 80t114.5 32q18 0 36 -3t34 -10t28.5 -19t18.5 -31l-34 -51l-119 66q-23 -3 -41 -12q-24 -20 -40 -51.5t-25.5 -67t-14 -71.5
t-4.5 -66q0 -40 6.5 -68t18 -45.5t27.5 -25.5t35 -8z" />
    <glyph glyph-name="d" unicode="d" horiz-adv-x="554" 
d="M544 57q-28 -29 -64 -47t-69 -18q-23 0 -39.5 11.5t-16.5 40.5q0 13 3.5 34t10 55t16 83t22.5 118l-11 3q-32 -109 -58 -177t-51.5 -106.5t-54 -52.5t-64.5 -14q-29 0 -53 8t-41 27.5t-26.5 51.5t-9.5 81q0 57 14 120t44.5 116t79.5 87.5t118 34.5q31 0 60 -8t49 -25
l20 202l-68 10l4 38q28 8 62.5 14.5t66.5 8.5l19 -13l-80 -688q23 0 51 12.5t51 29.5zM216 41q40 47 82 144.5t96 256.5q-23 11 -51 17.5t-54 6.5q-20 0 -37 -3t-30 -7q-27 -26 -46 -62t-31 -77t-17.5 -84.5t-5.5 -83.5q0 -64 14.5 -87.5t48.5 -23.5q13 0 31 3z" />
    <glyph glyph-name="e" unicode="e" horiz-adv-x="442" 
d="M209 50q32 0 76 21.5t87 63.5l18 -36q-47 -57 -98.5 -84.5t-102.5 -27.5q-41 0 -69.5 16.5t-47.5 44.5t-27.5 65t-8.5 78q0 49 12.5 105.5t41.5 104.5t75 80t114 32q66 0 100 -31.5t34 -85.5q0 -45 -23.5 -79t-64 -56t-93.5 -32.5t-111 -9.5l-1 -25q0 -77 25.5 -110.5
t63.5 -33.5zM204 453q-18 -15 -31.5 -37.5t-23 -49t-16 -55t-9.5 -55.5q103 11 154 41t51 98q0 29 -12.5 50t-50.5 21q-31 0 -62 -13z" />
    <glyph glyph-name="f" unicode="f" horiz-adv-x="285" 
d="M265 694q-9 -3 -17 -6t-16 -8q-5 -12 -10 -27t-9.5 -37t-9.5 -53t-9 -75h113v-20l-7 -31h-111l-39 -411q-12 -129 -55.5 -184t-114.5 -55q-38 0 -76 14t-63 41l17 41q34 -13 79.5 -27t95.5 -14q17 21 25 57t13 84l40 448l-76 6v38q16 5 38.5 10t42.5 9q10 84 34 135
t54 78.5t63.5 36.5t63.5 9q37 0 60.5 -10t41.5 -31l-21 -57z" />
    <glyph glyph-name="g" unicode="g" horiz-adv-x="484" 
d="M271 64q37 -13 66.5 -23t50 -22t31.5 -28t11 -41q0 -30 -16.5 -59t-50 -52.5t-83.5 -37.5t-116 -14q-88 0 -134 26.5t-46 77.5q0 28 14 52t37 43t52.5 34t60.5 26q-15 16 -15 38q0 20 11 40.5t31 40.5q-59 11 -89.5 49t-30.5 95q0 43 16.5 80t45 64.5t66 43.5t79.5 16
q32 0 58 -9t46 -25q34 103 102 103l26 -55l-105 -70q36 -44 36 -102q0 -34 -14 -68.5t-40.5 -62t-65.5 -45t-90 -17.5h-11l-8 -72zM139 312q0 -31 8 -51t20.5 -31.5t28 -16t30.5 -4.5q14 0 31 3t30 8q22 19 38 60t16 85q0 29 -7.5 48.5t-19.5 31t-27.5 16t-31.5 4.5
q-15 0 -31.5 -3.5t-30.5 -8.5q-23 -18 -38.5 -57.5t-15.5 -83.5zM339 -127q18 21 18 45q0 17 -9.5 30t-38.5 24l-113 44q-8 3 -15 6l-13 7q-41 -26 -70.5 -56.5t-29.5 -65.5q0 -36 31.5 -54.5t85.5 -18.5q38 0 80 9.5t74 29.5z" />
    <glyph glyph-name="h" unicode="h" horiz-adv-x="571" 
d="M555 57q-28 -29 -63.5 -47t-68.5 -18q-24 0 -41.5 12.5t-17.5 41.5q0 20 8 66t17 99.5t17 104t8 79.5q0 34 -14 50.5t-47 16.5h-13q-8 0 -19 -2q-45 -54 -90 -166t-99 -294q-11 -5 -25 -6.5t-30 -1.5l-19 13l69 677l-68 10l4 38q28 8 62.5 14.5t66.5 8.5l19 -13l-42 -332
q-8 -66 -15.5 -120t-18.5 -112l11 -3q31 102 56 168t50 104t52.5 53t64.5 15q51 0 85 -27.5t34 -93.5q0 -24 -5 -63.5t-12.5 -85.5t-16 -96t-16.5 -95q25 0 52 12.5t50 29.5z" />
    <glyph glyph-name="i" unicode="i" horiz-adv-x="268" 
d="M197 495q-2 -16 -5.5 -47t-8 -70t-9.5 -83.5t-10.5 -88.5t-10 -84t-7.5 -70q25 0 49.5 12.5t47.5 29.5l15 -37q-28 -29 -61.5 -47t-66.5 -18q-24 0 -41.5 12.5t-17.5 44.5q0 12 2.5 40t6.5 65t9 78.5t10 80.5t9 72t7 52h-81v38q30 12 69.5 21t73.5 12zM186 723
q16 0 27 -4q5 -10 8 -18.5t3 -19.5q0 -18 -6.5 -33t-15.5 -32h-64l-5 100q8 2 23 4.5t30 2.5z" />
    <glyph glyph-name="j" unicode="j" horiz-adv-x="253" 
d="M141 11q-13 -118 -56.5 -171t-112.5 -53q-32 0 -58.5 10t-43.5 29l17 41q26 -8 61 -16.5t73 -8.5q19 23 28 58.5t14 80.5l52 456h-81v38q30 12 70 21t74 12l19 -13zM167 723q16 0 27 -4q5 -10 8 -18.5t3 -19.5q0 -18 -6.5 -33t-15.5 -32h-64l-5 100q8 2 23 4.5t30 2.5z
" />
    <glyph glyph-name="k" unicode="k" horiz-adv-x="555" 
d="M517 56q-27 -29 -60.5 -46.5t-67.5 -17.5q-22 0 -37 8t-25 23t-17.5 37t-14.5 49q-11 41 -15.5 70t-4.5 48l61 15q38 34 63 77.5t25 85.5q0 29 -15.5 43t-52.5 14h-14q-8 0 -18 -2q-45 -53 -91 -165.5t-100 -294.5q-11 -5 -25 -6.5t-30 -1.5l-19 13l68 677l-68 10l4 38
q28 8 62.5 14.5t66.5 8.5l19 -13l-42 -332q-8 -66 -15 -120t-18 -112l11 -3q33 106 58.5 172.5t50.5 103.5t52.5 50.5t64.5 13.5q27 0 51.5 -6t43 -20t29.5 -36t11 -54q0 -36 -13.5 -67t-36.5 -56.5t-53 -43.5t-62 -28q12 -42 26 -79.5t36 -69.5q25 2 49 13t48 27z" />
    <glyph glyph-name="l" unicode="l" horiz-adv-x="271" 
d="M212 740q-6 -58 -14.5 -124t-17 -134t-16.5 -134t-14.5 -123t-10.5 -102t-5 -71q23 0 55.5 12t56.5 28l15 -37q-26 -27 -63.5 -45t-71.5 -18q-27 0 -46 15t-19 55q0 22 6.5 83t16 146t22 186t24.5 205l-71 10l4 38q28 8 63 14.5t67 8.5z" />
    <glyph glyph-name="m" unicode="m" horiz-adv-x="893" 
d="M877 57q-28 -29 -63.5 -47t-68.5 -18q-24 0 -41.5 12.5t-17.5 41.5q0 20 8 66t17 99.5t17 104t8 79.5q0 34 -14 50.5t-47 16.5h-13q-7 0 -17 -2q-45 -53 -90.5 -165.5t-99.5 -294.5q-11 -5 -25.5 -6.5t-30.5 -1.5l-19 13q16 135 29 235t13 148q0 37 -12 55.5t-49 18.5
h-13q-8 0 -18 -2q-45 -53 -90.5 -165.5t-99.5 -294.5q-11 -5 -25 -6.5t-30 -1.5l-19 13l49 432h-81v38q30 12 69.5 21t73.5 12l19 -13l-53 -319l11 -3q32 105 57.5 171t50 103.5t52 51.5t63.5 14q51 0 84 -25t33 -86q0 -19 -3.5 -45.5t-8.5 -56.5t-11.5 -62t-12.5 -62l11 -3
q31 100 55.5 165.5t49 104.5t52.5 54.5t67 15.5q52 0 84.5 -27.5t32.5 -93.5q0 -24 -5 -63.5t-12.5 -85.5t-16 -96t-16.5 -95q25 0 52 12.5t50 29.5z" />
    <glyph glyph-name="n" unicode="n" horiz-adv-x="579" 
d="M563 57q-28 -29 -63.5 -47t-68.5 -18q-24 0 -41.5 12.5t-17.5 41.5q0 20 8 66t17 99.5t17 104t8 79.5q0 34 -14 50.5t-47 16.5h-13q-7 0 -17 -2q-45 -53 -92.5 -165.5t-98.5 -294.5q-11 -5 -25 -6.5t-30 -1.5l-19 13l49 432h-81v38q30 12 69.5 21t73.5 12l19 -13
l-53 -319l11 -3q31 102 56 168t50 104t52.5 53t64.5 15q51 0 85 -27.5t34 -93.5q0 -24 -5 -63.5t-12.5 -85.5t-16 -96t-16.5 -95q25 0 52 12.5t50 29.5z" />
    <glyph glyph-name="o" unicode="o" horiz-adv-x="492" 
d="M278 513q47 0 80.5 -16.5t55.5 -45t32 -66.5t10 -80q0 -47 -13 -102.5t-42 -103.5t-75.5 -80t-112.5 -32q-47 0 -80 16.5t-55 45t-32 66t-10 80.5q0 47 13 102.5t41.5 103.5t74.5 80t113 32zM267 466q-32 0 -63 -13q-24 -21 -40 -53.5t-25.5 -69.5t-14 -75t-4.5 -68
q0 -79 26.5 -116t79.5 -37q32 0 63 13q24 21 40 54t25.5 70.5t13.5 75t4 66.5q0 79 -26 116t-79 37z" />
    <glyph glyph-name="p" unicode="p" horiz-adv-x="545" 
d="M378 513q29 0 52.5 -8t40.5 -27.5t26.5 -51.5t9.5 -81q0 -57 -14 -120t-44 -116t-78 -87.5t-116 -34.5q-33 0 -63 10t-50 34l-23 -236q-11 -5 -26.5 -6.5t-31.5 -1.5l-19 13l73 637h-81v38q30 12 69.5 21t73.5 12l19 -13l-59 -329l11 -3q32 109 58.5 177t52.5 106.5
t54.5 52.5t64.5 14zM325 44q27 25 45.5 61.5t30.5 77.5t17 84.5t5 83.5q0 64 -14 87.5t-48 23.5q-14 0 -33 -3q-19 -22 -38 -55t-40 -80t-45 -111t-52 -147q23 -15 51 -23.5t56 -8.5q17 0 34.5 3t30.5 7z" />
    <glyph glyph-name="q" unicode="q" horiz-adv-x="536" 
d="M478 -152l-4 -38q-28 -8 -62.5 -14.5t-66.5 -8.5l-19 13l35 262q11 81 23 151t23 121l-11 3q-32 -109 -58 -177t-51.5 -106.5t-54 -52.5t-64.5 -14q-29 0 -53 8t-41 27.5t-26.5 51.5t-9.5 81q0 57 14 120t45 116t79 87.5t117 34.5q31 0 59.5 -9t48.5 -30l3 31
q11 5 25.5 6.5t30.5 1.5l19 -13l-69 -642zM216 41q19 22 38.5 56.5t41 82.5t45 111.5t52.5 144.5q-23 14 -50.5 22t-54.5 8q-18 0 -35.5 -3t-30.5 -7q-27 -26 -46 -62t-31 -77t-17.5 -84.5t-5.5 -83.5q0 -64 14.5 -87.5t48.5 -23.5q13 0 31 3z" />
    <glyph glyph-name="r" unicode="r" horiz-adv-x="388" 
d="M308 427q-22 -34 -42 -75.5t-40 -93t-41 -115.5t-45 -143q-11 -5 -25 -6.5t-30 -1.5l-19 13l49 432h-81v38q30 12 69.5 21t73.5 12l19 -13l-53 -319l11 -3q25 87 46.5 151t43.5 106t46 62.5t55 20.5q22 0 35.5 -9t21.5 -22l-14 -64z" />
    <glyph glyph-name="s" unicode="s" horiz-adv-x="381" 
d="M205 467q-14 -2 -25.5 -5t-20.5 -8q-10 -11 -16.5 -27t-6.5 -36q0 -18 6 -31.5t17 -26.5t28 -27t38 -33q21 -18 39 -35.5t32 -36t22 -38.5t8 -44q0 -28 -11.5 -52t-33 -42t-52 -28t-68.5 -10q-23 0 -46 4t-42 13.5t-33 25t-20 37.5l40 52l130 -85q14 2 25.5 5t20.5 8
q10 12 13 26t3 28q0 18 -4.5 31.5t-13.5 26t-23.5 26t-34.5 31.5q-27 23 -48 42t-35.5 37t-22.5 37.5t-8 43.5q0 32 14 57.5t37.5 43t55 27t66.5 9.5q19 0 39 -3.5t37.5 -11t31 -19.5t19.5 -30l-34 -51z" />
    <glyph glyph-name="t" unicode="t" horiz-adv-x="337" 
d="M330 468l-7 -31h-132q-8 -59 -15 -118.5t-13 -112.5t-10 -95t-4 -64q38 0 74.5 12.5t66.5 29.5l15 -37q-16 -14 -36.5 -26t-42 -20.5t-43.5 -13.5t-42 -5q-32 0 -48.5 16.5t-16.5 61.5q0 20 3.5 59.5t9 90t12.5 107t15 109.5l-61 6v38q17 6 34.5 10.5t36.5 8.5
q6 32 11.5 59.5t10.5 47.5q22 13 51 18l13 -11l-15 -120h133v-20z" />
    <glyph glyph-name="u" unicode="u" horiz-adv-x="583" 
d="M573 57q-28 -29 -64 -47t-69 -18q-23 0 -39.5 11.5t-16.5 41.5q0 12 3 32t9 53t14.5 80.5t19.5 113.5l-11 3q-32 -102 -57 -168t-49.5 -104t-52 -53t-64.5 -15q-51 0 -85 27.5t-34 93.5q0 24 4.5 62.5t12 83t15.5 92t16 91.5h-81v38q30 12 69.5 21t73.5 12l19 -13
q-2 -14 -7 -43t-11 -65.5t-12.5 -78t-12 -80t-9 -71t-3.5 -51.5q0 -35 14 -51.5t47 -16.5h12q8 0 17 2q45 53 91 165.5t101 294.5q11 5 25 6.5t30 1.5l19 -13l-50 -443q23 0 50.5 12.5t50.5 29.5z" />
    <glyph glyph-name="v" unicode="v" horiz-adv-x="521" 
d="M410 513q21 -5 36 -17.5t24.5 -29.5t14 -36.5t4.5 -37.5q0 -32 -12.5 -74.5t-34.5 -87.5t-52.5 -88.5t-65 -78t-72.5 -55.5t-76 -21q-20 0 -38 6.5t-31.5 20.5t-21.5 37t-8 55q0 24 4.5 62.5t11.5 83.5t15.5 93t16.5 92h-81v38q30 12 68.5 21t72.5 12l19 -13
q-2 -15 -6.5 -43.5t-10.5 -65t-12.5 -77t-11.5 -79t-8.5 -70.5t-3.5 -52q0 -36 13.5 -53t47.5 -17h11q66 54 119.5 137.5t85.5 189.5l-71 106z" />
    <glyph glyph-name="w" unicode="w" horiz-adv-x="797" 
d="M686 513q21 -5 36 -17.5t24.5 -29.5t14 -36.5t4.5 -37.5q0 -32 -12.5 -74.5t-34.5 -87.5t-52 -88.5t-65 -78t-73.5 -55.5t-77.5 -21q-41 0 -65.5 23.5t-24.5 67.5q0 20 5 44.5t12 47.5l-12 3q-20 -42 -38 -76t-39 -58.5t-46 -38t-58 -13.5q-22 0 -41.5 6.5t-34 21
t-23 37.5t-8.5 55q0 24 4.5 62t11.5 83t15.5 93t16.5 92h-81v38q30 12 68.5 21t72.5 12l19 -13q-1 -9 -5.5 -36t-10.5 -63.5t-12.5 -79t-12 -82.5t-9 -74t-3.5 -53q0 -34 14 -51.5t51 -17.5h6q44 47 83.5 116.5t71.5 157.5q8 59 15.5 103.5t16.5 84.5q11 5 25.5 6.5
t30.5 1.5l19 -13q0 -31 -9.5 -83.5t-28.5 -114.5q-3 -27 -5.5 -54.5t-4.5 -53t-3.5 -47t-1.5 -35.5q0 -35 11.5 -52t45.5 -17h11q66 54 118 137.5t87 189.5l-71 106z" />
    <glyph glyph-name="x" unicode="x" horiz-adv-x="499" 
d="M372 52q23 2 48.5 14t47.5 28l15 -37q-27 -29 -60.5 -47t-66.5 -18q-35 0 -53 22t-34 61q-7 17 -14 37t-12.5 38t-9.5 30.5t-5 15.5h-11q-35 -106 -74 -155t-94 -49q-25 0 -39.5 9t-23.5 24l14 54l89 -10q26 28 55.5 73.5t58.5 102.5q-16 54 -29 102t-27 90h-99v38
q32 13 71.5 22t71.5 11l18 -13q11 -36 25 -85t25 -92h10q12 37 29 71.5t38 60.5t45.5 42t51.5 16q13 0 26 -3.5t21 -9.5l9 -61l-103 -19q-17 -16 -43 -51t-64 -92q20 -67 41.5 -119t51.5 -101z" />
    <glyph glyph-name="y" unicode="y" horiz-adv-x="509" 
d="M397 513q35 -8 57 -40t22 -83q0 -35 -12 -83.5t-36 -104.5t-60.5 -117.5t-85.5 -122.5q-30 -38 -61.5 -70t-62 -55.5t-59.5 -36.5t-56 -13q-29 0 -57.5 12.5t-48.5 35.5l17 41q26 -9 60 -19t72 -13q33 20 60 44.5t52 57.5q-13 61 -27 128t-28 132.5t-27.5 125
t-25.5 105.5h-81v38q32 13 62.5 22t62.5 11l20 -13q16 -68 31.5 -135.5t28.5 -130.5t22.5 -119t14.5 -99h10q22 30 45.5 72.5t45 90t38.5 97t25 94.5l-71 106z" />
    <glyph glyph-name="z" unicode="z" horiz-adv-x="425" 
d="M379 144q2 -15 2.5 -31.5t0.5 -27.5q0 -20 -3 -38.5t-11.5 -33t-23.5 -23.5t-39 -9q-18 0 -45 5t-57.5 14t-62 20t-59.5 23l-41 -56q-12 2 -22.5 5t-19.5 8l-8 12l306 414l-171 13l-19 -70h-50q-5 35 -1.5 69t17.5 70q75 0 136.5 -10t118.5 -30l33 45q23 -3 43 -13l8 -12
l-297 -401q57 -16 105.5 -24t79.5 -10l32 97z" />
    <glyph glyph-name="braceleft" unicode="{" horiz-adv-x="298" 
d="M179 672q2 -27 7 -64.5t10 -76.5t8.5 -74.5t3.5 -59.5q0 -23 -4.5 -38.5t-16 -27t-31.5 -20t-51 -15.5v-10q45 -11 66.5 -27t21.5 -46q0 -21 -9 -61t-21 -86.5t-25 -92.5t-21 -79l107 -26l-3 -42q-13 -2 -25.5 -3t-26.5 -1q-21 0 -41.5 3.5t-36 11.5t-25 22.5t-9.5 35.5
q0 32 21.5 113t54.5 224l-77 34l3 50l83 34q-8 103 -18 178.5t-10 112.5q0 31 8.5 51t23.5 31.5t35 16t43 4.5q14 0 28 -1t28 -3l-1 -42z" />
    <glyph glyph-name="bar" unicode="|" horiz-adv-x="266" 
d="M110 -120v870h60v-870h-60z" />
    <glyph glyph-name="braceright" unicode="}" horiz-adv-x="287" 
d="M248 671q0 -32 -21.5 -109.5t-54.5 -211.5l69 -34l-3 -50l-83 -34q4 -53 9 -100.5t9 -87t7 -70.5t3 -49q0 -31 -8.5 -51t-23.5 -32t-35 -16.5t-43 -4.5q-14 0 -28 1t-28 3l1 42l101 26q-3 28 -8 68t-10 81.5t-8.5 80t-3.5 62.5q0 22 4.5 38t16 27.5t31.5 19.5t51 16v10
q-43 12 -61.5 27.5t-18.5 48.5q0 24 9 62.5t21 81t24.5 84t20.5 71.5l-106 26l3 42q13 2 25.5 3t26.5 1q21 0 41.5 -3.5t36 -11.5t25 -22t9.5 -35z" />
    <glyph glyph-name="asciitilde" unicode="~" 
d="M534 320q-6 -14 -17 -33t-27 -36t-37 -28.5t-45 -11.5q-10 0 -20 2.5t-23 8.5t-30 16.5t-41 26.5q-19 12 -42 27.5t-49 30.5l-89 -80l-22 26q6 15 18 33.5t28.5 35t37 28t45.5 11.5q8 0 17 -2t21.5 -8t30 -16.5t43.5 -27.5q13 -9 24.5 -16t22 -14t21 -13.5t23.5 -14.5
l88 80z" />
    <glyph glyph-name="uni00A0" unicode="&#xa0;" horiz-adv-x="250" 
 />
    <glyph glyph-name="exclamdown" unicode="&#xa1;" horiz-adv-x="256" 
d="M159 332q0 -50 -1.5 -116.5t-4 -134t-6 -129t-7.5 -102.5q-21 -7 -40 -11t-42 -4l-15 15q7 41 16 101.5t18 126.5l18 133q9 67 16 121h48zM154 513q8 0 16.5 -1t14.5 -3q5 -10 8 -18.5t3 -20.5q0 -18 -6.5 -34t-15.5 -33h-68l-5 103q8 2 23 4.5t30 2.5z" />
    <glyph glyph-name="cent" unicode="&#xa2;" horiz-adv-x="457" 
d="M299 512q-5 -48 -10.5 -97.5t-10.5 -106.5q-6 -60 -10 -110t-8 -98q27 7 60.5 24t69.5 47l18 -36q-36 -39 -75 -63t-78 -33l-8 -109l-45 -5l-10 6l12 102q-40 1 -70 17.5t-50 45t-30 66t-10 80.5t11 95.5t36 99t65.5 80t99.5 40.5l8 108l44 5l10 -6l-13 -106
q39 -4 67 -20l1 16q14 4 24.5 6t23.5 2l20 -13q1 -5 1.5 -12t0.5 -17q0 -27 -4.5 -63.5t-10.5 -66.5h-52l-5 103q-17 8 -35 12.5t-37 6.5zM128 246q0 -75 24.5 -109.5t59.5 -39.5q5 48 11 97.5t11 106.5q6 60 10 111t9 100q-13 -2 -23 -5t-18 -8q-24 -20 -40 -51.5
t-25.5 -67t-14 -71t-4.5 -63.5z" />
    <glyph glyph-name="sterling" unicode="&#xa3;" horiz-adv-x="539" 
d="M474 144q2 -12 3 -28.5t1 -29.5q0 -73 -55 -125q-78 5 -152 23t-137 47l-81 -54l-36 37q-1 38 20.5 53t60.5 15q32 28 45.5 62t13.5 70q0 14 -2 30t-4 33h-90v17l3 30h79q-3 20 -5.5 39t-2.5 37q0 36 11 73t35.5 67t64 49t96.5 19q24 0 42.5 -3.5t35.5 -10.5v6
q14 4 24.5 6t23.5 2l20 -13q1 -5 1.5 -12t0.5 -17q0 -27 -4.5 -63.5t-10.5 -66.5h-52l-6 115q-35 9 -73 9q-20 0 -40 -3t-34 -9q-14 -12 -23.5 -30t-15.5 -38t-9 -40.5t-3 -38.5q0 -17 2 -37t5 -40h154v-17l-3 -30h-144q2 -16 3.5 -31t1.5 -29q0 -50 -23.5 -83t-77.5 -57
l3 -10q31 -7 66 -11t69.5 -6.5t65.5 -3t54 -0.5l33 105z" />
    <glyph glyph-name="currency" unicode="&#xa4;" horiz-adv-x="539" 
d="M448 309q0 -26 -8.5 -56.5t-26.5 -57.5l78 -90l-47 -45l-77 88q-20 -14 -45.5 -21.5t-57.5 -7.5q-36 0 -63.5 10t-47.5 27l-95 -88l-42 44l99 90q-17 36 -17 72q0 29 11.5 62.5t35.5 61.5l-80 92l48 43l83 -94q20 11 42.5 16.5t50.5 5.5q30 0 53.5 -7t41.5 -19l100 90
l39 -46l-97 -88q11 -19 16.5 -40t5.5 -42zM311 178q27 19 37 53.5t9 86.5q0 20 -2.5 37t-9.5 29.5t-21 19.5t-38 7q-11 0 -24 -1.5t-27 -6.5q-46 -32 -46 -136q0 -47 13 -72.5t55 -25.5q24 0 54 9z" />
    <glyph glyph-name="yen" unicode="&#xa5;" horiz-adv-x="607" 
d="M606 556q-17 -8 -39 -13.5t-39 -6.5q-26 -52 -56 -101.5t-64 -99.5h104v-17l-3 -30h-134l-37 -52l-4 -37h161v-17l-3 -30h-162l-9 -104l91 -5v-20l-3 -23h-262v39q9 4 21 7t25 6t25.5 4.5t22.5 2.5l8 93h-159v17l3 30h161l3 40l-19 49h-131v17l3 30h109q-23 57 -46 112
t-42 100l-68 5v20l3 23h234v-39q-15 -7 -38.5 -12t-43.5 -7q10 -27 22.5 -58.5t25.5 -64.5t24.5 -65t20.5 -59h10q41 57 80.5 124t69.5 133l-66 5v20l3 23h198v-39z" />
    <glyph glyph-name="brokenbar" unicode="&#xa6;" horiz-adv-x="266" 
d="M110 460v290h60v-290h-60zM110 -120v290h60v-290h-60z" />
    <glyph glyph-name="section" unicode="&#xa7;" horiz-adv-x="472" 
d="M441 204q0 -42 -27 -72t-81 -44q22 -38 22 -79q0 -32 -12.5 -58.5t-35 -45t-53.5 -29t-67 -10.5q-60 0 -91.5 26.5t-31.5 68.5q0 21 7.5 35.5t19.5 23.5h50l11 -103q20 -4 35 -4q17 0 39 4t36 12q8 12 13 28.5t5 36.5q0 14 -3.5 28t-12.5 30t-25 34.5t-41 40.5
q-42 38 -73 66.5t-50.5 53t-29 46.5t-9.5 47q0 42 27 72t81 44q-22 38 -22 79q0 32 12.5 58.5t35 45t53.5 29t67 10.5q60 0 91.5 -26.5t31.5 -68.5q0 -21 -7.5 -35.5t-19.5 -23.5h-50l-11 103q-20 4 -35 4q-17 0 -39 -4t-36 -12q-8 -12 -13 -28.5t-5 -36.5q0 -14 3.5 -28
t12.5 -30t25 -34.5t41 -40.5q42 -38 73 -66.5t50.5 -53t29 -46.5t9.5 -47zM314 115q25 17 37.5 33t12.5 44q0 20 -6.5 35.5t-21 32.5t-38 38t-57.5 51q-23 20 -42.5 40t-35.5 40q-25 -17 -37.5 -33t-12.5 -44q0 -20 6.5 -35.5t21 -32.5t38 -38t57.5 -51q23 -20 42.5 -40
t35.5 -40z" />
    <glyph glyph-name="dieresis" unicode="&#xa8;" horiz-adv-x="332" 
d="M130 713q17 0 25 -4q5 -10 7.5 -18t2.5 -19q0 -15 -5.5 -29t-13.5 -28h-59l-5 91q19 7 48 7zM314 713q17 0 26 -4q5 -9 7.5 -17.5t2.5 -18.5q0 -15 -5.5 -29.5t-13.5 -28.5h-59l-5 91q19 7 47 7z" />
    <glyph glyph-name="copyright" unicode="&#xa9;" horiz-adv-x="761" 
d="M406 678q66 0 124 -18.5t101 -57t68 -97t25 -139.5q0 -71 -21 -139t-64.5 -121.5t-111 -86t-160.5 -32.5q-69 0 -126 19.5t-98 58.5t-63.5 97t-23.5 135q0 69 19 137t61 122.5t108.5 88t161.5 33.5zM371 32q78 0 133.5 30t90.5 78t51 107t16 116q0 67 -20 117.5t-55 84.5
t-83 51t-104 17q-79 0 -133 -31t-87 -79.5t-47.5 -107.5t-14.5 -114q0 -67 18.5 -117.5t52.5 -84t80 -50.5t102 -17zM383 482q-26 -20 -44.5 -62.5t-18.5 -113.5q0 -20 2.5 -40.5t11 -37.5t24.5 -28t43 -11q26 0 50.5 11t56.5 32l16 -33q-24 -26 -65.5 -46.5t-89.5 -20.5
q-64 0 -97.5 41t-33.5 118q0 49 13.5 93.5t38.5 78.5t61 54t80 20q16 0 34 -3t33.5 -11t26.5 -21t14 -33l-43 -46l-83 64q-13 0 -30 -5z" />
    <glyph glyph-name="ordfeminine" unicode="&#xaa;" horiz-adv-x="392" 
d="M399 257q-20 -21 -48 -32.5t-52 -11.5q-16 0 -27.5 7t-11.5 28q0 9 2.5 23.5t7 37.5t12 56.5t17.5 80.5l-11 3q-22 -74 -38 -120.5t-32 -72.5t-35 -36t-47 -10q-44 0 -68.5 24t-24.5 90q0 39 10 82t31 79t55 59.5t82 23.5q23 0 40 -6t30 -20l3 21q10 3 21 4t26 1l13 -9
l-34 -298q15 0 33.5 7t34.5 19zM176 256q24 32 49.5 92.5t57.5 161.5q-14 8 -29.5 13t-31.5 5q-11 0 -23 -2t-21 -5q-18 -18 -31.5 -41.5t-21.5 -49.5t-12 -53.5t-4 -53.5q0 -41 9.5 -55.5t32.5 -14.5q11 0 25 3z" />
    <glyph glyph-name="guillemotleft" unicode="&#xab;" horiz-adv-x="470" 
d="M322 279l61 -162l-40 -26l-114 179v14l155 179l34 -27zM149 279l61 -162l-40 -26l-114 179v14l155 179l34 -27z" />
    <glyph glyph-name="logicalnot" unicode="&#xac;" 
d="M472 97h-62l19 168h-329v17l5 40h381l9 -17z" />
    <glyph glyph-name="uni00AD" unicode="&#xad;" horiz-adv-x="324" 
d="M273 262h-217v19l5 44h217v-19z" />
    <glyph glyph-name="registered" unicode="&#xae;" horiz-adv-x="590" 
d="M331 721q108 0 171.5 -59t63.5 -168q0 -49 -14.5 -96t-45 -83.5t-79 -59t-115.5 -22.5q-51 0 -94.5 14t-75 42.5t-49 70.5t-17.5 99q0 49 14.5 96t45 84t79 59.5t116.5 22.5zM328 685q-56 0 -95 -20t-63.5 -52t-35.5 -72t-11 -79q0 -93 52 -143t139 -50q56 0 95 20
t63.5 52t35.5 71.5t11 79.5q0 94 -52.5 143.5t-138.5 49.5zM315 613q58 0 83 -17.5t25 -51.5q0 -32 -18 -52.5t-43 -30.5q12 -23 22.5 -45t19.5 -35l38 2l3 -22q-12 -7 -22.5 -10.5t-22.5 -3.5q-19 0 -28 8t-17 19q-8 13 -16.5 33.5t-16.5 46.5h-31l-8 -77l33 -3v-13l-1 -11
h-112v23q5 2 15 4t19 4l17 198l-29 2v14l3 13q8 1 19.5 2t23.5 1.5t23.5 1t20.5 0.5zM294 484h47q11 8 20 22t9 34q0 44 -49 44h-20z" />
    <glyph glyph-name="macron" unicode="&#xaf;" horiz-adv-x="301" 
d="M316 685q2 -4 2 -17q0 -7 -1.5 -20t-7.5 -25h-232q-2 4 -2 16q0 7 2 21t7 25h232z" />
    <glyph glyph-name="degree" unicode="&#xb0;" horiz-adv-x="327" 
d="M211 733q28 0 51 -10.5t40 -28.5t26.5 -42t9.5 -51q0 -30 -11.5 -56t-31 -45.5t-45.5 -30.5t-55 -11q-28 0 -51 10.5t-40 28t-26.5 41.5t-9.5 51q0 30 11.5 56t31 45.5t45.5 31t55 11.5zM208 682q-11 0 -24 -3t-23 -8q-16 -11 -25.5 -31.5t-9.5 -46.5q0 -40 20.5 -62
t52.5 -22q11 0 23.5 2.5t22.5 8.5q16 11 25.5 31.5t9.5 46.5q0 40 -20.5 62t-51.5 22z" />
    <glyph glyph-name="plusminus" unicode="&#xb1;" 
d="M353 369h158v-19l-5 -38h-160l-18 -160h-48l-15 7l17 153h-158v17l5 40h160l18 160h46l17 -7zM472 0h-382l-1 17l4 40h382v-18z" />
    <glyph glyph-name="uni00B2" unicode="&#xb2;" horiz-adv-x="283" 
d="M281 480q2 -8 2 -17v-16q0 -19 -4 -36t-9 -27h-29q-15 0 -36.5 1.5t-44 4.5t-44 6.5t-36.5 8.5l-28 -20q-6 2 -13.5 6t-12.5 8l-1 10q30 25 64 51t62.5 53.5t47.5 55.5t19 58q0 29 -17.5 41t-38.5 12q-22 0 -37 -12t-15 -37q0 -5 1 -13t3 -18l-30 -9q-12 12 -18.5 24.5
t-6.5 28.5q0 19 9 35t25 28t37.5 19t47.5 7q52 0 83.5 -26t31.5 -68q0 -51 -47.5 -98.5t-123.5 -97.5h109l11 39z" />
    <glyph glyph-name="uni00B3" unicode="&#xb3;" horiz-adv-x="302" 
d="M224 560q27 -5 47 -21.5t20 -49.5q0 -45 -38.5 -75t-105.5 -30q-24 0 -48.5 4.5t-47.5 15.5l4 29q15 -2 33 -3t31 -1q51 0 73.5 14.5t22.5 47.5q0 20 -9 31t-31 19q-25 -10 -48 -13l-11 8q-1 5 -1.5 10t-0.5 10t0.5 9t0.5 6q4 3 16 4t21 1q6 0 11 -0.5t9 -0.5
q23 10 38 24.5t15 37.5q0 26 -16.5 35.5t-37.5 9.5q-33 0 -46 -16t-13 -35v-12l-30 -2q-8 11 -11.5 19.5t-3.5 19.5q0 29 30.5 53t87.5 24q53 0 83.5 -23t30.5 -63q0 -21 -8 -34.5t-19.5 -22t-24.5 -13t-23 -7.5v-10z" />
    <glyph glyph-name="acute" unicode="&#xb4;" horiz-adv-x="229" 
d="M202 767q16 -7 29.5 -20.5t20.5 -29.5l-137 -144h-48l111 194h24z" />
    <glyph glyph-name="mu" unicode="&#xb5;" horiz-adv-x="583" 
d="M573 57q-28 -29 -64 -47t-69 -18q-23 0 -39.5 11.5t-16.5 41.5q0 12 3 32t9 53t14.5 80.5t19.5 113.5l-11 3q-32 -102 -57 -168t-49.5 -104t-52 -53t-64.5 -15q-30 0 -48 12t-30 36l-10 -4q9 -60 16.5 -118t6.5 -118q-14 -5 -31.5 -6.5t-35.5 -1.5l-14 15
q11 192 33 354.5t42 280.5h-81v38q30 12 69.5 21t73.5 12l19 -13q-2 -14 -7 -43t-11 -65.5t-12.5 -78t-12 -80t-9 -71t-3.5 -51.5q0 -35 14 -51.5t47 -16.5h12q8 0 17 2q45 53 91 165.5t101 294.5q11 5 25 6.5t30 1.5l19 -13l-50 -443q23 0 50.5 12.5t50.5 29.5z" />
    <glyph glyph-name="paragraph" unicode="&#xb6;" horiz-adv-x="565" 
d="M271 230q-109 -1 -166.5 47.5t-57.5 145.5q0 38 11 80.5t40.5 78.5t80 59.5t129.5 23.5h49l-38 -435h-48zM582 626q-19 -8 -45 -13.5t-46 -6.5l-43 -494q-9 -106 -57 -150.5t-129 -44.5q-45 0 -89.5 13t-71.5 39l24 36q26 -15 59.5 -24.5t71.5 -9.5q57 0 91 29t41 107
l49 558h145v-39z" />
    <glyph glyph-name="periodcentered" unicode="&#xb7;" horiz-adv-x="217" 
d="M122 351q8 0 16.5 -1t14.5 -3q5 -10 8 -19t3 -21q0 -18 -6.5 -35t-15.5 -34h-68l-5 106q8 2 23 4.5t30 2.5z" />
    <glyph glyph-name="cedilla" unicode="&#xb8;" horiz-adv-x="242" 
d="M99 -68q29 -1 49.5 -12.5t20.5 -43.5q0 -36 -28.5 -62.5t-78.5 -26.5q-52 0 -82 27l11 34q12 -5 26 -9.5t31 -4.5q23 0 39 11.5t16 31.5q0 14 -11 19.5t-48 13.5l24 96h39z" />
    <glyph glyph-name="uni00B9" unicode="&#xb9;" horiz-adv-x="232" 
d="M241 406l-2 -15h-183v27q14 5 30 8t30 4l21 224q-29 -6 -60 -6v16l3 21q22 2 50.5 12.5t51.5 35.5l29 -7l-28 -303l58 -4v-13z" />
    <glyph glyph-name="ordmasculine" unicode="&#xba;" horiz-adv-x="341" 
d="M209 568q33 0 56.5 -11t38.5 -30.5t22 -45.5t7 -55q0 -32 -9 -70t-29.5 -70.5t-52.5 -54t-78 -21.5q-33 0 -56.5 11t-38.5 30.5t-22 45t-7 54.5q0 32 9 70t29 70.5t52 54.5t79 22zM199 528q-10 0 -21 -2t-20 -7q-14 -14 -24 -35t-16 -45t-9 -48t-3 -43q0 -51 18 -74.5
t50 -23.5q10 0 21.5 2t21.5 7q13 14 22.5 35.5t15.5 45.5t9 47.5t3 42.5q0 98 -68 98z" />
    <glyph glyph-name="guillemotright" unicode="&#xbb;" horiz-adv-x="470" 
d="M400 270l-156 -179l-34 26l97 158l-60 161l39 27l114 -179v-14zM228 270l-156 -179l-34 26l97 158l-60 161l39 27l114 -179v-14z" />
    <glyph glyph-name="onequarter" unicode="&#xbc;" horiz-adv-x="764" 
d="M627 654q-32 -44 -60.5 -84.5t-56.5 -80.5t-55.5 -80.5t-56.5 -83.5q-29 -44 -56 -86.5t-54 -85.5t-55 -86.5t-59 -89.5l-40 23l-3 11q62 88 117 168.5t114 166.5q29 43 55 85l53 84q27 42 54.5 85t58.5 88l41 -23zM253 280l-2 -16h-210v30q17 5 37 8.5t37 4.5l28 284
q-16 -5 -35.5 -7t-38.5 -3v18l3 22q26 2 58.5 14.5t58.5 42.5l29 -7l-36 -371l72 -5zM734 121l-4 -30h-59q-2 -23 -4 -45t-4 -45h-67q2 23 4 45t4 45h-169l-12 30q30 58 57 113.5t50 114.5l-17 66l57 16q29 -23 29 -56q0 -16 -6.5 -36t-21.5 -47.5t-38.5 -65t-56.5 -87.5
l3 -6q20 2 38 3t37 1h55q6 56 15 110q23 13 54 19l13 -9q-9 -60 -15 -120h58v-16z" />
    <glyph glyph-name="onehalf" unicode="&#xbd;" horiz-adv-x="786" 
d="M627 654q-32 -44 -60.5 -84.5t-56.5 -80.5t-55.5 -80.5t-56.5 -83.5q-29 -44 -56 -86.5t-54 -85.5t-55 -86.5t-59 -89.5l-40 23l-3 11q62 88 117 168.5t114 166.5q29 43 55 85l53 84q27 42 54.5 85t58.5 88l41 -23zM253 280l-2 -16h-210v30q17 5 37 8.5t37 4.5l28 284
q-16 -5 -35.5 -7t-38.5 -3v18l3 22q26 2 58.5 14.5t58.5 42.5l29 -7l-36 -371l72 -5zM739 94q3 -20 3 -36q0 -20 -4 -38t-11 -32h-39q-17 0 -40.5 1.5t-48.5 4.5t-48.5 7.5t-40.5 10.5l-29 -22q-8 2 -15.5 5.5t-12.5 8.5l-1 11q35 28 75 60.5t73.5 67t56 71t22.5 74.5
t-19 53t-48 15q-27 0 -46.5 -15t-19.5 -47q0 -16 6 -38l-29 -11q-14 14 -21 28t-7 32q0 22 10 41.5t28 34t42 22.5t52 8q57 0 92 -31.5t35 -81.5q0 -32 -15 -63.5t-42 -63t-64 -62.5t-80 -62h133l13 50z" />
    <glyph glyph-name="threequarters" unicode="&#xbe;" horiz-adv-x="811" 
d="M674 654q-32 -44 -60.5 -84.5t-56.5 -80.5t-55.5 -80.5t-56.5 -83.5q-29 -44 -56 -86.5t-54 -85.5t-55 -86.5t-59 -89.5l-40 23l-3 11q62 88 117 168.5t114 166.5q29 43 55 85l53 84q27 42 54.5 85t58.5 88l41 -23zM234 470q73 -15 73 -85q0 -57 -44.5 -93.5
t-122.5 -36.5q-26 0 -52 5t-51 16l5 30q17 -2 31.5 -3t27.5 -1q73 0 102 23t29 62q0 22 -10.5 37t-40.5 25q-13 -5 -28 -8.5t-27 -5.5l-11 9q-3 9 -3 20q0 7 2 17q4 3 18 4.5t25 1.5q6 0 11.5 -0.5t10.5 -0.5q26 13 45.5 32.5t19.5 51.5q0 29 -18 41.5t-47 12.5
q-21 0 -35.5 -6t-23.5 -15.5t-12.5 -21.5t-3.5 -24q0 -5 0.5 -8.5t0.5 -5.5l-31 -3q-8 12 -11.5 22.5t-3.5 22.5q0 18 9 34.5t25.5 29.5t41 21t55.5 8q62 0 95 -29t33 -74q0 -21 -7 -37t-19 -27t-27 -19t-31 -12v-10zM781 121l-4 -30h-59q-2 -23 -4 -45t-4 -45h-67
q2 23 4 45t4 45h-169l-12 30q30 58 57 113.5t50 114.5l-17 66l57 16q29 -23 29 -56q0 -16 -6.5 -36t-21.5 -47.5t-38.5 -65t-56.5 -87.5l3 -6q20 2 38 3t37 1h55q6 56 15 110q23 13 54 19l13 -9q-9 -60 -15 -120h58v-16z" />
    <glyph glyph-name="questiondown" unicode="&#xbf;" horiz-adv-x="356" 
d="M292 509q5 -10 8 -18.5t3 -20.5q0 -18 -6.5 -34t-15.5 -33h-68l-5 103q8 2 23 4.5t30 2.5q8 0 16.5 -1t14.5 -3zM179 130q-29 -17 -48 -31t-30.5 -27.5t-16.5 -29t-5 -34.5q0 -14 3 -38q26 -20 70 -33.5t113 -13.5l-8 -75q-15 -2 -29 -3.5t-28 -1.5q-47 0 -79.5 15.5
t-53 40.5t-29.5 57.5t-9 65.5q0 22 5.5 46.5t23.5 50.5t52.5 53t91.5 53l13 107h51q2 -16 5 -37.5t3 -43.5q0 -24 -5 -40.5t-16.5 -29t-29.5 -24.5t-44 -27z" />
    <glyph glyph-name="Agrave" unicode="&#xc0;" horiz-adv-x="638" 
d="M608 23l-3 -23h-224v39q14 7 35 12t37 7l-33 141h-232l-59 -151l75 -5v-20l-3 -23h-205v39q15 8 36.5 13t37.5 7q59 143 120 284.5t128 284.5l-11 47l16 13q17 0 34 -1.5t30 -6.5q36 -159 74 -316.5t80 -316.5l67 -4v-20zM408 249q-17 74 -33 147t-32 147h-10
q-34 -74 -65 -147t-60 -147h200zM320 723l-115 120q11 15 26.5 28t34.5 21h24l80 -169h-50z" />
    <glyph glyph-name="Aacute" unicode="&#xc1;" horiz-adv-x="638" 
d="M608 23l-3 -23h-224v39q14 7 35 12t37 7l-33 141h-232l-59 -151l75 -5v-20l-3 -23h-205v39q15 8 36.5 13t37.5 7q59 143 120 284.5t128 284.5l-11 47l16 13q17 0 34 -1.5t30 -6.5q36 -159 74 -316.5t80 -316.5l67 -4v-20zM408 249q-17 74 -33 147t-32 147h-10
q-34 -74 -65 -147t-60 -147h200zM461 893q15 -7 28 -19.5t21 -29.5l-143 -121h-50l120 170h24z" />
    <glyph glyph-name="Acircumflex" unicode="&#xc2;" horiz-adv-x="638" 
d="M608 23l-3 -23h-224v39q14 7 35 12t37 7l-33 141h-232l-59 -151l75 -5v-20l-3 -23h-205v39q15 8 36.5 13t37.5 7q59 143 120 284.5t128 284.5l-11 47l16 13q17 0 34 -1.5t30 -6.5q36 -159 74 -316.5t80 -316.5l67 -4v-20zM408 249q-17 74 -33 147t-32 147h-10
q-34 -74 -65 -147t-60 -147h200zM430 713l-78 91h-9l-86 -81h-54l148 161h46l91 -134z" />
    <glyph glyph-name="Atilde" unicode="&#xc3;" horiz-adv-x="638" 
d="M608 23l-3 -23h-224v39q14 7 35 12t37 7l-33 141h-232l-59 -151l75 -5v-20l-3 -23h-205v39q15 8 36.5 13t37.5 7q59 143 120 284.5t128 284.5l-11 47l16 13q17 0 34 -1.5t30 -6.5q36 -159 74 -316.5t80 -316.5l67 -4v-20zM408 249q-17 74 -33 147t-32 147h-10
q-34 -74 -65 -147t-60 -147h200zM494 829q-14 -34 -37.5 -60t-55.5 -26q-14 0 -26 5t-26 13l-62 36l-54 -51l-22 25q14 35 37.5 60.5t56.5 25.5q14 0 25.5 -4.5t24.5 -12.5l63 -37l54 52z" />
    <glyph glyph-name="Adieresis" unicode="&#xc4;" horiz-adv-x="638" 
d="M608 23l-3 -23h-224v39q14 7 35 12t37 7l-33 141h-232l-59 -151l75 -5v-20l-3 -23h-205v39q15 8 36.5 13t37.5 7q59 143 120 284.5t128 284.5l-11 47l16 13q17 0 34 -1.5t30 -6.5q36 -159 74 -316.5t80 -316.5l67 -4v-20zM408 249q-17 74 -33 147t-32 147h-10
q-34 -74 -65 -147t-60 -147h200zM253 851q8 0 15 -1t12 -3q10 -14 10 -35q0 -17 -5 -31.5t-13 -29.5h-61l-6 92q8 4 21 6t27 2zM468 851q18 0 27 -4q10 -14 10 -35q0 -17 -5 -31.5t-13 -29.5h-61l-6 92q8 4 21 6t27 2z" />
    <glyph glyph-name="Aring" unicode="&#xc5;" horiz-adv-x="638" 
d="M608 23l-3 -23h-224v39q14 7 35 12t37 7l-33 141h-232l-59 -151l75 -5v-20l-3 -23h-205v39q15 8 36.5 13t37.5 7q59 143 120 284.5t128 284.5l-11 47l16 13q17 0 34 -1.5t30 -6.5q36 -159 74 -316.5t80 -316.5l67 -4v-20zM408 249q-17 74 -33 147t-32 147h-10
q-34 -74 -65 -147t-60 -147h200zM366 893q38 0 61.5 -17.5t23.5 -59.5q0 -49 -31.5 -73.5t-78.5 -24.5q-39 0 -63 18.5t-24 59.5q0 49 33 73t79 24zM359 853q-7 0 -14.5 -1.5t-12.5 -4.5q-7 -8 -12 -20t-5 -29q0 -40 32 -40q6 0 13.5 1.5t12.5 4.5q7 8 12 20.5t5 30.5
q0 23 -8.5 30.5t-22.5 7.5z" />
    <glyph glyph-name="AE" unicode="&#xc6;" horiz-adv-x="849" 
d="M504 366l180 7l10 -18l-6 -46l-188 8l-24 -271h213l34 107l53 -6q1 -11 1.5 -20.5t0.5 -21.5q0 -29 -5 -56t-18 -64l-13 -1l-302 16h-128v39q38 14 84 20l12 139h-213q-20 -40 -39.5 -77.5t-36.5 -72.5l74 -5v-20l-3 -23h-195v39q13 7 31 12t32 7q33 66 72.5 140
t81 148.5t81.5 144.5t75 127l-59 2v20l4 25h439q13 5 26 9t25 4l20 -13q1 -5 1.5 -12t0.5 -17q0 -27 -4.5 -61.5t-10.5 -64.5h-52l-5 98l-227 10zM445 618h-20q-18 -30 -41 -71t-50 -89t-56 -101.5t-57 -107.5l192 -1z" />
    <glyph glyph-name="Ccedilla" unicode="&#xc7;" horiz-adv-x="581" 
d="M273 606q-27 -16 -50.5 -48t-41 -75.5t-27.5 -96.5t-10 -110q0 -62 11 -104.5t31.5 -69t50 -38.5t67.5 -12q16 0 38.5 5t48 15.5t53 27.5t54.5 42l19 -37q-54 -60 -116.5 -89t-121.5 -29q-60 0 -103 20.5t-70 58t-40 89.5t-13 115q0 77 20.5 150.5t61 130.5t101 92
t141.5 35q32 0 55.5 -6.5t42.5 -17.5l1 16q14 4 24.5 6t23.5 2l20 -13q1 -5 1.5 -12t0.5 -17q0 -27 -4.5 -64.5t-10.5 -75.5h-52l-5 110q-24 9 -52.5 14t-54.5 5q-44 0 -94 -19zM319 -68q29 -1 49.5 -12.5t20.5 -43.5q0 -36 -28.5 -62.5t-78.5 -26.5q-52 0 -82 27l11 34
q12 -5 26 -9.5t31 -4.5q23 0 39 11.5t16 31.5q0 14 -11 19.5t-48 13.5l24 96h39z" />
    <glyph glyph-name="Egrave" unicode="&#xc8;" horiz-adv-x="556" 
d="M214 366l181 7l10 -18l-6 -46l-189 8l-23 -271h209l34 107l53 -6q1 -11 1.5 -20.5t0.5 -21.5q0 -29 -5 -56t-18 -64l-13 -1l-298 16h-127v39q19 7 41 12t44 8l47 552l-80 4v20l4 25q57 2 116.5 3.5t116.5 1.5h150q13 5 26 9t25 4l20 -13q1 -5 1.5 -12t0.5 -17
q0 -27 -4.5 -61.5t-10.5 -64.5h-52l-5 98l-229 10zM293 723l-115 120q11 15 26.5 28t34.5 21h24l80 -169h-50z" />
    <glyph glyph-name="Eacute" unicode="&#xc9;" horiz-adv-x="556" 
d="M214 366l181 7l10 -18l-6 -46l-189 8l-23 -271h209l34 107l53 -6q1 -11 1.5 -20.5t0.5 -21.5q0 -29 -5 -56t-18 -64l-13 -1l-298 16h-127v39q19 7 41 12t44 8l47 552l-80 4v20l4 25q57 2 116.5 3.5t116.5 1.5h150q13 5 26 9t25 4l20 -13q1 -5 1.5 -12t0.5 -17
q0 -27 -4.5 -61.5t-10.5 -64.5h-52l-5 98l-229 10zM434 893q15 -7 28 -19.5t21 -29.5l-143 -121h-50l120 170h24z" />
    <glyph glyph-name="Ecircumflex" unicode="&#xca;" horiz-adv-x="556" 
d="M214 366l181 7l10 -18l-6 -46l-189 8l-23 -271h209l34 107l53 -6q1 -11 1.5 -20.5t0.5 -21.5q0 -29 -5 -56t-18 -64l-13 -1l-298 16h-127v39q19 7 41 12t44 8l47 552l-80 4v20l4 25q57 2 116.5 3.5t116.5 1.5h150q13 5 26 9t25 4l20 -13q1 -5 1.5 -12t0.5 -17
q0 -27 -4.5 -61.5t-10.5 -64.5h-52l-5 98l-229 10zM403 713l-78 91h-9l-86 -81h-54l148 161h46l91 -134z" />
    <glyph glyph-name="Edieresis" unicode="&#xcb;" horiz-adv-x="556" 
d="M214 366l181 7l10 -18l-6 -46l-189 8l-23 -271h209l34 107l53 -6q1 -11 1.5 -20.5t0.5 -21.5q0 -29 -5 -56t-18 -64l-13 -1l-298 16h-127v39q19 7 41 12t44 8l47 552l-80 4v20l4 25q57 2 116.5 3.5t116.5 1.5h150q13 5 26 9t25 4l20 -13q1 -5 1.5 -12t0.5 -17
q0 -27 -4.5 -61.5t-10.5 -64.5h-52l-5 98l-229 10zM226 851q8 0 15 -1t12 -3q10 -14 10 -35q0 -17 -5 -31.5t-13 -29.5h-61l-6 92q8 4 21 6t27 2zM441 851q18 0 27 -4q10 -14 10 -35q0 -17 -5 -31.5t-13 -29.5h-61l-6 92q8 4 21 6t27 2z" />
    <glyph glyph-name="Igrave" unicode="&#xcc;" horiz-adv-x="328" 
d="M324 626q-18 -8 -42.5 -13t-44.5 -7l-49 -558l82 -5v-20l-3 -23h-242v39q17 8 42 13t43 7l47 558l-80 5v20l3 23h244v-39zM183 723l-115 120q11 15 26.5 28t34.5 21h24l80 -169h-50z" />
    <glyph glyph-name="Iacute" unicode="&#xcd;" horiz-adv-x="328" 
d="M324 626q-18 -8 -42.5 -13t-44.5 -7l-49 -558l82 -5v-20l-3 -23h-242v39q17 8 42 13t43 7l47 558l-80 5v20l3 23h244v-39zM324 893q15 -7 28 -19.5t21 -29.5l-143 -121h-50l120 170h24z" />
    <glyph glyph-name="Icircumflex" unicode="&#xce;" horiz-adv-x="328" 
d="M324 626q-18 -8 -42.5 -13t-44.5 -7l-49 -558l82 -5v-20l-3 -23h-242v39q17 8 42 13t43 7l47 558l-80 5v20l3 23h244v-39zM293 713l-78 91h-9l-86 -81h-54l148 161h46l91 -134z" />
    <glyph glyph-name="Idieresis" unicode="&#xcf;" horiz-adv-x="328" 
d="M324 626q-18 -8 -42.5 -13t-44.5 -7l-49 -558l82 -5v-20l-3 -23h-242v39q17 8 42 13t43 7l47 558l-80 5v20l3 23h244v-39zM135 851q18 0 27 -4q6 -9 8 -17t2 -19q0 -16 -4 -30.5t-16 -29.5h-61l-4 92q8 4 21 6t27 2zM305 851q17 0 26 -4q11 -15 11 -37q0 -31 -21 -59h-61
l-4 92q18 8 49 8z" />
    <glyph glyph-name="Eth" unicode="&#xd0;" horiz-adv-x="650" 
d="M312 670q86 0 144 -21t93 -58.5t50 -90.5t15 -116q0 -62 -15 -129.5t-52 -124t-100.5 -93.5t-159.5 -37h-249v39q19 7 40.5 12.5t44.5 7.5l22 259h-77v17l5 35h76l21 241l-80 5v20l3 24q27 2 58.5 4t62 3.5t56.5 2t42 0.5zM429 89q27 28 45 63.5t29 75t15.5 80t4.5 78.5
q0 118 -43.5 177t-145.5 58l-84 -1l-21 -250h127v-17l-5 -35h-127l-23 -268h77q52 0 87 10t64 29z" />
    <glyph glyph-name="Ntilde" unicode="&#xd1;" horiz-adv-x="703" 
d="M703 626q-17 -8 -43 -13t-44 -7l-54 -606q-14 -5 -27 -7t-27 -4h-17l-202 436q-45 98 -73 175h-10l-35 -551l86 -6v-20l-3 -23h-228v39q18 8 42.5 13.5t41.5 6.5l48 551l-81 6v20l3 23q24 1 46 2.5t44 2t46 1t52 0.5l166 -359q26 -54 46 -103.5t37 -87.5h10l28 501l-86 6
v20l3 23h231v-39zM554 829q-14 -34 -37.5 -60t-55.5 -26q-14 0 -26 5t-26 13l-62 36l-54 -51l-22 25q14 35 37.5 60.5t56.5 25.5q14 0 25.5 -4.5t24.5 -12.5l63 -37l54 52z" />
    <glyph glyph-name="Ograve" unicode="&#xd2;" horiz-adv-x="659" 
d="M378 678q119 0 182.5 -77.5t63.5 -212.5q0 -75 -20 -147t-60.5 -128.5t-101.5 -91t-142 -34.5q-119 0 -182.5 77.5t-63.5 212.5q0 75 20 147t60.5 128.5t101.5 91t142 34.5zM365 625q-23 0 -44 -4.5t-47 -14.5q-27 -16 -50.5 -48t-41 -75.5t-27.5 -96.5t-10 -110
q0 -47 8 -90t27.5 -75.5t52 -51.5t80.5 -19q23 0 44 4.5t47 14.5q27 16 50.5 48t41 75.5t27.5 96.5t10 110q0 47 -8 90t-27.5 75.5t-52 51.5t-80.5 19zM352 723l-115 120q11 15 26.5 28t34.5 21h24l80 -169h-50z" />
    <glyph glyph-name="Oacute" unicode="&#xd3;" horiz-adv-x="659" 
d="M378 678q119 0 182.5 -77.5t63.5 -212.5q0 -75 -20 -147t-60.5 -128.5t-101.5 -91t-142 -34.5q-119 0 -182.5 77.5t-63.5 212.5q0 75 20 147t60.5 128.5t101.5 91t142 34.5zM365 625q-23 0 -44 -4.5t-47 -14.5q-27 -16 -50.5 -48t-41 -75.5t-27.5 -96.5t-10 -110
q0 -47 8 -90t27.5 -75.5t52 -51.5t80.5 -19q23 0 44 4.5t47 14.5q27 16 50.5 48t41 75.5t27.5 96.5t10 110q0 47 -8 90t-27.5 75.5t-52 51.5t-80.5 19zM493 893q15 -7 28 -19.5t21 -29.5l-143 -121h-50l120 170h24z" />
    <glyph glyph-name="Ocircumflex" unicode="&#xd4;" horiz-adv-x="659" 
d="M378 678q119 0 182.5 -77.5t63.5 -212.5q0 -75 -20 -147t-60.5 -128.5t-101.5 -91t-142 -34.5q-119 0 -182.5 77.5t-63.5 212.5q0 75 20 147t60.5 128.5t101.5 91t142 34.5zM365 625q-23 0 -44 -4.5t-47 -14.5q-27 -16 -50.5 -48t-41 -75.5t-27.5 -96.5t-10 -110
q0 -47 8 -90t27.5 -75.5t52 -51.5t80.5 -19q23 0 44 4.5t47 14.5q27 16 50.5 48t41 75.5t27.5 96.5t10 110q0 47 -8 90t-27.5 75.5t-52 51.5t-80.5 19zM462 713l-78 91h-9l-86 -81h-54l148 161h46l91 -134z" />
    <glyph glyph-name="Otilde" unicode="&#xd5;" horiz-adv-x="659" 
d="M378 678q119 0 182.5 -77.5t63.5 -212.5q0 -75 -20 -147t-60.5 -128.5t-101.5 -91t-142 -34.5q-119 0 -182.5 77.5t-63.5 212.5q0 75 20 147t60.5 128.5t101.5 91t142 34.5zM365 625q-23 0 -44 -4.5t-47 -14.5q-27 -16 -50.5 -48t-41 -75.5t-27.5 -96.5t-10 -110
q0 -47 8 -90t27.5 -75.5t52 -51.5t80.5 -19q23 0 44 4.5t47 14.5q27 16 50.5 48t41 75.5t27.5 96.5t10 110q0 47 -8 90t-27.5 75.5t-52 51.5t-80.5 19zM526 829q-14 -34 -37.5 -60t-55.5 -26q-14 0 -26 5t-26 13l-62 36l-54 -51l-22 25q14 35 37.5 60.5t56.5 25.5
q14 0 25.5 -4.5t24.5 -12.5l63 -37l54 52z" />
    <glyph glyph-name="Odieresis" unicode="&#xd6;" horiz-adv-x="659" 
d="M378 678q119 0 182.5 -77.5t63.5 -212.5q0 -75 -20 -147t-60.5 -128.5t-101.5 -91t-142 -34.5q-119 0 -182.5 77.5t-63.5 212.5q0 75 20 147t60.5 128.5t101.5 91t142 34.5zM365 625q-23 0 -44 -4.5t-47 -14.5q-27 -16 -50.5 -48t-41 -75.5t-27.5 -96.5t-10 -110
q0 -47 8 -90t27.5 -75.5t52 -51.5t80.5 -19q23 0 44 4.5t47 14.5q27 16 50.5 48t41 75.5t27.5 96.5t10 110q0 47 -8 90t-27.5 75.5t-52 51.5t-80.5 19zM285 851q8 0 15 -1t12 -3q10 -14 10 -35q0 -17 -5 -31.5t-13 -29.5h-61l-6 92q8 4 21 6t27 2zM500 851q18 0 27 -4
q10 -14 10 -35q0 -17 -5 -31.5t-13 -29.5h-61l-6 92q8 4 21 6t27 2z" />
    <glyph glyph-name="multiply" unicode="&#xd7;" 
d="M529 452l-175 -160l147 -161l-26 -32l-16 -9l-148 162l-177 -163l-30 31l-5 15l173 160l-148 162l26 32l16 9l149 -164l178 164l29 -29z" />
    <glyph glyph-name="Oslash" unicode="&#xd8;" horiz-adv-x="659" 
d="M565 595q57 -74 59 -200q1 -77 -19 -150.5t-61 -130.5t-102 -92t-142 -35q-44 0 -80 11t-64 31l-72 -101l-40 18l-4 11l77 108q-61 75 -63 205q-1 77 19 150.5t61 130.5t102 92t142 35q90 0 150 -46l74 105l40 -18l4 -11zM274 606q-27 -16 -50.5 -48t-41 -75.5
t-27.5 -96.5t-10 -110q0 -40 5.5 -76.5t18.5 -66.5l314 442q-20 23 -48.5 36.5t-69.5 13.5q-23 0 -44 -4.5t-47 -14.5zM404 59q27 16 50.5 48t41 75.5t27.5 96.5t10 110q0 38 -5 73t-17 64l-311 -441q20 -21 47.5 -33t65.5 -12q23 0 44 4.5t47 14.5z" />
    <glyph glyph-name="Ugrave" unicode="&#xd9;" horiz-adv-x="660" 
d="M677 626q-18 -8 -45 -14t-45 -6q-3 -49 -7 -103.5t-7.5 -106.5t-7.5 -97.5t-8 -75.5q-14 -114 -73.5 -175t-165.5 -61q-102 0 -155 56.5t-53 165.5q0 28 3 75t8 103.5t11 116t11 112.5l-81 6v20l3 23h245v-39q-19 -7 -43 -12t-44 -7q-6 -64 -12.5 -125.5t-11 -115
t-7.5 -96.5t-3 -70q0 -86 33.5 -123t102.5 -37q31 0 57.5 6t48.5 17q23 20 40 59t25 108l7 77q5 47 9 99.5t7.5 107t6.5 102.5l-78 6v20l3 23h226v-39zM358 723l-115 120q11 15 26.5 28t34.5 21h24l80 -169h-50z" />
    <glyph glyph-name="Uacute" unicode="&#xda;" horiz-adv-x="660" 
d="M677 626q-18 -8 -45 -14t-45 -6q-3 -49 -7 -103.5t-7.5 -106.5t-7.5 -97.5t-8 -75.5q-14 -114 -73.5 -175t-165.5 -61q-102 0 -155 56.5t-53 165.5q0 28 3 75t8 103.5t11 116t11 112.5l-81 6v20l3 23h245v-39q-19 -7 -43 -12t-44 -7q-6 -64 -12.5 -125.5t-11 -115
t-7.5 -96.5t-3 -70q0 -86 33.5 -123t102.5 -37q31 0 57.5 6t48.5 17q23 20 40 59t25 108l7 77q5 47 9 99.5t7.5 107t6.5 102.5l-78 6v20l3 23h226v-39zM499 893q15 -7 28 -19.5t21 -29.5l-143 -121h-50l120 170h24z" />
    <glyph glyph-name="Ucircumflex" unicode="&#xdb;" horiz-adv-x="660" 
d="M677 626q-18 -8 -45 -14t-45 -6q-3 -49 -7 -103.5t-7.5 -106.5t-7.5 -97.5t-8 -75.5q-14 -114 -73.5 -175t-165.5 -61q-102 0 -155 56.5t-53 165.5q0 28 3 75t8 103.5t11 116t11 112.5l-81 6v20l3 23h245v-39q-19 -7 -43 -12t-44 -7q-6 -64 -12.5 -125.5t-11 -115
t-7.5 -96.5t-3 -70q0 -86 33.5 -123t102.5 -37q31 0 57.5 6t48.5 17q23 20 40 59t25 108l7 77q5 47 9 99.5t7.5 107t6.5 102.5l-78 6v20l3 23h226v-39zM468 713l-78 91h-9l-86 -81h-54l148 161h46l91 -134z" />
    <glyph glyph-name="Udieresis" unicode="&#xdc;" horiz-adv-x="660" 
d="M677 626q-18 -8 -45 -14t-45 -6q-3 -49 -7 -103.5t-7.5 -106.5t-7.5 -97.5t-8 -75.5q-14 -114 -73.5 -175t-165.5 -61q-102 0 -155 56.5t-53 165.5q0 28 3 75t8 103.5t11 116t11 112.5l-81 6v20l3 23h245v-39q-19 -7 -43 -12t-44 -7q-6 -64 -12.5 -125.5t-11 -115
t-7.5 -96.5t-3 -70q0 -86 33.5 -123t102.5 -37q31 0 57.5 6t48.5 17q23 20 40 59t25 108l7 77q5 47 9 99.5t7.5 107t6.5 102.5l-78 6v20l3 23h226v-39zM291 851q8 0 15 -1t12 -3q10 -14 10 -35q0 -17 -5 -31.5t-13 -29.5h-61l-6 92q8 4 21 6t27 2zM506 851q18 0 27 -4
q10 -14 10 -35q0 -17 -5 -31.5t-13 -29.5h-61l-6 92q8 4 21 6t27 2z" />
    <glyph glyph-name="Yacute" unicode="&#xdd;" horiz-adv-x="616" 
d="M562 606q-42 -94 -95.5 -184.5t-114.5 -184.5l-17 -189l87 -5v-20l-3 -23h-258v39q9 4 21 7t25 6t25.5 4.5t22.5 2.5l16 180q-20 52 -40 103.5t-39.5 100t-38.5 92.5t-35 82l-69 5v20l3 23h234v-39q-15 -7 -38.5 -12t-43.5 -7q13 -33 29.5 -73.5t32.5 -82.5t31.5 -83
t27.5 -75h10q45 73 91 156.5t78 166.5l-76 6v20l3 23h208v-39q-17 -8 -38.5 -13.5t-38.5 -6.5zM467 893q15 -7 28 -19.5t21 -29.5l-143 -121h-50l120 170h24z" />
    <glyph glyph-name="Thorn" unicode="&#xde;" horiz-adv-x="537" 
d="M288 559q68 0 110.5 -16t66 -42.5t32 -60.5t8.5 -69q0 -60 -17 -103t-45.5 -70.5t-66 -40t-77.5 -12.5q-13 0 -25 1t-23 3v41q41 2 65.5 6t44.5 11q28 29 40.5 69.5t12.5 90.5q0 32 -5.5 58t-19 44t-37.5 28t-61 10h-63l-40 -458l91 -5v-21l-3 -23h-251v39q17 8 42 13
t43 7l47 558l-80 5v20l3 23h154l7 -14l-8 -92h55z" />
    <glyph glyph-name="germandbls" unicode="&#xdf;" horiz-adv-x="522" 
d="M504 623q0 -41 -12.5 -77.5t-34.5 -70.5t-52.5 -66.5t-65.5 -66.5q40 -42 67.5 -72.5t44.5 -54.5t24.5 -44t7.5 -41q0 -31 -13.5 -57t-36 -45t-53.5 -30t-65 -11q-83 0 -109 67l38 42l78 -64q14 0 32 3t35 8q11 14 16.5 28.5t5.5 36.5q0 14 -7.5 37.5t-41.5 61.5
q-14 15 -26 27t-21 25t-14.5 27.5t-5.5 33.5q0 12 2.5 21t7.5 17.5t13.5 19t19.5 26.5q24 33 40 61t25 53t13 48t4 46q0 54 -17 74t-51 20q-27 0 -57 -11q-19 -14 -36 -36t-31.5 -56.5t-26 -84.5t-17.5 -120l-34 -372q-6 -66 -20.5 -111.5t-36 -74t-50 -41t-62.5 -12.5
q-32 0 -61.5 10.5t-49.5 30.5l17 41q29 -8 66.5 -16.5t79.5 -9.5q17 21 25 56.5t13 83.5l39 448l-75 6v38q17 6 40.5 10.5t43.5 7.5q11 55 32.5 102.5t54 82.5t74.5 55t93 20q131 0 131 -130z" />
    <glyph glyph-name="agrave" unicode="&#xe0;" horiz-adv-x="554" 
d="M544 57q-28 -29 -64 -47t-69 -18q-23 0 -39.5 11.5t-16.5 40.5q0 13 3.5 34t10 55t16 83t22.5 118l-11 3q-32 -109 -58 -177t-51.5 -106.5t-54 -52.5t-64.5 -14q-29 0 -53 8t-41 27.5t-26.5 51.5t-9.5 81q0 57 14 120t45 116t79 87.5t117 34.5q31 0 59.5 -9t48.5 -30
l3 31q11 5 25.5 6.5t30.5 1.5l19 -13l-51 -448q23 0 50.5 12.5t50.5 29.5zM217 41q19 22 38.5 56.5t40.5 82.5t45 111.5t52 144.5q-23 14 -50.5 22t-54.5 8q-18 0 -35.5 -3t-30.5 -7q-27 -26 -46 -62t-31 -77t-17.5 -84.5t-5.5 -83.5q0 -64 14.5 -87.5t48.5 -23.5q14 0 32 3
zM281 573l-110 144q14 18 29 30t36 20h24l68 -194h-47z" />
    <glyph glyph-name="aacute" unicode="&#xe1;" horiz-adv-x="554" 
d="M544 57q-28 -29 -64 -47t-69 -18q-23 0 -39.5 11.5t-16.5 40.5q0 13 3.5 34t10 55t16 83t22.5 118l-11 3q-32 -109 -58 -177t-51.5 -106.5t-54 -52.5t-64.5 -14q-29 0 -53 8t-41 27.5t-26.5 51.5t-9.5 81q0 57 14 120t45 116t79 87.5t117 34.5q31 0 59.5 -9t48.5 -30
l3 31q11 5 25.5 6.5t30.5 1.5l19 -13l-51 -448q23 0 50.5 12.5t50.5 29.5zM217 41q19 22 38.5 56.5t40.5 82.5t45 111.5t52 144.5q-23 14 -50.5 22t-54.5 8q-18 0 -35.5 -3t-30.5 -7q-27 -26 -46 -62t-31 -77t-17.5 -84.5t-5.5 -83.5q0 -64 14.5 -87.5t48.5 -23.5q14 0 32 3
zM414 767q16 -7 29.5 -20.5t20.5 -29.5l-137 -144h-48l111 194h24z" />
    <glyph glyph-name="acircumflex" unicode="&#xe2;" horiz-adv-x="554" 
d="M544 57q-28 -29 -64 -47t-69 -18q-23 0 -39.5 11.5t-16.5 40.5q0 13 3.5 34t10 55t16 83t22.5 118l-11 3q-32 -109 -58 -177t-51.5 -106.5t-54 -52.5t-64.5 -14q-29 0 -53 8t-41 27.5t-26.5 51.5t-9.5 81q0 57 14 120t45 116t79 87.5t117 34.5q31 0 59.5 -9t48.5 -30
l3 31q11 5 25.5 6.5t30.5 1.5l19 -13l-51 -448q23 0 50.5 12.5t50.5 29.5zM217 41q19 22 38.5 56.5t40.5 82.5t45 111.5t52 144.5q-23 14 -50.5 22t-54.5 8q-18 0 -35.5 -3t-30.5 -7q-27 -26 -46 -62t-31 -77t-17.5 -84.5t-5.5 -83.5q0 -64 14.5 -87.5t48.5 -23.5q14 0 32 3
zM377 571l-67 111h-9l-80 -108h-48l137 188h45l81 -161z" />
    <glyph glyph-name="atilde" unicode="&#xe3;" horiz-adv-x="554" 
d="M544 57q-28 -29 -64 -47t-69 -18q-23 0 -39.5 11.5t-16.5 40.5q0 13 3.5 34t10 55t16 83t22.5 118l-11 3q-32 -109 -58 -177t-51.5 -106.5t-54 -52.5t-64.5 -14q-29 0 -53 8t-41 27.5t-26.5 51.5t-9.5 81q0 57 14 120t45 116t79 87.5t117 34.5q31 0 59.5 -9t48.5 -30
l3 31q11 5 25.5 6.5t30.5 1.5l19 -13l-51 -448q23 0 50.5 12.5t50.5 29.5zM217 41q19 22 38.5 56.5t40.5 82.5t45 111.5t52 144.5q-23 14 -50.5 22t-54.5 8q-18 0 -35.5 -3t-30.5 -7q-27 -26 -46 -62t-31 -77t-17.5 -84.5t-5.5 -83.5q0 -64 14.5 -87.5t48.5 -23.5q14 0 32 3
zM449 695q-6 -11 -15 -26.5t-21 -30t-27 -24.5t-33 -10q-9 0 -20.5 3.5t-28.5 14.5l-55 34l-54 -51l-22 26q6 10 15 25.5t21 30t27.5 24.5t33.5 10q9 0 20 -4t29 -15l54 -33l55 51z" />
    <glyph glyph-name="adieresis" unicode="&#xe4;" horiz-adv-x="554" 
d="M544 57q-28 -29 -64 -47t-69 -18q-23 0 -39.5 11.5t-16.5 40.5q0 13 3.5 34t10 55t16 83t22.5 118l-11 3q-32 -109 -58 -177t-51.5 -106.5t-54 -52.5t-64.5 -14q-29 0 -53 8t-41 27.5t-26.5 51.5t-9.5 81q0 57 14 120t45 116t79 87.5t117 34.5q31 0 59.5 -9t48.5 -30
l3 31q11 5 25.5 6.5t30.5 1.5l19 -13l-51 -448q23 0 50.5 12.5t50.5 29.5zM217 41q19 22 38.5 56.5t40.5 82.5t45 111.5t52 144.5q-23 14 -50.5 22t-54.5 8q-18 0 -35.5 -3t-30.5 -7q-27 -26 -46 -62t-31 -77t-17.5 -84.5t-5.5 -83.5q0 -64 14.5 -87.5t48.5 -23.5q14 0 32 3
zM229 713q17 0 25 -4q5 -10 7.5 -18t2.5 -19q0 -15 -5.5 -29t-13.5 -28h-59l-5 91q19 7 48 7zM413 713q17 0 26 -4q5 -9 7.5 -17.5t2.5 -18.5q0 -15 -5.5 -29.5t-13.5 -28.5h-59l-5 91q19 7 47 7z" />
    <glyph glyph-name="aring" unicode="&#xe5;" horiz-adv-x="554" 
d="M544 57q-28 -29 -64 -47t-69 -18q-23 0 -39.5 11.5t-16.5 40.5q0 13 3.5 34t10 55t16 83t22.5 118l-11 3q-32 -109 -58 -177t-51.5 -106.5t-54 -52.5t-64.5 -14q-29 0 -53 8t-41 27.5t-26.5 51.5t-9.5 81q0 57 14 120t45 116t79 87.5t117 34.5q31 0 59.5 -9t48.5 -30
l3 31q11 5 25.5 6.5t30.5 1.5l19 -13l-51 -448q23 0 50.5 12.5t50.5 29.5zM217 41q19 22 38.5 56.5t40.5 82.5t45 111.5t52 144.5q-23 14 -50.5 22t-54.5 8q-18 0 -35.5 -3t-30.5 -7q-27 -26 -46 -62t-31 -77t-17.5 -84.5t-5.5 -83.5q0 -64 14.5 -87.5t48.5 -23.5q14 0 32 3
zM326 770q41 0 64 -21t23 -63q0 -52 -32 -77t-76 -25q-42 0 -65.5 21t-23.5 63q0 26 9 45t24 32t35 19t42 6zM320 730q-6 0 -13.5 -1.5t-12.5 -4.5q-7 -8 -12 -23t-5 -34q0 -23 8.5 -33t23.5 -10q6 0 13.5 1.5t12.5 4.5q7 8 12 23t5 34q0 23 -8.5 33t-23.5 10z" />
    <glyph glyph-name="ae" unicode="&#xe6;" horiz-adv-x="734" 
d="M501 50q32 0 76 21.5t87 63.5l18 -36q-45 -54 -96 -83t-106 -29q-52 0 -79.5 24t-39 58.5t-11 74t6.5 69.5l-11 3q-16 -56 -31 -99t-35.5 -72t-47.5 -43.5t-67 -14.5q-28 0 -51 8t-40 27.5t-26.5 52t-9.5 81.5q0 57 14 119.5t45 115.5t79.5 87.5t117.5 34.5q86 0 132 -58
q33 33 68 45.5t73 12.5q70 0 104 -31.5t34 -84.5q0 -46 -23.5 -80t-64 -56t-93.5 -32.5t-111 -9.5l-1 -25q0 -77 25.5 -110.5t63.5 -33.5zM335 294q31 85 69 134q-29 19 -55 28.5t-59 9.5q-20 0 -37.5 -3t-30.5 -7q-27 -26 -46 -62t-31 -77t-17.5 -84.5t-5.5 -83.5
q0 -32 3.5 -53.5t11 -34.5t20 -18t29.5 -5q5 0 12 0.5t15 1.5q41 51 68.5 116.5t53.5 137.5zM496 453q-18 -15 -31.5 -37.5t-23 -49t-16 -55t-9.5 -55.5q103 11 154 41t51 98q0 29 -12.5 50t-50.5 21q-31 0 -62 -13z" />
    <glyph glyph-name="ccedilla" unicode="&#xe7;" horiz-adv-x="430" 
d="M207 50q28 0 69 17t86 58l18 -36q-45 -51 -93.5 -76.5t-97.5 -25.5q-41 0 -70 17t-47.5 45.5t-27 65.5t-8.5 77q0 48 13 104.5t42 104.5t75.5 80t114.5 32q18 0 36 -3t34 -10t28.5 -19t18.5 -31l-34 -51l-119 66q-23 -3 -41 -12q-24 -20 -40 -51.5t-25.5 -67t-14 -71.5
t-4.5 -66q0 -40 6.5 -68t18 -45.5t27.5 -25.5t35 -8zM218 -68q29 -1 49.5 -12.5t20.5 -43.5q0 -36 -28.5 -62.5t-78.5 -26.5q-52 0 -82 27l11 34q12 -5 26 -9.5t31 -4.5q23 0 39 11.5t16 31.5q0 14 -11 19.5t-48 13.5l24 96h39z" />
    <glyph glyph-name="egrave" unicode="&#xe8;" horiz-adv-x="442" 
d="M209 50q32 0 76 21.5t87 63.5l18 -36q-47 -57 -98.5 -84.5t-102.5 -27.5q-41 0 -69.5 16.5t-47.5 44.5t-27.5 65t-8.5 78q0 49 12.5 105.5t41.5 104.5t75 80t114 32q66 0 100 -31.5t34 -85.5q0 -45 -23.5 -79t-64 -56t-93.5 -32.5t-111 -9.5l-1 -25q0 -77 25.5 -110.5
t63.5 -33.5zM204 453q-18 -15 -31.5 -37.5t-23 -49t-16 -55t-9.5 -55.5q103 11 154 41t51 98q0 29 -12.5 50t-50.5 21q-31 0 -62 -13zM251 573l-110 144q14 18 29 30t36 20h24l68 -194h-47z" />
    <glyph glyph-name="eacute" unicode="&#xe9;" horiz-adv-x="442" 
d="M209 50q32 0 76 21.5t87 63.5l18 -36q-47 -57 -98.5 -84.5t-102.5 -27.5q-41 0 -69.5 16.5t-47.5 44.5t-27.5 65t-8.5 78q0 49 12.5 105.5t41.5 104.5t75 80t114 32q66 0 100 -31.5t34 -85.5q0 -45 -23.5 -79t-64 -56t-93.5 -32.5t-111 -9.5l-1 -25q0 -77 25.5 -110.5
t63.5 -33.5zM204 453q-18 -15 -31.5 -37.5t-23 -49t-16 -55t-9.5 -55.5q103 11 154 41t51 98q0 29 -12.5 50t-50.5 21q-31 0 -62 -13zM384 767q16 -7 29.5 -20.5t20.5 -29.5l-137 -144h-48l111 194h24z" />
    <glyph glyph-name="ecircumflex" unicode="&#xea;" horiz-adv-x="442" 
d="M209 50q32 0 76 21.5t87 63.5l18 -36q-47 -57 -98.5 -84.5t-102.5 -27.5q-41 0 -69.5 16.5t-47.5 44.5t-27.5 65t-8.5 78q0 49 12.5 105.5t41.5 104.5t75 80t114 32q66 0 100 -31.5t34 -85.5q0 -45 -23.5 -79t-64 -56t-93.5 -32.5t-111 -9.5l-1 -25q0 -77 25.5 -110.5
t63.5 -33.5zM204 453q-18 -15 -31.5 -37.5t-23 -49t-16 -55t-9.5 -55.5q103 11 154 41t51 98q0 29 -12.5 50t-50.5 21q-31 0 -62 -13zM347 571l-67 111h-9l-80 -108h-48l137 188h45l81 -161z" />
    <glyph glyph-name="edieresis" unicode="&#xeb;" horiz-adv-x="442" 
d="M209 50q32 0 76 21.5t87 63.5l18 -36q-47 -57 -98.5 -84.5t-102.5 -27.5q-41 0 -69.5 16.5t-47.5 44.5t-27.5 65t-8.5 78q0 49 12.5 105.5t41.5 104.5t75 80t114 32q66 0 100 -31.5t34 -85.5q0 -45 -23.5 -79t-64 -56t-93.5 -32.5t-111 -9.5l-1 -25q0 -77 25.5 -110.5
t63.5 -33.5zM204 453q-18 -15 -31.5 -37.5t-23 -49t-16 -55t-9.5 -55.5q103 11 154 41t51 98q0 29 -12.5 50t-50.5 21q-31 0 -62 -13zM199 713q17 0 25 -4q5 -10 7.5 -18t2.5 -19q0 -15 -5.5 -29t-13.5 -28h-59l-5 91q19 7 48 7zM383 713q17 0 26 -4q5 -9 7.5 -17.5
t2.5 -18.5q0 -15 -5.5 -29.5t-13.5 -28.5h-59l-5 91q19 7 47 7z" />
    <glyph glyph-name="igrave" unicode="&#xec;" horiz-adv-x="268" 
d="M197 495q-2 -16 -5.5 -47t-8 -70t-9.5 -83.5t-10.5 -88.5t-10 -84t-7.5 -70q25 0 49.5 12.5t47.5 29.5l15 -37q-28 -29 -61.5 -47t-66.5 -18q-24 0 -41.5 12.5t-17.5 44.5q0 12 2.5 40t6.5 65t9 78.5t10 80.5t9 72t7 52h-81v38q30 12 69.5 21t73.5 12zM144 573l-98 144
q14 18 29 30t36 20h24l56 -194h-47z" />
    <glyph glyph-name="iacute" unicode="&#xed;" horiz-adv-x="268" 
d="M197 495q-2 -16 -5.5 -47t-8 -70t-9.5 -83.5t-10.5 -88.5t-10 -84t-7.5 -70q25 0 49.5 12.5t47.5 29.5l15 -37q-28 -29 -61.5 -47t-66.5 -18q-24 0 -41.5 12.5t-17.5 44.5q0 12 2.5 40t6.5 65t9 78.5t10 80.5t9 72t7 52h-81v38q30 12 69.5 21t73.5 12zM251 767
q16 -7 29.5 -20.5t19.5 -29.5l-111 -144h-48l86 194h24z" />
    <glyph glyph-name="icircumflex" unicode="&#xee;" horiz-adv-x="268" 
d="M197 495q-2 -16 -5.5 -47t-8 -70t-9.5 -83.5t-10.5 -88.5t-10 -84t-7.5 -70q25 0 49.5 12.5t47.5 29.5l15 -37q-28 -29 -61.5 -47t-66.5 -18q-24 0 -41.5 12.5t-17.5 44.5q0 12 2.5 40t6.5 65t9 78.5t10 80.5t9 72t7 52h-81v38q30 12 69.5 21t73.5 12zM227 583l-50 94h-9
l-62 -94h-48l117 179h46l64 -151z" />
    <glyph glyph-name="idieresis" unicode="&#xef;" horiz-adv-x="268" 
d="M197 495q-2 -16 -5.5 -47t-8 -70t-9.5 -83.5t-10.5 -88.5t-10 -84t-7.5 -70q25 0 49.5 12.5t47.5 29.5l15 -37q-28 -29 -61.5 -47t-66.5 -18q-24 0 -41.5 12.5t-17.5 44.5q0 12 2.5 40t6.5 65t9 78.5t10 80.5t9 72t7 52h-81v38q30 12 69.5 21t73.5 12zM99 713q17 0 25 -4
q10 -16 10 -37q0 -29 -19 -57h-59l-5 91q19 7 48 7zM265 713q17 0 26 -4q10 -14 10 -37q0 -28 -19 -57h-59l-5 91q19 7 47 7z" />
    <glyph glyph-name="eth" unicode="&#xf0;" horiz-adv-x="487" 
d="M311 661q42 -35 69.5 -74t43.5 -80.5t22.5 -84t6.5 -83.5q0 -69 -15 -133t-46 -112.5t-77 -78t-108 -29.5q-81 0 -126.5 51.5t-45.5 147.5q0 47 12.5 101t40 99.5t71 75.5t105.5 30q35 0 53 -9t35 -21l8 3q-10 41 -36.5 82.5t-68.5 81.5l-103 -63l-35 22l-3 10l104 63
q-22 17 -46.5 33t-51.5 30l21 33q77 -29 129 -64l101 61l35 -22l2 -11zM280 49q24 19 41 48.5t28 67t16 82t5 92.5q0 30 -3 75q-20 10 -45 18.5t-58 8.5q-17 0 -33 -2.5t-30 -7.5q-21 -20 -36.5 -49.5t-25.5 -63t-15 -68.5t-5 -68q0 -69 22 -109t73 -40q31 0 66 16z" />
    <glyph glyph-name="ntilde" unicode="&#xf1;" horiz-adv-x="579" 
d="M563 57q-28 -29 -63.5 -47t-68.5 -18q-24 0 -41.5 12.5t-17.5 41.5q0 20 8 66t17 99.5t17 104t8 79.5q0 34 -14 50.5t-47 16.5h-13q-7 0 -17 -2q-45 -53 -92.5 -165.5t-98.5 -294.5q-11 -5 -25 -6.5t-30 -1.5l-19 13l49 432h-81v38q30 12 69.5 21t73.5 12l19 -13
l-53 -319l11 -3q31 102 56 168t50 104t52.5 53t64.5 15q51 0 85 -27.5t34 -93.5q0 -24 -5 -63.5t-12.5 -85.5t-16 -96t-16.5 -95q25 0 52 12.5t50 29.5zM494 695q-6 -11 -15 -26.5t-21 -30t-27 -24.5t-33 -10q-9 0 -20.5 3.5t-28.5 14.5l-55 34l-54 -51l-22 26q6 10 15 25.5
t21 30t27.5 24.5t33.5 10q9 0 20 -4t29 -15l54 -33l55 51z" />
    <glyph glyph-name="ograve" unicode="&#xf2;" horiz-adv-x="492" 
d="M278 513q47 0 80.5 -16.5t55.5 -45t32 -66.5t10 -80q0 -47 -13 -102.5t-42 -103.5t-75.5 -80t-112.5 -32q-47 0 -80 16.5t-55 45t-32 66t-10 80.5q0 47 13 102.5t41.5 103.5t74.5 80t113 32zM267 466q-32 0 -63 -13q-24 -21 -40 -53.5t-25.5 -69.5t-14 -75t-4.5 -68
q0 -79 26.5 -116t79.5 -37q32 0 63 13q24 21 40 54t25.5 70.5t13.5 75t4 66.5q0 79 -26 116t-79 37zM251 573l-110 144q14 18 29 30t36 20h24l68 -194h-47z" />
    <glyph glyph-name="oacute" unicode="&#xf3;" horiz-adv-x="492" 
d="M278 513q47 0 80.5 -16.5t55.5 -45t32 -66.5t10 -80q0 -47 -13 -102.5t-42 -103.5t-75.5 -80t-112.5 -32q-47 0 -80 16.5t-55 45t-32 66t-10 80.5q0 47 13 102.5t41.5 103.5t74.5 80t113 32zM267 466q-32 0 -63 -13q-24 -21 -40 -53.5t-25.5 -69.5t-14 -75t-4.5 -68
q0 -79 26.5 -116t79.5 -37q32 0 63 13q24 21 40 54t25.5 70.5t13.5 75t4 66.5q0 79 -26 116t-79 37zM384 767q16 -7 29.5 -20.5t20.5 -29.5l-137 -144h-48l111 194h24z" />
    <glyph glyph-name="ocircumflex" unicode="&#xf4;" horiz-adv-x="492" 
d="M278 513q47 0 80.5 -16.5t55.5 -45t32 -66.5t10 -80q0 -47 -13 -102.5t-42 -103.5t-75.5 -80t-112.5 -32q-47 0 -80 16.5t-55 45t-32 66t-10 80.5q0 47 13 102.5t41.5 103.5t74.5 80t113 32zM267 466q-32 0 -63 -13q-24 -21 -40 -53.5t-25.5 -69.5t-14 -75t-4.5 -68
q0 -79 26.5 -116t79.5 -37q32 0 63 13q24 21 40 54t25.5 70.5t13.5 75t4 66.5q0 79 -26 116t-79 37zM347 571l-67 111h-9l-80 -108h-48l137 188h45l81 -161z" />
    <glyph glyph-name="otilde" unicode="&#xf5;" horiz-adv-x="492" 
d="M278 513q47 0 80.5 -16.5t55.5 -45t32 -66.5t10 -80q0 -47 -13 -102.5t-42 -103.5t-75.5 -80t-112.5 -32q-47 0 -80 16.5t-55 45t-32 66t-10 80.5q0 47 13 102.5t41.5 103.5t74.5 80t113 32zM267 466q-32 0 -63 -13q-24 -21 -40 -53.5t-25.5 -69.5t-14 -75t-4.5 -68
q0 -79 26.5 -116t79.5 -37q32 0 63 13q24 21 40 54t25.5 70.5t13.5 75t4 66.5q0 79 -26 116t-79 37zM419 695q-6 -11 -15 -26.5t-21 -30t-27 -24.5t-33 -10q-9 0 -20.5 3.5t-28.5 14.5l-55 34l-54 -51l-22 26q6 10 15 25.5t21 30t27.5 24.5t33.5 10q9 0 20 -4t29 -15l54 -33
l55 51z" />
    <glyph glyph-name="odieresis" unicode="&#xf6;" horiz-adv-x="492" 
d="M278 513q47 0 80.5 -16.5t55.5 -45t32 -66.5t10 -80q0 -47 -13 -102.5t-42 -103.5t-75.5 -80t-112.5 -32q-47 0 -80 16.5t-55 45t-32 66t-10 80.5q0 47 13 102.5t41.5 103.5t74.5 80t113 32zM267 466q-32 0 -63 -13q-24 -21 -40 -53.5t-25.5 -69.5t-14 -75t-4.5 -68
q0 -79 26.5 -116t79.5 -37q32 0 63 13q24 21 40 54t25.5 70.5t13.5 75t4 66.5q0 79 -26 116t-79 37zM199 713q17 0 25 -4q5 -10 7.5 -18t2.5 -19q0 -15 -5.5 -29t-13.5 -28h-59l-5 91q19 7 48 7zM383 713q17 0 26 -4q5 -9 7.5 -17.5t2.5 -18.5q0 -15 -5.5 -29.5t-13.5 -28.5
h-59l-5 91q19 7 47 7z" />
    <glyph glyph-name="divide" unicode="&#xf7;" 
d="M342 540q8 0 16.5 -1t14.5 -3q5 -10 8 -19t3 -21q0 -18 -6.5 -34t-15.5 -33h-68l-5 104q8 2 23 4.5t30 2.5zM524 265h-428v17l5 40h428v-17zM300 176q8 0 16.5 -1t14.5 -3q5 -10 8 -19t3 -21q0 -18 -6.5 -34t-15.5 -33h-68l-5 104q8 2 23 4.5t30 2.5z" />
    <glyph glyph-name="oslash" unicode="&#xf8;" horiz-adv-x="492" 
d="M410 456q24 -29 35 -67.5t11 -83.5q0 -47 -13 -102.5t-42 -103.5t-75.5 -80t-112.5 -32q-29 0 -52.5 6.5t-43.5 18.5l-59 -90l-38 18l-5 9l64 98q-22 29 -32.5 66.5t-10.5 81.5q0 47 13 102.5t41.5 103.5t74.5 80t113 32q29 0 52 -6.5t42 -17.5l64 98l38 -18l4 -10z
M204 453q-24 -21 -40 -53.5t-26.5 -69.5t-15 -75t-4.5 -68q0 -22 2 -40t6 -34l210 328q-25 25 -69 25q-32 0 -63 -13zM289 47q24 21 40.5 54t26 70.5t14 75.5t4.5 67q0 48 -10 78l-210 -330q25 -28 72 -28q32 0 63 13z" />
    <glyph glyph-name="ugrave" unicode="&#xf9;" horiz-adv-x="583" 
d="M573 57q-28 -29 -64 -47t-69 -18q-23 0 -39.5 11.5t-16.5 41.5q0 12 3 32t9 53t14.5 80.5t19.5 113.5l-11 3q-32 -102 -57 -168t-49.5 -104t-52 -53t-64.5 -15q-51 0 -85 27.5t-34 93.5q0 24 4.5 62.5t12 83t15.5 92t16 91.5h-81v38q30 12 69.5 21t73.5 12l19 -13
q-2 -14 -7 -43t-11 -65.5t-12.5 -78t-12 -80t-9 -71t-3.5 -51.5q0 -35 14 -51.5t47 -16.5h12q8 0 17 2q45 53 91 165.5t101 294.5q11 5 25 6.5t30 1.5l19 -13l-50 -443q23 0 50.5 12.5t50.5 29.5zM293 573l-110 144q14 18 29 30t36 20h24l68 -194h-47z" />
    <glyph glyph-name="uacute" unicode="&#xfa;" horiz-adv-x="583" 
d="M573 57q-28 -29 -64 -47t-69 -18q-23 0 -39.5 11.5t-16.5 41.5q0 12 3 32t9 53t14.5 80.5t19.5 113.5l-11 3q-32 -102 -57 -168t-49.5 -104t-52 -53t-64.5 -15q-51 0 -85 27.5t-34 93.5q0 24 4.5 62.5t12 83t15.5 92t16 91.5h-81v38q30 12 69.5 21t73.5 12l19 -13
q-2 -14 -7 -43t-11 -65.5t-12.5 -78t-12 -80t-9 -71t-3.5 -51.5q0 -35 14 -51.5t47 -16.5h12q8 0 17 2q45 53 91 165.5t101 294.5q11 5 25 6.5t30 1.5l19 -13l-50 -443q23 0 50.5 12.5t50.5 29.5zM426 767q16 -7 29.5 -20.5t20.5 -29.5l-137 -144h-48l111 194h24z" />
    <glyph glyph-name="ucircumflex" unicode="&#xfb;" horiz-adv-x="583" 
d="M573 57q-28 -29 -64 -47t-69 -18q-23 0 -39.5 11.5t-16.5 41.5q0 12 3 32t9 53t14.5 80.5t19.5 113.5l-11 3q-32 -102 -57 -168t-49.5 -104t-52 -53t-64.5 -15q-51 0 -85 27.5t-34 93.5q0 24 4.5 62.5t12 83t15.5 92t16 91.5h-81v38q30 12 69.5 21t73.5 12l19 -13
q-2 -14 -7 -43t-11 -65.5t-12.5 -78t-12 -80t-9 -71t-3.5 -51.5q0 -35 14 -51.5t47 -16.5h12q8 0 17 2q45 53 91 165.5t101 294.5q11 5 25 6.5t30 1.5l19 -13l-50 -443q23 0 50.5 12.5t50.5 29.5zM389 571l-67 111h-9l-80 -108h-48l137 188h45l81 -161z" />
    <glyph glyph-name="udieresis" unicode="&#xfc;" horiz-adv-x="583" 
d="M573 57q-28 -29 -64 -47t-69 -18q-23 0 -39.5 11.5t-16.5 41.5q0 12 3 32t9 53t14.5 80.5t19.5 113.5l-11 3q-32 -102 -57 -168t-49.5 -104t-52 -53t-64.5 -15q-51 0 -85 27.5t-34 93.5q0 24 4.5 62.5t12 83t15.5 92t16 91.5h-81v38q30 12 69.5 21t73.5 12l19 -13
q-2 -14 -7 -43t-11 -65.5t-12.5 -78t-12 -80t-9 -71t-3.5 -51.5q0 -35 14 -51.5t47 -16.5h12q8 0 17 2q45 53 91 165.5t101 294.5q11 5 25 6.5t30 1.5l19 -13l-50 -443q23 0 50.5 12.5t50.5 29.5zM241 713q17 0 25 -4q5 -10 7.5 -18t2.5 -19q0 -15 -5.5 -29t-13.5 -28h-59
l-5 91q19 7 48 7zM425 713q17 0 26 -4q5 -9 7.5 -17.5t2.5 -18.5q0 -15 -5.5 -29.5t-13.5 -28.5h-59l-5 91q19 7 47 7z" />
    <glyph glyph-name="yacute" unicode="&#xfd;" horiz-adv-x="509" 
d="M397 513q35 -8 57 -40t22 -83q0 -35 -12 -83.5t-36 -104.5t-60.5 -117.5t-85.5 -122.5q-30 -38 -61.5 -70t-62 -55.5t-59.5 -36.5t-56 -13q-29 0 -57.5 12.5t-48.5 35.5l17 41q26 -9 60 -19t72 -13q33 20 60 44.5t52 57.5q-13 61 -27 128t-28 132.5t-27.5 125
t-25.5 105.5h-81v38q32 13 62.5 22t62.5 11l20 -13q16 -68 31.5 -135.5t28.5 -130.5t22.5 -119t14.5 -99h10q22 30 45.5 72.5t45 90t38.5 97t25 94.5l-71 106zM394 767q16 -7 29.5 -20.5t20.5 -29.5l-137 -144h-48l111 194h24z" />
    <glyph glyph-name="thorn" unicode="&#xfe;" horiz-adv-x="530" 
d="M363 513q29 0 52.5 -8t40.5 -27.5t26.5 -51.5t9.5 -81q0 -57 -14 -120t-44 -116t-78 -87.5t-116 -34.5q-33 0 -63 10t-50 34l-23 -236q-11 -5 -26.5 -6.5t-31.5 -1.5l-19 13l100 882l-68 10l4 38q28 8 62.5 14.5t66.5 8.5l19 -13l-44 -302q-12 -84 -22 -147.5t-23 -124.5
l11 -3q32 109 58.5 177t52.5 106.5t54.5 52.5t64.5 14zM310 44q27 25 45.5 61.5t30.5 77.5t17 84t5 83q0 64 -14 88t-48 24q-13 0 -31 -3q-19 -22 -38.5 -55t-40.5 -80t-45 -111t-53 -147q23 -15 51 -23.5t56 -8.5q17 0 34.5 3t30.5 7z" />
    <glyph glyph-name="ydieresis" unicode="&#xff;" horiz-adv-x="509" 
d="M397 513q35 -8 57 -40t22 -83q0 -35 -12 -83.5t-36 -104.5t-60.5 -117.5t-85.5 -122.5q-30 -38 -61.5 -70t-62 -55.5t-59.5 -36.5t-56 -13q-29 0 -57.5 12.5t-48.5 35.5l17 41q26 -9 60 -19t72 -13q33 20 60 44.5t52 57.5q-13 61 -27 128t-28 132.5t-27.5 125
t-25.5 105.5h-81v38q32 13 62.5 22t62.5 11l20 -13q16 -68 31.5 -135.5t28.5 -130.5t22.5 -119t14.5 -99h10q22 30 45.5 72.5t45 90t38.5 97t25 94.5l-71 106zM209 713q17 0 25 -4q5 -10 7.5 -18t2.5 -19q0 -15 -5.5 -29t-13.5 -28h-59l-5 91q19 7 48 7zM393 713q17 0 26 -4
q5 -9 7.5 -17.5t2.5 -18.5q0 -15 -5.5 -29.5t-13.5 -28.5h-59l-5 91q19 7 47 7z" />
    <glyph glyph-name="Amacron" unicode="&#x100;" horiz-adv-x="638" 
d="M608 23l-3 -23h-224v39q14 7 35 12t37 7l-33 141h-232l-59 -151l75 -5v-20l-3 -23h-205v39q15 8 36.5 13t37.5 7q59 143 120 284.5t128 284.5l-11 47l16 13q17 0 34 -1.5t30 -6.5q36 -159 74 -316.5t80 -316.5l67 -4v-20zM408 249q-17 74 -33 147t-32 147h-10
q-34 -74 -65 -147t-60 -147h200zM480 830q2 -6 2 -20q0 -7 -1.5 -20t-7.5 -25h-250q-2 6 -2 19q0 7 2 21t7 25h250z" />
    <glyph glyph-name="amacron" unicode="&#x101;" horiz-adv-x="554" 
d="M544 57q-28 -29 -64 -47t-69 -18q-23 0 -39.5 11.5t-16.5 40.5q0 13 3.5 34t10 55t16 83t22.5 118l-11 3q-32 -109 -58 -177t-51.5 -106.5t-54 -52.5t-64.5 -14q-29 0 -53 8t-41 27.5t-26.5 51.5t-9.5 81q0 57 14 120t45 116t79 87.5t117 34.5q31 0 59.5 -9t48.5 -30
l3 31q11 5 25.5 6.5t30.5 1.5l19 -13l-51 -448q23 0 50.5 12.5t50.5 29.5zM217 41q19 22 38.5 56.5t40.5 82.5t45 111.5t52 144.5q-23 14 -50.5 22t-54.5 8q-18 0 -35.5 -3t-30.5 -7q-27 -26 -46 -62t-31 -77t-17.5 -84.5t-5.5 -83.5q0 -64 14.5 -87.5t48.5 -23.5q14 0 32 3
zM431 685q2 -4 2 -17q0 -7 -1.5 -20t-7.5 -25h-232q-2 4 -2 16q0 7 2 21t7 25h232z" />
    <glyph glyph-name="Abreve" unicode="&#x102;" horiz-adv-x="638" 
d="M608 23l-3 -23h-224v39q14 7 35 12t37 7l-33 141h-232l-59 -151l75 -5v-20l-3 -23h-205v39q15 8 36.5 13t37.5 7q59 143 120 284.5t128 284.5l-11 47l16 13q17 0 34 -1.5t30 -6.5q36 -159 74 -316.5t80 -316.5l67 -4v-20zM408 249q-17 74 -33 147t-32 147h-10
q-34 -74 -65 -147t-60 -147h200zM281 866q10 -83 78 -83q37 0 59 22t43 61l29 -13q-20 -60 -55 -95t-94 -35q-57 0 -86.5 32.5t-29.5 89.5z" />
    <glyph glyph-name="abreve" unicode="&#x103;" horiz-adv-x="554" 
d="M544 57q-28 -29 -64 -47t-69 -18q-23 0 -39.5 11.5t-16.5 40.5q0 13 3.5 34t10 55t16 83t22.5 118l-11 3q-32 -109 -58 -177t-51.5 -106.5t-54 -52.5t-64.5 -14q-29 0 -53 8t-41 27.5t-26.5 51.5t-9.5 81q0 57 14 120t45 116t79 87.5t117 34.5q31 0 59.5 -9t48.5 -30
l3 31q11 5 25.5 6.5t30.5 1.5l19 -13l-51 -448q23 0 50.5 12.5t50.5 29.5zM217 41q19 22 38.5 56.5t40.5 82.5t45 111.5t52 144.5q-23 14 -50.5 22t-54.5 8q-18 0 -35.5 -3t-30.5 -7q-27 -26 -46 -62t-31 -77t-17.5 -84.5t-5.5 -83.5q0 -64 14.5 -87.5t48.5 -23.5q14 0 32 3
zM252 749q2 -53 18.5 -77.5t50.5 -24.5q37 0 57.5 27t36.5 75l30 -13q-17 -72 -52 -110t-92 -38q-34 0 -55.5 12.5t-33.5 32.5t-15.5 45t-0.5 50z" />
    <glyph glyph-name="Aogonek" unicode="&#x104;" horiz-adv-x="638" 
d="M608 23l-3 -23h-161q-29 -33 -41 -59t-12 -51q0 -31 15.5 -43.5t38.5 -12.5q15 0 27.5 3.5t21.5 7.5l5 -31q-18 -14 -37.5 -20.5t-44.5 -6.5q-46 0 -70 22.5t-24 61.5q0 48 34.5 96t97.5 86q-9 37 -18 73t-17 73h-232l-59 -151l75 -5v-20l-3 -23h-205v39q15 8 36.5 13
t37.5 7q59 143 120 284.5t128 284.5l-11 47l16 13q17 0 34 -1.5t30 -6.5q36 -159 73.5 -316.5t79.5 -315.5l68 -5v-20zM408 249q-17 74 -33 147t-32 147h-10q-34 -74 -65 -147t-60 -147h200z" />
    <glyph glyph-name="aogonek" unicode="&#x105;" horiz-adv-x="554" 
d="M465 -166q13 0 26 3t24 8l5 -31q-33 -27 -83 -27q-48 0 -69.5 22.5t-21.5 54.5q0 19 7 37t18.5 33.5t26 28.5t30.5 22l-3 9q-5 -1 -10 -1q-25 0 -42.5 11t-17.5 41q0 12 3.5 33t10 55t16 83t22.5 118l-11 3q-32 -109 -58 -177t-51.5 -106.5t-54 -52.5t-64.5 -14
q-29 0 -53 8t-41 27.5t-26.5 51.5t-9.5 81q0 57 14 120t45 116t79 87.5t117 34.5q31 0 59.5 -9t48.5 -30l3 31q11 5 25.5 6.5t30.5 1.5l19 -13l-51 -448q23 0 50.5 12.5t50.5 29.5l15 -37q-18 -15 -40.5 -34t-42.5 -41t-34 -46.5t-14 -50.5t14 -38.5t38 -12.5zM217 41
q19 22 38.5 56.5t40.5 82.5t45 111.5t52 144.5q-23 14 -50.5 22t-54.5 8q-18 0 -35.5 -3t-30.5 -7q-27 -26 -46 -62t-31 -77t-17.5 -84.5t-5.5 -83.5q0 -64 14.5 -87.5t48.5 -23.5q14 0 32 3z" />
    <glyph glyph-name="Cacute" unicode="&#x106;" horiz-adv-x="581" 
d="M273 606q-27 -16 -50.5 -48t-41 -75.5t-27.5 -96.5t-10 -110q0 -62 11 -104.5t31.5 -69t50 -38.5t67.5 -12q16 0 38.5 5t48 15.5t53 27.5t54.5 42l19 -37q-54 -60 -116.5 -89t-121.5 -29q-60 0 -103 20.5t-70 58t-40 89.5t-13 115q0 77 20.5 150.5t61 130.5t101 92
t141.5 35q32 0 55.5 -6.5t42.5 -17.5l1 16q14 4 24.5 6t23.5 2l20 -13q1 -5 1.5 -12t0.5 -17q0 -27 -4.5 -64.5t-10.5 -75.5h-52l-5 110q-24 9 -52.5 14t-54.5 5q-44 0 -94 -19zM478 893q15 -7 28 -19.5t21 -29.5l-143 -121h-50l120 170h24z" />
    <glyph glyph-name="cacute" unicode="&#x107;" horiz-adv-x="430" 
d="M207 50q28 0 69 17t86 58l18 -36q-45 -51 -93.5 -76.5t-97.5 -25.5q-41 0 -70 17t-47.5 45.5t-27 65.5t-8.5 77q0 48 13 104.5t42 104.5t75.5 80t114.5 32q18 0 36 -3t34 -10t28.5 -19t18.5 -31l-34 -51l-119 66q-23 -3 -41 -12q-24 -20 -40 -51.5t-25.5 -67t-14 -71.5
t-4.5 -66q0 -40 6.5 -68t18 -45.5t27.5 -25.5t35 -8zM369 767q16 -7 29.5 -20.5t20.5 -29.5l-137 -144h-48l111 194h24z" />
    <glyph glyph-name="Ccircumflex" unicode="&#x108;" horiz-adv-x="581" 
d="M273 606q-27 -16 -50.5 -48t-41 -75.5t-27.5 -96.5t-10 -110q0 -62 11 -104.5t31.5 -69t50 -38.5t67.5 -12q16 0 38.5 5t48 15.5t53 27.5t54.5 42l19 -37q-54 -60 -116.5 -89t-121.5 -29q-60 0 -103 20.5t-70 58t-40 89.5t-13 115q0 77 20.5 150.5t61 130.5t101 92
t141.5 35q32 0 55.5 -6.5t42.5 -17.5l1 16q14 4 24.5 6t23.5 2l20 -13q1 -5 1.5 -12t0.5 -17q0 -27 -4.5 -64.5t-10.5 -75.5h-52l-5 110q-24 9 -52.5 14t-54.5 5q-44 0 -94 -19zM447 713l-78 91h-9l-86 -81h-54l148 161h46l91 -134z" />
    <glyph glyph-name="ccircumflex" unicode="&#x109;" horiz-adv-x="430" 
d="M207 50q28 0 69 17t86 58l18 -36q-45 -51 -93.5 -76.5t-97.5 -25.5q-41 0 -70 17t-47.5 45.5t-27 65.5t-8.5 77q0 48 13 104.5t42 104.5t75.5 80t114.5 32q18 0 36 -3t34 -10t28.5 -19t18.5 -31l-34 -51l-119 66q-23 -3 -41 -12q-24 -20 -40 -51.5t-25.5 -67t-14 -71.5
t-4.5 -66q0 -40 6.5 -68t18 -45.5t27.5 -25.5t35 -8zM332 571l-67 111h-9l-80 -108h-48l137 188h45l81 -161z" />
    <glyph glyph-name="Cdotaccent" unicode="&#x10a;" horiz-adv-x="581" 
d="M273 606q-27 -16 -50.5 -48t-41 -75.5t-27.5 -96.5t-10 -110q0 -62 11 -104.5t31.5 -69t50 -38.5t67.5 -12q16 0 38.5 5t48 15.5t53 27.5t54.5 42l19 -37q-54 -60 -116.5 -89t-121.5 -29q-60 0 -103 20.5t-70 58t-40 89.5t-13 115q0 77 20.5 150.5t61 130.5t101 92
t141.5 35q32 0 55.5 -6.5t42.5 -17.5l1 16q14 4 24.5 6t23.5 2l20 -13q1 -5 1.5 -12t0.5 -17q0 -27 -4.5 -64.5t-10.5 -75.5h-52l-5 110q-24 9 -52.5 14t-54.5 5q-44 0 -94 -19zM375 854q10 0 17 -1.5t14 -3.5q11 -19 11 -39q0 -18 -6.5 -33.5t-16.5 -32.5h-65l-4 101
q8 4 22 6.5t28 2.5z" />
    <glyph glyph-name="cdotaccent" unicode="&#x10b;" horiz-adv-x="430" 
d="M207 50q28 0 69 17t86 58l18 -36q-45 -51 -93.5 -76.5t-97.5 -25.5q-41 0 -70 17t-47.5 45.5t-27 65.5t-8.5 77q0 48 13 104.5t42 104.5t75.5 80t114.5 32q18 0 36 -3t34 -10t28.5 -19t18.5 -31l-34 -51l-119 66q-23 -3 -41 -12q-24 -20 -40 -51.5t-25.5 -67t-14 -71.5
t-4.5 -66q0 -40 6.5 -68t18 -45.5t27.5 -25.5t35 -8zM278 723q16 0 27 -4q5 -10 8 -18.5t3 -19.5q0 -18 -6.5 -33t-15.5 -32h-64l-5 100q8 2 23 4.5t30 2.5z" />
    <glyph glyph-name="Ccaron" unicode="&#x10c;" horiz-adv-x="581" 
d="M273 606q-27 -16 -50.5 -48t-41 -75.5t-27.5 -96.5t-10 -110q0 -62 11 -104.5t31.5 -69t50 -38.5t67.5 -12q16 0 38.5 5t48 15.5t53 27.5t54.5 42l19 -37q-54 -60 -116.5 -89t-121.5 -29q-60 0 -103 20.5t-70 58t-40 89.5t-13 115q0 77 20.5 150.5t61 130.5t101 92
t141.5 35q32 0 55.5 -6.5t42.5 -17.5l1 16q14 4 24.5 6t23.5 2l20 -13q1 -5 1.5 -12t0.5 -17q0 -27 -4.5 -64.5t-10.5 -75.5h-52l-5 110q-24 9 -52.5 14t-54.5 5q-44 0 -94 -19zM381 803l86 81h54l-148 -161h-46l-92 133l60 36l77 -89h9z" />
    <glyph glyph-name="ccaron" unicode="&#x10d;" horiz-adv-x="430" 
d="M207 50q28 0 69 17t86 58l18 -36q-45 -51 -93.5 -76.5t-97.5 -25.5q-41 0 -70 17t-47.5 45.5t-27 65.5t-8.5 77q0 48 13 104.5t42 104.5t75.5 80t114.5 32q18 0 36 -3t34 -10t28.5 -19t18.5 -31l-34 -51l-119 66q-23 -3 -41 -12q-24 -20 -40 -51.5t-25.5 -67t-14 -71.5
t-4.5 -66q0 -40 6.5 -68t18 -45.5t27.5 -25.5t35 -8zM279 655l81 108h48l-136 -188h-46l-81 161l59 30l66 -111h9z" />
    <glyph glyph-name="Dcaron" unicode="&#x10e;" horiz-adv-x="637" 
d="M299 670q86 0 144 -21t93 -58.5t50 -90.5t15 -116q0 -62 -15 -129.5t-52 -124t-100.5 -93.5t-159.5 -37h-249v39q19 7 41 12t44 8l47 552l-80 5v20l3 24q27 2 58.5 4t62 3.5t56.5 2t42 0.5zM416 89q27 28 45 63.5t29 75t15.5 80t4.5 78.5q0 118 -43.5 177t-145.5 58
l-84 -1l-49 -570h77q52 0 87 10t64 29zM379 803l86 81h54l-148 -161h-46l-92 133l60 36l77 -89h9z" />
    <glyph glyph-name="dcaron" unicode="&#x10f;" horiz-adv-x="612" 
d="M544 57q-28 -29 -64 -47t-69 -18q-23 0 -39.5 11.5t-16.5 40.5q0 13 3.5 34t10 55t16 83t22.5 118l-11 3q-32 -109 -58 -177t-51.5 -106.5t-54 -52.5t-64.5 -14q-29 0 -53 8t-41 27.5t-26.5 51.5t-9.5 81q0 57 14 120t44.5 116t79.5 87.5t118 34.5q31 0 60 -8t49 -25
l20 202l-68 10l4 38q28 8 62.5 14.5t66.5 8.5l19 -13l-80 -688q23 0 51 12.5t51 29.5zM216 41q40 47 82 144.5t96 256.5q-23 11 -51 17.5t-54 6.5q-20 0 -37 -3t-30 -7q-27 -26 -46 -62t-31 -77t-17.5 -84.5t-5.5 -83.5q0 -64 14.5 -87.5t48.5 -23.5q13 0 31 3zM613 753
q17 0 31 -4.5t22 -9.5q-5 -59 -21.5 -106.5t-54.5 -98.5h-35l31 122v93q6 2 13.5 3t13.5 1z" />
    <glyph glyph-name="Dcroat" unicode="&#x110;" horiz-adv-x="650" 
d="M312 670q86 0 144 -21t93 -58.5t50 -90.5t15 -116q0 -62 -15 -129.5t-52 -124t-100.5 -93.5t-159.5 -37h-249v39q19 7 40.5 12.5t44.5 7.5l22 259h-77v17l5 35h76l21 241l-80 5v20l3 24q27 2 58.5 4t62 3.5t56.5 2t42 0.5zM429 89q27 28 45 63.5t29 75t15.5 80t4.5 78.5
q0 118 -43.5 177t-145.5 58l-84 -1l-21 -250h127v-17l-5 -35h-127l-23 -268h77q52 0 87 10t64 29z" />
    <glyph glyph-name="dcroat" unicode="&#x111;" horiz-adv-x="554" 
d="M577 644l-6 -27h-78l-66 -565q23 0 51 12.5t51 29.5l15 -37q-28 -29 -64 -47t-69 -18q-23 0 -39.5 11.5t-16.5 40.5q0 13 3.5 34t10 55t16 83t22.5 118l-11 3q-32 -109 -58 -177t-51.5 -106.5t-54 -52.5t-64.5 -14q-29 0 -53 8t-41 27.5t-26.5 51.5t-9.5 81q0 57 14 120
t44.5 116t79.5 87.5t118 34.5q31 0 60 -8t49 -25l13 137h-129v20l6 27h127l7 75q16 5 30.5 8.5t30.5 5.5l19 -13l-9 -76h79v-20zM215 41q40 46 82 144t97 257q-23 11 -51 17.5t-54 6.5q-20 0 -37 -3t-30 -7q-27 -26 -46 -62t-31 -77t-17.5 -84.5t-5.5 -83.5
q0 -64 14.5 -87.5t48.5 -23.5q13 0 30 3z" />
    <glyph glyph-name="Emacron" unicode="&#x112;" horiz-adv-x="556" 
d="M214 366l181 7l10 -18l-6 -46l-189 8l-23 -271h209l34 107l53 -6q1 -11 1.5 -20.5t0.5 -21.5q0 -29 -5 -56t-18 -64l-13 -1l-298 16h-127v39q19 7 41 12t44 8l47 552l-80 4v20l4 25q57 2 116.5 3.5t116.5 1.5h150q13 5 26 9t25 4l20 -13q1 -5 1.5 -12t0.5 -17
q0 -27 -4.5 -61.5t-10.5 -64.5h-52l-5 98l-229 10zM453 830q2 -6 2 -20q0 -7 -1.5 -20t-7.5 -25h-250q-2 6 -2 19q0 7 2 21t7 25h250z" />
    <glyph glyph-name="emacron" unicode="&#x113;" horiz-adv-x="442" 
d="M209 50q32 0 76 21.5t87 63.5l18 -36q-47 -57 -98.5 -84.5t-102.5 -27.5q-41 0 -69.5 16.5t-47.5 44.5t-27.5 65t-8.5 78q0 49 12.5 105.5t41.5 104.5t75 80t114 32q66 0 100 -31.5t34 -85.5q0 -45 -23.5 -79t-64 -56t-93.5 -32.5t-111 -9.5l-1 -25q0 -77 25.5 -110.5
t63.5 -33.5zM204 453q-18 -15 -31.5 -37.5t-23 -49t-16 -55t-9.5 -55.5q103 11 154 41t51 98q0 29 -12.5 50t-50.5 21q-31 0 -62 -13zM401 685q2 -4 2 -17q0 -7 -1.5 -20t-7.5 -25h-232q-2 4 -2 16q0 7 2 21t7 25h232z" />
    <glyph glyph-name="Ebreve" unicode="&#x114;" horiz-adv-x="556" 
d="M214 366l181 7l10 -18l-6 -46l-189 8l-23 -271h209l34 107l53 -6q1 -11 1.5 -20.5t0.5 -21.5q0 -29 -5 -56t-18 -64l-13 -1l-298 16h-127v39q19 7 41 12t44 8l47 552l-80 4v20l4 25q57 2 116.5 3.5t116.5 1.5h150q13 5 26 9t25 4l20 -13q1 -5 1.5 -12t0.5 -17
q0 -27 -4.5 -61.5t-10.5 -64.5h-52l-5 98l-229 10zM254 866q10 -83 78 -83q37 0 59 22t43 61l29 -13q-20 -60 -55 -95t-94 -35q-57 0 -86.5 32.5t-29.5 89.5z" />
    <glyph glyph-name="ebreve" unicode="&#x115;" horiz-adv-x="442" 
d="M209 50q32 0 76 21.5t87 63.5l18 -36q-47 -57 -98.5 -84.5t-102.5 -27.5q-41 0 -69.5 16.5t-47.5 44.5t-27.5 65t-8.5 78q0 49 12.5 105.5t41.5 104.5t75 80t114 32q66 0 100 -31.5t34 -85.5q0 -45 -23.5 -79t-64 -56t-93.5 -32.5t-111 -9.5l-1 -25q0 -77 25.5 -110.5
t63.5 -33.5zM204 453q-18 -15 -31.5 -37.5t-23 -49t-16 -55t-9.5 -55.5q103 11 154 41t51 98q0 29 -12.5 50t-50.5 21q-31 0 -62 -13zM222 749q2 -53 18.5 -77.5t50.5 -24.5q37 0 57.5 27t36.5 75l30 -13q-17 -72 -52 -110t-92 -38q-34 0 -55.5 12.5t-33.5 32.5t-15.5 45
t-0.5 50z" />
    <glyph glyph-name="Edotaccent" unicode="&#x116;" horiz-adv-x="556" 
d="M214 366l181 7l10 -18l-6 -46l-189 8l-23 -271h209l34 107l53 -6q1 -11 1.5 -20.5t0.5 -21.5q0 -29 -5 -56t-18 -64l-13 -1l-298 16h-127v39q19 7 41 12t44 8l47 552l-80 4v20l4 25q57 2 116.5 3.5t116.5 1.5h150q13 5 26 9t25 4l20 -13q1 -5 1.5 -12t0.5 -17
q0 -27 -4.5 -61.5t-10.5 -64.5h-52l-5 98l-229 10zM331 854q10 0 17 -1.5t14 -3.5q11 -19 11 -39q0 -18 -6.5 -33.5t-16.5 -32.5h-65l-4 101q8 4 22 6.5t28 2.5z" />
    <glyph glyph-name="edotaccent" unicode="&#x117;" horiz-adv-x="442" 
d="M209 50q32 0 76 21.5t87 63.5l18 -36q-47 -57 -98.5 -84.5t-102.5 -27.5q-41 0 -69.5 16.5t-47.5 44.5t-27.5 65t-8.5 78q0 49 12.5 105.5t41.5 104.5t75 80t114 32q66 0 100 -31.5t34 -85.5q0 -45 -23.5 -79t-64 -56t-93.5 -32.5t-111 -9.5l-1 -25q0 -77 25.5 -110.5
t63.5 -33.5zM204 453q-18 -15 -31.5 -37.5t-23 -49t-16 -55t-9.5 -55.5q103 11 154 41t51 98q0 29 -12.5 50t-50.5 21q-31 0 -62 -13zM293 723q16 0 27 -4q5 -10 8 -18.5t3 -19.5q0 -18 -6.5 -33t-15.5 -32h-64l-5 100q8 2 23 4.5t30 2.5z" />
    <glyph glyph-name="Eogonek" unicode="&#x118;" horiz-adv-x="556" 
d="M214 366l181 7l10 -18l-6 -46l-189 8l-23 -271h209l34 107l53 -6q1 -11 1.5 -20.5t0.5 -21.5q0 -29 -5 -55t-18 -63h-63q-28 -32 -39.5 -58t-11.5 -46q0 -23 14 -36t38 -13q13 0 26 3t24 8l5 -31q-33 -27 -83 -27q-48 0 -69.5 22t-21.5 57q0 65 68 114v9l-198 11h-127v39
q19 7 41 12t44 8l47 552l-80 4v20l4 25q57 2 116.5 3.5t116.5 1.5h150q13 5 26 9t25 4l20 -13q1 -5 1.5 -12t0.5 -17q0 -27 -4.5 -61.5t-10.5 -64.5h-52l-5 98l-229 10z" />
    <glyph glyph-name="eogonek" unicode="&#x119;" horiz-adv-x="442" 
d="M209 51q32 0 76 21.5t87 62.5l18 -36q-17 -21 -41 -42.5t-46 -39.5q-47 -38 -65 -72.5t-18 -59.5t14 -38t38 -13q13 0 26 3t24 8l5 -31q-33 -27 -83 -27q-48 0 -69.5 22t-21.5 54q0 19 7 36.5t18.5 32.5t25 28.5t26.5 24.5l-4 9q-10 -3 -19.5 -5t-23.5 -2
q-38 0 -65.5 16.5t-45.5 44t-27 65t-9 79.5q0 48 12.5 104.5t41.5 104.5t75 80t114 32q66 0 100 -31.5t34 -85.5q0 -45 -23.5 -79t-64 -56t-93.5 -32.5t-111 -9.5l-1 -25q0 -76 25.5 -109.5t63.5 -33.5zM204 453q-18 -15 -31.5 -37.5t-23 -49t-16 -55t-9.5 -55.5
q103 11 154 41t51 98q0 29 -12.5 50t-50.5 21q-31 0 -62 -13z" />
    <glyph glyph-name="Ecaron" unicode="&#x11a;" horiz-adv-x="556" 
d="M214 366l181 7l10 -18l-6 -46l-189 8l-23 -271h209l34 107l53 -6q1 -11 1.5 -20.5t0.5 -21.5q0 -29 -5 -56t-18 -64l-13 -1l-298 16h-127v39q19 7 41 12t44 8l47 552l-80 4v20l4 25q57 2 116.5 3.5t116.5 1.5h150q13 5 26 9t25 4l20 -13q1 -5 1.5 -12t0.5 -17
q0 -27 -4.5 -61.5t-10.5 -64.5h-52l-5 98l-229 10zM337 803l86 81h54l-148 -161h-46l-92 133l60 36l77 -89h9z" />
    <glyph glyph-name="ecaron" unicode="&#x11b;" horiz-adv-x="442" 
d="M209 50q32 0 76 21.5t87 63.5l18 -36q-47 -57 -98.5 -84.5t-102.5 -27.5q-41 0 -69.5 16.5t-47.5 44.5t-27.5 65t-8.5 78q0 49 12.5 105.5t41.5 104.5t75 80t114 32q66 0 100 -31.5t34 -85.5q0 -45 -23.5 -79t-64 -56t-93.5 -32.5t-111 -9.5l-1 -25q0 -77 25.5 -110.5
t63.5 -33.5zM204 453q-18 -15 -31.5 -37.5t-23 -49t-16 -55t-9.5 -55.5q103 11 154 41t51 98q0 29 -12.5 50t-50.5 21q-31 0 -62 -13zM294 655l81 108h48l-136 -188h-46l-81 161l59 30l66 -111h9z" />
    <glyph glyph-name="Gcircumflex" unicode="&#x11c;" horiz-adv-x="624" 
d="M582 250q-19 -9 -46 -13l-19 -236l-19 -13q-16 0 -26 1.5t-21 6.5l-4 35q-32 -24 -70 -34t-78 -10q-121 0 -183 76t-62 210q0 76 20.5 148.5t61 129.5t101 92t140.5 35q35 0 62.5 -6t47.5 -17l1 15q14 4 24.5 6t23.5 2l20 -13q1 -5 1.5 -12t0.5 -17q0 -27 -4.5 -64.5
t-10.5 -75.5h-52l-5 111q-23 8 -55.5 13t-58.5 5q-49 0 -99 -19q-27 -16 -50.5 -48t-41 -75.5t-27.5 -96.5t-10 -110q0 -47 8 -90t27.5 -75.5t52 -51.5t80.5 -19q34 0 71 10t65 28l10 162l-79 4v21l4 24h199v-39zM449 713l-78 91h-9l-86 -81h-54l148 161h46l91 -134z" />
    <glyph glyph-name="gcircumflex" unicode="&#x11d;" horiz-adv-x="484" 
d="M271 64q37 -13 66.5 -23t50 -22t31.5 -28t11 -41q0 -30 -16.5 -59t-50 -52.5t-83.5 -37.5t-116 -14q-88 0 -134 26.5t-46 77.5q0 28 14 52t37 43t52.5 34t60.5 26q-15 16 -15 38q0 20 11 40.5t31 40.5q-59 11 -89.5 49t-30.5 95q0 43 16.5 80t45 64.5t66 43.5t79.5 16
q32 0 58 -9t46 -25q34 103 102 103l26 -55l-105 -70q36 -44 36 -102q0 -34 -14 -68.5t-40.5 -62t-65.5 -45t-90 -17.5h-11l-8 -72zM139 312q0 -31 8 -51t20.5 -31.5t28 -16t30.5 -4.5q14 0 31 3t30 8q22 19 38 60t16 85q0 29 -7.5 48.5t-19.5 31t-27.5 16t-31.5 4.5
q-15 0 -31.5 -3.5t-30.5 -8.5q-23 -18 -38.5 -57.5t-15.5 -83.5zM339 -127q18 21 18 45q0 17 -9.5 30t-38.5 24l-113 44q-8 3 -15 6l-13 7q-41 -26 -70.5 -56.5t-29.5 -65.5q0 -36 31.5 -54.5t85.5 -18.5q38 0 80 9.5t74 29.5zM330 571l-67 111h-9l-80 -108h-48l137 188h45
l81 -161z" />
    <glyph glyph-name="Gbreve" unicode="&#x11e;" horiz-adv-x="624" 
d="M582 250q-19 -9 -46 -13l-19 -236l-19 -13q-16 0 -26 1.5t-21 6.5l-4 35q-32 -24 -70 -34t-78 -10q-121 0 -183 76t-62 210q0 76 20.5 148.5t61 129.5t101 92t140.5 35q35 0 62.5 -6t47.5 -17l1 15q14 4 24.5 6t23.5 2l20 -13q1 -5 1.5 -12t0.5 -17q0 -27 -4.5 -64.5
t-10.5 -75.5h-52l-5 111q-23 8 -55.5 13t-58.5 5q-49 0 -99 -19q-27 -16 -50.5 -48t-41 -75.5t-27.5 -96.5t-10 -110q0 -47 8 -90t27.5 -75.5t52 -51.5t80.5 -19q34 0 71 10t65 28l10 162l-79 4v21l4 24h199v-39zM300 866q10 -83 78 -83q37 0 59 22t43 61l29 -13
q-20 -60 -55 -95t-94 -35q-57 0 -86.5 32.5t-29.5 89.5z" />
    <glyph glyph-name="gbreve" unicode="&#x11f;" horiz-adv-x="484" 
d="M271 64q37 -13 66.5 -23t50 -22t31.5 -28t11 -41q0 -30 -16.5 -59t-50 -52.5t-83.5 -37.5t-116 -14q-88 0 -134 26.5t-46 77.5q0 28 14 52t37 43t52.5 34t60.5 26q-15 16 -15 38q0 20 11 40.5t31 40.5q-59 11 -89.5 49t-30.5 95q0 43 16.5 80t45 64.5t66 43.5t79.5 16
q32 0 58 -9t46 -25q34 103 102 103l26 -55l-105 -70q36 -44 36 -102q0 -34 -14 -68.5t-40.5 -62t-65.5 -45t-90 -17.5h-11l-8 -72zM139 312q0 -31 8 -51t20.5 -31.5t28 -16t30.5 -4.5q14 0 31 3t30 8q22 19 38 60t16 85q0 29 -7.5 48.5t-19.5 31t-27.5 16t-31.5 4.5
q-15 0 -31.5 -3.5t-30.5 -8.5q-23 -18 -38.5 -57.5t-15.5 -83.5zM339 -127q18 21 18 45q0 17 -9.5 30t-38.5 24l-113 44q-8 3 -15 6l-13 7q-41 -26 -70.5 -56.5t-29.5 -65.5q0 -36 31.5 -54.5t85.5 -18.5q38 0 80 9.5t74 29.5zM205 749q2 -53 18.5 -77.5t50.5 -24.5
q37 0 57.5 27t36.5 75l30 -13q-17 -72 -52 -110t-92 -38q-34 0 -55.5 12.5t-33.5 32.5t-15.5 45t-0.5 50z" />
    <glyph glyph-name="Gdotaccent" unicode="&#x120;" horiz-adv-x="624" 
d="M582 250q-19 -9 -46 -13l-19 -236l-19 -13q-16 0 -26 1.5t-21 6.5l-4 35q-32 -24 -70 -34t-78 -10q-121 0 -183 76t-62 210q0 76 20.5 148.5t61 129.5t101 92t140.5 35q35 0 62.5 -6t47.5 -17l1 15q14 4 24.5 6t23.5 2l20 -13q1 -5 1.5 -12t0.5 -17q0 -27 -4.5 -64.5
t-10.5 -75.5h-52l-5 111q-23 8 -55.5 13t-58.5 5q-49 0 -99 -19q-27 -16 -50.5 -48t-41 -75.5t-27.5 -96.5t-10 -110q0 -47 8 -90t27.5 -75.5t52 -51.5t80.5 -19q34 0 71 10t65 28l10 162l-79 4v21l4 24h199v-39zM377 854q10 0 17 -1.5t14 -3.5q11 -19 11 -39
q0 -18 -6.5 -33.5t-16.5 -32.5h-65l-4 101q8 4 22 6.5t28 2.5z" />
    <glyph glyph-name="gdotaccent" unicode="&#x121;" horiz-adv-x="484" 
d="M271 64q37 -13 66.5 -23t50 -22t31.5 -28t11 -41q0 -30 -16.5 -59t-50 -52.5t-83.5 -37.5t-116 -14q-88 0 -134 26.5t-46 77.5q0 28 14 52t37 43t52.5 34t60.5 26q-15 16 -15 38q0 20 11 40.5t31 40.5q-59 11 -89.5 49t-30.5 95q0 43 16.5 80t45 64.5t66 43.5t79.5 16
q32 0 58 -9t46 -25q34 103 102 103l26 -55l-105 -70q36 -44 36 -102q0 -34 -14 -68.5t-40.5 -62t-65.5 -45t-90 -17.5h-11l-8 -72zM139 312q0 -31 8 -51t20.5 -31.5t28 -16t30.5 -4.5q14 0 31 3t30 8q22 19 38 60t16 85q0 29 -7.5 48.5t-19.5 31t-27.5 16t-31.5 4.5
q-15 0 -31.5 -3.5t-30.5 -8.5q-23 -18 -38.5 -57.5t-15.5 -83.5zM339 -127q18 21 18 45q0 17 -9.5 30t-38.5 24l-113 44q-8 3 -15 6l-13 7q-41 -26 -70.5 -56.5t-29.5 -65.5q0 -36 31.5 -54.5t85.5 -18.5q38 0 80 9.5t74 29.5zM276 723q16 0 27 -4q5 -10 8 -18.5t3 -19.5
q0 -18 -6.5 -33t-15.5 -32h-64l-5 100q8 2 23 4.5t30 2.5z" />
    <glyph glyph-name="uni0122" unicode="&#x122;" horiz-adv-x="624" 
d="M582 250q-19 -9 -46 -13l-19 -236l-19 -13q-16 0 -26 1.5t-21 6.5l-4 35q-32 -24 -70 -34t-78 -10q-121 0 -183 76t-62 210q0 76 20.5 148.5t61 129.5t101 92t140.5 35q35 0 62.5 -6t47.5 -17l1 15q14 4 24.5 6t23.5 2l20 -13q1 -5 1.5 -12t0.5 -17q0 -27 -4.5 -64.5
t-10.5 -75.5h-52l-5 111q-23 8 -55.5 13t-58.5 5q-49 0 -99 -19q-27 -16 -50.5 -48t-41 -75.5t-27.5 -96.5t-10 -110q0 -47 8 -90t27.5 -75.5t52 -51.5t80.5 -19q34 0 71 10t65 28l10 162l-79 4v21l4 24h199v-39zM290 -56q25 0 44 -11q5 -6 7 -18t2 -26q0 -48 -25 -83.5
t-69 -49.5l-12 24q23 15 38.5 31.5t15.5 44.5v12l-36 6l5 67q13 3 30 3z" />
    <glyph glyph-name="uni0123" unicode="&#x123;" horiz-adv-x="484" 
d="M271 64q37 -13 66.5 -23t50 -22t31.5 -28t11 -41q0 -30 -16.5 -59t-50 -52.5t-83.5 -37.5t-116 -14q-88 0 -134 26.5t-46 77.5q0 28 14 52t37 43t52.5 34t60.5 26q-15 16 -15 38q0 20 11 40.5t31 40.5q-59 11 -89.5 49t-30.5 95q0 43 16.5 80t45 64.5t66 43.5t79.5 16
q32 0 58 -9t46 -25q34 103 102 103l26 -55l-105 -70q36 -44 36 -102q0 -34 -14 -68.5t-40.5 -62t-65.5 -45t-90 -17.5h-11l-8 -72zM139 312q0 -31 8 -51t20.5 -31.5t28 -16t30.5 -4.5q14 0 31 3t30 8q22 19 38 60t16 85q0 29 -7.5 48.5t-19.5 31t-27.5 16t-31.5 4.5
q-15 0 -31.5 -3.5t-30.5 -8.5q-23 -18 -38.5 -57.5t-15.5 -83.5zM339 -127q18 21 18 45q0 17 -9.5 30t-38.5 24l-113 44q-8 3 -15 6l-13 7q-41 -26 -70.5 -56.5t-29.5 -65.5q0 -36 31.5 -54.5t85.5 -18.5q38 0 80 9.5t74 29.5zM320 747q-23 -15 -39.5 -32.5t-16.5 -45.5v-12
l36 -6l-5 -67q-14 -3 -30 -3q-25 0 -44 11q-5 6 -7 18t-2 26q0 48 26 84.5t70 50.5z" />
    <glyph glyph-name="Hcircumflex" unicode="&#x124;" horiz-adv-x="705" 
d="M701 626q-18 -8 -42.5 -13t-44.5 -7l-49 -558l82 -5v-20l-3 -23h-242v39q17 8 42 13t43 7l22 259h-298l-23 -270l82 -5v-20l-3 -23h-242v39q17 8 42 13t43 7l47 558l-80 5v20l3 23h244v-39q-18 -8 -43 -13t-45 -7l-21 -239h298l21 250l-80 5v20l3 23h244v-39zM492 713
l-78 91h-9l-86 -81h-54l148 161h46l91 -134z" />
    <glyph glyph-name="hcircumflex" unicode="&#x125;" horiz-adv-x="571" 
d="M555 57q-28 -29 -63.5 -47t-68.5 -18q-24 0 -41.5 12.5t-17.5 41.5q0 20 8 66t17 99.5t17 104t8 79.5q0 34 -14 50.5t-47 16.5h-13q-8 0 -19 -2q-45 -54 -90 -166t-99 -294q-11 -5 -25 -6.5t-30 -1.5l-19 13l65 637l-68 10l4 38q28 8 62.5 14.5t66.5 8.5l19 -13l-38 -292
q-8 -66 -15.5 -120t-18.5 -112l11 -3q31 102 56 168t50 104t52.5 53t64.5 15q51 0 85 -27.5t34 -93.5q0 -24 -5 -63.5t-12.5 -85.5t-16 -96t-16.5 -95q25 0 52 12.5t50 29.5zM219 753l123 141h46l79 -114l-58 -37l-66 80h-9l-61 -70h-54z" />
    <glyph glyph-name="Hbar" unicode="&#x126;" horiz-adv-x="729" 
d="M712 626q-18 -8 -42.5 -13t-44.5 -7l-9 -106h95v-14l-5 -34h-95l-35 -404l82 -5v-20l-3 -23h-242v39q17 8 42 13t43 7l19 229h-297l-21 -240l82 -5v-20l-3 -23h-242v39q17 8 42 13t43 7l33 393h-95v14l5 34h94l10 117l-80 5v20l3 23h244v-39q-18 -8 -42.5 -13t-44.5 -7
l-9 -106h296l10 117l-80 5v20l3 23h244v-39zM235 452l-11 -115h297l10 115h-296z" />
    <glyph glyph-name="hbar" unicode="&#x127;" horiz-adv-x="572" 
d="M556 57q-28 -29 -63.5 -47t-68.5 -18q-24 0 -41.5 12.5t-17.5 41.5q0 20 8 66t17 99.5t17 104t8 79.5q0 34 -14 50.5t-47 16.5h-13q-7 0 -17 -2q-45 -53 -91 -165.5t-100 -294.5q-11 -5 -25 -6.5t-30 -1.5l-19 13l62 613h-79v20l6 27h78l7 74q16 5 30 8t30 6l19 -13
l-10 -75h144v-20l-6 -27h-144l-27 -210q-8 -66 -15.5 -120t-18.5 -112l12 -3q31 102 56 168t50 104t52.5 53t64.5 15q51 0 85 -27.5t34 -93.5q0 -24 -5 -63.5t-12.5 -85.5t-16 -96t-16.5 -95q25 0 52 12.5t50 29.5z" />
    <glyph glyph-name="Itilde" unicode="&#x128;" horiz-adv-x="328" 
d="M324 626q-18 -8 -42.5 -13t-44.5 -7l-49 -558l82 -5v-20l-3 -23h-242v39q17 8 42 13t43 7l47 558l-80 5v20l3 23h244v-39zM347 831q-8 -16 -19 -31.5t-24 -28t-27.5 -20t-29.5 -7.5q-13 0 -24 5.5t-22 15.5l-39 34l-58 -54l-22 25q7 15 18 30.5t24 28t27.5 20.5t30.5 8
q13 0 24 -5.5t22 -15.5l38 -33l59 53z" />
    <glyph glyph-name="itilde" unicode="&#x129;" horiz-adv-x="268" 
d="M197 495q-2 -16 -5.5 -47t-8 -70t-9.5 -83.5t-10.5 -88.5t-10 -84t-7.5 -70q25 0 49.5 12.5t47.5 29.5l15 -37q-28 -29 -61.5 -47t-66.5 -18q-24 0 -41.5 12.5t-17.5 44.5q0 12 2.5 40t6.5 65t9 78.5t10 80.5t9 72t7 52h-81v38q30 12 69.5 21t73.5 12zM303 695
q-6 -15 -16 -31.5t-22 -29.5t-26.5 -21.5t-30.5 -8.5q-12 0 -21 5t-21 16l-38 33l-52 -53l-22 26q7 15 16.5 31t21.5 29t26.5 21.5t30.5 8.5q12 0 21 -5t21 -16l38 -33l52 53z" />
    <glyph glyph-name="Imacron" unicode="&#x12a;" horiz-adv-x="328" 
d="M324 626q-18 -8 -42.5 -13t-44.5 -7l-49 -558l82 -5v-20l-3 -23h-242v39q17 8 42 13t43 7l47 558l-80 5v20l3 23h244v-39zM343 830q2 -6 2 -20q0 -7 -1.5 -20t-7.5 -25h-250q-2 6 -2 19q0 7 2 21t7 25h250z" />
    <glyph glyph-name="imacron" unicode="&#x12b;" horiz-adv-x="268" 
d="M197 495q-2 -16 -5.5 -47t-8 -70t-9.5 -83.5t-10.5 -88.5t-10 -84t-7.5 -70q25 0 49.5 12.5t47.5 29.5l15 -37q-28 -29 -61.5 -47t-66.5 -18q-24 0 -41.5 12.5t-17.5 44.5q0 12 2.5 40t6.5 65t9 78.5t10 80.5t9 72t7 52h-81v38q30 12 69.5 21t73.5 12zM276 685
q2 -4 2 -17q0 -7 -1.5 -20t-7.5 -25h-197q-2 4 -2 16q0 7 2 21t7 25h197z" />
    <glyph glyph-name="Ibreve" unicode="&#x12c;" horiz-adv-x="328" 
d="M324 626q-18 -8 -42.5 -13t-44.5 -7l-49 -558l82 -5v-20l-3 -23h-242v39q17 8 42 13t43 7l47 558l-80 5v20l3 23h244v-39zM144 866q10 -83 78 -83q37 0 59 22t43 61l29 -13q-20 -60 -55 -95t-94 -35q-57 0 -86.5 32.5t-29.5 89.5z" />
    <glyph glyph-name="ibreve" unicode="&#x12d;" horiz-adv-x="268" 
d="M197 495q-2 -16 -5.5 -47t-8 -70t-9.5 -83.5t-10.5 -88.5t-10 -84t-7.5 -70q25 0 49.5 12.5t47.5 29.5l15 -37q-28 -29 -61.5 -47t-66.5 -18q-24 0 -41.5 12.5t-17.5 44.5q0 12 2.5 40t6.5 65t9 78.5t10 80.5t9 72t7 52h-81v38q30 12 69.5 21t73.5 12zM129 748
q0 -101 57 -101q32 0 50 26.5t35 74.5l29 -13q-20 -74 -50.5 -110.5t-79.5 -36.5q-50 0 -78 36.5t-19 102.5z" />
    <glyph glyph-name="Iogonek" unicode="&#x12e;" horiz-adv-x="328" 
d="M324 626q-18 -8 -42.5 -13t-44.5 -7l-49 -558l82 -5v-20l-3 -23q-66 -20 -103.5 -50.5t-37.5 -68.5q0 -47 50 -47q14 0 28 3.5t24 7.5l5 -31q-33 -27 -81 -27t-70.5 21.5t-22.5 55.5q0 41 28.5 74t71.5 52v10h-134v39q17 8 42.5 13t42.5 7l47 558l-80 5v20l3 23h244v-39z
" />
    <glyph glyph-name="iogonek" unicode="&#x12f;" horiz-adv-x="268" 
d="M186 723q16 0 27 -4q5 -10 8 -18.5t3 -19.5q0 -18 -6.5 -33t-15.5 -32h-64l-5 100q8 2 23 4.5t30 2.5zM197 495q-2 -16 -5.5 -47t-8 -70t-9.5 -83.5t-10.5 -88.5t-10 -84t-7.5 -70q25 0 49.5 12.5t47.5 29.5l15 -37q-18 -15 -41 -34t-44 -41t-35.5 -46.5t-14.5 -50.5
t14 -38.5t38 -12.5q13 0 26 3t24 8l5 -31q-33 -27 -83 -27q-48 0 -69.5 22.5t-21.5 54.5q0 19 7.5 37t19.5 33.5t27.5 28.5t31.5 22l-3 9q-5 -1 -10 -1q-24 0 -41 12t-17 44q0 12 2.5 40t6.5 65t9 78.5t10 80.5t9 72t7 52h-81v38q30 12 69.5 21t73.5 12z" />
    <glyph glyph-name="Idotaccent" unicode="&#x130;" horiz-adv-x="328" 
d="M324 626q-18 -8 -42.5 -13t-44.5 -7l-49 -558l82 -5v-20l-3 -23h-242v39q17 8 42 13t43 7l47 558l-80 5v20l3 23h244v-39zM221 854q10 0 17 -1.5t14 -3.5q11 -19 11 -39q0 -18 -6.5 -33.5t-16.5 -32.5h-65l-4 101q8 4 22 6.5t28 2.5z" />
    <glyph glyph-name="dotlessi" unicode="&#x131;" horiz-adv-x="268" 
d="M197 495q-2 -16 -5.5 -47t-8 -70t-9.5 -83.5t-10.5 -88.5t-10 -84t-7.5 -70q25 0 49.5 12.5t47.5 29.5l15 -37q-28 -29 -61.5 -47t-66.5 -18q-24 0 -41.5 12.5t-17.5 44.5q0 12 2.5 40t6.5 65t9 78.5t10 80.5t9 72t7 52h-81v38q30 12 69.5 21t73.5 12z" />
    <glyph glyph-name="IJ" unicode="&#x132;" horiz-adv-x="660" 
d="M25 0v39q17 8 42 13t43 7l47 558l-80 5v20l3 23h244v-39q-18 -8 -42.5 -13t-44.5 -7l-49 -558l82 -5v-20l-3 -23h-242zM660 626q-19 -8 -43 -13t-44 -7l-44 -496q-5 -52 -15 -92.5t-29.5 -68.5t-50.5 -43t-77 -15q-44 0 -81 12t-58 32l17 41q43 -11 91.5 -17.5t85.5 -8.5
q11 16 20 45.5t14 86.5l47 533l-103 5v20l4 25h266v-39z" />
    <glyph glyph-name="ij" unicode="&#x133;" horiz-adv-x="521" 
d="M409 11q-13 -118 -56.5 -171t-112.5 -53q-32 0 -58.5 10t-43.5 29l17 41q26 -8 61 -16.5t73 -8.5q19 23 28 58.5t14 80.5l52 456h-81v38q30 12 70 21t74 12l19 -13zM435 723q16 0 27 -4q5 -10 8 -18.5t3 -19.5q0 -18 -6.5 -33t-15.5 -32h-64l-5 100q8 2 23 4.5t30 2.5z
M197 495q-2 -16 -5.5 -47t-8 -70t-9.5 -83.5t-10.5 -88.5t-10 -84t-7.5 -70q25 0 49.5 12.5t47.5 29.5l15 -37q-28 -29 -61.5 -47t-66.5 -18q-24 0 -41.5 12.5t-17.5 44.5q0 12 2.5 40t6.5 65t9 78.5t10 80.5t9 72t7 52h-81v38q30 12 69.5 21t73.5 12zM186 723q16 0 27 -4
q5 -10 8 -18.5t3 -19.5q0 -18 -6.5 -33t-15.5 -32h-64l-5 100q8 2 23 4.5t30 2.5z" />
    <glyph glyph-name="Jcircumflex" unicode="&#x134;" horiz-adv-x="433" 
d="M433 626q-19 -8 -43 -13t-44 -7l-44 -496q-5 -52 -15 -92.5t-29.5 -68.5t-50.5 -43t-77 -15q-52 0 -96.5 17.5t-70.5 47.5l17 41q50 -20 106 -32.5t99 -14.5q11 16 20 45.5t14 86.5l47 533l-143 5v20l4 25h306v-39zM374 713l-78 91h-9l-86 -81h-54l148 161h46l91 -134z
" />
    <glyph glyph-name="jcircumflex" unicode="&#x135;" horiz-adv-x="253" 
d="M141 11q-13 -118 -56.5 -171t-112.5 -53q-32 0 -58.5 10t-43.5 29l17 41q26 -8 61 -16.5t73 -8.5q19 23 28 58.5t14 80.5l52 456h-81v38q30 12 70 21t74 12l19 -13zM208 583l-50 94h-9l-62 -94h-48l117 179h46l64 -151z" />
    <glyph glyph-name="uni0136" unicode="&#x136;" horiz-adv-x="639" 
d="M633 626q-16 -6 -36.5 -11.5t-39.5 -7.5q-45 -65 -93 -129t-104 -130q36 -89 75.5 -166.5t72.5 -127.5l72 4l6 -41q-47 -25 -88 -25q-33 0 -51 15.5t-32 35.5q-26 40 -54.5 110t-51.5 158h-99l-22 -263l82 -5v-20l-3 -23h-242v39q17 8 42 13t43 7l47 558l-80 5v20l3 23
h244v-39q-18 -8 -43 -13t-45 -7l-22 -249l102 6q48 63 90.5 127t80.5 127l-81 5v20l3 23h224v-39zM297 -56q25 0 44 -11q5 -6 7 -18t2 -26q0 -48 -25 -83.5t-69 -49.5l-12 24q23 15 38.5 31.5t15.5 44.5v12l-36 6l5 67q13 3 30 3z" />
    <glyph glyph-name="uni0137" unicode="&#x137;" horiz-adv-x="555" 
d="M517 56q-27 -29 -60.5 -46.5t-67.5 -17.5q-22 0 -37 8t-25 23t-17.5 37t-14.5 49q-11 41 -15.5 70t-4.5 48l61 15q38 34 63 77.5t25 85.5q0 29 -15.5 43t-52.5 14h-14q-8 0 -18 -2q-45 -53 -91 -165.5t-100 -294.5q-11 -5 -25 -6.5t-30 -1.5l-19 13l68 677l-68 10l4 38
q28 8 62.5 14.5t66.5 8.5l19 -13l-42 -332q-8 -66 -15 -120t-18 -112l11 -3q33 106 58.5 172.5t50.5 103.5t52.5 50.5t64.5 13.5q27 0 51.5 -6t43 -20t29.5 -36t11 -54q0 -36 -13.5 -67t-36.5 -56.5t-53 -43.5t-62 -28q12 -42 26 -79.5t36 -69.5q25 2 49 13t48 27zM244 -56
q25 0 44 -11q5 -6 7 -18t2 -26q0 -48 -25 -83.5t-69 -49.5l-12 24q23 15 38.5 31.5t15.5 44.5v12l-36 6l5 67q13 3 30 3z" />
    <glyph glyph-name="kgreenlandic" unicode="&#x138;" horiz-adv-x="531" 
d="M404 52q23 2 48.5 14t47.5 28l15 -37q-27 -29 -60.5 -47t-66.5 -18q-35 0 -53 22t-34 61q-16 38 -29 81t-23 79h-83l-27 -235q-11 -5 -25 -6.5t-30 -1.5l-18 13l49 432h-81v38q29 11 70 21t73 12l19 -13l-25 -215l74 2q21 43 46.5 84t53.5 72.5t58 50.5t62 19
q14 0 27 -3.5t21 -9.5l9 -61l-103 -19q-17 -15 -46 -46t-67 -81q20 -74 43 -129t55 -107z" />
    <glyph glyph-name="Lacute" unicode="&#x139;" horiz-adv-x="517" 
d="M469 147q1 -11 1.5 -20.5t0.5 -21.5q0 -29 -5 -56t-18 -64l-13 -1l-282 16h-128v39q19 7 41 12t44 8l47 558l-80 5v20l3 23h254v-39q-20 -8 -47.5 -13t-49.5 -7l-49 -560h194l34 107zM327 893q15 -7 28 -19.5t21 -29.5l-143 -121h-50l120 170h24z" />
    <glyph glyph-name="lacute" unicode="&#x13a;" horiz-adv-x="271" 
d="M207 703q-6 -58 -14 -122l-16 -127q-8 -63 -15.5 -124.5t-13 -114.5t-9.5 -95t-5 -68q12 0 26.5 3t29.5 8.5t29.5 12.5t26.5 15l15 -37q-26 -27 -63.5 -44.5t-72.5 -17.5q-27 0 -45.5 15t-18.5 56q0 22 5.5 77t14.5 132.5t20.5 173t23.5 199.5l-68 10l4 38
q28 8 61.5 14.5t65.5 8.5zM264 894q15 -7 28 -19.5t21 -29.5l-100 -92h-50l77 141h24z" />
    <glyph glyph-name="uni013B" unicode="&#x13b;" horiz-adv-x="517" 
d="M469 147q1 -11 1.5 -20.5t0.5 -21.5q0 -29 -5 -56t-18 -64l-13 -1l-282 16h-128v39q19 7 41 12t44 8l47 558l-80 5v20l3 23h254v-39q-20 -8 -47.5 -13t-49.5 -7l-49 -560h194l34 107zM219 -56q25 0 44 -11q5 -6 7 -18t2 -26q0 -48 -25 -83.5t-69 -49.5l-12 24
q23 15 38.5 31.5t15.5 44.5v12l-36 6l5 67q13 3 30 3z" />
    <glyph glyph-name="uni013C" unicode="&#x13c;" horiz-adv-x="271" 
d="M212 740q-6 -58 -14.5 -124t-17 -134t-16.5 -134t-14.5 -123t-10.5 -102t-5 -71q23 0 55.5 12t56.5 28l15 -37q-26 -27 -63.5 -45t-71.5 -18q-27 0 -46 15t-19 55q0 22 6.5 83t16 146t22 186t24.5 205l-71 10l4 38q28 8 63 14.5t67 8.5zM103 -56q25 0 44 -11q5 -6 7 -18
t2 -26q0 -48 -25 -83.5t-69 -49.5l-12 24q23 15 38.5 31.5t15.5 44.5v12l-36 6l5 67q13 3 30 3z" />
    <glyph glyph-name="Lcaron" unicode="&#x13d;" horiz-adv-x="517" 
d="M469 147q1 -11 1.5 -20.5t0.5 -21.5q0 -29 -5 -56t-18 -64l-13 -1l-282 16h-128v39q19 7 41 12t44 8l47 558l-80 5v20l3 23h254v-39q-20 -8 -47.5 -13t-49.5 -7l-49 -560h194l34 107zM450 679q17 0 31 -4.5t22 -9.5q-5 -59 -21.5 -106.5t-54.5 -98.5h-35l31 122v93
q6 2 13.5 3t13.5 1z" />
    <glyph glyph-name="lcaron" unicode="&#x13e;" horiz-adv-x="317" 
d="M212 740q-6 -58 -14.5 -124t-17 -134t-16.5 -134t-14.5 -123t-10.5 -102t-5 -71q23 0 55.5 12t56.5 28l15 -37q-26 -27 -63.5 -45t-71.5 -18q-27 0 -46 15t-19 55q0 22 6.5 83t16 146t22 186t24.5 205l-71 10l4 38q28 8 63 14.5t67 8.5zM318 753q17 0 31 -4.5t22 -9.5
q-5 -59 -21.5 -106.5t-54.5 -98.5h-35l31 122v93q6 2 13.5 3t13.5 1z" />
    <glyph glyph-name="Ldot" unicode="&#x13f;" horiz-adv-x="517" 
d="M461 428q19 0 30 -4q12 -21 12 -40q0 -35 -26 -65h-65l-1 101q8 4 22 6t28 2zM469 147q1 -11 1.5 -20.5t0.5 -21.5q0 -29 -5 -56t-18 -64l-13 -1l-282 16h-128v39q19 7 41 12t44 8l47 558l-80 5v20l3 23h254v-39q-20 -8 -47.5 -13t-49.5 -7l-49 -560h194l34 107z" />
    <glyph glyph-name="ldot" unicode="&#x140;" horiz-adv-x="284" 
d="M272 408q8 0 16 -1t14 -3q5 -9 8 -18t3 -20q0 -18 -6.5 -34.5t-15.5 -32.5h-65l-5 102q8 2 22.5 4.5t28.5 2.5zM212 740q-6 -58 -14.5 -124t-17 -134t-16.5 -134t-14.5 -123t-10.5 -102t-5 -71q23 0 55.5 12t56.5 28l15 -37q-26 -27 -63.5 -45t-71.5 -18q-27 0 -46 15
t-19 55q0 22 6.5 83t16 146t22 186t24.5 205l-71 10l4 38q28 8 63 14.5t67 8.5z" />
    <glyph glyph-name="Lslash" unicode="&#x141;" horiz-adv-x="530" 
d="M482 147q1 -11 1.5 -20.5t0.5 -21.5q0 -29 -5 -56t-18 -64l-13 -1l-282 16h-128v39q19 7 41 12t44 8l18 219l-76 -36l-16 9v44l98 46l23 276l-80 5v20l3 23h254v-39q-20 -8 -47.5 -13t-49.5 -7l-21 -233l186 87l16 -9v-44l-207 -97l-23 -264h194l34 107z" />
    <glyph glyph-name="lslash" unicode="&#x142;" horiz-adv-x="290" 
d="M168 304q-10 -85 -17 -151t-8 -101q23 0 55.5 12t56.5 28l15 -37q-26 -27 -63.5 -45t-71.5 -18q-27 0 -46 15t-19 55q0 20 4.5 67.5t12.5 115.5l-61 -50l-16 9v44l86 70q9 81 20.5 174.5t22.5 189.5l-71 10l4 38q28 8 63 14.5t67 8.5l19 -13q-9 -81 -21 -175.5
t-23 -187.5l93 76l16 -9v-44z" />
    <glyph glyph-name="Nacute" unicode="&#x143;" horiz-adv-x="703" 
d="M703 626q-17 -8 -43 -13t-44 -7l-54 -606q-14 -5 -27 -7t-27 -4h-17l-202 436q-45 98 -73 175h-10l-35 -551l86 -6v-20l-3 -23h-228v39q18 8 42.5 13.5t41.5 6.5l48 551l-81 6v20l3 23q24 1 46 2.5t44 2t46 1t52 0.5l166 -359q26 -54 46 -103.5t37 -87.5h10l28 501l-86 6
v20l3 23h231v-39zM521 893q15 -7 28 -19.5t21 -29.5l-143 -121h-50l120 170h24z" />
    <glyph glyph-name="nacute" unicode="&#x144;" horiz-adv-x="579" 
d="M563 57q-28 -29 -63.5 -47t-68.5 -18q-24 0 -41.5 12.5t-17.5 41.5q0 20 8 66t17 99.5t17 104t8 79.5q0 34 -14 50.5t-47 16.5h-13q-7 0 -17 -2q-45 -53 -92.5 -165.5t-98.5 -294.5q-11 -5 -25 -6.5t-30 -1.5l-19 13l49 432h-81v38q30 12 69.5 21t73.5 12l19 -13
l-53 -319l11 -3q31 102 56 168t50 104t52.5 53t64.5 15q51 0 85 -27.5t34 -93.5q0 -24 -5 -63.5t-12.5 -85.5t-16 -96t-16.5 -95q25 0 52 12.5t50 29.5zM459 767q16 -7 29.5 -20.5t20.5 -29.5l-137 -144h-48l111 194h24z" />
    <glyph glyph-name="uni0145" unicode="&#x145;" horiz-adv-x="703" 
d="M703 626q-17 -8 -43 -13t-44 -7l-54 -606q-14 -5 -27 -7t-27 -4h-17l-202 436q-45 98 -73 175h-10l-35 -551l86 -6v-20l-3 -23h-228v39q18 8 42.5 13.5t41.5 6.5l48 551l-81 6v20l3 23q24 1 46 2.5t44 2t46 1t52 0.5l166 -359q26 -54 46 -103.5t37 -87.5h10l28 501l-86 6
v20l3 23h231v-39zM322 -56q25 0 44 -11q5 -6 7 -18t2 -26q0 -48 -25 -83.5t-69 -49.5l-12 24q23 15 38.5 31.5t15.5 44.5v12l-36 6l5 67q13 3 30 3z" />
    <glyph glyph-name="uni0146" unicode="&#x146;" horiz-adv-x="579" 
d="M563 57q-28 -29 -63.5 -47t-68.5 -18q-24 0 -41.5 12.5t-17.5 41.5q0 20 8 66t17 99.5t17 104t8 79.5q0 34 -14 50.5t-47 16.5h-13q-7 0 -17 -2q-45 -53 -92.5 -165.5t-98.5 -294.5q-11 -5 -25 -6.5t-30 -1.5l-19 13l49 432h-81v38q30 12 69.5 21t73.5 12l19 -13
l-53 -319l11 -3q31 102 56 168t50 104t52.5 53t64.5 15q51 0 85 -27.5t34 -93.5q0 -24 -5 -63.5t-12.5 -85.5t-16 -96t-16.5 -95q25 0 52 12.5t50 29.5zM257 -56q25 0 44 -11q5 -6 7 -18t2 -26q0 -48 -25 -83.5t-69 -49.5l-12 24q23 15 38.5 31.5t15.5 44.5v12l-36 6l5 67
q13 3 30 3z" />
    <glyph glyph-name="Ncaron" unicode="&#x147;" horiz-adv-x="703" 
d="M703 626q-17 -8 -43 -13t-44 -7l-54 -606q-14 -5 -27 -7t-27 -4h-17l-202 436q-45 98 -73 175h-10l-35 -551l86 -6v-20l-3 -23h-228v39q18 8 42.5 13.5t41.5 6.5l48 551l-81 6v20l3 23q24 1 46 2.5t44 2t46 1t52 0.5l166 -359q26 -54 46 -103.5t37 -87.5h10l28 501l-86 6
v20l3 23h231v-39zM424 803l86 81h54l-148 -161h-46l-92 133l60 36l77 -89h9z" />
    <glyph glyph-name="ncaron" unicode="&#x148;" horiz-adv-x="579" 
d="M563 57q-28 -29 -63.5 -47t-68.5 -18q-24 0 -41.5 12.5t-17.5 41.5q0 20 8 66t17 99.5t17 104t8 79.5q0 34 -14 50.5t-47 16.5h-13q-7 0 -17 -2q-45 -53 -92.5 -165.5t-98.5 -294.5q-11 -5 -25 -6.5t-30 -1.5l-19 13l49 432h-81v38q30 12 69.5 21t73.5 12l19 -13
l-53 -319l11 -3q31 102 56 168t50 104t52.5 53t64.5 15q51 0 85 -27.5t34 -93.5q0 -24 -5 -63.5t-12.5 -85.5t-16 -96t-16.5 -95q25 0 52 12.5t50 29.5zM369 655l81 108h48l-136 -188h-46l-81 161l59 30l66 -111h9z" />
    <glyph glyph-name="napostrophe" unicode="&#x149;" horiz-adv-x="581" 
d="M565 57q-28 -29 -63.5 -47t-68.5 -18q-24 0 -41.5 12.5t-17.5 41.5q0 20 8 66t17 99.5t17 104t8 79.5q0 34 -14 50.5t-47 16.5h-13q-7 0 -17 -2q-45 -53 -92.5 -165.5t-98.5 -294.5q-11 -5 -25 -6.5t-30 -1.5l-19 13l49 432h-81v38q30 12 69.5 21t73.5 12l19 -13
l-53 -319l11 -3q31 102 56 168t50 104t52.5 53t64.5 15q51 0 85 -27.5t34 -93.5q0 -24 -5 -63.5t-12.5 -85.5t-16 -96t-16.5 -95q25 0 52 12.5t50 29.5zM46 753q25 0 44 -11q5 -6 7 -18t2 -26q0 -48 -25 -83.5t-69 -49.5l-12 24q23 15 38.5 31.5t15.5 44.5v12l-36 6l5 67
q13 3 30 3z" />
    <glyph glyph-name="Eng" unicode="&#x14a;" horiz-adv-x="703" 
d="M703 626q-17 -8 -43 -13t-45 -7l-44 -496q-4 -51 -13.5 -92t-27.5 -69t-47.5 -43t-73.5 -15q-42 0 -78.5 12.5t-57.5 35.5l17 41q44 -13 90.5 -20.5t84.5 -9.5q14 16 24 44l-200 431q-23 49 -41 93t-32 82h-10l-35 -551l76 -6v-20l-3 -23h-218v39q18 8 42.5 13.5
t41.5 6.5l48 551l-81 6v20l3 23q24 1 46 2.5t44 2t46 1t52 0.5l164 -359q25 -54 46 -103.5t38 -87.5h10l28 501l-85 6v20l3 23h231v-39z" />
    <glyph glyph-name="eng" unicode="&#x14b;" horiz-adv-x="571" 
d="M378 513q25 0 46.5 -6.5t37.5 -21t25 -38.5t9 -59q0 -15 -2 -38t-7 -65t-13.5 -108t-21.5 -166q-15 -118 -57.5 -171t-111.5 -53q-32 0 -58.5 10t-43.5 29l17 41q26 -8 61 -16.5t73 -8.5q18 23 27 58.5t15 80.5q13 102 22.5 172.5t15 117.5t8 74.5t2.5 44.5q0 38 -13 55
t-48 17h-13q-7 0 -16 -2q-45 -53 -91 -165.5t-101 -294.5q-11 -5 -25 -6.5t-30 -1.5l-19 13l49 432h-81v38q30 12 69.5 21t73.5 12l19 -13l-53 -319l11 -3q31 100 55.5 165.5t49.5 104.5t53 54.5t66 15.5z" />
    <glyph glyph-name="Omacron" unicode="&#x14c;" horiz-adv-x="659" 
d="M378 678q119 0 182.5 -77.5t63.5 -212.5q0 -75 -20 -147t-60.5 -128.5t-101.5 -91t-142 -34.5q-119 0 -182.5 77.5t-63.5 212.5q0 75 20 147t60.5 128.5t101.5 91t142 34.5zM365 625q-23 0 -44 -4.5t-47 -14.5q-27 -16 -50.5 -48t-41 -75.5t-27.5 -96.5t-10 -110
q0 -47 8 -90t27.5 -75.5t52 -51.5t80.5 -19q23 0 44 4.5t47 14.5q27 16 50.5 48t41 75.5t27.5 96.5t10 110q0 47 -8 90t-27.5 75.5t-52 51.5t-80.5 19zM512 830q2 -6 2 -20q0 -7 -1.5 -20t-7.5 -25h-250q-2 6 -2 19q0 7 2 21t7 25h250z" />
    <glyph glyph-name="omacron" unicode="&#x14d;" horiz-adv-x="492" 
d="M278 513q47 0 80.5 -16.5t55.5 -45t32 -66.5t10 -80q0 -47 -13 -102.5t-42 -103.5t-75.5 -80t-112.5 -32q-47 0 -80 16.5t-55 45t-32 66t-10 80.5q0 47 13 102.5t41.5 103.5t74.5 80t113 32zM267 466q-32 0 -63 -13q-24 -21 -40 -53.5t-25.5 -69.5t-14 -75t-4.5 -68
q0 -79 26.5 -116t79.5 -37q32 0 63 13q24 21 40 54t25.5 70.5t13.5 75t4 66.5q0 79 -26 116t-79 37zM401 685q2 -4 2 -17q0 -7 -1.5 -20t-7.5 -25h-232q-2 4 -2 16q0 7 2 21t7 25h232z" />
    <glyph glyph-name="Obreve" unicode="&#x14e;" horiz-adv-x="659" 
d="M378 678q119 0 182.5 -77.5t63.5 -212.5q0 -75 -20 -147t-60.5 -128.5t-101.5 -91t-142 -34.5q-119 0 -182.5 77.5t-63.5 212.5q0 75 20 147t60.5 128.5t101.5 91t142 34.5zM365 625q-23 0 -44 -4.5t-47 -14.5q-27 -16 -50.5 -48t-41 -75.5t-27.5 -96.5t-10 -110
q0 -47 8 -90t27.5 -75.5t52 -51.5t80.5 -19q23 0 44 4.5t47 14.5q27 16 50.5 48t41 75.5t27.5 96.5t10 110q0 47 -8 90t-27.5 75.5t-52 51.5t-80.5 19zM313 866q10 -83 78 -83q37 0 59 22t43 61l29 -13q-20 -60 -55 -95t-94 -35q-57 0 -86.5 32.5t-29.5 89.5z" />
    <glyph glyph-name="obreve" unicode="&#x14f;" horiz-adv-x="492" 
d="M278 513q47 0 80.5 -16.5t55.5 -45t32 -66.5t10 -80q0 -47 -13 -102.5t-42 -103.5t-75.5 -80t-112.5 -32q-47 0 -80 16.5t-55 45t-32 66t-10 80.5q0 47 13 102.5t41.5 103.5t74.5 80t113 32zM267 466q-32 0 -63 -13q-24 -21 -40 -53.5t-25.5 -69.5t-14 -75t-4.5 -68
q0 -79 26.5 -116t79.5 -37q32 0 63 13q24 21 40 54t25.5 70.5t13.5 75t4 66.5q0 79 -26 116t-79 37zM222 749q2 -53 18.5 -77.5t50.5 -24.5q37 0 57.5 27t36.5 75l30 -13q-17 -72 -52 -110t-92 -38q-34 0 -55.5 12.5t-33.5 32.5t-15.5 45t-0.5 50z" />
    <glyph glyph-name="Ohungarumlaut" unicode="&#x150;" horiz-adv-x="659" 
d="M378 678q119 0 182.5 -77.5t63.5 -212.5q0 -75 -20 -147t-60.5 -128.5t-101.5 -91t-142 -34.5q-119 0 -182.5 77.5t-63.5 212.5q0 75 20 147t60.5 128.5t101.5 91t142 34.5zM365 625q-23 0 -44 -4.5t-47 -14.5q-27 -16 -50.5 -48t-41 -75.5t-27.5 -96.5t-10 -110
q0 -47 8 -90t27.5 -75.5t52 -51.5t80.5 -19q23 0 44 4.5t47 14.5q27 16 50.5 48t41 75.5t27.5 96.5t10 110q0 47 -8 90t-27.5 75.5t-52 51.5t-80.5 19zM351 883q35 -9 52 -37l-89 -123h-38l52 160h23zM495 883q34 -9 53 -37l-89 -123h-39l52 160h23z" />
    <glyph glyph-name="ohungarumlaut" unicode="&#x151;" horiz-adv-x="492" 
d="M278 513q47 0 80.5 -16.5t55.5 -45t32 -66.5t10 -80q0 -47 -13 -102.5t-42 -103.5t-75.5 -80t-112.5 -32q-47 0 -80 16.5t-55 45t-32 66t-10 80.5q0 47 13 102.5t41.5 103.5t74.5 80t113 32zM267 466q-32 0 -63 -13q-24 -21 -40 -53.5t-25.5 -69.5t-14 -75t-4.5 -68
q0 -79 26.5 -116t79.5 -37q32 0 63 13q24 21 40 54t25.5 70.5t13.5 75t4 66.5q0 79 -26 116t-79 37zM262 767q36 -7 60 -37l-108 -157h-38l63 194h23zM407 767q38 -8 60 -37l-107 -157h-39l63 194h23z" />
    <glyph glyph-name="OE" unicode="&#x152;" horiz-adv-x="880" 
d="M538 366l182 7l10 -18l-6 -46l-190 8l-23 -271h209l34 107l53 -6q1 -11 1.5 -20.5t0.5 -21.5q0 -29 -5 -56t-18 -64l-13 -1l-297 16h-48q-40 -8 -71.5 -10.5t-51.5 -2.5q-122 0 -186 76t-64 216q0 74 20 145.5t60.5 128t102.5 91t146 34.5q26 0 51.5 -3.5t51.5 -9.5h301
q13 5 26 9t25 4l20 -13q1 -5 1.5 -12t0.5 -17q0 -27 -4.5 -61.5t-10.5 -64.5h-52l-5 98l-230 10zM480 603q-26 13 -54 17.5t-51 4.5q-25 0 -48.5 -4.5t-51.5 -14.5q-27 -16 -50.5 -48t-41 -75.5t-27.5 -96.5t-10 -111q0 -48 8 -90.5t28 -74.5t53 -51t84 -19q22 0 54.5 4.5
t59.5 16.5z" />
    <glyph glyph-name="oe" unicode="&#x153;" horiz-adv-x="763" 
d="M530 50q32 0 76 21.5t87 63.5l18 -36q-45 -55 -97 -83.5t-103 -28.5q-54 0 -83 29t-40 72h-10q-28 -48 -66 -74.5t-98 -26.5q-47 0 -80.5 16.5t-55.5 45t-32 66t-10 80.5q0 47 13 102.5t41.5 103.5t74.5 80t112 32q58 0 90.5 -26.5t49.5 -76.5h10q31 52 70.5 77.5
t99.5 25.5q69 0 103 -31.5t34 -84.5q0 -47 -24.5 -81t-65 -56t-93 -32t-109.5 -9l-1 -25q0 -77 25.5 -110.5t63.5 -33.5zM289 47q24 21 40 54t25.5 70.5t13.5 75t4 66.5q0 79 -26 116t-79 37q-32 0 -63 -13q-24 -21 -40 -53.5t-25.5 -69.5t-14 -75t-4.5 -68q0 -79 26.5 -116
t79.5 -37q32 0 63 13zM525 453q-18 -15 -31.5 -37.5t-23 -49t-16 -55t-9.5 -55.5q103 11 154 41t51 98q0 29 -12.5 50t-50.5 21q-31 0 -62 -13z" />
    <glyph glyph-name="Racute" unicode="&#x154;" horiz-adv-x="592" 
d="M568 17q-47 -25 -88 -25q-33 0 -51 15.5t-32 35.5q-26 40 -51 100.5t-46 135.5h-92l-18 -231l86 -5v-20l-3 -23h-248v39q17 8 42 13t43 7l47 552l-80 5v20l3 24q27 2 55 4t55 3.5t50 2t39 0.5q65 0 110 -13t73.5 -36t41 -55.5t12.5 -71.5t-11 -71t-31 -58t-47.5 -46
t-59.5 -33q30 -70 62.5 -131.5t60.5 -100.5l72 4zM345 331q46 33 63.5 76t17.5 86q0 65 -34 94.5t-105 29.5h-50l-24 -286h132zM416 893q15 -7 28 -19.5t21 -29.5l-143 -121h-50l120 170h24z" />
    <glyph glyph-name="racute" unicode="&#x155;" horiz-adv-x="388" 
d="M308 427q-22 -34 -42 -75.5t-40 -93t-41 -115.5t-45 -143q-11 -5 -25 -6.5t-30 -1.5l-19 13l49 432h-81v38q30 12 69.5 21t73.5 12l19 -13l-53 -319l11 -3q25 87 46.5 151t43.5 106t46 62.5t55 20.5q22 0 35.5 -9t21.5 -22l-14 -64zM361 767q16 -7 29.5 -20.5t20.5 -29.5
l-137 -144h-48l111 194h24z" />
    <glyph glyph-name="uni0156" unicode="&#x156;" horiz-adv-x="592" 
d="M568 17q-47 -25 -88 -25q-33 0 -51 15.5t-32 35.5q-26 40 -51 100.5t-46 135.5h-92l-18 -231l86 -5v-20l-3 -23h-248v39q17 8 42 13t43 7l47 552l-80 5v20l3 24q27 2 55 4t55 3.5t50 2t39 0.5q65 0 110 -13t73.5 -36t41 -55.5t12.5 -71.5t-11 -71t-31 -58t-47.5 -46
t-59.5 -33q30 -70 62.5 -131.5t60.5 -100.5l72 4zM345 331q46 33 63.5 76t17.5 86q0 65 -34 94.5t-105 29.5h-50l-24 -286h132zM292 -56q25 0 44 -11q5 -6 7 -18t2 -26q0 -48 -25 -83.5t-69 -49.5l-12 24q23 15 38.5 31.5t15.5 44.5v12l-36 6l5 67q13 3 30 3z" />
    <glyph glyph-name="uni0157" unicode="&#x157;" horiz-adv-x="388" 
d="M308 427q-22 -34 -42 -75.5t-40 -93t-41 -115.5t-45 -143q-11 -5 -25 -6.5t-30 -1.5l-19 13l49 432h-81v38q30 12 69.5 21t73.5 12l19 -13l-53 -319l11 -3q25 87 46.5 151t43.5 106t46 62.5t55 20.5q22 0 35.5 -9t21.5 -22l-14 -64zM95 -56q25 0 44 -11q5 -6 7 -18t2 -26
q0 -48 -25 -83.5t-69 -49.5l-12 24q23 15 38.5 31.5t15.5 44.5v12l-36 6l5 67q13 3 30 3z" />
    <glyph glyph-name="Rcaron" unicode="&#x158;" horiz-adv-x="592" 
d="M568 17q-47 -25 -88 -25q-33 0 -51 15.5t-32 35.5q-26 40 -51 100.5t-46 135.5h-92l-18 -231l86 -5v-20l-3 -23h-248v39q17 8 42 13t43 7l47 552l-80 5v20l3 24q27 2 55 4t55 3.5t50 2t39 0.5q65 0 110 -13t73.5 -36t41 -55.5t12.5 -71.5t-11 -71t-31 -58t-47.5 -46
t-59.5 -33q30 -70 62.5 -131.5t60.5 -100.5l72 4zM345 331q46 33 63.5 76t17.5 86q0 65 -34 94.5t-105 29.5h-50l-24 -286h132zM346 803l86 81h54l-148 -161h-46l-92 133l60 36l77 -89h9z" />
    <glyph glyph-name="rcaron" unicode="&#x159;" horiz-adv-x="388" 
d="M308 427q-22 -34 -42 -75.5t-40 -93t-41 -115.5t-45 -143q-11 -5 -25 -6.5t-30 -1.5l-19 13l49 432h-81v38q30 12 69.5 21t73.5 12l19 -13l-53 -319l11 -3q25 87 46.5 151t43.5 106t46 62.5t55 20.5q22 0 35.5 -9t21.5 -22l-14 -64zM271 655l81 108h48l-136 -188h-46
l-81 161l59 30l66 -111h9z" />
    <glyph glyph-name="Sacute" unicode="&#x15a;" horiz-adv-x="503" 
d="M218 614q-19 -12 -32 -34.5t-13 -55.5q0 -25 8.5 -44.5t22.5 -36.5t33.5 -32t42.5 -30l30 -20q25 -17 49.5 -36.5t43.5 -43.5t31 -53.5t12 -68.5q0 -32 -10.5 -63t-35 -55t-66 -39t-103.5 -15q-63 0 -107.5 13.5t-75.5 28.5q-4 21 -5.5 38.5t-1.5 36.5t1.5 38.5t4.5 43.5
l53 5l26 -130q24 -12 49.5 -16.5t56.5 -4.5q27 0 51.5 3.5t42.5 14.5q15 13 24 35t9 51q0 27 -7.5 46.5t-21 35.5t-31 29.5t-38.5 27.5l-32 22q-65 44 -100.5 90t-35.5 110q0 42 15 74t41 54t61 33.5t76 11.5q34 0 59 -7t45 -18l1 17q14 4 24.5 6t23.5 2l20 -13
q1 -5 1.5 -12t0.5 -17q0 -27 -4.5 -63.5t-10.5 -66.5h-52l-5 101q-23 8 -50.5 13t-51.5 5q-16 0 -34.5 -2.5t-34.5 -8.5zM418 893q15 -7 28 -19.5t21 -29.5l-143 -121h-50l120 170h24z" />
    <glyph glyph-name="sacute" unicode="&#x15b;" horiz-adv-x="381" 
d="M205 467q-14 -2 -25.5 -5t-20.5 -8q-10 -11 -16.5 -27t-6.5 -36q0 -18 6 -31.5t17 -26.5t28 -27t38 -33q21 -18 39 -35.5t32 -36t22 -38.5t8 -44q0 -28 -11.5 -52t-33 -42t-52 -28t-68.5 -10q-23 0 -46 4t-42 13.5t-33 25t-20 37.5l40 52l130 -85q14 2 25.5 5t20.5 8
q10 12 13 26t3 28q0 18 -4.5 31.5t-13.5 26t-23.5 26t-34.5 31.5q-27 23 -48 42t-35.5 37t-22.5 37.5t-8 43.5q0 32 14 57.5t37.5 43t55 27t66.5 9.5q19 0 39 -3.5t37.5 -11t31 -19.5t19.5 -30l-34 -51zM337 767q16 -7 29.5 -20.5t20.5 -29.5l-137 -144h-48l111 194h24z" />
    <glyph glyph-name="Scircumflex" unicode="&#x15c;" horiz-adv-x="503" 
d="M218 614q-19 -12 -32 -34.5t-13 -55.5q0 -25 8.5 -44.5t22.5 -36.5t33.5 -32t42.5 -30l30 -20q25 -17 49.5 -36.5t43.5 -43.5t31 -53.5t12 -68.5q0 -32 -10.5 -63t-35 -55t-66 -39t-103.5 -15q-63 0 -107.5 13.5t-75.5 28.5q-4 21 -5.5 38.5t-1.5 36.5t1.5 38.5t4.5 43.5
l53 5l26 -130q24 -12 49.5 -16.5t56.5 -4.5q27 0 51.5 3.5t42.5 14.5q15 13 24 35t9 51q0 27 -7.5 46.5t-21 35.5t-31 29.5t-38.5 27.5l-32 22q-65 44 -100.5 90t-35.5 110q0 42 15 74t41 54t61 33.5t76 11.5q34 0 59 -7t45 -18l1 17q14 4 24.5 6t23.5 2l20 -13
q1 -5 1.5 -12t0.5 -17q0 -27 -4.5 -63.5t-10.5 -66.5h-52l-5 101q-23 8 -50.5 13t-51.5 5q-16 0 -34.5 -2.5t-34.5 -8.5zM387 713l-78 91h-9l-86 -81h-54l148 161h46l91 -134z" />
    <glyph glyph-name="scircumflex" unicode="&#x15d;" horiz-adv-x="381" 
d="M205 467q-14 -2 -25.5 -5t-20.5 -8q-10 -11 -16.5 -27t-6.5 -36q0 -18 6 -31.5t17 -26.5t28 -27t38 -33q21 -18 39 -35.5t32 -36t22 -38.5t8 -44q0 -28 -11.5 -52t-33 -42t-52 -28t-68.5 -10q-23 0 -46 4t-42 13.5t-33 25t-20 37.5l40 52l130 -85q14 2 25.5 5t20.5 8
q10 12 13 26t3 28q0 18 -4.5 31.5t-13.5 26t-23.5 26t-34.5 31.5q-27 23 -48 42t-35.5 37t-22.5 37.5t-8 43.5q0 32 14 57.5t37.5 43t55 27t66.5 9.5q19 0 39 -3.5t37.5 -11t31 -19.5t19.5 -30l-34 -51zM300 571l-67 111h-9l-80 -108h-48l137 188h45l81 -161z" />
    <glyph glyph-name="Scedilla" unicode="&#x15e;" horiz-adv-x="503" 
d="M218 614q-19 -12 -32 -34.5t-13 -55.5q0 -25 8.5 -44.5t22.5 -36.5t33.5 -32t42.5 -30l30 -20q25 -17 49.5 -36.5t43.5 -43.5t31 -53.5t12 -68.5q0 -32 -10.5 -63t-35 -55t-66 -39t-103.5 -15q-63 0 -107.5 13.5t-75.5 28.5q-4 21 -5.5 38.5t-1.5 36.5t1.5 38.5t4.5 43.5
l53 5l26 -130q24 -12 49.5 -16.5t56.5 -4.5q27 0 51.5 3.5t42.5 14.5q15 13 24 35t9 51q0 27 -7.5 46.5t-21 35.5t-31 29.5t-38.5 27.5l-32 22q-65 44 -100.5 90t-35.5 110q0 42 15 74t41 54t61 33.5t76 11.5q34 0 59 -7t45 -18l1 17q14 4 24.5 6t23.5 2l20 -13
q1 -5 1.5 -12t0.5 -17q0 -27 -4.5 -63.5t-10.5 -66.5h-52l-5 101q-23 8 -50.5 13t-51.5 5q-16 0 -34.5 -2.5t-34.5 -8.5zM248 -68q29 -1 49.5 -12.5t20.5 -43.5q0 -36 -28.5 -62.5t-78.5 -26.5q-52 0 -82 27l11 34q12 -5 26 -9.5t31 -4.5q23 0 39 11.5t16 31.5
q0 14 -11 19.5t-48 13.5l24 96h39z" />
    <glyph glyph-name="scedilla" unicode="&#x15f;" horiz-adv-x="381" 
d="M205 467q-14 -2 -25.5 -5t-20.5 -8q-10 -11 -16.5 -27t-6.5 -36q0 -18 6 -31.5t17 -26.5t28 -27t38 -33q21 -18 39 -35.5t32 -36t22 -38.5t8 -44q0 -28 -11.5 -52t-33 -42t-52 -28t-68.5 -10q-23 0 -46 4t-42 13.5t-33 25t-20 37.5l40 52l130 -85q14 2 25.5 5t20.5 8
q10 12 13 26t3 28q0 18 -4.5 31.5t-13.5 26t-23.5 26t-34.5 31.5q-27 23 -48 42t-35.5 37t-22.5 37.5t-8 43.5q0 32 14 57.5t37.5 43t55 27t66.5 9.5q19 0 39 -3.5t37.5 -11t31 -19.5t19.5 -30l-34 -51zM174 -68q29 -1 49.5 -12.5t20.5 -43.5q0 -36 -28.5 -62.5t-78.5 -26.5
q-52 0 -82 27l11 34q12 -5 26 -9.5t31 -4.5q23 0 39 11.5t16 31.5q0 14 -11 19.5t-48 13.5l24 96h39z" />
    <glyph glyph-name="Scaron" unicode="&#x160;" horiz-adv-x="503" 
d="M218 614q-19 -12 -32 -34.5t-13 -55.5q0 -25 8.5 -44.5t22.5 -36.5t33.5 -32t42.5 -30l30 -20q25 -17 49.5 -36.5t43.5 -43.5t31 -53.5t12 -68.5q0 -32 -10.5 -63t-35 -55t-66 -39t-103.5 -15q-63 0 -107.5 13.5t-75.5 28.5q-4 21 -5.5 38.5t-1.5 36.5t1.5 38.5t4.5 43.5
l53 5l26 -130q24 -12 49.5 -16.5t56.5 -4.5q27 0 51.5 3.5t42.5 14.5q15 13 24 35t9 51q0 27 -7.5 46.5t-21 35.5t-31 29.5t-38.5 27.5l-32 22q-65 44 -100.5 90t-35.5 110q0 42 15 74t41 54t61 33.5t76 11.5q34 0 59 -7t45 -18l1 17q14 4 24.5 6t23.5 2l20 -13
q1 -5 1.5 -12t0.5 -17q0 -27 -4.5 -63.5t-10.5 -66.5h-52l-5 101q-23 8 -50.5 13t-51.5 5q-16 0 -34.5 -2.5t-34.5 -8.5zM321 803l86 81h54l-148 -161h-46l-92 133l60 36l77 -89h9z" />
    <glyph glyph-name="scaron" unicode="&#x161;" horiz-adv-x="381" 
d="M205 467q-14 -2 -25.5 -5t-20.5 -8q-10 -11 -16.5 -27t-6.5 -36q0 -18 6 -31.5t17 -26.5t28 -27t38 -33q21 -18 39 -35.5t32 -36t22 -38.5t8 -44q0 -28 -11.5 -52t-33 -42t-52 -28t-68.5 -10q-23 0 -46 4t-42 13.5t-33 25t-20 37.5l40 52l130 -85q14 2 25.5 5t20.5 8
q10 12 13 26t3 28q0 18 -4.5 31.5t-13.5 26t-23.5 26t-34.5 31.5q-27 23 -48 42t-35.5 37t-22.5 37.5t-8 43.5q0 32 14 57.5t37.5 43t55 27t66.5 9.5q19 0 39 -3.5t37.5 -11t31 -19.5t19.5 -30l-34 -51zM247 655l81 108h48l-136 -188h-46l-81 161l59 30l66 -111h9z" />
    <glyph glyph-name="uni0162" unicode="&#x162;" horiz-adv-x="536" 
d="M546 665q1 -5 1.5 -12t0.5 -17q0 -27 -4.5 -61.5t-10.5 -64.5h-52l-5 99l-127 7l-48 -568l90 -5v-20l-3 -23h-261v39q20 8 46 13t48 7l49 560h-119l-34 -112l-48 5q-1 11 -1.5 20.5t-0.5 21.5q0 29 5 59t18 67l13 1l210 -16h162q13 5 26 9t25 4zM271 -68
q29 -1 49.5 -12.5t20.5 -43.5q0 -36 -28.5 -62.5t-78.5 -26.5q-52 0 -82 27l11 34q12 -5 26 -9.5t31 -4.5q23 0 39 11.5t16 31.5q0 14 -11 19.5t-48 13.5l24 96h39z" />
    <glyph glyph-name="uni0163" unicode="&#x163;" horiz-adv-x="337" 
d="M330 468l-7 -31h-132q-8 -59 -15 -118.5t-13 -112.5t-10 -95t-4 -64q38 0 74.5 12.5t66.5 29.5l15 -37q-16 -14 -36.5 -26t-42 -20.5t-43.5 -13.5t-42 -5q-32 0 -48.5 16.5t-16.5 61.5q0 20 3.5 59.5t9 90t12.5 107t15 109.5l-61 6v38q17 6 34.5 10.5t36.5 8.5
q6 32 11.5 59.5t10.5 47.5q22 13 51 18l13 -11l-15 -120h133v-20zM150 -68q29 -1 49.5 -12.5t20.5 -43.5q0 -36 -28.5 -62.5t-78.5 -26.5q-52 0 -82 27l11 34q12 -5 26 -9.5t31 -4.5q23 0 39 11.5t16 31.5q0 14 -11 19.5t-48 13.5l24 96h39z" />
    <glyph glyph-name="Tcaron" unicode="&#x164;" horiz-adv-x="536" 
d="M546 665q1 -5 1.5 -12t0.5 -17q0 -27 -4.5 -61.5t-10.5 -64.5h-52l-5 99l-127 7l-48 -568l90 -5v-20l-3 -23h-261v39q20 8 46 13t48 7l49 560h-119l-34 -112l-48 5q-1 11 -1.5 20.5t-0.5 21.5q0 29 5 59t18 67l13 1l210 -16h162q13 5 26 9t25 4zM340 803l86 81h54
l-148 -161h-46l-92 133l60 36l77 -89h9z" />
    <glyph glyph-name="tcaron" unicode="&#x165;" horiz-adv-x="331" 
d="M330 468l-7 -31h-132q-8 -59 -15 -118.5t-13 -112.5t-10 -95t-4 -64q38 0 74.5 12.5t66.5 29.5l15 -37q-16 -14 -36.5 -26t-42 -20.5t-43.5 -13.5t-42 -5q-32 0 -48.5 16.5t-16.5 61.5q0 20 3.5 59.5t9 90t12.5 107t15 109.5l-61 6v38q17 6 34.5 10.5t36.5 8.5
q6 32 11.5 59.5t10.5 47.5q22 13 51 18l13 -11l-15 -120h133v-20zM331 753q17 0 31 -4.5t22 -9.5q-5 -53 -20.5 -97t-49.5 -90h-35l25 104v93q6 2 13.5 3t13.5 1z" />
    <glyph glyph-name="Tbar" unicode="&#x166;" horiz-adv-x="536" 
d="M546 665q1 -5 1.5 -12t0.5 -17q0 -27 -4.5 -61.5t-10.5 -64.5h-52l-5 99l-127 7l-25 -298h135v-17l-5 -36h-135l-18 -217l90 -5v-20l-3 -23h-261v39q20 8 46 13t48 7l18 206h-129v17l5 36h129l26 301h-119l-34 -112l-48 5q-1 11 -1.5 20.5t-0.5 21.5q0 29 5 59t18 67
l13 1l210 -16h162q13 5 26 9t25 4z" />
    <glyph glyph-name="tbar" unicode="&#x167;" horiz-adv-x="346" 
d="M334 468l-7 -31h-132l-11 -90h134v-20l-7 -31h-134q-9 -82 -16 -149.5t-8 -99.5q38 0 74.5 12.5t66.5 29.5l15 -37q-16 -14 -36.5 -26t-42 -20.5t-43.5 -13.5t-42 -5q-32 0 -48.5 16.5t-16.5 61.5q0 13 1.5 36.5t4.5 54t6.5 65.5t8.5 73l-58 1v43q15 3 32 6t33 5l12 82
l-61 6v38q17 6 34.5 10.5t36.5 8.5q6 32 11.5 59.5t10.5 47.5q22 13 51 18l13 -11l-15 -120h133v-20z" />
    <glyph glyph-name="Utilde" unicode="&#x168;" horiz-adv-x="660" 
d="M677 626q-18 -8 -45 -14t-45 -6q-3 -49 -7 -103.5t-7.5 -106.5t-7.5 -97.5t-8 -75.5q-14 -114 -73.5 -175t-165.5 -61q-102 0 -155 56.5t-53 165.5q0 28 3 75t8 103.5t11 116t11 112.5l-81 6v20l3 23h245v-39q-19 -7 -43 -12t-44 -7q-6 -64 -12.5 -125.5t-11 -115
t-7.5 -96.5t-3 -70q0 -86 33.5 -123t102.5 -37q31 0 57.5 6t48.5 17q23 20 40 59t25 108l7 77q5 47 9 99.5t7.5 107t6.5 102.5l-78 6v20l3 23h226v-39zM532 829q-14 -34 -37.5 -60t-55.5 -26q-14 0 -26 5t-26 13l-62 36l-54 -51l-22 25q14 35 37.5 60.5t56.5 25.5
q14 0 25.5 -4.5t24.5 -12.5l63 -37l54 52z" />
    <glyph glyph-name="utilde" unicode="&#x169;" horiz-adv-x="583" 
d="M573 57q-28 -29 -64 -47t-69 -18q-23 0 -39.5 11.5t-16.5 41.5q0 12 3 32t9 53t14.5 80.5t19.5 113.5l-11 3q-32 -102 -57 -168t-49.5 -104t-52 -53t-64.5 -15q-51 0 -85 27.5t-34 93.5q0 24 4.5 62.5t12 83t15.5 92t16 91.5h-81v38q30 12 69.5 21t73.5 12l19 -13
q-2 -14 -7 -43t-11 -65.5t-12.5 -78t-12 -80t-9 -71t-3.5 -51.5q0 -35 14 -51.5t47 -16.5h12q8 0 17 2q45 53 91 165.5t101 294.5q11 5 25 6.5t30 1.5l19 -13l-50 -443q23 0 50.5 12.5t50.5 29.5zM461 695q-6 -11 -15 -26.5t-21 -30t-27 -24.5t-33 -10q-9 0 -20.5 3.5
t-28.5 14.5l-55 34l-54 -51l-22 26q6 10 15 25.5t21 30t27.5 24.5t33.5 10q9 0 20 -4t29 -15l54 -33l55 51z" />
    <glyph glyph-name="Umacron" unicode="&#x16a;" horiz-adv-x="660" 
d="M677 626q-18 -8 -45 -14t-45 -6q-3 -49 -7 -103.5t-7.5 -106.5t-7.5 -97.5t-8 -75.5q-14 -114 -73.5 -175t-165.5 -61q-102 0 -155 56.5t-53 165.5q0 28 3 75t8 103.5t11 116t11 112.5l-81 6v20l3 23h245v-39q-19 -7 -43 -12t-44 -7q-6 -64 -12.5 -125.5t-11 -115
t-7.5 -96.5t-3 -70q0 -86 33.5 -123t102.5 -37q31 0 57.5 6t48.5 17q23 20 40 59t25 108l7 77q5 47 9 99.5t7.5 107t6.5 102.5l-78 6v20l3 23h226v-39zM518 830q2 -6 2 -20q0 -7 -1.5 -20t-7.5 -25h-250q-2 6 -2 19q0 7 2 21t7 25h250z" />
    <glyph glyph-name="umacron" unicode="&#x16b;" horiz-adv-x="583" 
d="M573 57q-28 -29 -64 -47t-69 -18q-23 0 -39.5 11.5t-16.5 41.5q0 12 3 32t9 53t14.5 80.5t19.5 113.5l-11 3q-32 -102 -57 -168t-49.5 -104t-52 -53t-64.5 -15q-51 0 -85 27.5t-34 93.5q0 24 4.5 62.5t12 83t15.5 92t16 91.5h-81v38q30 12 69.5 21t73.5 12l19 -13
q-2 -14 -7 -43t-11 -65.5t-12.5 -78t-12 -80t-9 -71t-3.5 -51.5q0 -35 14 -51.5t47 -16.5h12q8 0 17 2q45 53 91 165.5t101 294.5q11 5 25 6.5t30 1.5l19 -13l-50 -443q23 0 50.5 12.5t50.5 29.5zM443 685q2 -4 2 -17q0 -7 -1.5 -20t-7.5 -25h-232q-2 4 -2 16q0 7 2 21t7 25
h232z" />
    <glyph glyph-name="Ubreve" unicode="&#x16c;" horiz-adv-x="660" 
d="M677 626q-18 -8 -45 -14t-45 -6q-3 -49 -7 -103.5t-7.5 -106.5t-7.5 -97.5t-8 -75.5q-14 -114 -73.5 -175t-165.5 -61q-102 0 -155 56.5t-53 165.5q0 28 3 75t8 103.5t11 116t11 112.5l-81 6v20l3 23h245v-39q-19 -7 -43 -12t-44 -7q-6 -64 -12.5 -125.5t-11 -115
t-7.5 -96.5t-3 -70q0 -86 33.5 -123t102.5 -37q31 0 57.5 6t48.5 17q23 20 40 59t25 108l7 77q5 47 9 99.5t7.5 107t6.5 102.5l-78 6v20l3 23h226v-39zM319 866q10 -83 78 -83q37 0 59 22t43 61l29 -13q-20 -60 -55 -95t-94 -35q-57 0 -86.5 32.5t-29.5 89.5z" />
    <glyph glyph-name="ubreve" unicode="&#x16d;" horiz-adv-x="583" 
d="M573 57q-28 -29 -64 -47t-69 -18q-23 0 -39.5 11.5t-16.5 41.5q0 12 3 32t9 53t14.5 80.5t19.5 113.5l-11 3q-32 -102 -57 -168t-49.5 -104t-52 -53t-64.5 -15q-51 0 -85 27.5t-34 93.5q0 24 4.5 62.5t12 83t15.5 92t16 91.5h-81v38q30 12 69.5 21t73.5 12l19 -13
q-2 -14 -7 -43t-11 -65.5t-12.5 -78t-12 -80t-9 -71t-3.5 -51.5q0 -35 14 -51.5t47 -16.5h12q8 0 17 2q45 53 91 165.5t101 294.5q11 5 25 6.5t30 1.5l19 -13l-50 -443q23 0 50.5 12.5t50.5 29.5zM264 749q2 -53 18.5 -77.5t50.5 -24.5q37 0 57.5 27t36.5 75l30 -13
q-17 -72 -52 -110t-92 -38q-34 0 -55.5 12.5t-33.5 32.5t-15.5 45t-0.5 50z" />
    <glyph glyph-name="Uring" unicode="&#x16e;" horiz-adv-x="660" 
d="M677 626q-18 -8 -45 -14t-45 -6q-3 -49 -7 -103.5t-7.5 -106.5t-7.5 -97.5t-8 -75.5q-14 -114 -73.5 -175t-165.5 -61q-102 0 -155 56.5t-53 165.5q0 28 3 75t8 103.5t11 116t11 112.5l-81 6v20l3 23h245v-39q-19 -7 -43 -12t-44 -7q-6 -64 -12.5 -125.5t-11 -115
t-7.5 -96.5t-3 -70q0 -86 33.5 -123t102.5 -37q31 0 57.5 6t48.5 17q23 20 40 59t25 108l7 77q5 47 9 99.5t7.5 107t6.5 102.5l-78 6v20l3 23h226v-39zM404 893q38 0 61.5 -17.5t23.5 -59.5q0 -49 -31.5 -73.5t-78.5 -24.5q-39 0 -63 18.5t-24 59.5q0 49 33 73t79 24z
M397 853q-7 0 -14.5 -1.5t-12.5 -4.5q-7 -8 -12 -20t-5 -29q0 -40 32 -40q6 0 13.5 1.5t12.5 4.5q7 8 12 20.5t5 30.5q0 23 -8.5 30.5t-22.5 7.5z" />
    <glyph glyph-name="uring" unicode="&#x16f;" horiz-adv-x="583" 
d="M573 57q-28 -29 -64 -47t-69 -18q-23 0 -39.5 11.5t-16.5 41.5q0 12 3 32t9 53t14.5 80.5t19.5 113.5l-11 3q-32 -102 -57 -168t-49.5 -104t-52 -53t-64.5 -15q-51 0 -85 27.5t-34 93.5q0 24 4.5 62.5t12 83t15.5 92t16 91.5h-81v38q30 12 69.5 21t73.5 12l19 -13
q-2 -14 -7 -43t-11 -65.5t-12.5 -78t-12 -80t-9 -71t-3.5 -51.5q0 -35 14 -51.5t47 -16.5h12q8 0 17 2q45 53 91 165.5t101 294.5q11 5 25 6.5t30 1.5l19 -13l-50 -443q23 0 50.5 12.5t50.5 29.5zM338 770q41 0 64 -21t23 -63q0 -52 -32 -77t-76 -25q-42 0 -65.5 21
t-23.5 63q0 26 9 45t24 32t35 19t42 6zM332 730q-6 0 -13.5 -1.5t-12.5 -4.5q-7 -8 -12 -23t-5 -34q0 -23 8.5 -33t23.5 -10q6 0 13.5 1.5t12.5 4.5q7 8 12 23t5 34q0 23 -8.5 33t-23.5 10z" />
    <glyph glyph-name="Uhungarumlaut" unicode="&#x170;" horiz-adv-x="660" 
d="M677 626q-18 -8 -45 -14t-45 -6q-3 -49 -7 -103.5t-7.5 -106.5t-7.5 -97.5t-8 -75.5q-14 -114 -73.5 -175t-165.5 -61q-102 0 -155 56.5t-53 165.5q0 28 3 75t8 103.5t11 116t11 112.5l-81 6v20l3 23h245v-39q-19 -7 -43 -12t-44 -7q-6 -64 -12.5 -125.5t-11 -115
t-7.5 -96.5t-3 -70q0 -86 33.5 -123t102.5 -37q31 0 57.5 6t48.5 17q23 20 40 59t25 108l7 77q5 47 9 99.5t7.5 107t6.5 102.5l-78 6v20l3 23h226v-39zM357 883q35 -9 52 -37l-89 -123h-38l52 160h23zM501 883q34 -9 53 -37l-89 -123h-39l52 160h23z" />
    <glyph glyph-name="uhungarumlaut" unicode="&#x171;" horiz-adv-x="583" 
d="M573 57q-28 -29 -64 -47t-69 -18q-23 0 -39.5 11.5t-16.5 41.5q0 12 3 32t9 53t14.5 80.5t19.5 113.5l-11 3q-32 -102 -57 -168t-49.5 -104t-52 -53t-64.5 -15q-51 0 -85 27.5t-34 93.5q0 24 4.5 62.5t12 83t15.5 92t16 91.5h-81v38q30 12 69.5 21t73.5 12l19 -13
q-2 -14 -7 -43t-11 -65.5t-12.5 -78t-12 -80t-9 -71t-3.5 -51.5q0 -35 14 -51.5t47 -16.5h12q8 0 17 2q45 53 91 165.5t101 294.5q11 5 25 6.5t30 1.5l19 -13l-50 -443q23 0 50.5 12.5t50.5 29.5zM304 767q36 -7 60 -37l-108 -157h-38l63 194h23zM449 767q38 -8 60 -37
l-107 -157h-39l63 194h23z" />
    <glyph glyph-name="Uogonek" unicode="&#x172;" horiz-adv-x="660" 
d="M677 626q-18 -8 -45 -14t-45 -6q-4 -55 -7.5 -109.5t-7 -104.5t-7.5 -93t-8 -76q-5 -36 -11.5 -63t-17 -49.5t-25 -42t-35.5 -39.5q-14 -14 -31 -29t-31.5 -32.5t-24 -37.5t-9.5 -43q0 -28 14 -40.5t38 -12.5q13 0 26 3t24 8l5 -31q-33 -27 -83 -27q-48 0 -69.5 22
t-21.5 56q0 38 22.5 70.5t56.5 58.5l-1 8q-20 -8 -37.5 -11t-37.5 -3q-43 0 -79.5 14t-62.5 42t-41 70t-15 97q0 27 3 74t8 103t11 115.5t11 112.5l-81 6v20l3 23h245v-39q-19 -7 -43 -12t-44 -7q-6 -64 -12.5 -125.5t-11 -115t-7.5 -96.5t-3 -70q0 -86 33.5 -123t102.5 -37
q31 0 57.5 6t48.5 17q23 20 39.5 59t25.5 108q4 29 8 75t8 99t8 108.5t7 103.5l-79 6v20l3 23h226v-39z" />
    <glyph glyph-name="uogonek" unicode="&#x173;" horiz-adv-x="583" 
d="M490 -166q13 0 26 3t24 8l5 -31q-33 -27 -83 -27q-48 0 -69.5 22.5t-21.5 54.5q0 19 7.5 37t19.5 33.5t27.5 28.5t31.5 22l-3 9q-5 -1 -10 -1q-25 0 -42.5 11t-17.5 41q0 12 3 32t9 53t14.5 80.5t19.5 113.5l-11 3q-32 -102 -57 -168t-49.5 -104t-52 -53t-64.5 -15
q-51 0 -85 27.5t-34 93.5q0 24 4.5 62.5t12 83t15.5 92t16 91.5h-81v38q30 12 69.5 21t73.5 12l19 -13q-2 -14 -7 -43t-11 -65.5t-12.5 -78t-12 -80t-9 -71t-3.5 -51.5q0 -35 14 -51.5t47 -16.5h12q8 0 17 2q45 53 91 165.5t101 294.5q11 5 25 6.5t30 1.5l19 -13l-50 -443
q23 0 50.5 12.5t50.5 29.5l15 -37q-18 -15 -41 -34t-44 -41t-35.5 -46.5t-14.5 -50.5t14 -38.5t38 -12.5z" />
    <glyph glyph-name="Wcircumflex" unicode="&#x174;" horiz-adv-x="951" 
d="M969 626q-12 -6 -29 -10.5t-32 -7.5q-20 -67 -50 -149.5t-63 -166t-66 -160.5t-58 -132q-14 -5 -28.5 -6.5t-29.5 -1.5l-18 12q-9 43 -20 95t-22 108t-21.5 114.5t-20.5 114.5h-10q-35 -113 -77.5 -217.5t-92.5 -218.5q-14 -5 -28.5 -6.5t-29.5 -1.5l-18 12
q-15 63 -32.5 143t-35 163.5t-34 164t-30.5 143.5l-65 4v20l3 23h225v-39q-15 -8 -36.5 -13t-37.5 -7q12 -65 24.5 -137.5t25.5 -144t25 -136.5t21 -114h10q16 38 36.5 92.5t42.5 115.5t44 124t41 118l-19 95l-42 3v20l3 23h205v-39q-16 -8 -38.5 -13t-38.5 -7
q12 -65 25 -137.5t25.5 -144t24.5 -136.5t21 -114h10q19 46 44 112.5t51.5 140.5t51 149.5t41.5 140.5l-85 5v20l3 23h205v-39zM616 713l-78 91h-9l-86 -81h-54l148 161h46l91 -134z" />
    <glyph glyph-name="wcircumflex" unicode="&#x175;" horiz-adv-x="797" 
d="M686 513q21 -5 36 -17.5t24.5 -29.5t14 -36.5t4.5 -37.5q0 -32 -12.5 -74.5t-34.5 -87.5t-52 -88.5t-65 -78t-73.5 -55.5t-77.5 -21q-41 0 -65.5 23.5t-24.5 67.5q0 20 5 44.5t12 47.5l-12 3q-20 -42 -38 -76t-39 -58.5t-46 -38t-58 -13.5q-22 0 -41.5 6.5t-34 21
t-23 37.5t-8.5 55q0 24 4.5 62t11.5 83t15.5 93t16.5 92h-81v38q30 12 68.5 21t72.5 12l19 -13q-1 -9 -5.5 -36t-10.5 -63.5t-12.5 -79t-12 -82.5t-9 -74t-3.5 -53q0 -34 14 -51.5t51 -17.5h6q44 47 83.5 116.5t71.5 157.5q8 59 15.5 103.5t16.5 84.5q11 5 25.5 6.5
t30.5 1.5l19 -13q0 -31 -9.5 -83.5t-28.5 -114.5q-3 -27 -5.5 -54.5t-4.5 -53t-3.5 -47t-1.5 -35.5q0 -35 11.5 -52t45.5 -17h11q66 54 118 137.5t87 189.5l-71 106zM511 571l-67 111h-9l-80 -108h-48l137 188h45l81 -161z" />
    <glyph glyph-name="Ycircumflex" unicode="&#x176;" horiz-adv-x="616" 
d="M562 606q-42 -94 -95.5 -184.5t-114.5 -184.5l-17 -189l87 -5v-20l-3 -23h-258v39q9 4 21 7t25 6t25.5 4.5t22.5 2.5l16 180q-20 52 -40 103.5t-39.5 100t-38.5 92.5t-35 82l-69 5v20l3 23h234v-39q-15 -7 -38.5 -12t-43.5 -7q13 -33 29.5 -73.5t32.5 -82.5t31.5 -83
t27.5 -75h10q45 73 91 156.5t78 166.5l-76 6v20l3 23h208v-39q-17 -8 -38.5 -13.5t-38.5 -6.5zM436 713l-78 91h-9l-86 -81h-54l148 161h46l91 -134z" />
    <glyph glyph-name="ycircumflex" unicode="&#x177;" horiz-adv-x="509" 
d="M397 513q35 -8 57 -40t22 -83q0 -35 -12 -83.5t-36 -104.5t-60.5 -117.5t-85.5 -122.5q-30 -38 -61.5 -70t-62 -55.5t-59.5 -36.5t-56 -13q-29 0 -57.5 12.5t-48.5 35.5l17 41q26 -9 60 -19t72 -13q33 20 60 44.5t52 57.5q-13 61 -27 128t-28 132.5t-27.5 125
t-25.5 105.5h-81v38q32 13 62.5 22t62.5 11l20 -13q16 -68 31.5 -135.5t28.5 -130.5t22.5 -119t14.5 -99h10q22 30 45.5 72.5t45 90t38.5 97t25 94.5l-71 106zM357 571l-67 111h-9l-80 -108h-48l137 188h45l81 -161z" />
    <glyph glyph-name="Ydieresis" unicode="&#x178;" horiz-adv-x="616" 
d="M562 606q-42 -94 -95.5 -184.5t-114.5 -184.5l-17 -189l87 -5v-20l-3 -23h-258v39q9 4 21 7t25 6t25.5 4.5t22.5 2.5l16 180q-20 52 -40 103.5t-39.5 100t-38.5 92.5t-35 82l-69 5v20l3 23h234v-39q-15 -7 -38.5 -12t-43.5 -7q13 -33 29.5 -73.5t32.5 -82.5t31.5 -83
t27.5 -75h10q45 73 91 156.5t78 166.5l-76 6v20l3 23h208v-39q-17 -8 -38.5 -13.5t-38.5 -6.5zM259 851q8 0 15 -1t12 -3q10 -14 10 -35q0 -17 -5 -31.5t-13 -29.5h-61l-6 92q8 4 21 6t27 2zM474 851q18 0 27 -4q10 -14 10 -35q0 -17 -5 -31.5t-13 -29.5h-61l-6 92q8 4 21 6
t27 2z" />
    <glyph glyph-name="Zacute" unicode="&#x179;" horiz-adv-x="551" 
d="M505 147q1 -11 1.5 -20.5t0.5 -21.5q0 -29 -5 -56t-18 -64l-13 -1l-349 16l-86 -1l-7 21q80 121 138.5 207t99.5 146.5t68 99.5t45 64.5t30 42t23 32.5l-3 7l-288 -11l-14 -98h-52q-3 24 -4.5 49t-1.5 45q0 38 6 61l21 13q13 0 24 -4t24 -9h392l8 -20
q-71 -107 -125 -187.5t-93.5 -139.5t-68 -100t-49.5 -71t-38 -52l-31 -42l4 -7h274l34 107zM444 893q15 -7 28 -19.5t21 -29.5l-143 -121h-50l120 170h24z" />
    <glyph glyph-name="zacute" unicode="&#x17a;" horiz-adv-x="425" 
d="M379 144q2 -15 2.5 -31.5t0.5 -27.5q0 -20 -3 -38.5t-11.5 -33t-23.5 -23.5t-39 -9q-18 0 -45 5t-57.5 14t-62 20t-59.5 23l-41 -56q-12 2 -22.5 5t-19.5 8l-8 12l306 414l-171 13l-19 -70h-50q-5 35 -1.5 69t17.5 70q75 0 136.5 -10t118.5 -30l33 45q23 -3 43 -13l8 -12
l-297 -401q57 -16 105.5 -24t79.5 -10l32 97zM362 767q16 -7 29.5 -20.5t20.5 -29.5l-137 -144h-48l111 194h24z" />
    <glyph glyph-name="Zdotaccent" unicode="&#x17b;" horiz-adv-x="551" 
d="M505 147q1 -11 1.5 -20.5t0.5 -21.5q0 -29 -5 -56t-18 -64l-13 -1l-349 16l-86 -1l-7 21q80 121 138.5 207t99.5 146.5t68 99.5t45 64.5t30 42t23 32.5l-3 7l-288 -11l-14 -98h-52q-3 24 -4.5 49t-1.5 45q0 38 6 61l21 13q13 0 24 -4t24 -9h392l8 -20
q-71 -107 -125 -187.5t-93.5 -139.5t-68 -100t-49.5 -71t-38 -52l-31 -42l4 -7h274l34 107zM341 854q10 0 17 -1.5t14 -3.5q11 -19 11 -39q0 -18 -6.5 -33.5t-16.5 -32.5h-65l-4 101q8 4 22 6.5t28 2.5z" />
    <glyph glyph-name="zdotaccent" unicode="&#x17c;" horiz-adv-x="425" 
d="M379 144q2 -15 2.5 -31.5t0.5 -27.5q0 -20 -3 -38.5t-11.5 -33t-23.5 -23.5t-39 -9q-18 0 -45 5t-57.5 14t-62 20t-59.5 23l-41 -56q-12 2 -22.5 5t-19.5 8l-8 12l306 414l-171 13l-19 -70h-50q-5 35 -1.5 69t17.5 70q75 0 136.5 -10t118.5 -30l33 45q23 -3 43 -13l8 -12
l-297 -401q57 -16 105.5 -24t79.5 -10l32 97zM271 723q16 0 27 -4q5 -10 8 -18.5t3 -19.5q0 -18 -6.5 -33t-15.5 -32h-64l-5 100q8 2 23 4.5t30 2.5z" />
    <glyph glyph-name="Zcaron" unicode="&#x17d;" horiz-adv-x="551" 
d="M505 147q1 -11 1.5 -20.5t0.5 -21.5q0 -29 -5 -56t-18 -64l-13 -1l-349 16l-86 -1l-7 21q80 121 138.5 207t99.5 146.5t68 99.5t45 64.5t30 42t23 32.5l-3 7l-288 -11l-14 -98h-52q-3 24 -4.5 49t-1.5 45q0 38 6 61l21 13q13 0 24 -4t24 -9h392l8 -20
q-71 -107 -125 -187.5t-93.5 -139.5t-68 -100t-49.5 -71t-38 -52l-31 -42l4 -7h274l34 107zM347 803l86 81h54l-148 -161h-46l-92 133l60 36l77 -89h9z" />
    <glyph glyph-name="zcaron" unicode="&#x17e;" horiz-adv-x="425" 
d="M379 144q2 -15 2.5 -31.5t0.5 -27.5q0 -20 -3 -38.5t-11.5 -33t-23.5 -23.5t-39 -9q-18 0 -45 5t-57.5 14t-62 20t-59.5 23l-41 -56q-12 2 -22.5 5t-19.5 8l-8 12l306 414l-171 13l-19 -70h-50q-5 35 -1.5 69t17.5 70q75 0 136.5 -10t118.5 -30l33 45q23 -3 43 -13l8 -12
l-297 -401q57 -16 105.5 -24t79.5 -10l32 97zM272 655l81 108h48l-136 -188h-46l-81 161l59 30l66 -111h9z" />
    <glyph glyph-name="longs" unicode="&#x17f;" horiz-adv-x="266" 
d="M265 694q-9 -3 -17 -6t-16 -8q-5 -13 -10.5 -29t-10.5 -40t-10 -59t-9 -86l-42 -440q-12 -129 -55.5 -184t-114.5 -55q-38 0 -76 14t-63 41l17 41q34 -13 79.5 -27t95.5 -14q17 21 25 57t13 84l40 448l-76 6v38q16 5 38.5 10t42.5 9q10 84 34 135t54 78.5t63.5 36.5
t63.5 9q37 0 60.5 -10t41.5 -31l-21 -57z" />
    <glyph glyph-name="uni018F" unicode="&#x18f;" horiz-adv-x="547" 
d="M290 678q61 0 104 -23t69 -61t38 -89t12 -106q0 -78 -21 -152t-61 -131.5t-98 -93t-131 -35.5q-78 0 -124 40t-46 111q0 61 34 105.5t89 73t125 42.5t142 15v19q0 116 -41 168t-114 52q-35 0 -78 -14t-91 -55l-19 36q45 48 96.5 73t114.5 25zM293 59q27 18 48 46.5
t37 63.5t26 75.5t15 82.5q-69 -8 -124 -21t-93.5 -35.5t-58.5 -55t-20 -79.5q0 -45 20.5 -70.5t68.5 -25.5q23 0 43 5.5t38 13.5z" />
    <glyph glyph-name="florin" unicode="&#x192;" horiz-adv-x="435" 
d="M456 595q1 -5 1.5 -12t0.5 -17q0 -27 -4.5 -63.5t-10.5 -66.5h-52l-6 120q-15 3 -31 3q-12 0 -26 -2.5t-28 -7.5q-13 -23 -22.5 -57t-17.5 -71l-11 -53h115v-20l-3 -30h-123l-34 -162q-26 -125 -66.5 -182t-108.5 -57q-32 0 -61 13t-52 42l17 41q28 -13 63.5 -26
t75.5 -15q16 21 25.5 57t18.5 84l41 205h-81v20l3 30h88l8 38q22 108 65.5 155t101.5 47q24 0 46 -8q14 4 24.5 6t23.5 2z" />
    <glyph glyph-name="uni01E2" unicode="&#x1e2;" horiz-adv-x="849" 
d="M504 366l180 7l10 -18l-6 -46l-188 8l-24 -271h213l34 107l53 -6q1 -11 1.5 -20.5t0.5 -21.5q0 -29 -5 -56t-18 -64l-13 -1l-302 16h-128v39q38 14 84 20l12 139h-213q-20 -40 -39.5 -77.5t-36.5 -72.5l74 -5v-20l-3 -23h-195v39q13 7 31 12t32 7q33 66 72.5 140
t81 148.5t81.5 144.5t75 127l-59 2v20l4 25h439q13 5 26 9t25 4l20 -13q1 -5 1.5 -12t0.5 -17q0 -27 -4.5 -61.5t-10.5 -64.5h-52l-5 98l-227 10zM445 618h-20q-18 -30 -41 -71t-50 -89t-56 -101.5t-57 -107.5l192 -1zM665 827q2 -4 2 -17q0 -7 -1.5 -20t-7.5 -25h-232
q-2 4 -2 16q0 7 2 21t7 25h232z" />
    <glyph glyph-name="uni01E3" unicode="&#x1e3;" horiz-adv-x="734" 
d="M501 50q32 0 76 21.5t87 63.5l18 -36q-45 -54 -96 -83t-106 -29q-52 0 -79.5 24t-39 58.5t-11 74t6.5 69.5l-11 3q-16 -56 -31 -99t-35.5 -72t-47.5 -43.5t-67 -14.5q-28 0 -51 8t-40 27.5t-26.5 52t-9.5 81.5q0 57 14 119.5t45 115.5t79.5 87.5t117.5 34.5q86 0 132 -58
q33 33 68 45.5t73 12.5q70 0 104 -31.5t34 -84.5q0 -46 -23.5 -80t-64 -56t-93.5 -32.5t-111 -9.5l-1 -25q0 -77 25.5 -110.5t63.5 -33.5zM335 294q31 85 69 134q-29 19 -55 28.5t-59 9.5q-20 0 -37.5 -3t-30.5 -7q-27 -26 -46 -62t-31 -77t-17.5 -84.5t-5.5 -83.5
q0 -32 3.5 -53.5t11 -34.5t20 -18t29.5 -5q5 0 12 0.5t15 1.5q41 51 68.5 116.5t53.5 137.5zM496 453q-18 -15 -31.5 -37.5t-23 -49t-16 -55t-9.5 -55.5q103 11 154 41t51 98q0 29 -12.5 50t-50.5 21q-31 0 -62 -13zM571 685q2 -4 2 -17q0 -7 -1.5 -20t-7.5 -25h-232
q-2 4 -2 16q0 7 2 21t7 25h232z" />
    <glyph glyph-name="Aringacute" unicode="&#x1fa;" horiz-adv-x="638" 
d="M354 813l103 148h23q16 -8 26.5 -19t18.5 -26l-123 -103h-48zM609 23l-3 -23h-225v39q14 7 35 12t37 7l-33 141h-232l-59 -151l75 -5v-20l-3 -23h-205v39q15 8 36.5 13t37.5 7q57 138 116 275t124 275q-20 8 -31 25.5t-11 44.5q0 49 33 73t79 24q38 0 61.5 -17.5
t23.5 -59.5q0 -35 -17 -57.5t-45 -32.5q33 -141 66.5 -280.5t70.5 -281.5l69 -4v-20zM346 730q-7 -8 -12 -20t-5 -29q0 -40 32 -40q6 0 13.5 1.5t12.5 4.5q7 8 12 20.5t5 30.5q0 23 -8.5 30.5t-22.5 7.5q-7 0 -14.5 -1.5t-12.5 -4.5zM408 249q-17 74 -33 147t-32 147h-10
q-34 -74 -65 -147t-60 -147h200z" />
    <glyph glyph-name="aringacute" unicode="&#x1fb;" horiz-adv-x="554" 
d="M544 57q-28 -29 -64 -47t-69 -18q-23 0 -39.5 11.5t-16.5 40.5q0 13 3.5 34t10 55t16 83t22.5 118l-11 3q-32 -109 -58 -177t-51.5 -106.5t-54 -52.5t-64.5 -14q-29 0 -53 8t-41 27.5t-26.5 51.5t-9.5 81q0 57 14 120t45 116t79 87.5t117 34.5q31 0 59.5 -9t48.5 -30
l3 31q11 5 25.5 6.5t30.5 1.5l19 -13l-51 -448q23 0 50.5 12.5t50.5 29.5zM217 41q19 22 38.5 56.5t40.5 82.5t45 111.5t52 144.5q-23 14 -50.5 22t-54.5 8q-18 0 -35.5 -3t-30.5 -7q-27 -26 -46 -62t-31 -77t-17.5 -84.5t-5.5 -83.5q0 -64 14.5 -87.5t48.5 -23.5q14 0 32 3
zM415 909q16 -10 26.5 -20t18.5 -24l-113 -94h-47l91 138h24zM324 736q41 0 64 -21t23 -63q0 -52 -32 -77t-76 -25q-42 0 -65.5 21t-23.5 63q0 26 9 45t24 32t35 19t42 6zM318 696q-6 0 -13.5 -1.5t-12.5 -4.5q-7 -8 -12 -23t-5 -34q0 -23 8.5 -33t23.5 -10q6 0 13.5 1.5
t12.5 4.5q7 8 12 23t5 34q0 23 -8.5 33t-23.5 10z" />
    <glyph glyph-name="AEacute" unicode="&#x1fc;" horiz-adv-x="849" 
d="M504 366l180 7l10 -18l-6 -46l-188 8l-24 -271h213l34 107l53 -6q1 -11 1.5 -20.5t0.5 -21.5q0 -29 -5 -56t-18 -64l-13 -1l-302 16h-128v39q38 14 84 20l12 139h-213q-20 -40 -39.5 -77.5t-36.5 -72.5l74 -5v-20l-3 -23h-195v39q13 7 31 12t32 7q33 66 72.5 140
t81 148.5t81.5 144.5t75 127l-59 2v20l4 25h439q13 5 26 9t25 4l20 -13q1 -5 1.5 -12t0.5 -17q0 -27 -4.5 -61.5t-10.5 -64.5h-52l-5 98l-227 10zM445 618h-20q-18 -30 -41 -71t-50 -89t-56 -101.5t-57 -107.5l192 -1zM653 893q15 -7 28 -19.5t21 -29.5l-143 -121h-50
l120 170h24z" />
    <glyph glyph-name="aeacute" unicode="&#x1fd;" horiz-adv-x="734" 
d="M501 50q32 0 76 21.5t87 63.5l18 -36q-45 -54 -96 -83t-106 -29q-52 0 -79.5 24t-39 58.5t-11 74t6.5 69.5l-11 3q-16 -56 -31 -99t-35.5 -72t-47.5 -43.5t-67 -14.5q-28 0 -51 8t-40 27.5t-26.5 52t-9.5 81.5q0 57 14 119.5t45 115.5t79.5 87.5t117.5 34.5q86 0 132 -58
q33 33 68 45.5t73 12.5q70 0 104 -31.5t34 -84.5q0 -46 -23.5 -80t-64 -56t-93.5 -32.5t-111 -9.5l-1 -25q0 -77 25.5 -110.5t63.5 -33.5zM335 294q31 85 69 134q-29 19 -55 28.5t-59 9.5q-20 0 -37.5 -3t-30.5 -7q-27 -26 -46 -62t-31 -77t-17.5 -84.5t-5.5 -83.5
q0 -32 3.5 -53.5t11 -34.5t20 -18t29.5 -5q5 0 12 0.5t15 1.5q41 51 68.5 116.5t53.5 137.5zM496 453q-18 -15 -31.5 -37.5t-23 -49t-16 -55t-9.5 -55.5q103 11 154 41t51 98q0 29 -12.5 50t-50.5 21q-31 0 -62 -13zM554 767q16 -7 29.5 -20.5t20.5 -29.5l-137 -144h-48
l111 194h24z" />
    <glyph glyph-name="Oslashacute" unicode="&#x1fe;" horiz-adv-x="659" 
d="M565 595q57 -74 59 -200q1 -77 -19 -150.5t-61 -130.5t-102 -92t-142 -35q-44 0 -80 11t-64 31l-72 -101l-40 18l-4 11l77 108q-61 75 -63 205q-1 77 19 150.5t61 130.5t102 92t142 35q90 0 150 -46l74 105l40 -18l4 -11zM274 606q-27 -16 -50.5 -48t-41 -75.5
t-27.5 -96.5t-10 -110q0 -40 5.5 -76.5t18.5 -66.5l314 442q-20 23 -48.5 36.5t-69.5 13.5q-23 0 -44 -4.5t-47 -14.5zM404 59q27 16 50.5 48t41 75.5t27.5 96.5t10 110q0 38 -5 73t-17 64l-311 -441q20 -21 47.5 -33t65.5 -12q23 0 44 4.5t47 14.5zM493 893q15 -7 28 -19.5
t21 -29.5l-143 -121h-50l120 170h24z" />
    <glyph glyph-name="oslashacute" unicode="&#x1ff;" horiz-adv-x="492" 
d="M410 456q24 -29 35 -67.5t11 -83.5q0 -47 -13 -102.5t-42 -103.5t-75.5 -80t-112.5 -32q-29 0 -52.5 6.5t-43.5 18.5l-59 -90l-38 18l-5 9l64 98q-22 29 -32.5 66.5t-10.5 81.5q0 47 13 102.5t41.5 103.5t74.5 80t113 32q29 0 52 -6.5t42 -17.5l64 98l38 -18l4 -10z
M204 453q-24 -21 -40 -53.5t-26.5 -69.5t-15 -75t-4.5 -68q0 -22 2 -40t6 -34l210 328q-25 25 -69 25q-32 0 -63 -13zM289 47q24 21 40.5 54t26 70.5t14 75.5t4.5 67q0 48 -10 78l-210 -330q25 -28 72 -28q32 0 63 13zM394 767q16 -7 29.5 -20.5t20.5 -29.5l-137 -144h-48
l111 194h24z" />
    <glyph glyph-name="uni0218" unicode="&#x218;" horiz-adv-x="503" 
d="M218 614q-19 -12 -32 -34.5t-13 -55.5q0 -25 8.5 -44.5t22.5 -36.5t33.5 -32t42.5 -30l30 -20q25 -17 49.5 -36.5t43.5 -43.5t31 -53.5t12 -68.5q0 -32 -10.5 -63t-35 -55t-66 -39t-103.5 -15q-63 0 -107.5 13.5t-75.5 28.5q-4 21 -5.5 38.5t-1.5 36.5t1.5 38.5t4.5 43.5
l53 5l26 -130q24 -12 49.5 -16.5t56.5 -4.5q27 0 51.5 3.5t42.5 14.5q15 13 24 35t9 51q0 27 -7.5 46.5t-21 35.5t-31 29.5t-38.5 27.5l-32 22q-65 44 -100.5 90t-35.5 110q0 42 15 74t41 54t61 33.5t76 11.5q34 0 59 -7t45 -18l1 17q14 4 24.5 6t23.5 2l20 -13
q1 -5 1.5 -12t0.5 -17q0 -27 -4.5 -63.5t-10.5 -66.5h-52l-5 101q-23 8 -50.5 13t-51.5 5q-16 0 -34.5 -2.5t-34.5 -8.5zM219 -56q25 0 44 -11q5 -6 7 -18t2 -26q0 -48 -25 -83.5t-69 -49.5l-12 24q23 15 38.5 31.5t15.5 44.5v12l-36 6l5 67q13 3 30 3z" />
    <glyph glyph-name="uni0219" unicode="&#x219;" horiz-adv-x="381" 
d="M205 467q-14 -2 -25.5 -5t-20.5 -8q-10 -11 -16.5 -27t-6.5 -36q0 -18 6 -31.5t17 -26.5t28 -27t38 -33q21 -18 39 -35.5t32 -36t22 -38.5t8 -44q0 -28 -11.5 -52t-33 -42t-52 -28t-68.5 -10q-23 0 -46 4t-42 13.5t-33 25t-20 37.5l40 52l130 -85q14 2 25.5 5t20.5 8
q10 12 13 26t3 28q0 18 -4.5 31.5t-13.5 26t-23.5 26t-34.5 31.5q-27 23 -48 42t-35.5 37t-22.5 37.5t-8 43.5q0 32 14 57.5t37.5 43t55 27t66.5 9.5q19 0 39 -3.5t37.5 -11t31 -19.5t19.5 -30l-34 -51zM145 -56q25 0 44 -11q5 -6 7 -18t2 -26q0 -48 -25 -83.5t-69 -49.5
l-12 24q23 15 38.5 31.5t15.5 44.5v12l-36 6l5 67q13 3 30 3z" />
    <glyph glyph-name="uni021A" unicode="&#x21a;" horiz-adv-x="536" 
d="M546 665q1 -5 1.5 -12t0.5 -17q0 -27 -4.5 -61.5t-10.5 -64.5h-52l-5 99l-127 7l-48 -568l90 -5v-20l-3 -23h-261v39q20 8 46 13t48 7l49 560h-119l-34 -112l-48 5q-1 11 -1.5 20.5t-0.5 21.5q0 29 5 59t18 67l13 1l210 -16h162q13 5 26 9t25 4zM242 -56q25 0 44 -11
q5 -6 7 -18t2 -26q0 -48 -25 -83.5t-69 -49.5l-12 24q23 15 38.5 31.5t15.5 44.5v12l-36 6l5 67q13 3 30 3z" />
    <glyph glyph-name="uni021B" unicode="&#x21b;" horiz-adv-x="337" 
d="M330 468l-7 -31h-132q-8 -59 -15 -118.5t-13 -112.5t-10 -95t-4 -64q38 0 74.5 12.5t66.5 29.5l15 -37q-16 -14 -36.5 -26t-42 -20.5t-43.5 -13.5t-42 -5q-32 0 -48.5 16.5t-16.5 61.5q0 20 3.5 59.5t9 90t12.5 107t15 109.5l-61 6v38q17 6 34.5 10.5t36.5 8.5
q6 32 11.5 59.5t10.5 47.5q22 13 51 18l13 -11l-15 -120h133v-20zM121 -56q25 0 44 -11q5 -6 7 -18t2 -26q0 -48 -25 -83.5t-69 -49.5l-12 24q23 15 38.5 31.5t15.5 44.5v12l-36 6l5 67q13 3 30 3z" />
    <glyph glyph-name="uni0232" unicode="&#x232;" horiz-adv-x="616" 
d="M562 606q-42 -94 -95.5 -184.5t-114.5 -184.5l-17 -189l87 -5v-20l-3 -23h-258v39q9 4 21 7t25 6t25.5 4.5t22.5 2.5l16 180q-20 52 -40 103.5t-39.5 100t-38.5 92.5t-35 82l-69 5v20l3 23h234v-39q-15 -7 -38.5 -12t-43.5 -7q13 -33 29.5 -73.5t32.5 -82.5t31.5 -83
t27.5 -75h10q45 73 91 156.5t78 166.5l-76 6v20l3 23h208v-39q-17 -8 -38.5 -13.5t-38.5 -6.5zM479 827q2 -4 2 -17q0 -7 -1.5 -20t-7.5 -25h-232q-2 4 -2 16q0 7 2 21t7 25h232z" />
    <glyph glyph-name="uni0233" unicode="&#x233;" horiz-adv-x="509" 
d="M397 513q35 -8 57 -40t22 -83q0 -35 -12 -83.5t-36 -104.5t-60.5 -117.5t-85.5 -122.5q-30 -38 -61.5 -70t-62 -55.5t-59.5 -36.5t-56 -13q-29 0 -57.5 12.5t-48.5 35.5l17 41q26 -9 60 -19t72 -13q33 20 60 44.5t52 57.5q-13 61 -27 128t-28 132.5t-27.5 125
t-25.5 105.5h-81v38q32 13 62.5 22t62.5 11l20 -13q16 -68 31.5 -135.5t28.5 -130.5t22.5 -119t14.5 -99h10q22 30 45.5 72.5t45 90t38.5 97t25 94.5l-71 106zM411 685q2 -4 2 -17q0 -7 -1.5 -20t-7.5 -25h-232q-2 4 -2 16q0 7 2 21t7 25h232z" />
    <glyph glyph-name="uni0237" unicode="&#x237;" horiz-adv-x="253" 
d="M141 11q-13 -118 -56.5 -171t-112.5 -53q-32 0 -58.5 10t-43.5 29l17 41q26 -8 61 -16.5t73 -8.5q19 23 28 58.5t14 80.5l52 456h-81v38q30 12 70 21t74 12l19 -13z" />
    <glyph glyph-name="uni0259" unicode="&#x259;" horiz-adv-x="437" 
d="M244 513q43 0 72.5 -16.5t48.5 -44t27.5 -64.5t8.5 -78q0 -50 -12.5 -106.5t-41.5 -104.5t-75.5 -80t-113.5 -32q-66 0 -100 31.5t-34 85.5q0 45 23.5 79t64 56t93 32.5t111.5 9.5l1 26q0 72 -24.5 105t-72.5 33q-29 0 -63.5 -12.5t-71.5 -43.5l-18 36q39 48 85.5 68
t91.5 20zM233 47q18 15 31.5 37.5t23 49t16 55t9.5 55.5q-103 -11 -154 -41t-51 -98q0 -29 12.5 -50t50.5 -21q31 0 62 13z" />
    <glyph glyph-name="uni02BB" unicode="&#x2bb;" horiz-adv-x="230" 
d="M231 714q-30 -17 -53 -45t-23 -60v-11l41 -8l-6 -85q-8 -2 -17.5 -2.5t-17.5 -0.5q-30 0 -49 12q-5 9 -8 24.5t-3 32.5q0 24 6 48.5t20 47t38 41.5t59 32z" />
    <glyph glyph-name="uni02BC" unicode="&#x2bc;" horiz-adv-x="231" 
d="M159 732q30 0 49 -12q5 -9 8 -24t3 -33q0 -21 -5 -45t-19 -47t-38 -43.5t-61 -33.5l-13 26q30 17 53 45t23 60v11l-41 8l6 85q8 2 17.5 2.5t17.5 0.5z" />
    <glyph glyph-name="circumflex" unicode="&#x2c6;" horiz-adv-x="320" 
d="M271 571l-67 111h-9l-80 -108h-48l137 188h45l81 -161z" />
    <glyph glyph-name="caron" unicode="&#x2c7;" horiz-adv-x="320" 
d="M219 655l81 108h48l-136 -188h-46l-81 161l59 30l66 -111h9z" />
    <glyph glyph-name="breve" unicode="&#x2d8;" horiz-adv-x="308" 
d="M140 749q2 -53 18.5 -77.5t50.5 -24.5q37 0 57.5 27t36.5 75l30 -13q-17 -72 -52 -110t-92 -38q-34 0 -55.5 12.5t-33.5 32.5t-15.5 45t-0.5 50z" />
    <glyph glyph-name="dotaccent" unicode="&#x2d9;" horiz-adv-x="155" 
d="M136 723q16 0 27 -4q5 -10 8 -18.5t3 -19.5q0 -18 -6.5 -33t-15.5 -32h-64l-5 100q8 2 23 4.5t30 2.5z" />
    <glyph glyph-name="ring" unicode="&#x2da;" horiz-adv-x="256" 
d="M188 770q41 0 64 -21t23 -63q0 -52 -32 -77t-76 -25q-42 0 -65.5 21t-23.5 63q0 26 9 45t24 32t35 19t42 6zM182 730q-6 0 -13.5 -1.5t-12.5 -4.5q-7 -8 -12 -23t-5 -34q0 -23 8.5 -33t23.5 -10q6 0 13.5 1.5t12.5 4.5q7 8 12 23t5 34q0 23 -8.5 33t-23.5 10z" />
    <glyph glyph-name="ogonek" unicode="&#x2db;" horiz-adv-x="241" 
d="M132 15q-43 -41 -60.5 -74.5t-17.5 -57.5q0 -23 14 -36t38 -13q13 0 26 3t24 8l5 -31q-33 -27 -83 -27q-48 0 -69.5 22t-21.5 56q0 24 9.5 45.5t25.5 41t37 36.5t44 32z" />
    <glyph glyph-name="tilde" unicode="&#x2dc;" horiz-adv-x="328" 
d="M349 695q-6 -11 -15 -26.5t-21 -30t-27 -24.5t-33 -10q-9 0 -20.5 3.5t-28.5 14.5l-55 34l-54 -51l-22 26q6 10 15 25.5t21 30t27.5 24.5t33.5 10q9 0 20 -4t29 -15l54 -33l55 51z" />
    <glyph glyph-name="hungarumlaut" unicode="&#x2dd;" horiz-adv-x="333" 
d="M153 767q36 -7 60 -37l-108 -157h-38l63 194h23zM298 767q38 -8 60 -37l-107 -157h-39l63 194h23z" />
    <glyph glyph-name="gravecomb" unicode="&#x300;" horiz-adv-x="0" 
d="M-108 573l-110 144q14 18 29 30t36 20h24l68 -194h-47z" />
    <glyph glyph-name="acutecomb" unicode="&#x301;" horiz-adv-x="0" 
d="M-99 767q16 -7 29.5 -20.5t20.5 -29.5l-137 -144h-48l111 194h24z" />
    <glyph glyph-name="uni0302" unicode="&#x302;" horiz-adv-x="0" 
d="M-80 571l-67 111h-9l-80 -108h-48l137 188h45l81 -161z" />
    <glyph glyph-name="tildecomb" unicode="&#x303;" horiz-adv-x="0" 
d="M-52 695q-6 -11 -15 -26.5t-21 -30t-27 -24.5t-33 -10q-9 0 -20.5 3.5t-28.5 14.5l-55 34l-54 -51l-22 26q6 10 15 25.5t21 30t27.5 24.5t33.5 10q9 0 20 -4t29 -15l54 -33l55 51z" />
    <glyph glyph-name="uni0304" unicode="&#x304;" horiz-adv-x="0" 
d="M15 685q2 -4 2 -17q0 -7 -1.5 -20t-7.5 -25h-232q-2 4 -2 16q0 7 2 21t7 25h232z" />
    <glyph glyph-name="uni0306" unicode="&#x306;" horiz-adv-x="0" 
d="M-161 749q2 -53 18.5 -77.5t50.5 -24.5q37 0 57.5 27t36.5 75l30 -13q-17 -72 -52 -110t-92 -38q-34 0 -55.5 12.5t-33.5 32.5t-15.5 45t-0.5 50z" />
    <glyph glyph-name="uni0307" unicode="&#x307;" horiz-adv-x="0" 
d="M-65 723q16 0 27 -4q5 -10 8 -18.5t3 -19.5q0 -18 -6.5 -33t-15.5 -32h-64l-5 100q8 2 23 4.5t30 2.5z" />
    <glyph glyph-name="uni0308" unicode="&#x308;" horiz-adv-x="1" 
d="M-210 713q17 0 25 -4q5 -10 7.5 -18t2.5 -19q0 -15 -5.5 -29t-13.5 -28h-59l-5 91q19 7 48 7zM-26 713q17 0 26 -4q5 -9 7.5 -17.5t2.5 -18.5q0 -15 -5.5 -29.5t-13.5 -28.5h-59l-5 91q19 7 47 7z" />
    <glyph glyph-name="uni030A" unicode="&#x30a;" horiz-adv-x="0" 
d="M-113 770q41 0 64 -21t23 -63q0 -52 -32 -77t-76 -25q-42 0 -65.5 21t-23.5 63q0 26 9 45t24 32t35 19t42 6zM-119 730q-6 0 -13.5 -1.5t-12.5 -4.5q-7 -8 -12 -23t-5 -34q0 -23 8.5 -33t23.5 -10q6 0 13.5 1.5t12.5 4.5q7 8 12 23t5 34q0 23 -8.5 33t-23.5 10z" />
    <glyph glyph-name="uni030B" unicode="&#x30b;" horiz-adv-x="0" 
d="M-248 767q36 -7 60 -37l-108 -157h-38l63 194h23zM-103 767q38 -8 60 -37l-107 -157h-39l63 194h23z" />
    <glyph glyph-name="uni030C" unicode="&#x30c;" horiz-adv-x="0" 
d="M-132 655l81 108h48l-136 -188h-46l-81 161l59 30l66 -111h9z" />
    <glyph glyph-name="uni0312" unicode="&#x312;" horiz-adv-x="1" 
d="M-67 747q-23 -15 -39.5 -32.5t-16.5 -45.5v-12l36 -6l-5 -67q-14 -3 -30 -3q-25 0 -44 11q-5 6 -7 18t-2 26q0 48 26 84.5t70 50.5z" />
    <glyph glyph-name="uni0326" unicode="&#x326;" horiz-adv-x="0" 
d="M-272 -56q25 0 44 -11q5 -6 7 -18t2 -26q0 -48 -25 -83.5t-69 -49.5l-12 24q23 15 38.5 31.5t15.5 44.5v12l-36 6l5 67q13 3 30 3z" />
    <glyph glyph-name="uni0327" unicode="&#x327;" horiz-adv-x="0" 
d="M-202 -68q29 -1 49.5 -12.5t20.5 -43.5q0 -36 -28.5 -62.5t-78.5 -26.5q-52 0 -82 27l11 34q12 -5 26 -9.5t31 -4.5q23 0 39 11.5t16 31.5q0 14 -11 19.5t-48 13.5l24 96h39z" />
    <glyph glyph-name="uni0328" unicode="&#x328;" horiz-adv-x="1" 
d="M-169 15q-43 -41 -60.5 -74.5t-17.5 -57.5q0 -23 14 -36t38 -13q13 0 26 3t24 8l5 -31q-33 -27 -83 -27q-48 0 -69.5 22t-21.5 56q0 24 9.5 45.5t25.5 41t37 36.5t44 32z" />
    <glyph glyph-name="uni0394" unicode="&#x394;" horiz-adv-x="518" 
d="M474 0h-486l-4 10l275 655l42 13h19l160 -668zM389 65l-112 493l-202 -493h314z" />
    <glyph glyph-name="uni03A9" unicode="&#x3a9;" horiz-adv-x="636" 
d="M609 147q1 -11 1.5 -20.5t0.5 -21.5q0 -26 -4 -49.5t-14 -55.5h-239l13 146q49 24 78 56.5t45 68.5t21 72.5t5 68.5q0 44 -8 83t-27 68t-51 45.5t-80 16.5q-24 0 -45 -4.5t-47 -14.5q-23 -13 -43.5 -38t-35.5 -58.5t-24 -74.5t-9 -86q0 -80 28 -127.5t77 -75.5l-13 -146
h-231q-3 27 -3.5 48t1 38t5 32t7.5 29l51 6l10 -80l122 -7l5 62q-64 20 -106 76t-44 147q-2 62 17.5 121t58.5 104.5t97 73.5t134 28q59 0 105 -17.5t77 -50.5t47 -80t16 -105q0 -39 -8.5 -83.5t-30.5 -85.5t-60 -75.5t-96 -52.5l-5 -62l128 7l25 80z" />
    <glyph glyph-name="uni03BC" unicode="&#x3bc;" horiz-adv-x="583" 
d="M573 57q-28 -29 -64 -47t-69 -18q-23 0 -39.5 11.5t-16.5 41.5q0 12 3 32t9 53t14.5 80.5t19.5 113.5l-11 3q-32 -102 -57 -168t-49.5 -104t-52 -53t-64.5 -15q-30 0 -48 12t-30 36l-10 -4q9 -60 16.5 -118t6.5 -118q-14 -5 -31.5 -6.5t-35.5 -1.5l-14 15
q11 192 33 354.5t42 280.5h-81v38q30 12 69.5 21t73.5 12l19 -13q-2 -14 -7 -43t-11 -65.5t-12.5 -78t-12 -80t-9 -71t-3.5 -51.5q0 -35 14 -51.5t47 -16.5h12q8 0 17 2q45 53 91 165.5t101 294.5q11 5 25 6.5t30 1.5l19 -13l-50 -443q23 0 50.5 12.5t50.5 29.5z" />
    <glyph glyph-name="pi" unicode="&#x3c0;" horiz-adv-x="538" 
d="M540 470l-11 -44h-82l-45 -374q26 1 52.5 13.5t49.5 28.5l15 -37q-28 -29 -63.5 -47t-68.5 -18q-24 0 -41.5 12.5t-17.5 41.5q0 13 4.5 53.5t12 95.5t16 116t16.5 115h-177l-49 -426q-30 -8 -63 -8l-19 13l40 241l20 180q-23 -2 -48 -10t-59 -32l-12 25q14 24 28.5 41
t34 28.5t45 16.5t60.5 5h362v-30z" />
    <glyph glyph-name="Wgrave" unicode="&#x1e80;" horiz-adv-x="951" 
d="M969 626q-12 -6 -29 -10.5t-32 -7.5q-20 -67 -50 -149.5t-63 -166t-66 -160.5t-58 -132q-14 -5 -28.5 -6.5t-29.5 -1.5l-18 12q-9 43 -20 95t-22 108t-21.5 114.5t-20.5 114.5h-10q-35 -113 -77.5 -217.5t-92.5 -218.5q-14 -5 -28.5 -6.5t-29.5 -1.5l-18 12
q-15 63 -32.5 143t-35 163.5t-34 164t-30.5 143.5l-65 4v20l3 23h225v-39q-15 -8 -36.5 -13t-37.5 -7q12 -65 24.5 -137.5t25.5 -144t25 -136.5t21 -114h10q16 38 36.5 92.5t42.5 115.5t44 124t41 118l-19 95l-42 3v20l3 23h205v-39q-16 -8 -38.5 -13t-38.5 -7
q12 -65 25 -137.5t25.5 -144t24.5 -136.5t21 -114h10q19 46 44 112.5t51.5 140.5t51 149.5t41.5 140.5l-85 5v20l3 23h205v-39zM506 723l-115 120q11 15 26.5 28t34.5 21h24l80 -169h-50z" />
    <glyph glyph-name="wgrave" unicode="&#x1e81;" horiz-adv-x="797" 
d="M686 513q21 -5 36 -17.5t24.5 -29.5t14 -36.5t4.5 -37.5q0 -32 -12.5 -74.5t-34.5 -87.5t-52 -88.5t-65 -78t-73.5 -55.5t-77.5 -21q-41 0 -65.5 23.5t-24.5 67.5q0 20 5 44.5t12 47.5l-12 3q-20 -42 -38 -76t-39 -58.5t-46 -38t-58 -13.5q-22 0 -41.5 6.5t-34 21
t-23 37.5t-8.5 55q0 24 4.5 62t11.5 83t15.5 93t16.5 92h-81v38q30 12 68.5 21t72.5 12l19 -13q-1 -9 -5.5 -36t-10.5 -63.5t-12.5 -79t-12 -82.5t-9 -74t-3.5 -53q0 -34 14 -51.5t51 -17.5h6q44 47 83.5 116.5t71.5 157.5q8 59 15.5 103.5t16.5 84.5q11 5 25.5 6.5
t30.5 1.5l19 -13q0 -31 -9.5 -83.5t-28.5 -114.5q-3 -27 -5.5 -54.5t-4.5 -53t-3.5 -47t-1.5 -35.5q0 -35 11.5 -52t45.5 -17h11q66 54 118 137.5t87 189.5l-71 106zM415 573l-110 144q14 18 29 30t36 20h24l68 -194h-47z" />
    <glyph glyph-name="Wacute" unicode="&#x1e82;" horiz-adv-x="951" 
d="M969 626q-12 -6 -29 -10.5t-32 -7.5q-20 -67 -50 -149.5t-63 -166t-66 -160.5t-58 -132q-14 -5 -28.5 -6.5t-29.5 -1.5l-18 12q-9 43 -20 95t-22 108t-21.5 114.5t-20.5 114.5h-10q-35 -113 -77.5 -217.5t-92.5 -218.5q-14 -5 -28.5 -6.5t-29.5 -1.5l-18 12
q-15 63 -32.5 143t-35 163.5t-34 164t-30.5 143.5l-65 4v20l3 23h225v-39q-15 -8 -36.5 -13t-37.5 -7q12 -65 24.5 -137.5t25.5 -144t25 -136.5t21 -114h10q16 38 36.5 92.5t42.5 115.5t44 124t41 118l-19 95l-42 3v20l3 23h205v-39q-16 -8 -38.5 -13t-38.5 -7
q12 -65 25 -137.5t25.5 -144t24.5 -136.5t21 -114h10q19 46 44 112.5t51.5 140.5t51 149.5t41.5 140.5l-85 5v20l3 23h205v-39zM647 893q15 -7 28 -19.5t21 -29.5l-143 -121h-50l120 170h24z" />
    <glyph glyph-name="wacute" unicode="&#x1e83;" horiz-adv-x="797" 
d="M686 513q21 -5 36 -17.5t24.5 -29.5t14 -36.5t4.5 -37.5q0 -32 -12.5 -74.5t-34.5 -87.5t-52 -88.5t-65 -78t-73.5 -55.5t-77.5 -21q-41 0 -65.5 23.5t-24.5 67.5q0 20 5 44.5t12 47.5l-12 3q-20 -42 -38 -76t-39 -58.5t-46 -38t-58 -13.5q-22 0 -41.5 6.5t-34 21
t-23 37.5t-8.5 55q0 24 4.5 62t11.5 83t15.5 93t16.5 92h-81v38q30 12 68.5 21t72.5 12l19 -13q-1 -9 -5.5 -36t-10.5 -63.5t-12.5 -79t-12 -82.5t-9 -74t-3.5 -53q0 -34 14 -51.5t51 -17.5h6q44 47 83.5 116.5t71.5 157.5q8 59 15.5 103.5t16.5 84.5q11 5 25.5 6.5
t30.5 1.5l19 -13q0 -31 -9.5 -83.5t-28.5 -114.5q-3 -27 -5.5 -54.5t-4.5 -53t-3.5 -47t-1.5 -35.5q0 -35 11.5 -52t45.5 -17h11q66 54 118 137.5t87 189.5l-71 106zM548 767q16 -7 29.5 -20.5t20.5 -29.5l-137 -144h-48l111 194h24z" />
    <glyph glyph-name="Wdieresis" unicode="&#x1e84;" horiz-adv-x="951" 
d="M969 626q-12 -6 -29 -10.5t-32 -7.5q-20 -67 -50 -149.5t-63 -166t-66 -160.5t-58 -132q-14 -5 -28.5 -6.5t-29.5 -1.5l-18 12q-9 43 -20 95t-22 108t-21.5 114.5t-20.5 114.5h-10q-35 -113 -77.5 -217.5t-92.5 -218.5q-14 -5 -28.5 -6.5t-29.5 -1.5l-18 12
q-15 63 -32.5 143t-35 163.5t-34 164t-30.5 143.5l-65 4v20l3 23h225v-39q-15 -8 -36.5 -13t-37.5 -7q12 -65 24.5 -137.5t25.5 -144t25 -136.5t21 -114h10q16 38 36.5 92.5t42.5 115.5t44 124t41 118l-19 95l-42 3v20l3 23h205v-39q-16 -8 -38.5 -13t-38.5 -7
q12 -65 25 -137.5t25.5 -144t24.5 -136.5t21 -114h10q19 46 44 112.5t51.5 140.5t51 149.5t41.5 140.5l-85 5v20l3 23h205v-39zM439 851q8 0 15 -1t12 -3q10 -14 10 -35q0 -17 -5 -31.5t-13 -29.5h-61l-6 92q8 4 21 6t27 2zM654 851q18 0 27 -4q10 -14 10 -35
q0 -17 -5 -31.5t-13 -29.5h-61l-6 92q8 4 21 6t27 2z" />
    <glyph glyph-name="wdieresis" unicode="&#x1e85;" horiz-adv-x="797" 
d="M686 513q21 -5 36 -17.5t24.5 -29.5t14 -36.5t4.5 -37.5q0 -32 -12.5 -74.5t-34.5 -87.5t-52 -88.5t-65 -78t-73.5 -55.5t-77.5 -21q-41 0 -65.5 23.5t-24.5 67.5q0 20 5 44.5t12 47.5l-12 3q-20 -42 -38 -76t-39 -58.5t-46 -38t-58 -13.5q-22 0 -41.5 6.5t-34 21
t-23 37.5t-8.5 55q0 24 4.5 62t11.5 83t15.5 93t16.5 92h-81v38q30 12 68.5 21t72.5 12l19 -13q-1 -9 -5.5 -36t-10.5 -63.5t-12.5 -79t-12 -82.5t-9 -74t-3.5 -53q0 -34 14 -51.5t51 -17.5h6q44 47 83.5 116.5t71.5 157.5q8 59 15.5 103.5t16.5 84.5q11 5 25.5 6.5
t30.5 1.5l19 -13q0 -31 -9.5 -83.5t-28.5 -114.5q-3 -27 -5.5 -54.5t-4.5 -53t-3.5 -47t-1.5 -35.5q0 -35 11.5 -52t45.5 -17h11q66 54 118 137.5t87 189.5l-71 106zM363 713q17 0 25 -4q5 -10 7.5 -18t2.5 -19q0 -15 -5.5 -29t-13.5 -28h-59l-5 91q19 7 48 7zM547 713
q17 0 26 -4q5 -9 7.5 -17.5t2.5 -18.5q0 -15 -5.5 -29.5t-13.5 -28.5h-59l-5 91q19 7 47 7z" />
    <glyph glyph-name="uni1E9E" unicode="&#x1e9e;" horiz-adv-x="668" 
d="M567 302q31 -35 45.5 -69t14.5 -77q0 -78 -46 -123.5t-138 -45.5q-47 0 -79 11t-64 27q-4 21 -5.5 38.5t-1.5 36.5t1.5 38.5t4.5 43.5l53 5l28 -139q17 -4 29 -6t28 -2q21 0 42.5 4t40.5 14q11 16 16.5 36t5.5 49q0 18 -2.5 32.5t-9 28t-17 27.5t-26.5 33q-17 21 -32 38
t-25.5 33.5t-16.5 34.5t-6 40q0 53 33 98.5t96 90.5v10q-28 8 -57.5 12t-55.5 4q-98 0 -148.5 -51t-60.5 -159l-36 -415h-159v39q18 8 42.5 13t41.5 7l31 355q12 139 82.5 201.5t184.5 62.5q24 0 50.5 -2.5t52.5 -8t51 -13.5t45 -19v-51q-54 -35 -85 -73.5t-31 -81.5
q0 -20 7 -35t18 -29.5t26 -29t32 -33.5z" />
    <glyph glyph-name="Ygrave" unicode="&#x1ef2;" horiz-adv-x="616" 
d="M562 606q-42 -94 -95.5 -184.5t-114.5 -184.5l-17 -189l87 -5v-20l-3 -23h-258v39q9 4 21 7t25 6t25.5 4.5t22.5 2.5l16 180q-20 52 -40 103.5t-39.5 100t-38.5 92.5t-35 82l-69 5v20l3 23h234v-39q-15 -7 -38.5 -12t-43.5 -7q13 -33 29.5 -73.5t32.5 -82.5t31.5 -83
t27.5 -75h10q45 73 91 156.5t78 166.5l-76 6v20l3 23h208v-39q-17 -8 -38.5 -13.5t-38.5 -6.5zM326 723l-115 120q11 15 26.5 28t34.5 21h24l80 -169h-50z" />
    <glyph glyph-name="ygrave" unicode="&#x1ef3;" horiz-adv-x="509" 
d="M397 513q35 -8 57 -40t22 -83q0 -35 -12 -83.5t-36 -104.5t-60.5 -117.5t-85.5 -122.5q-30 -38 -61.5 -70t-62 -55.5t-59.5 -36.5t-56 -13q-29 0 -57.5 12.5t-48.5 35.5l17 41q26 -9 60 -19t72 -13q33 20 60 44.5t52 57.5q-13 61 -27 128t-28 132.5t-27.5 125
t-25.5 105.5h-81v38q32 13 62.5 22t62.5 11l20 -13q16 -68 31.5 -135.5t28.5 -130.5t22.5 -119t14.5 -99h10q22 30 45.5 72.5t45 90t38.5 97t25 94.5l-71 106zM261 573l-110 144q14 18 29 30t36 20h24l68 -194h-47z" />
    <glyph glyph-name="uni2007" unicode="&#x2007;" horiz-adv-x="538" 
 />
    <glyph glyph-name="uni2008" unicode="&#x2008;" horiz-adv-x="217" 
 />
    <glyph glyph-name="uni2009" unicode="&#x2009;" horiz-adv-x="175" 
 />
    <glyph glyph-name="uni200B" unicode="&#x200b;" horiz-adv-x="0" 
 />
    <glyph glyph-name="endash" unicode="&#x2013;" horiz-adv-x="500" 
d="M449 265h-393v17l5 40h393v-17z" />
    <glyph glyph-name="emdash" unicode="&#x2014;" horiz-adv-x="1000" 
d="M914 265h-823v17l5 40h823v-17z" />
    <glyph glyph-name="quoteleft" unicode="&#x2018;" horiz-adv-x="230" 
d="M231 714q-30 -17 -53 -45t-23 -60v-11l41 -8l-6 -85q-8 -2 -17.5 -2.5t-17.5 -0.5q-30 0 -49 12q-5 9 -8 24.5t-3 32.5q0 24 6 48.5t20 47t38 41.5t59 32z" />
    <glyph glyph-name="quoteright" unicode="&#x2019;" horiz-adv-x="231" 
d="M159 732q30 0 49 -12q5 -9 8 -24t3 -33q0 -21 -5 -45t-19 -47t-38 -43.5t-61 -33.5l-13 26q30 17 53 45t23 60v11l-41 8l6 85q8 2 17.5 2.5t17.5 0.5z" />
    <glyph glyph-name="quotesinglbase" unicode="&#x201a;" horiz-adv-x="231" 
d="M86 91q30 0 49 -12q5 -9 8 -24t3 -33q0 -21 -5 -45t-19 -47t-38 -43.5t-61 -33.5l-13 26q30 17 53 45t23 60v11l-41 8l6 85q8 2 17.5 2.5t17.5 0.5z" />
    <glyph glyph-name="quotedblleft" unicode="&#x201c;" horiz-adv-x="387" 
d="M387 714q-30 -17 -53 -45t-23 -60v-11l41 -8l-6 -85q-8 -2 -17.5 -2.5t-17.5 -0.5q-30 0 -49 12q-5 9 -8 24.5t-3 32.5q0 24 6 48.5t20 47t38 41.5t59 32zM231 714q-30 -17 -53 -45t-23 -60v-11l41 -8l-6 -85q-8 -2 -17.5 -2.5t-17.5 -0.5q-30 0 -49 12q-5 9 -8 24.5
t-3 32.5q0 24 6 48.5t20 47t38 41.5t59 32z" />
    <glyph glyph-name="quotedblright" unicode="&#x201d;" horiz-adv-x="388" 
d="M316 732q30 0 49 -12q5 -9 8 -24t3 -33q0 -21 -5 -45t-19 -47t-38 -43.5t-61 -33.5l-13 26q30 17 53 45t23 60v11l-41 8l6 85q8 2 17.5 2.5t17.5 0.5zM159 732q30 0 49 -12q5 -9 8 -24t3 -33q0 -21 -5 -45t-19 -47t-38 -43.5t-61 -33.5l-13 26q30 17 53 45t23 60v11
l-41 8l6 85q8 2 17.5 2.5t17.5 0.5z" />
    <glyph glyph-name="quotedblbase" unicode="&#x201e;" horiz-adv-x="388" 
d="M243 91q30 0 49 -12q5 -9 8 -24t3 -33q0 -21 -5 -45t-19 -47t-38 -43.5t-61 -33.5l-13 26q30 17 53 45t23 60v11l-41 8l6 85q8 2 17.5 2.5t17.5 0.5zM86 91q30 0 49 -12q5 -9 8 -24t3 -33q0 -21 -5 -45t-19 -47t-38 -43.5t-61 -33.5l-13 26q30 17 53 45t23 60v11l-41 8
l6 85q8 2 17.5 2.5t17.5 0.5z" />
    <glyph glyph-name="dagger" unicode="&#x2020;" horiz-adv-x="469" 
d="M283 494q5 -24 7 -44t2 -40q0 -49 -11.5 -113t-28.5 -155h-39q-1 39 -1.5 71.5t-0.5 67.5q0 48 5 99.5t28 113.5h39zM321 736q1 -5 1 -9v-8q0 -29 -8 -68t-24 -78h-39q-5 25 -8 56.5t-3 51.5q0 18 2 31.5t7 27.5h51zM111 573q24 0 59.5 -6t62.5 -15l-4 -39
q-29 -8 -65 -14t-60 -6q-8 0 -19.5 1t-21.5 3v17l8 56q10 2 21 2.5t19 0.5zM429 573q8 0 19.5 -1t21.5 -3v-17l-8 -56q-10 -2 -21 -2.5t-19 -0.5q-24 0 -59.5 5.5t-62.5 14.5l4 39q29 8 65 14.5t60 6.5z" />
    <glyph glyph-name="daggerdbl" unicode="&#x2021;" horiz-adv-x="497" 
d="M292 494q5 -26 7 -46.5t2 -37.5q0 -29 -6 -71.5t-25 -92.5h-39q-5 26 -7 46.5t-2 37.5q0 29 6 71.5t25 92.5h39zM264 167q5 -25 8 -56.5t3 -51.5q0 -18 -2 -31.5t-7 -27.5h-51l-21 4q-1 5 -1 8v9q0 29 8 68t24 78h39zM330 736q1 -5 1 -9v-8q0 -29 -8 -68t-24 -78h-39
q-5 25 -8 56.5t-3 51.5q0 18 2 31.5t7 27.5h51zM120 573q24 0 59.5 -6t62.5 -15l-4 -39q-29 -8 -65 -14t-60 -6q-8 0 -19.5 1t-21.5 3v17l8 56q10 2 21 2.5t19 0.5zM411 247q8 0 19.5 -1t21.5 -3v-17l-8 -56q-10 -2 -21 -2.5t-19 -0.5q-24 0 -59.5 6t-62.5 15l4 39
q29 8 65 14t60 6zM93 247q24 0 59.5 -5.5t62.5 -14.5l-4 -39q-29 -8 -65 -14.5t-60 -6.5q-8 0 -19.5 1t-21.5 3v17l8 56q10 2 21 2.5t19 0.5zM438 573q8 0 19.5 -1t21.5 -3v-17l-8 -56q-10 -2 -21 -2.5t-19 -0.5q-24 0 -59.5 5.5t-62.5 14.5l4 39q29 8 65 14.5t60 6.5z" />
    <glyph glyph-name="bullet" unicode="&#x2022;" horiz-adv-x="382" 
d="M196 415q61 0 92 -33t31 -90t-31 -90t-92 -33q-60 0 -91.5 33t-31.5 90t31.5 90t91.5 33z" />
    <glyph glyph-name="ellipsis" unicode="&#x2026;" horiz-adv-x="671" 
d="M549 113q8 0 16.5 -1t14.5 -3q5 -10 8 -19t3 -21q0 -18 -6.5 -35t-15.5 -34h-68l-5 106q8 2 23 4.5t30 2.5zM95 113q8 0 16.5 -1t14.5 -3q5 -10 8 -19t3 -21q0 -18 -6.5 -35t-15.5 -34h-68l-5 106q8 2 23 4.5t30 2.5zM320 113q8 0 16.5 -1t14.5 -3q5 -10 8 -19t3 -21
q0 -18 -6.5 -35t-15.5 -34h-68l-5 106q8 2 23 4.5t30 2.5z" />
    <glyph glyph-name="perthousand" unicode="&#x2030;" horiz-adv-x="1163" 
d="M995 355q34 0 58 -11.5t39.5 -31.5t22.5 -46.5t7 -56.5q0 -33 -9 -72t-30 -72.5t-54 -55.5t-81 -22q-33 0 -57 11.5t-39.5 31t-22.5 46t-7 56.5q0 33 9 72t29.5 72.5t53.5 56t81 22.5zM985 313q-21 0 -43 -8q-14 -15 -23.5 -37t-15 -46t-8 -48t-2.5 -42q0 -103 67 -103
q21 0 42 8q15 14 24.5 36.5t15 47t8 48t2.5 41.5q0 55 -18 79t-49 24zM671 596q-132 -156 -243 -312.5t-202 -305.5l-44 22l-4 13q39 56 91.5 130t108 148t107.5 140t88 107l-8 7q-39 -38 -76 -49.5t-72 -11.5q-42 0 -78 12q5 -28 5 -51q0 -32 -8 -68t-26.5 -67t-50 -51.5
t-78.5 -20.5q-35 0 -59 11.5t-39 31.5t-22 47t-7 57q0 46 12 85t32.5 68t47 47t55.5 23l11 -35q-39 -17 -63 -63t-24 -121q0 -57 16 -83t51 -26q21 0 42 8q15 14 24.5 36.5t15 47t8 47.5t2.5 37q0 21 -4 42.5t-10 40.5q-9 8 -16.5 18.5t-15.5 22.5q16 22 33 32h18
q10 -14 18 -28t14 -29q26 -14 53.5 -18.5t47.5 -4.5q40 0 90 19.5t112 78.5l44 -22zM638 355q34 0 58 -11.5t39.5 -31.5t22.5 -46.5t7 -56.5q0 -33 -9 -72t-30 -72.5t-54 -55.5t-81 -22q-33 0 -57 11.5t-39.5 31t-22.5 46t-7 56.5q0 33 9 72t29.5 72.5t53.5 56t81 22.5z
M645 37q15 14 24.5 36.5t15 47t8 48t2.5 41.5q0 55 -18 79t-49 24q-21 0 -43 -8q-14 -15 -23.5 -37t-15 -46t-8 -48t-2.5 -42q0 -103 67 -103q21 0 42 8z" />
    <glyph glyph-name="minute" unicode="&#x2032;" horiz-adv-x="209" 
d="M125 486h-51l46 229q19 4 39.5 7t40.5 3l13 -20z" />
    <glyph glyph-name="second" unicode="&#x2033;" horiz-adv-x="324" 
d="M125 486h-51l46 229q19 4 39.5 7t40.5 3l13 -20zM282 486h-51l46 229q19 4 39.5 7t40.5 3l13 -20z" />
    </font>
</defs>
</svg>
