<?xml version="1.0" standalone="no"?>
<!DOCTYPE svg PUBLIC "-//W3C//DTD SVG 1.1//EN" "http://www.w3.org/Graphics/SVG/1.1/DTD/svg11.dtd" >
<svg xmlns="http://www.w3.org/2000/svg" xmlns:xlink="http://www.w3.org/1999/xlink" version="1.1">
<metadata>
Created by FontForge 20170731 at Wed Jan 14 18:45:21 2015
 By ,,,
2014 published by FontShop International GmbH
</metadata>
<defs>
<font id="WebFontFont" horiz-adv-x="615" >
  <font-face 
    font-family="WebFontFont"
    font-weight="600"
    font-style="italic"
    font-stretch="normal"
    units-per-em="1000"
    panose-1="2 1 7 4 5 1 1 1 1 2"
    ascent="787"
    descent="-213"
    x-height="517"
    cap-height="665"
    bbox="-511 -247 1261 967"
    underline-thickness="70"
    underline-position="-170"
    slope="-6"
    unicode-range="U+0020-FEFF"
  />
<missing-glyph horiz-adv-x="693" 
d="M565 0h-480l62 665h480zM240 599l268 -472l43 472h-311zM469 66l-265 469l-43 -469h308z" />
    <glyph glyph-name="T_h.liga" unicode="Th" horiz-adv-x="1065" 
d="M1043 46q-31 -25 -67.5 -40.5t-71.5 -15.5q-32 0 -52 15t-20 51q0 15 3.5 40.5t9 57t12 65.5t12 65.5t9 59t3.5 44.5q0 26 -10 38.5t-36 12.5h-11q-6 0 -14 -1q-38 -51 -79.5 -157t-87.5 -281q-20 -5 -44.5 -7.5t-44.5 -2.5l-24 22l68 613q-9 -10 -22.5 -16.5t-28 -10.5
t-29 -5.5t-26.5 -1.5q-21 0 -47.5 3t-54.5 7l-50 -543l71 -7v-23l-3 -28h-284v49q18 8 43.5 13.5t45.5 7.5l51 537h-98l-38 -117l-69 5q-1 11 -1.5 21t-0.5 23q0 31 5.5 66.5t18.5 73.5l26 3l225 -17h132q42 0 78.5 5.5t62.5 15.5l6 52q25 6 48.5 10t46.5 5l25 -22l-32 -250
q-8 -69 -21 -136.5t-22 -114.5l12 -2q27 84 49.5 140.5t46 90t51.5 47.5t66 14q118 0 118 -118q0 -24 -4.5 -62t-11.5 -83t-16 -94.5t-17 -96.5q20 0 42 7.5t42 18.5z" />
    <glyph glyph-name="T_k.liga" unicode="Tk" horiz-adv-x="1058" 
d="M1027 45q-27 -24 -61.5 -39.5t-70.5 -15.5q-24 0 -39.5 7t-26.5 20t-18.5 31t-14.5 41q-14 41 -20 74.5t-8 56.5l50 15q32 32 51 74.5t19 80.5q0 26 -11.5 37.5t-39.5 11.5h-12q-7 0 -15 -2q-38 -51 -79 -156.5t-88 -280.5q-19 -5 -42.5 -7.5t-46.5 -2.5l-24 22l68 613
q-9 -10 -22.5 -16.5t-28 -10.5t-29 -5.5t-26.5 -1.5q-21 0 -47.5 3t-54.5 7l-50 -543l71 -7v-23l-3 -28h-284v49q18 8 43.5 13.5t45.5 7.5l51 537h-98l-38 -117l-69 5q-1 11 -1.5 21t-0.5 23q0 31 5.5 66.5t18.5 73.5l26 3l225 -17h132q42 0 78.5 5.5t62.5 15.5l6 52
q25 6 48.5 10t46.5 5l25 -22l-32 -250q-8 -69 -21 -136.5t-22 -114.5l12 -2q28 88 52 145t48 89.5t52 45t66 12.5q60 0 96 -27.5t36 -89.5q0 -33 -11 -61.5t-30 -52t-45 -41.5t-55 -29q14 -38 28.5 -77.5t32.5 -75.5q20 2 39.5 8.5t39.5 17.5z" />
    <glyph glyph-name="T_l.liga" unicode="Tl" horiz-adv-x="773" 
d="M756 45q-31 -24 -68.5 -39.5t-72.5 -15.5q-32 0 -54.5 16.5t-22.5 59.5q0 21 5.5 72.5t14 126t19.5 167t22 194.5q-10 -10 -23.5 -17t-28 -11t-29 -5.5t-26.5 -1.5q-21 0 -47.5 3t-54.5 7l-50 -543l71 -7v-23l-3 -28h-284v49q18 8 43.5 13.5t45.5 7.5l51 537h-98
l-38 -117l-69 5q-1 11 -1.5 21t-0.5 23q0 31 5.5 66.5t18.5 73.5l26 3l225 -17h132q42 0 79 5.5t63 15.5l5 52q25 6 48 10t48 5l24 -22q-7 -58 -15 -122t-16 -129t-16 -127.5t-14.5 -117.5t-10.5 -98.5t-5 -70.5q19 0 45.5 7.5t46.5 17.5z" />
    <glyph glyph-name="Tbar_h.liga" unicode="&#x166;h" horiz-adv-x="1065" 
d="M1043 46q-31 -25 -67.5 -40.5t-71.5 -15.5q-32 0 -52 15t-20 51q0 15 3.5 40.5t9 57t12 65.5t12 65.5t9 59t3.5 44.5q0 26 -10 38.5t-36 12.5h-11q-6 0 -14 -1q-38 -51 -79.5 -157t-87.5 -281q-20 -5 -44.5 -7.5t-44.5 -2.5l-24 22l68 613q-9 -10 -22.5 -16.5t-28 -10.5
t-29 -5.5t-26.5 -1.5q-21 0 -47.5 3t-54.5 7l-26 -276h120v-23l-6 -41h-120l-18 -203l71 -7v-23l-3 -28h-284v49q18 8 43.5 13.5t45.5 7.5l18 191h-115v22l6 42h115l27 282h-98l-38 -117l-69 5q-1 11 -1.5 21t-0.5 23q0 31 5.5 66.5t18.5 73.5l26 3l225 -17h132
q42 0 78.5 5.5t62.5 15.5l6 52q25 6 48.5 10t46.5 5l25 -22l-32 -250q-8 -69 -21 -136.5t-22 -114.5l12 -2q27 84 49.5 140.5t46 90t51.5 47.5t66 14q118 0 118 -118q0 -24 -4.5 -62t-11.5 -83t-16 -94.5t-17 -96.5q20 0 42 7.5t42 18.5z" />
    <glyph glyph-name="Tcaron_h.liga" unicode="&#x164;h" horiz-adv-x="1065" 
d="M1043 46q-31 -25 -67.5 -40.5t-71.5 -15.5q-32 0 -52 15t-20 51q0 15 3.5 40.5t9 57t12 65.5t12 65.5t9 59t3.5 44.5q0 26 -10 38.5t-36 12.5h-11q-6 0 -14 -1q-38 -51 -79.5 -157t-87.5 -281q-20 -5 -44.5 -7.5t-44.5 -2.5l-24 22l68 613q-9 -10 -22.5 -16.5t-28 -10.5
t-29 -5.5t-26.5 -1.5q-21 0 -47.5 3t-54.5 7l-50 -543l71 -7v-23l-3 -28h-284v49q18 8 43.5 13.5t45.5 7.5l51 537h-98l-38 -117l-69 5q-1 11 -1.5 21t-0.5 23q0 31 5.5 66.5t18.5 73.5l26 3l225 -17h132q42 0 78.5 5.5t62.5 15.5l6 52q25 6 48.5 10t46.5 5l25 -22l-32 -250
q-8 -69 -21 -136.5t-22 -114.5l12 -2q27 84 49.5 140.5t46 90t51.5 47.5t66 14q118 0 118 -118q0 -24 -4.5 -62t-11.5 -83t-16 -94.5t-17 -96.5q20 0 42 7.5t42 18.5zM368 809l91 82h58l-153 -172h-72l-94 142l81 41l80 -93h9z" />
    <glyph glyph-name="f_b.liga" unicode="fb" horiz-adv-x="862" 
d="M702 520q30 0 54.5 -8t42 -28t27 -54.5t9.5 -86.5q0 -59 -14.5 -122t-47.5 -115t-87 -85.5t-134 -33.5q-23 0 -49.5 3t-53 7.5t-51.5 10.5t-45 12l71 652q-23 8 -47 11t-50 4q-33 0 -61 -7q-8 -15 -13.5 -32t-10.5 -38.5t-9 -49.5t-8 -64h95v-28l-8 -34h-93l-39 -408
q-12 -128 -56.5 -183.5t-118.5 -55.5q-38 0 -77.5 13.5t-68.5 39.5l14 48q32 -10 71.5 -19.5t83.5 -9.5q12 24 19 58.5t11 76.5l42 432l-68 10v47q14 5 34.5 9.5t40.5 7.5q15 129 70.5 191t149.5 62q34 0 61 -7t50 -19q23 11 45 17.5t44 8.5l25 -22l-33 -254
q-9 -69 -22.5 -137t-22.5 -116l11 -3q28 88 51 146t47 92t52.5 47.5t66.5 13.5zM619 55q22 28 38.5 65t27 77t15.5 80.5t5 75.5q0 50 -11 68t-38 18q-5 0 -11.5 -0.5t-14.5 -1.5q-17 -23 -33 -55t-34 -77.5t-38 -105.5t-44 -139q19 -6 40 -10t41 -4q18 0 32 2.5t25 6.5z" />
    <glyph glyph-name="f_f.liga" unicode="ff" horiz-adv-x="594" 
d="M565 669q-15 -4 -29 -12q-3 -14 -5.5 -29.5t-4.5 -34t-4 -42.5t-3 -55h104v-28l-8 -34h-100l-39 -408q-6 -62 -22.5 -105t-43 -69t-63 -37.5t-82.5 -11.5q-48 0 -84 10t-63 29q-46 -55 -118 -55q-36 0 -73.5 13t-67.5 40l14 48q32 -10 71.5 -19.5t83.5 -9.5
q12 24 19 58.5t11 76.5l42 432l-68 10v47q14 5 35 9.5t40 8.5q8 68 25.5 113.5t44.5 72.5t62.5 38.5t79.5 11.5q51 0 90 -12.5t67 -35.5q35 38 76.5 51t81.5 13q76 0 114 -40l-23 -83zM321 671q-17 0 -32.5 -2t-33.5 -7q-11 -29 -18 -73.5t-12 -92.5h155l22 3
q5 48 16.5 84.5t27.5 64.5q-27 10 -58.5 16.5t-66.5 6.5zM260 -131q34 0 68 10q11 26 17 60t10 66l40 423l-54 6h-122l-39 -408q-8 -83 -33 -138q25 -8 53.5 -13.5t59.5 -5.5z" />
    <glyph glyph-name="f_f_b.liga" unicode="ffb" horiz-adv-x="1160" 
d="M1001 520q30 0 54 -8t41.5 -28t27 -54.5t9.5 -86.5q0 -59 -14.5 -122t-47.5 -115t-87 -85.5t-134 -33.5q-23 0 -50 3t-54 7.5t-52 10.5t-45 12l71 652q-23 8 -47.5 11t-50.5 4q-33 0 -61 -7q-7 -15 -13 -32t-10.5 -38.5t-9 -49.5t-8.5 -64h95v-28l-8 -34h-93l-38 -408
q-6 -62 -22.5 -105t-43 -69t-63 -37.5t-82.5 -11.5q-48 0 -84 10t-63 29q-46 -55 -118 -55q-36 0 -73.5 13t-67.5 40l14 48q32 -10 71.5 -19.5t83.5 -9.5q12 24 19 58.5t11 76.5l42 432l-68 10v47q14 5 35 9.5t40 8.5q8 68 25.5 113.5t44.5 72.5t62.5 38.5t79.5 11.5
q50 0 88 -12t66 -34q55 62 150 62q33 0 60 -7t50 -19q48 22 89 26l25 -22l-32 -254q-4 -34 -10 -69t-12 -68t-11.5 -63t-9.5 -53l11 -3q28 88 51 146t47 92t52.5 47.5t67.5 13.5zM321 671q-17 0 -32.5 -2t-33.5 -7q-11 -29 -18 -73.5t-12 -92.5h155l22 3q11 92 42 149
q-27 11 -58 17t-65 6zM917 55q22 28 38.5 65t27 77t15.5 80.5t5 75.5q0 50 -11 68t-38 18q-5 0 -11 -0.5t-13 -1.5q-17 -22 -33.5 -54t-34.5 -77t-38.5 -106t-44.5 -140q20 -6 40.5 -10t40.5 -4q18 0 32 2.5t25 6.5zM260 -131q18 0 34 2.5t35 7.5q11 26 17 60t9 66l40 423
l-54 6h-122l-39 -408q-8 -83 -33 -138q25 -8 53.5 -13.5t59.5 -5.5z" />
    <glyph glyph-name="f_f_h.liga" unicode="ffh" horiz-adv-x="1183" 
d="M1161 46q-31 -25 -67.5 -40.5t-71.5 -15.5q-32 0 -52 15t-20 51q0 15 3.5 40.5t9 57t12 65.5t12 65.5t9 59t3.5 44.5q0 26 -10 38.5t-36 12.5h-11q-6 0 -14 -2q-38 -50 -79.5 -156t-88.5 -281q-19 -5 -43.5 -7.5t-44.5 -2.5l-24 22l72 660q-23 8 -47.5 11t-50.5 4
q-33 0 -61 -7q-8 -15 -13.5 -32t-10.5 -38.5t-9 -49.5t-8 -64h95v-28l-8 -34h-93l-38 -408q-6 -62 -22.5 -105t-43 -69t-63 -37.5t-82.5 -11.5q-48 0 -84 10t-63 29q-46 -55 -118 -55q-36 0 -73.5 13t-67.5 40l14 48q32 -10 71.5 -19.5t83.5 -9.5q12 24 19 58.5t11 76.5
l42 432l-68 10v47q14 5 35 9.5t40 8.5q8 68 25.5 113.5t44.5 72.5t62.5 38.5t79.5 11.5q50 0 88 -12t66 -34q55 62 150 62q33 0 60 -7t50 -19q24 11 45.5 17.5t44.5 8.5l24 -22l-32 -254q-8 -68 -20.5 -134t-20.5 -113l11 -2q27 84 50 140.5t46.5 90t51.5 47.5t66 14
q118 0 118 -118q0 -24 -4.5 -62t-11.5 -83t-16 -94.5t-17 -96.5q20 0 42 7.5t42 18.5zM260 -131q18 0 34 2.5t35 7.5q11 26 17 60t9 66l40 423l-54 6h-122l-39 -408q-8 -83 -33 -138q25 -8 53.5 -13.5t59.5 -5.5zM321 671q-17 0 -32.5 -2t-33.5 -7q-11 -29 -18 -73.5
t-12 -92.5h155l22 3q11 92 42 149q-27 11 -58 17t-65 6z" />
    <glyph glyph-name="f_f_i.liga" unicode="ffi" horiz-adv-x="877" 
d="M861 46q-32 -25 -66 -40.5t-69 -15.5q-34 0 -54 15t-20 53q0 19 5 66t12 103.5t14.5 113t12.5 93.5h-181l-39 -408q-6 -62 -22.5 -105t-43 -69t-63 -37.5t-82.5 -11.5q-48 0 -84 10t-63 29q-46 -55 -118 -55q-36 0 -73.5 13t-67.5 40l14 48q32 -10 71.5 -19.5t83.5 -9.5
q12 24 19 58.5t11 76.5l42 432l-68 10v47q14 5 35 9.5t40 8.5q8 68 25.5 113.5t44.5 72.5t62.5 38.5t79.5 11.5q52 0 91 -13t67 -36q32 34 76.5 49.5t100.5 15.5q73 0 116.5 -24t60.5 -69l-57 -69l-136 102q-26 1 -44.5 -2.5t-34.5 -9.5q-5 -14 -10.5 -31t-10.5 -39
t-9.5 -50t-7.5 -65h151q31 8 64 13t62 7l24 -22q-4 -32 -10.5 -86.5t-14 -116t-15 -122t-12.5 -103.5q21 0 41 7.5t40 18.5zM321 671q-17 0 -32.5 -2t-33.5 -7q-11 -29 -18 -73.5t-12 -92.5h152l25 5q12 91 45 146q-27 11 -59 17.5t-67 6.5zM260 -131q34 0 68 10
q11 26 17 60t10 66l40 420l-52 9h-124l-39 -408q-8 -83 -33 -138q25 -8 53.5 -13.5t59.5 -5.5z" />
    <glyph glyph-name="f_f_j.liga" unicode="ffj" horiz-adv-x="866" 
d="M672 496q32 8 64.5 13t61.5 7l24 -21l-58 -478q-14 -122 -58 -175.5t-116 -53.5q-28 0 -53 9t-45 28l14 49q22 -5 49 -9.5t56 -4.5q13 26 20 60t12 73l53 441h-181l-39 -408q-6 -62 -22.5 -105t-43 -69t-63 -37.5t-82.5 -11.5q-48 0 -84 10t-63 29q-46 -55 -118 -55
q-36 0 -73.5 13t-67.5 40l14 48q32 -10 71.5 -19.5t83.5 -9.5q12 24 19 58.5t11 76.5l42 432l-68 10v47q14 5 35 9.5t40 8.5q8 68 25.5 113.5t44.5 72.5t62.5 38.5t79.5 11.5q52 0 91 -13t67 -36q32 34 76.5 49.5t100.5 15.5q73 0 116.5 -24t60.5 -69l-57 -69l-136 102
q-26 1 -44.5 -2.5t-34.5 -9.5q-5 -14 -10.5 -31t-10.5 -39t-9.5 -50t-7.5 -65h151zM321 671q-17 0 -32.5 -2t-33.5 -7q-11 -29 -18 -73.5t-12 -92.5h152l25 5q12 91 45 146q-27 11 -59 17.5t-67 6.5zM260 -131q34 0 68 10q11 26 17 60t10 66l40 420l-52 9h-124l-39 -408
q-8 -83 -33 -138q25 -8 53.5 -13.5t59.5 -5.5z" />
    <glyph glyph-name="f_f_k.liga" unicode="ffk" horiz-adv-x="1176" 
d="M1145 45q-27 -25 -61.5 -40t-70.5 -15q-24 0 -39.5 7t-26.5 20t-18.5 31t-14.5 40q-14 40 -20 74t-8 57l50 15q32 32 51 74.5t19 80.5q0 26 -11.5 38t-39.5 12q-5 0 -11.5 -0.5t-14.5 -1.5q-38 -51 -79.5 -157t-89.5 -281q-18 -5 -41.5 -7t-46.5 -2l-24 22l72 660
q-23 8 -47.5 11t-50.5 4q-33 0 -61 -7q-8 -15 -13.5 -32t-10.5 -38.5t-9 -49.5t-8 -64h95v-28l-8 -34h-93l-38 -408q-6 -62 -22.5 -105t-43 -69t-63 -37.5t-82.5 -11.5q-48 0 -84 10t-63 29q-46 -55 -118 -55q-36 0 -73.5 13t-67.5 40l14 48q32 -10 71.5 -19.5t83.5 -9.5
q12 24 19 58.5t11 76.5l42 432l-68 10v47q14 5 35 9.5t40 8.5q8 68 25.5 113.5t44.5 72.5t62.5 38.5t79.5 11.5q50 0 88 -12t66 -34q55 62 150 62q33 0 60 -7t50 -19q24 11 45.5 17.5t44.5 8.5l24 -22l-32 -254q-8 -68 -20.5 -134.5t-20.5 -112.5l11 -3q28 88 52 145
t48.5 90t53 45.5t66.5 12.5q61 0 96 -28t35 -88q0 -67 -39.5 -114.5t-100.5 -72.5q13 -38 27.5 -76.5t31.5 -74.5q22 2 41 8.5t39 16.5zM321 671q-17 0 -32.5 -2t-33.5 -7q-11 -29 -18 -73.5t-12 -92.5h155l22 3q11 92 42 149q-27 11 -58 17t-65 6zM260 -131q18 0 34 2.5
t35 7.5q11 26 17 60t9 66l40 423l-54 6h-122l-39 -408q-8 -83 -33 -138q25 -8 53.5 -13.5t59.5 -5.5z" />
    <glyph glyph-name="f_f_l.liga" unicode="ffl" horiz-adv-x="888" 
d="M871 45q-30 -24 -67.5 -39.5t-72.5 -15.5q-33 0 -55.5 16.5t-22.5 59.5q0 24 6.5 85t16.5 144.5t22.5 181t24.5 194.5q-46 14 -101 16q-33 0 -61 -7q-7 -15 -13 -32t-10.5 -38.5t-9 -49.5t-8.5 -64h95v-28l-8 -34h-93l-38 -408q-6 -62 -22.5 -105t-43 -69t-63 -37.5
t-82.5 -11.5q-48 0 -84 10t-63 29q-46 -55 -118 -55q-36 0 -73.5 13t-67.5 40l14 48q32 -10 71.5 -19.5t83.5 -9.5q12 24 19 58.5t11 76.5l42 432l-68 10v47q14 5 35 9.5t40 8.5q8 68 25.5 113.5t44.5 72.5t62.5 38.5t79.5 11.5q50 0 88 -12t66 -34q55 62 150 62
q34 0 61.5 -7.5t50.5 -19.5q16 9 39.5 17t50.5 10l24 -22q-7 -58 -15 -122t-16.5 -129t-16.5 -127.5t-15 -117.5t-11.5 -98.5t-5.5 -70.5q20 0 46 7.5t46 17.5zM321 671q-17 0 -32.5 -2t-33.5 -7q-11 -29 -18 -73.5t-12 -92.5h155l22 3q11 92 42 149q-27 11 -58 17t-65 6z
M260 -131q18 0 34 2.5t35 7.5q11 26 17 60t9 66l40 423l-54 6h-122l-39 -408q-8 -83 -33 -138q25 -8 53.5 -13.5t59.5 -5.5z" />
    <glyph glyph-name="f_h.liga" unicode="fh" horiz-adv-x="887" 
d="M865 46q-31 -25 -67.5 -40.5t-71.5 -15.5q-32 0 -52 15t-20 51q0 15 3.5 40.5t9 57t12 65.5t12 65.5t9 59t3.5 44.5q0 26 -10 38.5t-36 12.5h-11q-6 0 -14 -2q-38 -50 -79.5 -156t-88.5 -281q-19 -5 -43.5 -7.5t-44.5 -2.5l-24 22l72 660q-23 8 -47 11t-50 4
q-33 0 -61 -7q-8 -15 -13.5 -32t-10.5 -38.5t-9 -49.5t-8 -64h95v-28l-8 -34h-93l-39 -408q-12 -128 -56.5 -183.5t-118.5 -55.5q-38 0 -77.5 13.5t-68.5 39.5l14 48q32 -10 71.5 -19.5t83.5 -9.5q12 24 19 58.5t11 76.5l42 432l-68 10v47q14 5 34.5 9.5t40.5 7.5
q15 129 70.5 191t149.5 62q34 0 61 -7t50 -19q23 11 45 17.5t44 8.5l24 -22l-32 -254q-8 -68 -20.5 -134t-20.5 -113l11 -2q27 84 50 140.5t46.5 90t51.5 47.5t66 14q118 0 118 -118q0 -24 -4.5 -62t-11.5 -83t-16 -94.5t-17 -96.5q20 0 42 7.5t42 18.5z" />
    <glyph glyph-name="f_hbar.liga" unicode="f&#x127;" horiz-adv-x="887" 
d="M865 46q-31 -25 -67.5 -40.5t-71.5 -15.5q-32 0 -52 15t-20 51q0 15 3.5 40.5t9 57t12 65.5t12 65.5t9 59t3.5 44.5q0 26 -10 38.5t-36 12.5h-11q-6 0 -14 -2q-38 -50 -79.5 -156t-88.5 -281q-19 -5 -43.5 -7.5t-44.5 -2.5l-24 22l72 660q-23 8 -47 11t-50 4
q-33 0 -61 -7q-8 -15 -13.5 -32t-10.5 -38.5t-9 -49.5t-8 -64h95v-28l-8 -34h-93l-39 -408q-12 -128 -56.5 -183.5t-118.5 -55.5q-38 0 -77.5 13.5t-68.5 39.5l14 48q32 -10 71.5 -19.5t83.5 -9.5q12 24 19 58.5t11 76.5l42 432l-68 10v47q14 5 34.5 9.5t40.5 7.5
q15 129 70.5 191t149.5 62q34 0 61 -7t50 -19q23 11 45 17.5t44 8.5l24 -22l-8 -63h134v-26l-7 -32h-134l-17 -133q-8 -68 -20.5 -134t-20.5 -113l11 -2q27 84 50 140.5t46.5 90t51.5 47.5t66 14q118 0 118 -118q0 -24 -4.5 -62t-11.5 -83t-16 -94.5t-17 -96.5q20 0 42 7.5
t42 18.5z" />
    <glyph glyph-name="f_i.liga" unicode="fi" horiz-adv-x="581" 
d="M565 46q-31 -25 -65 -40.5t-69 -15.5q-34 0 -54 15t-20 53q0 19 5 66t12 103.5t14.5 113t12.5 93.5h-181l-40 -408q-13 -128 -57 -183.5t-118 -55.5q-38 0 -77.5 13.5t-68.5 39.5l14 48q32 -10 71.5 -19.5t83.5 -9.5q12 24 19 58.5t11 76.5l42 432l-68 10v47q14 5 35 9.5
t40 7.5q17 134 81 193.5t171 59.5q73 0 116 -24t60 -69l-57 -69l-135 102q-26 1 -44.5 -2.5t-33.5 -9.5q-6 -14 -11.5 -31t-10.5 -39t-9.5 -50t-7.5 -65h151q31 8 64 13t62 7l24 -22q-4 -32 -10.5 -86.5t-14 -116t-15 -122t-12.5 -103.5q20 0 40.5 7.5t40.5 18.5z" />
    <glyph glyph-name="f_icircumflex.liga" unicode="f&#xee;" horiz-adv-x="581" 
d="M475 66q20 0 40 7.5t40 18.5l10 -46q-31 -25 -65 -40.5t-69 -15.5q-34 0 -54 15t-20 53q0 19 5 66t12 103.5t14.5 113t12.5 93.5h-181l-40 -408q-12 -128 -56.5 -183.5t-118.5 -55.5q-38 0 -77.5 13.5t-68.5 39.5l14 48q32 -10 71.5 -19.5t83.5 -9.5q12 24 19 58.5
t11 76.5l42 432l-68 10v47q14 5 34.5 9.5t40.5 7.5q8 70 25 117.5t44 76.5t63.5 41.5t83.5 12.5q35 0 65 -6t54 -17l29 44h72l64 -160l-80 -34l-51 95h-10l-64 -91h-55l63 96q-35 6 -73 6q-41 0 -81 -9q-12 -30 -18.5 -76.5t-11.5 -99.5h151q31 8 64 13t62 7l23 -22z" />
    <glyph glyph-name="f_imacron.liga" unicode="f&#x12b;" horiz-adv-x="582" 
d="M364 620q-2 6 -2 22q0 6 1 15t3 20q-8 1 -17 1.5t-19 0.5q-36 0 -74 -7q-12 -31 -18.5 -77.5t-11.5 -98.5h151q32 8 64.5 13t61.5 7l24 -22q-4 -32 -10.5 -86.5t-14 -116t-15 -122t-12.5 -103.5q21 0 41 7.5t40 18.5l10 -46q-32 -25 -66 -40.5t-70 -15.5q-33 0 -53 14.5
t-20 52.5q0 19 5 66.5t12 104t14.5 113t12.5 93.5h-181l-40 -408q-12 -128 -56.5 -183.5t-118.5 -55.5q-38 0 -77.5 13.5t-68.5 39.5l14 48q32 -10 71.5 -19.5t83.5 -9.5q12 24 19 58.5t11 76.5l42 432l-68 10v47q14 5 34.5 9.5t40.5 7.5q8 71 26.5 118t46 75.5t63.5 40.5
t80 12q48 0 86 -12.5t66 -35.5h119q2 -6 2 -22q0 -10 -2 -25.5t-9 -30.5h-221z" />
    <glyph glyph-name="f_iogonek.liga" unicode="f&#x12f;" horiz-adv-x="582" 
d="M482 -151q11 0 23.5 2.5t23.5 6.5l3 -43q-20 -14 -45.5 -21t-54.5 -7q-55 0 -78.5 22.5t-23.5 54.5q1 41 31 70.5t72 47.5l-1 11q-10 -1 -18 0q-26 2 -41.5 17t-15.5 47q0 19 5 66t12 104t14.5 113.5t12.5 93.5h-181l-40 -408q-13 -128 -57 -183.5t-118 -55.5
q-38 0 -77.5 13.5t-68.5 39.5l14 48q32 -10 71.5 -19.5t83.5 -9.5q12 24 19 58.5t11 76.5l42 432l-68 10v47q14 5 35 9.5t40 7.5q17 134 81 193.5t171 59.5q73 0 116.5 -24t60.5 -69l-57 -69l-136 102q-26 1 -44.5 -2.5t-33.5 -9.5q-6 -14 -11.5 -31t-10.5 -39t-9.5 -50
t-7.5 -65h151q32 8 64.5 13t61.5 7l24 -22q-4 -32 -10.5 -86.5t-14 -116t-15 -122t-12.5 -103.5q22 0 41.5 7.5t39.5 18.5l10 -46q-26 -17 -49.5 -34t-42.5 -36t-30 -39t-11 -41q0 -47 49 -47z" />
    <glyph glyph-name="f_j.liga" unicode="fj" horiz-adv-x="570" 
d="M377 496q31 8 64 13t62 7l23 -22l-58 -477q-14 -122 -58 -175.5t-116 -53.5q-56 0 -102 37l19 49q22 -5 49 -9.5t56 -4.5q13 26 20 60t12 73l53 441h-181l-40 -407q-13 -129 -57 -184t-118 -55q-38 0 -77.5 13t-68.5 39l14 49q32 -10 71.5 -20t83.5 -10q12 25 19 59.5
t11 76.5l41 431l-67 10v47q14 5 34.5 9.5t40.5 7.5q16 134 80.5 194t171.5 60q73 0 116 -24t60 -69l-57 -69l-136 101q-26 1 -44 -2t-33 -10q-6 -14 -11.5 -30.5t-10.5 -38.5t-9.5 -50t-7.5 -65z" />
    <glyph glyph-name="f_k.liga" unicode="fk" horiz-adv-x="880" 
d="M849 45q-27 -25 -61.5 -40t-70.5 -15q-24 0 -39.5 7t-26.5 20t-18.5 31t-14.5 40q-14 40 -20 74t-8 57l50 15q32 32 51 74.5t19 80.5q0 26 -11.5 38t-39.5 12q-5 0 -11.5 -0.5t-14.5 -1.5q-38 -51 -79.5 -157t-89.5 -281q-18 -5 -41.5 -7t-46.5 -2l-24 22l72 660
q-23 8 -47 11t-50 4q-33 0 -61 -7q-8 -15 -13.5 -32t-10.5 -38.5t-9 -49.5t-8 -64h95v-28l-8 -34h-93l-39 -408q-12 -128 -56.5 -183.5t-118.5 -55.5q-38 0 -77.5 13.5t-68.5 39.5l14 48q32 -10 71.5 -19.5t83.5 -9.5q12 24 19 58.5t11 76.5l42 432l-68 10v47q14 5 34.5 9.5
t40.5 7.5q15 129 70.5 191t149.5 62q34 0 61 -7t50 -19q23 11 45 17.5t44 8.5l24 -22l-32 -254q-8 -68 -20.5 -134t-20.5 -113l11 -3q29 88 52.5 145t48.5 90t53 45.5t66 12.5q61 0 96 -28t35 -88q0 -67 -39.5 -114.5t-100.5 -72.5q13 -38 27.5 -76.5t31.5 -74.5
q22 2 41 8.5t39 16.5z" />
    <glyph glyph-name="f_l.liga" unicode="fl" horiz-adv-x="593" 
d="M576 45q-30 -24 -67.5 -39.5t-72.5 -15.5q-33 0 -55.5 16.5t-22.5 60.5q0 23 6 84t16 144.5t22.5 181t24.5 194.5q-45 14 -100 16q-33 0 -61 -7q-8 -15 -13.5 -32t-10.5 -38.5t-9 -49.5t-8 -64h95v-28l-8 -34h-93l-39 -408q-12 -128 -56.5 -183.5t-118.5 -55.5
q-38 0 -77.5 13.5t-68.5 39.5l14 48q32 -10 71.5 -19.5t83.5 -9.5q12 24 19 58.5t11 76.5l42 432l-68 10v47q14 5 34.5 9.5t40.5 7.5q15 129 70.5 191t149.5 62q35 0 62.5 -7.5t50.5 -19.5q16 9 39.5 17t50.5 10l24 -22q-7 -58 -15.5 -122t-17 -129t-16.5 -127.5
t-14.5 -117.5t-11 -98.5t-5.5 -70.5q20 0 46 7.5t46 17.5z" />
    <glyph glyph-name="f_lacute.liga" unicode="f&#x13a;" horiz-adv-x="592" 
d="M483 749l66 148h61q32 -19 44 -62l-110 -86h-61zM475 66q20 0 46 7.5t46 17.5l10 -46q-30 -24 -67.5 -39.5t-72.5 -15.5q-33 0 -55.5 16.5t-22.5 60.5q0 23 6 80t15.5 134t21.5 168t23 183q-49 17 -106 17q-32 1 -61 -6q-14 -29 -20.5 -63t-11.5 -84h95v-28l-8 -34h-93
l-40 -408q-12 -128 -56.5 -183.5t-118.5 -55.5q-38 0 -77.5 13.5t-68.5 39.5l14 48q32 -10 71.5 -19.5t83.5 -9.5q12 24 19 58.5t11 76.5l42 432l-67 10v47q14 5 34.5 9.5t39.5 7.5q14 103 66.5 159t145.5 56q36 0 65 -8t53 -22q16 9 39 15t50 8l24 -22
q-10 -86 -22.5 -178.5t-23.5 -177.5t-19 -154.5t-10 -109.5z" />
    <glyph glyph-name="f_lcaron.liga" unicode="f&#x13e;" horiz-adv-x="688" 
d="M577 45q-30 -24 -67.5 -39.5t-72.5 -15.5q-33 0 -55.5 16.5t-22.5 60.5q0 23 6 84t16 144.5t22.5 181t24.5 194.5q-45 14 -100 16q-33 0 -61 -7q-8 -15 -13.5 -32t-10.5 -38.5t-9 -49.5t-8 -64h95v-28l-8 -34h-93l-39 -408q-12 -128 -56.5 -183.5t-118.5 -55.5
q-38 0 -77.5 13.5t-68.5 39.5l14 48q32 -10 71.5 -19.5t83.5 -9.5q12 24 19 58.5t11 76.5l42 432l-68 10v47q14 5 34.5 9.5t40.5 7.5q15 129 70.5 191t149.5 62q35 0 62.5 -7.5t50.5 -19.5q16 9 39.5 17t50.5 10l24 -22q-7 -58 -15.5 -122t-17 -129t-16.5 -127.5
t-14.5 -117.5t-11 -98.5t-5.5 -70.5q20 0 46 7.5t46 17.5zM673 754q22 0 40 -6.5t28 -13.5q-6 -61 -26.5 -110t-65.5 -102h-45l31 127v99q8 3 19 4.5t19 1.5z" />
    <glyph glyph-name="uni021A_h.liga" unicode="&#x21a;h" horiz-adv-x="1065" 
d="M1043 46q-31 -25 -67.5 -40.5t-71.5 -15.5q-32 0 -52 15t-20 51q0 15 3.5 40.5t9 57t12 65.5t12 65.5t9 59t3.5 44.5q0 26 -10 38.5t-36 12.5h-11q-6 0 -14 -1q-38 -51 -79.5 -157t-87.5 -281q-20 -5 -44.5 -7.5t-44.5 -2.5l-24 22l68 613q-9 -10 -22.5 -16.5t-28 -10.5
t-29 -5.5t-26.5 -1.5q-21 0 -47.5 3t-54.5 7l-50 -543l71 -7v-23l-3 -28h-284v49q18 8 43.5 13.5t45.5 7.5l51 537h-98l-38 -117l-69 5q-1 11 -1.5 21t-0.5 23q0 31 5.5 66.5t18.5 73.5l26 3l225 -17h132q42 0 78.5 5.5t62.5 15.5l6 52q25 6 48.5 10t46.5 5l25 -22l-32 -250
q-8 -69 -21 -136.5t-22 -114.5l12 -2q27 84 49.5 140.5t46 90t51.5 47.5t66 14q118 0 118 -118q0 -24 -4.5 -62t-11.5 -83t-16 -94.5t-17 -96.5q20 0 42 7.5t42 18.5zM254 -50q16 0 30 -2.5t27 -9.5q11 -14 11 -47q0 -51 -28.5 -88t-91.5 -50l-11 31q26 13 42 27t16 39v11
l-42 4l7 81q10 2 21 3t19 1z" />
    <glyph glyph-name="uni030A_acutecomb.liga" unicode="&#x30a;&#x301;" horiz-adv-x="1" 
d="M0 923q28 -21 41 -55l-124 -92h-54l81 147h56zM-108 748q50 0 75.5 -22.5t25.5 -64.5q0 -50 -33 -80t-93 -30q-51 0 -76.5 22.5t-25.5 64.5q0 50 33.5 80t93.5 30zM-114 701q-16 0 -25 -6q-8 -11 -12.5 -26t-4.5 -31q0 -40 29 -40q14 0 25 7q8 10 12.5 25t4.5 32
q0 21 -7.5 30t-21.5 9z" />
    <glyph glyph-name=".notdef" horiz-adv-x="693" 
d="M565 0h-480l62 665h480zM240 599l268 -472l43 472h-311zM469 66l-265 469l-43 -469h308z" />
    <glyph glyph-name="glyph1" horiz-adv-x="0" 
 />
    <glyph glyph-name="glyph2" horiz-adv-x="250" 
 />
    <glyph glyph-name="space" unicode=" " horiz-adv-x="250" 
 />
    <glyph glyph-name="exclam" unicode="!" horiz-adv-x="277" 
d="M248 655q-5 -50 -13.5 -109t-19.5 -120t-24 -121.5t-26 -112.5h-69q3 50 5 110.5t4 123.5t3.5 123.5t3.5 110.5q31 9 56.5 13.5t57.5 4.5zM133 132q26 0 44 -7q10 -19 10 -44q0 -20 -6.5 -39t-20.5 -42h-95l-6 119q14 5 33.5 9t40.5 4z" />
    <glyph glyph-name="quotedbl" unicode="&#x22;" horiz-adv-x="440" 
d="M378 489h-77v235q55 16 114 16l17 -21zM191 489h-77v235q55 16 114 16l17 -21z" />
    <glyph glyph-name="numbersign" unicode="#" horiz-adv-x="527" 
d="M396 223h87v-89l-106 -16l-23 -131h-48l-16 16l21 119h-146l-24 -135h-49l-15 16l21 119h-73v87l91 17l25 145h-85v89l104 16l23 132h50l14 -16l-21 -120h147l24 136h48l16 -16l-21 -120h73v-87l-92 -17zM355 371h-147l-26 -148h147z" />
    <glyph glyph-name="dollar" unicode="$" horiz-adv-x="486" 
d="M287 352q36 -22 63.5 -41t46.5 -39.5t28.5 -44.5t9.5 -57q0 -30 -9 -58.5t-30.5 -51t-57.5 -38t-91 -18.5l-6 -129l-54 -8l-13 9l13 128q-48 3 -85.5 13t-62.5 22q-3 18 -4.5 34.5t-1.5 35.5q0 23 2 44t4 43l76 5l28 -128q12 -3 24.5 -4.5t25.5 -2.5l18 187
q-30 18 -55 36t-43 39t-28 46.5t-10 57.5q0 68 44.5 112t120.5 50l6 126l54 8l14 -9l-13 -127q24 -4 47 -14l1 9q17 5 33 7.5t34 2.5l26 -19q1 -5 1.5 -12t0.5 -16q0 -28 -5.5 -67t-14.5 -71h-70l-10 116q-25 4 -49 6l-18 -176zM185 457q0 -24 10 -39t36 -32l6 143
q-12 -2 -21 -6q-14 -11 -22.5 -26.5t-8.5 -39.5zM291 80q11 10 18 24.5t7 40.5q0 28 -12.5 44t-45.5 36l-8 -158q26 3 41 13z" />
    <glyph glyph-name="percent" unicode="%" horiz-adv-x="825" 
d="M674 583q-131 -153 -237.5 -307t-196.5 -297l-54 22l-8 23q27 37 59.5 82t68 92.5t71.5 96t70.5 92.5t65.5 81.5t55 64.5l-8 8q-38 -36 -72 -47.5t-71 -11.5q-17 0 -33.5 1.5t-32.5 6.5q3 -21 3 -43q0 -32 -8 -68t-27.5 -66.5t-52.5 -50.5t-82 -20q-71 0 -102.5 42
t-32.5 108q0 40 10.5 77t29.5 66t46 49t60 27l21 -33q-34 -21 -54 -74t-20 -124q0 -49 11.5 -70t40.5 -21q18 0 37 7q12 13 20.5 35t14 48t8 52t2.5 47q0 14 -2 28.5t-5 27.5q-20 17 -35 42q8 13 19.5 23t22.5 15h23q19 -25 31 -54q25 -13 50 -18t48 -5q41 0 87 18t107 71
l47 -22zM651 355q36 0 61.5 -11t42 -31t24.5 -47.5t8 -59.5q0 -33 -9 -71.5t-30 -71.5t-56 -54.5t-87 -21.5q-71 0 -103.5 41.5t-32.5 107.5q0 34 9 72.5t30.5 71t56.5 54t86 21.5zM650 41q12 13 21 36t14 48.5t7.5 51.5t2.5 46q0 46 -13.5 66t-38.5 20q-19 0 -38 -8
q-12 -14 -20.5 -36t-13.5 -47.5t-7.5 -51.5t-2.5 -46q0 -45 13 -65.5t39 -20.5q18 0 37 7z" />
    <glyph glyph-name="ampersand" unicode="&#x26;" horiz-adv-x="714" 
d="M593 312q-5 -60 -34.5 -107.5t-68.5 -84.5q45 -43 91 -80.5t91 -69.5l-28 -52q-60 5 -122.5 40t-121.5 89q-33 -25 -77.5 -42.5t-109.5 -17.5q-42 0 -77.5 9t-61.5 29t-41 51t-15 75q0 72 43 121.5t133 66.5q-31 79 -31 147q0 49 16.5 85t44 60t64 35.5t76.5 11.5
q65 0 104.5 -31.5t39.5 -93.5q0 -30 -11 -61t-33 -59.5t-56.5 -53t-80.5 -39.5q24 -52 59.5 -100t77.5 -93q24 45 35.5 96.5t11.5 123.5q36 10 80.5 16.5t82.5 7.5l20 -23v-56h-101zM317 610q-12 -17 -20 -44t-8 -66q0 -32 5.5 -62.5t16.5 -60.5q31 23 50.5 46.5t31 45.5
t15.5 43t4 40q0 35 -12 51t-39 16q-11 0 -22.5 -2t-21.5 -7zM145 170q0 -61 33 -89.5t84 -28.5q23 0 51 6t55 19q-48 50 -88.5 107.5t-69.5 117.5q-65 -51 -65 -132z" />
    <glyph glyph-name="quotesingle" unicode="'" horiz-adv-x="253" 
d="M191 489h-77v235q55 16 114 16l17 -21z" />
    <glyph glyph-name="parenleft" unicode="(" horiz-adv-x="305" 
d="M294 733q-40 -75 -66.5 -146.5t-42.5 -140.5t-22.5 -135t-6.5 -129q0 -52 4 -97.5t11 -88t17.5 -83.5t24.5 -85l-44 -21q-30 40 -51.5 87t-35.5 98t-20.5 104.5t-6.5 105.5q0 57 9.5 128.5t32 146.5t60.5 147.5t96 132.5z" />
    <glyph glyph-name="parenright" unicode=")" horiz-adv-x="305" 
d="M143 757q30 -40 51.5 -87t35.5 -98t20.5 -104.5t6.5 -105.5q0 -57 -10 -128.5t-33 -146.5t-61.5 -147.5t-95.5 -132.5l-41 24q78 150 109 287t31 264q0 52 -4 97.5t-11 88t-18 83.5t-24 85z" />
    <glyph glyph-name="asterisk" unicode="*" horiz-adv-x="477" 
d="M318 562q21 -14 46.5 -35.5t40.5 -44.5q6 -9 9 -16.5t7 -16.5l-51 -39l-28 -14q-8 6 -13.5 13t-10.5 14q-14 21 -23 53.5t-15 58.5zM109 690q16 -2 37 -8q46 -16 99 -63l-17 -41q-27 -2 -61.5 -0.5t-61.5 10.5q-18 6 -33 15l22 60zM264 536q-9 -26 -24 -57t-35 -54
q-7 -9 -13.5 -15t-14.5 -13l-48 30l-21 22q6 12 12 20.5t10 13.5q9 10 21.5 21t26 21.5t27.5 20t25 17.5zM485 603q-17 -10 -36 -15q-27 -9 -62 -11t-62 -1l-10 42q20 15 51.5 34.5t60.5 29.5q17 5 37 7l17 -56zM344 780q1 -5 1 -9v-10q0 -32 -13 -67t-28 -65h-44
q-6 20 -11.5 46t-5.5 51q0 16 2 29.5t7 29.5h62z" />
    <glyph glyph-name="plus" unicode="+" 
d="M542 308l-6 -48h-184l-25 -203h-59l-25 9l24 194h-183v26l6 48h186l24 202h58l26 -9l-23 -193h181v-26z" />
    <glyph glyph-name="comma" unicode="," horiz-adv-x="250" 
d="M100 134q40 0 68 -17q6 -13 10 -30t4 -39q0 -27 -7.5 -59t-27.5 -63t-56 -56.5t-94 -38.5l-13 37q21 9 41 21t36 27t25.5 32.5t9.5 36.5v14l-49 7l8 123q12 2 23.5 3.5t21.5 1.5z" />
    <glyph glyph-name="hyphen" unicode="-" horiz-adv-x="319" 
d="M276 256h-228v29l6 52h228v-28z" />
    <glyph glyph-name="period" unicode="." horiz-adv-x="250" 
d="M118 146q13 0 26.5 -1.5t21.5 -4.5q11 -20 11 -48q0 -23 -8 -46t-22 -46h-101l-6 133q14 5 34.5 9t43.5 4z" />
    <glyph glyph-name="slash" unicode="/" horiz-adv-x="293" 
d="M41 -182h-56l-13 13l283 889h57l13 -13z" />
    <glyph glyph-name="zero" unicode="0" horiz-adv-x="565" 
d="M324 611q54 0 92.5 -19t63.5 -52.5t36.5 -79t11.5 -99.5q0 -57 -14 -123t-46.5 -121.5t-85 -92.5t-130.5 -37q-53 0 -91.5 18.5t-63.5 52t-37 79.5t-12 100q0 38 6 81t19.5 84.5t35 79.5t52.5 66.5t71 45.5t92 17zM314 552q-29 0 -55 -13q-21 -23 -36.5 -65t-25.5 -91.5
t-15 -100.5t-5 -92q0 -74 20 -109t66 -35q29 0 55 13q21 22 36.5 64t25 91.5t14 101t4.5 92.5q0 72 -19 108t-65 36z" />
    <glyph glyph-name="one" unicode="1" horiz-adv-x="369" 
d="M323 26l-3 -26h-306v48q23 8 50.5 13.5t51.5 7.5l41 403q-23 -7 -49 -9t-51 -3v28l5 37q19 1 41.5 6t45.5 15.5t45 26t40 37.5l54 -12l-55 -541l90 -8v-23z" />
    <glyph glyph-name="two" unicode="2" horiz-adv-x="473" 
d="M417 151q2 -15 3.5 -29t1.5 -28q0 -33 -7 -63t-18 -49h-60q-28 0 -62 3t-68.5 7.5t-67 11.5t-57.5 15l-49 -35q-11 3 -23.5 10t-20.5 14v18q55 44 111.5 92t102.5 98.5t75 103t29 105.5q0 52 -27 73.5t-61 21.5q-37 0 -62.5 -21.5t-25.5 -66.5q0 -24 9 -55l-52 -17
q-20 21 -31 42.5t-11 50.5q0 33 14.5 62t41 50.5t63.5 34t82 12.5q42 0 77.5 -12t61 -34t39.5 -53t14 -69q0 -45 -20 -89.5t-56.5 -89t-88 -89.5t-114.5 -91h175l18 69z" />
    <glyph glyph-name="three" unicode="3" horiz-adv-x="488" 
d="M311 272q57 -17 85 -52.5t28 -92.5q0 -45 -16 -83t-47 -66.5t-76 -44.5t-103 -16q-40 0 -81.5 8.5t-81.5 27.5l7 49q25 -4 46.5 -5.5t40.5 -1.5q50 0 84 10t55 27.5t30.5 42.5t9.5 55q0 34 -14 60t-53 42q-19 -7 -39.5 -12t-37.5 -8l-18 14q-3 15 -3 33q0 8 0.5 15
t1.5 14q9 5 28.5 7t36.5 2q8 0 14.5 -0.5t13.5 -1.5q36 22 62 57t26 83q0 24 -7.5 41t-20 27.5t-28.5 15t-33 4.5q-26 0 -43.5 -8.5t-28.5 -22t-16 -30.5t-5 -34v-19l-54 -3q-11 17 -16.5 33.5t-5.5 33.5q0 26 13 51t37.5 44.5t61 31.5t83.5 12q90 0 141.5 -45.5
t51.5 -120.5q0 -36 -11.5 -62.5t-30 -46t-41.5 -32.5t-46 -22v-11z" />
    <glyph glyph-name="four" unicode="4" horiz-adv-x="499" 
d="M467 127l-6 -48h-76q-4 -37 -7 -74t-6 -75h-118q3 38 6 75t7 74h-239l-19 50q44 90 83 176.5t74 177.5l-24 103l97 28q23 -18 35 -41t12 -50q0 -24 -11 -56t-34 -76t-58.5 -101.5t-84.5 -132.5l5 -9q28 3 54 5t52 2h66q9 80 21 158q42 24 92 33l27 -14
q-7 -45 -12.5 -88.5t-10.5 -88.5h75v-28z" />
    <glyph glyph-name="five" unicode="5" horiz-adv-x="467" 
d="M183 341q116 0 175.5 -54t59.5 -146q0 -47 -15.5 -88t-45.5 -71t-73.5 -47.5t-98.5 -17.5q-37 0 -80 8.5t-80 27.5l9 56q23 -4 44 -5.5t39 -1.5q47 0 79.5 10.5t52.5 28.5t29 43.5t9 55.5q0 34 -11.5 57.5t-37.5 38.5t-67.5 24t-101.5 15l39 322l65 14q21 -9 51.5 -16.5
t64.5 -7.5q28 0 63.5 6.5t69.5 18.5l13 -46q-28 -37 -67.5 -60t-94.5 -23q-29 0 -59.5 7t-56.5 19l-26 -169q14 1 26 1h26z" />
    <glyph glyph-name="six" unicode="6" horiz-adv-x="547" 
d="M409 682q27 0 48.5 -3.5t41.5 -8.5l1 -49q-96 0 -158.5 -35.5t-99 -94.5t-50.5 -135t-13 -157q0 -24 2.5 -51t11 -49.5t25.5 -37.5t47 -15q12 0 25.5 2.5t27.5 8.5q15 13 26 32.5t18 43t10.5 49t3.5 50.5q0 59 -19 80.5t-49 21.5q-18 0 -36 -5.5t-32 -10.5l-7 47
q29 32 61 43.5t64 11.5q69 0 109 -43.5t40 -125.5q0 -51 -17 -98.5t-49.5 -84t-80.5 -59t-110 -22.5t-101.5 24t-61.5 61t-30 82t-8 88q0 78 21 156.5t65.5 141.5t112.5 102.5t161 39.5z" />
    <glyph glyph-name="seven" unicode="7" horiz-adv-x="478" 
d="M506 568q-69 -96 -119 -175.5t-84 -142.5t-54.5 -110t-31.5 -78l10 -120l-87 -26q-29 9 -45 34t-16 57q0 40 21.5 90.5t61 111t96 132t126.5 153.5h-239l-20 -77h-64q-5 28 -5 60q0 35 5.5 71.5t16.5 60.5q40 0 88.5 -2.5t96 -8t90 -13t71.5 -17.5l28 38q14 -2 27.5 -7.5
t23.5 -12.5z" />
    <glyph glyph-name="eight" unicode="8" horiz-adv-x="535" 
d="M364 349q26 -18 47.5 -34.5t36.5 -34.5t23 -40t8 -52q0 -33 -11.5 -68.5t-39 -65t-74 -48.5t-115.5 -19q-93 0 -147.5 38.5t-54.5 116.5q0 36 11.5 66t30.5 54.5t44.5 42t53.5 28.5v11q-39 26 -65.5 60t-26.5 90q0 35 13 68.5t40 59t69.5 41t101.5 15.5q41 0 76 -8.5
t60.5 -26.5t40 -45.5t14.5 -65.5t-13.5 -66.5t-34 -49.5t-44.5 -34.5t-44 -21.5v-11zM249 605q-16 -15 -25.5 -40t-9.5 -50q0 -38 22 -64t59 -49l17 -11q71 55 71 141q0 40 -17 63.5t-56 23.5q-15 0 -31 -3.5t-30 -10.5zM310 60q18 17 28.5 46t10.5 58q0 20 -6 35.5
t-18.5 29.5t-33 29t-48.5 34l-16 11q-38 -31 -56 -72.5t-18 -85.5q0 -47 21 -73t66 -26q17 0 36.5 4t33.5 10z" />
    <glyph glyph-name="nine" unicode="9" horiz-adv-x="547" 
d="M308 612q62 0 101.5 -24t61.5 -61t30 -82.5t8 -88.5q0 -78 -21.5 -156.5t-65.5 -141.5t-112 -102t-161 -39q-28 0 -49.5 3.5t-40.5 8.5l-1 48q96 0 158.5 35t98.5 93.5t50 134t13 156.5q0 24 -2.5 50.5t-11 48.5t-25.5 36t-47 14q-26 0 -52 -11q-15 -13 -26 -32.5
t-18.5 -43t-11 -49t-3.5 -50.5q1 -59 20 -80t48 -21q19 0 36.5 6.5t31.5 12.5l8 -43q-29 -32 -61.5 -43.5t-64.5 -11.5q-69 0 -108.5 43.5t-39.5 124.5q0 51 17 99t49.5 84.5t80.5 59t110 22.5z" />
    <glyph glyph-name="colon" unicode=":" horiz-adv-x="250" 
d="M118 146q13 0 26.5 -1.5t21.5 -4.5q11 -20 11 -48q0 -23 -8 -46t-22 -46h-101l-6 133q14 5 34.5 9t43.5 4zM156 511q13 0 26.5 -1.5t21.5 -4.5q11 -20 11 -48q0 -23 -8 -46t-22 -46h-101l-6 133q14 5 34.5 9t43.5 4z" />
    <glyph glyph-name="semicolon" unicode=";" horiz-adv-x="250" 
d="M100 134q40 0 68 -17q6 -13 10 -30t4 -39q0 -27 -7.5 -59t-27.5 -63t-56 -56.5t-94 -38.5l-13 37q21 9 41 21t36 27t25.5 32.5t9.5 36.5v14l-49 7l8 123q12 2 23.5 3.5t21.5 1.5zM156 511q13 0 26.5 -1.5t21.5 -4.5q11 -20 11 -48q0 -23 -8 -46t-22 -46h-101l-6 133
q14 5 34.5 9t43.5 4z" />
    <glyph glyph-name="less" unicode="&#x3c;" 
d="M205 299v-12l296 -178l-36 -71l-374 207l12 100l421 206l27 -68z" />
    <glyph glyph-name="equal" unicode="=" 
d="M524 160h-452v26l6 48h452v-26zM548 360h-452v26l6 48h452v-26z" />
    <glyph glyph-name="greater" unicode="&#x3e;" 
d="M523 244l-422 -206l-26 68l345 184v12l-296 178l37 71l374 -207z" />
    <glyph glyph-name="question" unicode="?" horiz-adv-x="341" 
d="M165 673q50 0 84 -16.5t54.5 -44.5t29.5 -63.5t9 -74.5q0 -23 -5 -48t-22.5 -50t-51.5 -50.5t-91 -50.5l-13 -83h-70q-7 18 -12 38.5t-5 45.5q0 24 5.5 39.5t18 27.5t32 22.5t48.5 24.5q30 14 51.5 25.5t35 23.5t20 25.5t6.5 31.5q0 5 -0.5 11.5t-1.5 15.5
q-30 17 -82.5 27t-118.5 9l10 106q16 3 32.5 5.5t36.5 2.5zM131 132q26 0 44 -7q10 -19 10 -44q0 -20 -6.5 -39t-20.5 -42h-95l-6 119q14 5 33.5 9t40.5 4z" />
    <glyph glyph-name="at" unicode="@" horiz-adv-x="892" 
d="M526 698q85 0 149.5 -23t107.5 -65t65 -101t22 -131q0 -78 -23.5 -138.5t-61.5 -102t-86 -63t-98 -21.5q-33 0 -51 10.5t-18 36.5q0 21 11 71t28 139l-11 2q-24 -77 -44 -127.5t-41.5 -81.5t-47 -43.5t-60.5 -12.5q-27 0 -50 7.5t-39.5 25.5t-26 48.5t-9.5 75.5
q0 54 14 110t43 101.5t73.5 75t105.5 29.5q29 0 54.5 -8t42.5 -26l7 26q14 5 39.5 6.5t42.5 1.5l22 -19l-46 -385q72 10 113.5 76.5t41.5 170.5q0 63 -17 114t-50 86.5t-81.5 54.5t-112.5 19q-77 0 -148 -27.5t-125 -80t-86.5 -128t-32.5 -171.5q0 -84 25.5 -141.5t72.5 -93
t113 -50.5t146 -15v-42q-23 -6 -49.5 -10.5t-60.5 -4.5q-71 0 -134 21t-110 64.5t-75 109.5t-28 157q0 103 36 189.5t100 149.5t153 98.5t195 35.5zM435 130q15 21 29.5 48.5t29.5 65t31 86.5t36 114q-34 17 -70 17q-28 0 -49 -8q-20 -25 -34.5 -56t-23.5 -64.5t-13.5 -67.5
t-4.5 -65q0 -42 10.5 -57t37.5 -15h9q5 0 12 2z" />
    <glyph glyph-name="A" unicode="A" horiz-adv-x="648" 
d="M623 28l-3 -28h-265v49q14 8 34 13.5t36 7.5q-7 30 -13.5 59.5t-13.5 59.5h-214q-13 -33 -25.5 -65.5t-25.5 -65.5l68 -7v-23l-4 -28h-206v49q14 8 34.5 13.5t36.5 7.5q57 138 118 274.5t125 272.5l-10 46l26 22q29 0 52.5 -2.5t46.5 -8.5q33 -156 66.5 -309.5
t73.5 -307.5l63 -6v-23zM384 253q-14 65 -26.5 129t-25.5 128h-11q-29 -65 -56.5 -128.5t-54.5 -128.5h174z" />
    <glyph glyph-name="B" unicode="B" horiz-adv-x="606" 
d="M424 339q65 -14 96.5 -45.5t31.5 -95.5q0 -37 -12 -72.5t-42 -63.5t-80.5 -45t-126.5 -17h-276v49q17 7 37.5 12.5t40.5 9.5l48 528l-73 9v23l3 29q25 3 56.5 5t63.5 4t62 3t54 1q131 0 189.5 -39.5t58.5 -116.5q0 -57 -31 -101.5t-100 -65.5v-11zM417 516q0 46 -24 69.5
t-86 23.5h-40l-22 -237h116q23 23 39.5 61t16.5 83zM383 86q9 10 15 25.5t9.5 32.5t5 33.5t1.5 28.5q0 24 -5 43.5t-18 33.5t-35.5 22t-56.5 8h-60l-23 -249h64q32 0 58 5t45 17z" />
    <glyph glyph-name="C" unicode="C" horiz-adv-x="599" 
d="M296 591q-23 -18 -42 -51.5t-33.5 -77t-22.5 -92.5t-8 -98q0 -53 9.5 -90t28 -60t46 -33t64.5 -10q36 0 87 16t100 54l13 -51q-47 -51 -111.5 -81t-131.5 -30q-64 0 -111 20.5t-77.5 57.5t-45 89t-14.5 115q0 72 19.5 145t59.5 131.5t101 95.5t144 37q34 0 58 -7.5
t44 -18.5l2 16q20 5 35.5 8t35.5 3l26 -19q1 -5 1.5 -12t0.5 -17q0 -28 -5.5 -69.5t-14.5 -83.5h-74l-10 119q-22 6 -44.5 9.5t-41.5 3.5q-42 0 -88 -19z" />
    <glyph glyph-name="D" unicode="D" horiz-adv-x="663" 
d="M311 673q92 0 154 -20t100 -56.5t54 -89t16 -117.5q0 -40 -6.5 -84.5t-22 -88t-41 -83t-64.5 -69.5t-92.5 -47.5t-123.5 -17.5h-270v49q17 7 37.5 13t40.5 9l48 528l-73 9v23l3 29q26 3 59 5l66 4q33 2 63.5 3t51.5 1zM412 98q22 27 37.5 62t25.5 75.5t14.5 84t4.5 86.5
q0 49 -7.5 87t-26 64t-49 39.5t-75.5 13.5h-66l-50 -546h58q45 0 76.5 8.5t57.5 25.5z" />
    <glyph glyph-name="E" unicode="E" horiz-adv-x="575" 
d="M246 369l165 8l9 -22l-7 -55l-172 9l-23 -251h182l38 115l74 -6q1 -11 1.5 -21t0.5 -22q0 -32 -5.5 -64t-18.5 -74l-26 -3l-313 17h-137v49q17 7 37.5 12.5t40.5 9.5l48 528l-73 8v24l4 29q63 2 128 3.5t128 1.5h141q17 5 35 9.5t35 4.5l25 -14q1 -6 1.5 -14t0.5 -19
q0 -29 -5 -66.5t-14 -73.5h-72l-9 105l-197 8z" />
    <glyph glyph-name="F" unicode="F" horiz-adv-x="534" 
d="M547 665q1 -6 1.5 -14t0.5 -19q0 -29 -5 -66.5t-14 -73.5h-72l-9 105l-180 8l-24 -256l166 8l9 -22l-7 -55l-174 9l-21 -229l84 -6v-25l-3 -29h-285v49q17 8 39 14t39 8l48 528l-73 8v24l4 29q63 2 128 3.5t128 1.5h125q17 5 35 9.5t35 4.5z" />
    <glyph glyph-name="G" unicode="G" horiz-adv-x="637" 
d="M603 247q-10 -5 -21 -9t-24 -7l-21 -225l-27 -18q-37 0 -67 9l-6 27q-29 -19 -64.5 -28t-74.5 -9q-59 0 -105.5 19.5t-79 56t-49.5 89.5t-17 120q0 70 20 142.5t60.5 131t101.5 95.5t144 37q35 0 62 -7t47 -18l1 15q20 5 35.5 8t35.5 3l26 -19q1 -5 1.5 -12t0.5 -17
q0 -28 -5.5 -69.5t-14.5 -83.5h-74l-10 120q-23 6 -47 9t-43 3q-44 0 -93 -19q-23 -18 -42 -53t-33.5 -80.5t-22.5 -98t-8 -105.5q0 -44 6.5 -80.5t22 -62.5t42 -41t66.5 -15q24 0 52 6t54 19l6 157l-69 6v25l4 28h230v-49z" />
    <glyph glyph-name="H" unicode="H" horiz-adv-x="715" 
d="M721 616q-17 -8 -39.5 -13.5t-39.5 -7.5l-50 -537l74 -7v-23l-3 -28h-273v49q16 8 37.5 13.5t38.5 7.5l22 242h-246l-23 -254l68 -7v-23l-4 -28h-268v49q16 8 38.5 13.5t39.5 7.5l49 537l-74 7v23l3 28h272v-49q-15 -8 -35.5 -13.5t-38.5 -7.5l-21 -220h246l21 232l-69 7
v23l3 28h272v-49z" />
    <glyph glyph-name="I" unicode="I" horiz-adv-x="342" 
d="M348 616q-17 -8 -39 -13.5t-40 -7.5l-50 -537l74 -7v-23l-3 -28h-275v49q16 8 38.5 13.5t39.5 7.5l49 537l-74 7v23l3 28h277v-49z" />
    <glyph glyph-name="J" unicode="J" horiz-adv-x="456" 
d="M463 616q-17 -8 -39 -13.5t-40 -8.5l-47 -484q-5 -51 -16.5 -93.5t-34.5 -73t-59.5 -47.5t-91.5 -17q-54 0 -100 16.5t-74 48.5l20 54q47 -17 98 -27t96 -12q11 19 20.5 54t14.5 95l47 498l-130 6v24l4 29h332v-49z" />
    <glyph glyph-name="K" unicode="K" horiz-adv-x="664" 
d="M658 616q-14 -7 -32.5 -12t-35.5 -8q-41 -59 -85 -115.5t-92 -111.5q16 -43 34 -85.5t36.5 -81.5t36.5 -72.5t35 -59.5l61 3l4 -52q-26 -16 -55 -23.5t-54 -7.5q-38 0 -61 17t-39 46q-22 37 -46 102t-44 150h-79l-23 -247l71 -7v-23l-4 -28h-271v49q16 8 38.5 13.5
t39.5 7.5l49 537l-74 7v23l3 28h276v-49q-16 -8 -38 -13.5t-40 -7.5l-22 -231l91 6q47 57 88.5 117t78.5 120l-73 7v23l3 28h223v-49z" />
    <glyph glyph-name="L" unicode="L" horiz-adv-x="528" 
d="M489 167q1 -11 1.5 -21t0.5 -22q0 -32 -5.5 -64t-18.5 -74l-25 -3l-289 17h-138v49q17 7 37.5 13t40.5 9l49 536l-74 7v23l3 28h282v-49q-17 -8 -40.5 -13.5t-43.5 -7.5l-50 -537h158l38 115z" />
    <glyph glyph-name="M" unicode="M" horiz-adv-x="865" 
d="M857 616q-17 -8 -40 -13.5t-41 -7.5q-2 -61 -4.5 -129.5t-6 -138t-7.5 -138.5t-8 -130l75 -8v-23l-3 -28h-270v49q15 8 35 13.5t37 7.5q6 63 12 132.5t11 137.5t9.5 130t7.5 109h-11q-35 -79 -87 -216t-123 -327q-20 -8 -39.5 -11.5t-39.5 -5.5l-22 6q-16 90 -33 177.5
t-32 161.5t-26.5 130.5t-17.5 84.5h-11q-6 -44 -13.5 -107t-15.5 -134t-16 -143.5t-15 -135.5l75 -8v-23l-3 -28h-225v49q15 7 37.5 12.5t40.5 8.5q7 60 16 128t19 137.5t19.5 137t18.5 126.5l-77 8v24l3 28q61 4 124 5t132 1q10 -43 22.5 -103.5t24.5 -126.5t23 -130.5
t17 -116.5h11q35 104 79.5 229t97.5 248h240v-49z" />
    <glyph glyph-name="N" unicode="N" horiz-adv-x="706" 
d="M713 616q-15 -8 -38 -13.5t-40 -7.5l-56 -591q-47 -14 -100 -15l-22 5l-173 392q-23 54 -41 102t-30 89h-12l-32 -519l74 -7v-23l-4 -28h-224v49q17 8 38.5 14t38.5 8l50 527l-74 9v24l3 28q30 1 57.5 2.5t55.5 2t57.5 1t62.5 0.5l141 -322q25 -57 43.5 -105.5
t33.5 -90.5h11l24 459l-79 8v23l3 28h232v-49z" />
    <glyph glyph-name="O" unicode="O" horiz-adv-x="686" 
d="M393 678q64 0 113.5 -20.5t83.5 -58t51 -90.5t17 -119q0 -71 -20 -142.5t-62 -129.5t-107.5 -94.5t-156.5 -36.5q-65 0 -114 20.5t-83 58t-51 91t-17 119.5q0 70 19.5 142t61.5 129.5t107.5 94t157.5 36.5zM382 610q-22 0 -42.5 -5t-43.5 -14q-23 -18 -42 -52
t-33.5 -78.5t-22.5 -97t-8 -107.5q0 -44 6.5 -80.5t22 -63.5t41.5 -42t65 -15q22 0 43 5t43 14q22 18 41.5 52t34 78.5t22.5 97t8 107.5q0 43 -6.5 80t-22 64t-41.5 42t-65 15z" />
    <glyph glyph-name="P" unicode="P" horiz-adv-x="577" 
d="M314 671q73 0 121.5 -13.5t77 -38t40.5 -59.5t12 -78q0 -54 -14.5 -97.5t-42.5 -75t-69 -48.5t-93 -17q-17 0 -32.5 2t-29.5 4v55q32 1 52 4.5t38 9.5q26 32 37.5 76t11.5 92q0 28 -4.5 51t-16.5 38.5t-33 24t-54 8.5h-47l-50 -548l95 -7v-25l-3 -29h-296v49
q16 8 38 13.5t40 7.5l49 529l-74 8v24l4 29q29 2 61 4t64 3.5t62.5 2.5t55.5 1z" />
    <glyph glyph-name="Q" unicode="Q" horiz-adv-x="690" 
d="M394 678q130 0 197.5 -77.5t67.5 -215.5q0 -65 -15.5 -129t-46 -117t-77 -89.5t-109.5 -45.5l-1 -11q39 -25 74.5 -42.5t70 -29t70.5 -16.5t77 -5q16 0 37 1t47 3l6 -50q-24 -18 -62.5 -29.5t-85.5 -11.5q-56 0 -102 15.5t-82 39.5t-61.5 52.5t-40.5 55.5v51q43 22 73 59
t49 86t28 106.5t9 120.5q0 45 -5.5 83.5t-20.5 67t-41 44.5t-67 16q-23 0 -43.5 -5t-42.5 -14q-23 -18 -42.5 -52.5t-34 -79.5t-22.5 -96t-8 -102q0 -84 28 -141t99 -83l-13 -50q-63 1 -110.5 22.5t-80 59.5t-49 91.5t-16.5 119.5q0 67 19 138t61 128.5t107.5 94.5t158.5 37
z" />
    <glyph glyph-name="R" unicode="R" horiz-adv-x="628" 
d="M606 21q-26 -16 -54.5 -23.5t-54.5 -7.5q-42 0 -63.5 18.5t-36.5 44.5q-23 39 -43.5 95t-38.5 125h-80l-19 -215l75 -7v-23l-4 -28h-272v49q16 8 38.5 13.5t39.5 7.5l48 529l-73 9v24l3 28q65 7 128.5 10t109.5 3q139 -1 199 -45t60 -129q0 -77 -40.5 -126.5
t-101.5 -76.5q13 -32 28 -64t30 -61.5t29.5 -55.5t27.5 -45l62 3zM359 338q37 31 53.5 72.5t16.5 87.5q0 57 -27.5 83t-88.5 26h-48l-24 -269h118z" />
    <glyph glyph-name="S" unicode="S" horiz-adv-x="523" 
d="M338 376q27 -18 51.5 -37.5t43 -43.5t29.5 -54t11 -67q0 -35 -11.5 -68.5t-39 -60t-74 -42.5t-116.5 -16q-63 0 -111.5 12t-80.5 27q-7 38 -7 77q0 23 2 45.5t5 45.5l79 5l28 -134q39 -12 82 -12q25 0 46.5 4t36.5 13q12 12 19.5 30.5t7.5 44.5q0 23 -6.5 40t-18 31
t-27.5 26t-36 25l-35 22q-66 42 -100 89.5t-34 110.5q0 40 14.5 74.5t41 60t64 40t84.5 14.5q34 0 59 -7.5t45 -19.5l2 17q20 5 35.5 8t35.5 3l26 -19q1 -5 1.5 -12t0.5 -16q0 -28 -5.5 -67.5t-14.5 -74.5h-74l-10 110q-20 6 -41.5 9t-39.5 3q-16 0 -34 -3t-32 -9
q-14 -11 -24 -29.5t-10 -45.5q0 -22 7.5 -39.5t20 -32.5t30.5 -28t39 -27z" />
    <glyph glyph-name="T" unicode="T" horiz-adv-x="573" 
d="M590 665q1 -6 1.5 -14t0.5 -19q0 -29 -5 -66.5t-14 -73.5h-72l-9 106l-102 6l-50 -546l81 -7v-23l-3 -28h-294v49q18 8 43.5 13.5t45.5 7.5l51 537h-98l-38 -117l-69 5q-1 11 -1.5 21t-0.5 23q0 31 5.5 66.5t18.5 73.5l26 3l225 -17h163q17 5 35 9.5t35 4.5z" />
    <glyph glyph-name="U" unicode="U" horiz-adv-x="662" 
d="M684 616q-16 -8 -40 -14t-41 -8q-3 -49 -7 -103t-8.5 -104.5t-8.5 -93.5t-8 -70q-17 -118 -79 -177t-177 -59q-112 0 -166.5 55t-54.5 162q0 27 3 72t8.5 99.5t11.5 114.5t12 117l-74 7v23l3 28h273v-49q-16 -8 -36 -13t-39 -8q-7 -66 -13.5 -127.5t-11.5 -114t-8 -94
t-3 -67.5q0 -73 27.5 -106.5t93.5 -33.5q55 0 97 22q21 22 35.5 58.5t21.5 96.5q3 28 7.5 71.5t8.5 94.5t8.5 106t7.5 105l-71 8v23l3 28h225v-49z" />
    <glyph glyph-name="V" unicode="V" horiz-adv-x="632" 
d="M660 616q-12 -6 -28 -11t-31 -8q-23 -69 -53.5 -150t-63.5 -161t-65 -153.5t-57 -128.5q-25 -8 -48 -10.5t-49 -3.5l-29 20q-14 60 -31 135.5t-34.5 156t-34.5 159.5t-31 147l-61 6v23l3 28h262v-49q-13 -8 -32 -13.5t-35 -7.5q11 -61 24 -129t25.5 -133.5t23 -124.5
t18.5 -102h11q18 41 42 101.5t49.5 128.5t49 138.5t40.5 131.5l-75 8v23l3 28h207v-49z" />
    <glyph glyph-name="W" unicode="W" horiz-adv-x="980" 
d="M1004 616q-12 -6 -28 -11t-30 -8q-22 -69 -51.5 -150t-60.5 -161t-61.5 -153.5t-54.5 -128.5q-25 -8 -48 -10.5t-49 -3.5l-29 20q-8 40 -17 87.5t-18 99t-18 105t-17 105.5h-11q-33 -108 -72.5 -206.5t-82.5 -196.5q-25 -8 -48 -10.5t-49 -3.5l-30 20q-13 60 -28 135.5
t-30 156t-30 159.5t-27 147l-61 6v23l3 28h262v-49q-14 -8 -33 -13.5t-35 -7.5q9 -61 19.5 -129t21 -133.5t20 -124.5t16.5 -102h11q15 34 34 84.5t40 108t41.5 117t37.5 112.5l-15 81l-46 5v23l3 28h249v-49q-14 -8 -34 -13.5t-36 -7.5q10 -62 20.5 -130t21 -133.5t20 -124
t16.5 -101.5h11q16 41 38.5 101.5t46 128.5t45.5 138.5t38 131.5l-75 8v23l3 28h207v-49z" />
    <glyph glyph-name="X" unicode="X" horiz-adv-x="652" 
d="M598 595q-45 -63 -89 -124t-94 -124q35 -69 70.5 -142t68.5 -148l62 -6v-23l-4 -28h-283v49q15 7 36.5 12.5t38.5 8.5q-26 59 -48.5 110.5t-46.5 98.5h-12q-39 -54 -75 -107.5t-74 -113.5l70 -7v-23l-3 -28h-215v49q14 7 33.5 13t34.5 8q49 67 101.5 134.5t99.5 127.5
q-36 71 -68.5 137t-63.5 138l-65 7v23l3 28h284v-49q-20 -6 -39.5 -11t-31.5 -8q23 -57 44.5 -106t41.5 -91h12q35 52 66 101t66 106l-70 7v23l3 28h210v-49q-13 -7 -30.5 -12.5t-32.5 -8.5z" />
    <glyph glyph-name="Y" unicode="Y" horiz-adv-x="622" 
d="M579 595q-43 -93 -94 -181t-108 -179l-16 -177l79 -7v-23l-3 -28h-291v49q17 8 43 13.5t45 7.5l15 162q-35 100 -71 197t-71 178l-63 7v23l3 28h271v-49q-14 -7 -35.5 -12.5t-39.5 -7.5q12 -34 25.5 -71.5t27 -75.5t26 -75t22.5 -69h11q39 65 80.5 144.5t71.5 156.5
l-69 8v23l3 28h209v-49q-15 -8 -34.5 -13.5t-36.5 -7.5z" />
    <glyph glyph-name="Z" unicode="Z" horiz-adv-x="558" 
d="M517 167q1 -11 1.5 -21t0.5 -22q0 -32 -5.5 -64t-18.5 -74l-26 -3l-338 17l-102 -1l-8 40q72 110 124.5 189.5t90.5 136t63.5 93.5t43.5 63t31 43.5t27 35.5l-3 8l-231 -10l-19 -106h-73q-4 27 -6 53t-2 48t2 40t5 32l26 14q18 0 34.5 -4.5t33.5 -9.5h380l8 -39
q-66 -102 -116 -178t-87 -132t-63.5 -95t-46.5 -67.5t-35 -49t-30 -39.5l4 -8l223 1l38 115z" />
    <glyph glyph-name="bracketleft" unicode="[" horiz-adv-x="303" 
d="M200 680q1 -20 1.5 -40.5t-0.5 -40.5q-2 -180 -20 -357t-51 -357l96 -5l-3 -56h-145l-26 26l79 890h169v-55z" />
    <glyph glyph-name="backslash" unicode="\" horiz-adv-x="452" 
d="M356.003 -182h55.9961l12.999 13l-282.982 889h-56.9961l-13 -13z" />
    <glyph glyph-name="bracketright" unicode="]" horiz-adv-x="302" 
d="M179 -176h-170v55l101 5q-1 20 -1.5 40.5t0.5 40.5q2 180 20.5 357t51.5 357l-97 5l3 56h146l26 -26z" />
    <glyph glyph-name="asciicircum" unicode="^" horiz-adv-x="433" 
d="M371 464l-117 170h-10l-135 -170l-58 42l179 230h87l123 -230z" />
    <glyph glyph-name="underscore" unicode="_" horiz-adv-x="409" 
d="M330 -144h-338v20l4 41h338v-20z" />
    <glyph glyph-name="grave" unicode="`" horiz-adv-x="251" 
d="M204 573l-121 142q13 22 27.5 37.5t34.5 25.5h61l52 -205h-54z" />
    <glyph glyph-name="a" unicode="a" horiz-adv-x="570" 
d="M554 46q-32 -25 -69 -40.5t-69 -15.5q-29 0 -47 13.5t-18 42.5q0 24 11.5 80t31.5 157l-11 2q-28 -88 -51 -145.5t-47.5 -91.5t-52.5 -47.5t-66 -13.5q-29 0 -53.5 8t-42 28t-27 53.5t-9.5 84.5q0 60 15 124t46 116t79.5 85.5t116.5 33.5q33 0 61 -9t48 -29l8 29
q16 5 38 7t42 2l24 -22l-52 -432q20 0 42 7.5t42 18.5zM238 71q16 22 32.5 53.5t34.5 76.5t37.5 104t42.5 135q-37 22 -80 22q-16 0 -30.5 -3t-25.5 -6q-23 -29 -39 -65.5t-26 -77t-15 -81t-5 -76.5q0 -48 10.5 -66.5t37.5 -18.5q11 0 26 3z" />
    <glyph glyph-name="b" unicode="b" horiz-adv-x="564" 
d="M397 520q30 0 54.5 -8t42 -28t27 -54.5t9.5 -86.5q0 -59 -14.5 -122t-47.5 -115t-87 -85.5t-134 -33.5q-23 0 -49.5 3t-53 7.5t-51.5 10.5t-45 12l72 647l-58 16l5 47q32 9 75.5 15t81.5 8l23 -22l-32 -254q-11 -78 -23.5 -140t-22.5 -113l11 -3q28 88 51 146t47 92
t52.5 47.5t66.5 13.5zM314 55q22 28 38.5 65t26.5 77t15 80.5t5 75.5q0 50 -10.5 68t-37.5 18q-5 0 -11 -0.5t-13 -1.5q-17 -22 -33.5 -54t-34.5 -77t-38.5 -106t-44.5 -140q40 -14 81 -14q17 0 31.5 2.5t25.5 6.5z" />
    <glyph glyph-name="c" unicode="c" horiz-adv-x="453" 
d="M248 75q29 0 67 14.5t79 45.5l12 -49q-39 -45 -91.5 -72t-112.5 -27q-45 0 -77.5 16.5t-53.5 45t-31 66.5t-10 82q0 51 14 108t45 104.5t81.5 79t124.5 31.5q24 0 46.5 -4t41 -13.5t31.5 -24t18 -35.5l-48 -62l-123 79q-9 -2 -17 -4.5t-15 -5.5q-18 -20 -31 -49.5
t-21 -63.5t-12 -68t-4 -61q0 -74 24 -103.5t63 -29.5z" />
    <glyph glyph-name="d" unicode="d" horiz-adv-x="570" 
d="M554 46q-32 -25 -69 -40.5t-69 -15.5q-29 0 -47 13.5t-18 42.5q0 24 12 80.5t32 156.5l-12 3q-27 -88 -50 -145.5t-47 -91.5t-52.5 -48t-66.5 -14q-30 0 -54.5 8t-42 28t-27 53.5t-9.5 84.5q0 60 15 124t46.5 116t80 85.5t116.5 33.5q29 0 57 -6.5t47 -19.5l18 173
l-59 16l6 47q35 9 76.5 15t79.5 8l24 -22l-81 -665q19 0 41.5 7.5t42.5 18.5zM237 71q34 45 69.5 134t79.5 240q-19 8 -39.5 12.5t-40.5 4.5q-17 0 -31 -3t-25 -6q-23 -29 -39 -65.5t-26.5 -77t-15.5 -81t-5 -76.5q0 -48 11 -66.5t37 -18.5q10 0 25 3z" />
    <glyph glyph-name="e" unicode="e" horiz-adv-x="475" 
d="M253 73q34 0 76 18t82 51l13 -48q-41 -48 -96.5 -77.5t-122.5 -29.5q-46 0 -79 16t-54.5 44t-31.5 66t-10 83q0 51 13.5 108t45 105t83 79.5t126.5 31.5q41 0 70.5 -10t48.5 -27.5t28 -41t9 -51.5q0 -50 -25.5 -84t-67.5 -54t-95 -27.5t-107 -5.5v-13q0 -72 25 -102.5
t69 -30.5zM279 461q-26 0 -50 -11q-15 -15 -26 -37t-19.5 -47.5t-13.5 -53t-8 -53.5q90 10 129 45.5t39 93.5q0 31 -11 47t-40 16z" />
    <glyph glyph-name="f" unicode="f" horiz-adv-x="299" 
d="M269 669q-15 -4 -29 -12q-3 -14 -5.5 -29.5t-4.5 -34t-4 -42.5t-3 -55h104v-28l-8 -34h-100l-39 -408q-12 -128 -56.5 -183.5t-118.5 -55.5q-38 0 -77.5 13.5t-68.5 39.5l14 48q32 -10 71.5 -19.5t83.5 -9.5q12 24 19 58.5t11 76.5l42 432l-68 10v47q14 5 34.5 9.5
t40.5 7.5q9 78 33.5 127.5t57 77t69 38t71.5 10.5q75 0 115 -40l-23 -83z" />
    <glyph glyph-name="g" unicode="g" horiz-adv-x="497" 
d="M297 87q78 -23 117 -47.5t39 -71.5q0 -34 -19 -66.5t-56.5 -58t-92.5 -41t-128 -15.5q-184 0 -184 103q0 27 13 49t34 40t47.5 31.5t53.5 22.5q-16 19 -16 47q0 27 13.5 52t36.5 48q-56 14 -83.5 49.5t-27.5 89.5q0 40 15.5 76.5t45 64t71 44t93.5 16.5q64 0 108 -27
q21 113 106 113l31 -72l-106 -65q40 -43 40 -106q0 -35 -13.5 -69t-41.5 -61t-70.5 -43.5t-100.5 -16.5l-20 1l-7 -59zM211 451q-20 -17 -33 -56t-13 -82q0 -47 20 -64.5t46 -17.5q11 0 25 2.5t24 7.5q18 16 32 55t14 84q0 47 -19.5 64t-45.5 17q-12 0 -25.5 -2.5
t-24.5 -7.5zM328 -121q10 8 15.5 17.5t5.5 21.5q0 14 -9.5 23.5t-34.5 17.5l-117 37q-25 8 -40 16q-27 -23 -45.5 -47.5t-18.5 -49.5q0 -32 26 -50.5t79 -18.5q35 0 73.5 8t65.5 25z" />
    <glyph glyph-name="h" unicode="h" horiz-adv-x="581" 
d="M559 46q-31 -25 -67.5 -40.5t-71.5 -15.5q-32 0 -52 15t-20 51q0 15 3.5 40.5t9 57t12 65.5t12 65.5t9 59t3.5 44.5q0 26 -10 38.5t-36 12.5h-11q-6 0 -14 -2q-38 -50 -79.5 -156t-88.5 -281q-19 -5 -43.5 -7.5t-44.5 -2.5l-24 22l74 655l-59 16l6 47q35 9 76.5 15
t79.5 8l24 -22l-33 -254q-9 -73 -20 -135t-22 -112l11 -2q27 84 50 140.5t46.5 90t51.5 47.5t66 14q118 0 118 -118q0 -24 -4.5 -62t-11.5 -83t-16 -94.5t-17 -96.5q20 0 42 7.5t42 18.5z" />
    <glyph glyph-name="i" unicode="i" horiz-adv-x="283" 
d="M177 66q20 0 40.5 7.5t40.5 18.5l9 -46q-31 -25 -65 -40.5t-69 -15.5q-34 0 -54 15t-20 53q0 12 2.5 38t6 59t8 71.5t9.5 75.5t9.5 70.5t7.5 57.5l-70 6v47q38 12 85 21.5t88 11.5l23 -22zM202 740q23 0 40 -6q5 -10 8 -19.5t3 -23.5q0 -20 -7 -39.5t-21 -42.5h-94
l-6 118q14 5 34 9t43 4z" />
    <glyph glyph-name="j" unicode="j" horiz-adv-x="273" 
d="M171 17q-14 -122 -58 -176t-116 -54q-33 0 -64 10.5t-55 32.5l15 48q26 -6 58 -13t67 -6q13 26 20 60t12 74l53 437l-71 6v47q38 12 85.5 21.5t88.5 11.5l23 -22zM190 740q23 0 40 -6q5 -10 8 -19.5t3 -23.5q0 -20 -7 -39.5t-21 -42.5h-94l-6 118q14 5 34 9t43 4z" />
    <glyph glyph-name="k" unicode="k" horiz-adv-x="575" 
d="M544 45q-27 -24 -61.5 -39.5t-70.5 -15.5q-24 0 -39.5 7t-26.5 20t-18.5 31t-14.5 41q-14 41 -20 74.5t-8 56.5l50 15q32 32 51 74.5t19 80.5q0 26 -11.5 37.5t-39.5 11.5h-11q-6 0 -14 -2q-38 -50 -80 -156t-89 -281q-19 -5 -42.5 -7.5t-46.5 -2.5l-24 22l73 655l-58 16
l5 47q35 9 76.5 15t79.5 8l24 -22l-32 -254q-11 -78 -21 -137.5t-21 -109.5l11 -2q29 88 52.5 145t48 89.5t52.5 45t66 12.5q60 0 96 -27.5t36 -89.5q0 -33 -11 -61.5t-29.5 -52t-44 -42t-55.5 -30.5q13 -37 27.5 -75.5t32.5 -74.5q21 2 40 8.5t39 16.5z" />
    <glyph glyph-name="l" unicode="l" horiz-adv-x="286" 
d="M247 731q-7 -58 -15 -122t-16.5 -129t-16.5 -127.5t-15 -117.5t-11.5 -98.5t-5.5 -70.5q19 0 45.5 7.5t46.5 17.5l10 -46q-30 -24 -67.5 -39.5t-72.5 -15.5q-33 0 -55.5 16.5t-22.5 59.5q0 23 6.5 85t17 145.5t23 180.5t23.5 190l-60 16l5 47q35 9 77 15t80 8z" />
    <glyph glyph-name="m" unicode="m" horiz-adv-x="892" 
d="M870 46q-32 -25 -67.5 -40.5t-70.5 -15.5q-32 0 -52.5 15t-20.5 51q0 15 3.5 40.5t9 57t12 65.5t12 66t9 59t3.5 45q0 25 -10 37.5t-36 12.5h-11q-5 0 -12 -2q-20 -26 -39.5 -64.5t-40 -92t-42 -123t-45.5 -157.5q-18 -5 -43.5 -7.5t-47.5 -2.5l-24 22q17 138 31.5 232
t14.5 139q0 29 -9.5 42.5t-36.5 13.5h-10q-6 0 -14 -2q-19 -26 -38.5 -64.5t-40 -92t-42 -123t-45.5 -157.5q-18 -5 -43 -7.5t-48 -2.5l-24 22l50 418l-70 6v47q38 12 85 21.5t88 11.5l22 -22l-48 -264l11 -2q28 86 50.5 142.5t46 89.5t51 46.5t65.5 13.5q54 0 83 -24.5
t29 -78.5q0 -34 -10 -85t-21 -102l12 -2q27 84 49 140t45.5 89.5t51.5 48t67 14.5q57 0 87 -28.5t30 -89.5q0 -24 -4.5 -62t-12 -83t-16 -94.5t-17.5 -96.5q20 0 42 7.5t42 18.5z" />
    <glyph glyph-name="n" unicode="n" horiz-adv-x="587" 
d="M565 46q-31 -25 -67.5 -40.5t-71.5 -15.5q-32 0 -52.5 15t-20.5 51q0 15 3.5 40.5t9.5 57t12 65.5t12 65.5t9.5 59t3.5 44.5q0 26 -10.5 38.5t-36.5 12.5h-10q-5 0 -13 -2q-38 -50 -80.5 -156t-87.5 -281q-19 -5 -44 -7.5t-45 -2.5l-24 22l50 418l-70 6v47q35 12 83 21.5
t89 11.5l23 -22l-49 -264l12 -2q27 85 50 141.5t46.5 90t51 47t65.5 13.5q118 0 118 -118q0 -24 -4.5 -62t-12 -83t-16 -94.5t-17.5 -96.5q21 0 43 7.5t42 18.5z" />
    <glyph glyph-name="o" unicode="o" horiz-adv-x="526" 
d="M298 520q52 0 89.5 -16t61.5 -44.5t35.5 -68t11.5 -85.5q0 -49 -13.5 -105t-45 -103.5t-82.5 -79t-126 -31.5q-52 0 -89.5 16t-61.5 44.5t-35.5 67.5t-11.5 86q0 49 13.5 105t45 103.5t82.5 79t126 31.5zM286 461q-28 0 -52 -11q-19 -19 -33 -53t-23 -73.5t-13 -80.5
t-4 -75q0 -63 19.5 -92.5t61.5 -29.5q28 0 52 11q19 19 32.5 53t22.5 73.5t13 80.5t4 74q0 65 -19 94t-61 29z" />
    <glyph glyph-name="p" unicode="p" horiz-adv-x="564" 
d="M399 520q29 0 53.5 -8t42 -28t27 -53t9.5 -84q0 -61 -14.5 -124.5t-45.5 -116t-79.5 -86t-115.5 -33.5q-30 0 -58.5 7.5t-48.5 24.5l-24 -219q-18 -8 -44.5 -10.5t-49.5 -2.5l-24 22l75 621l-70 6v47q38 12 82.5 21.5t85.5 11.5l23 -22l-53 -270l11 -3q27 88 50.5 146
t48 92t53 47.5t66.5 13.5zM317 55q22 28 38 65t26.5 77t15 80.5t4.5 76.5q0 49 -10.5 67t-37.5 18q-5 0 -11 -0.5t-14 -1.5q-17 -22 -33.5 -53.5t-34.5 -76t-38 -104t-43 -137.5q38 -20 83 -20q15 0 29.5 2.5t25.5 6.5z" />
    <glyph glyph-name="q" unicode="q" horiz-adv-x="557" 
d="M499 -143l-6 -47q-35 -9 -76.5 -15t-79.5 -8l-24 22l29 210q5 38 12 76t14.5 72.5t14.5 64t12 51.5l-12 2q-28 -88 -51 -145.5t-47 -91.5t-52.5 -47.5t-65.5 -13.5q-30 0 -54.5 8t-42 28t-27 53.5t-9.5 84.5q0 61 15 124.5t46.5 115.5t80 85.5t115.5 33.5q33 0 61.5 -9
t47.5 -29l8 29q16 5 38 7t42 2l25 -22l-73 -626zM237 70q17 22 33.5 54t34.5 77t37 104t42 135q-18 11 -38.5 16.5t-40.5 5.5q-16 0 -30 -3t-25 -6q-23 -29 -39 -65.5t-26.5 -77t-15.5 -81t-5 -76.5q0 -48 11 -66.5t37 -18.5q5 0 11 0.5t14 1.5z" />
    <glyph glyph-name="r" unicode="r" horiz-adv-x="405" 
d="M312 403q-18 -31 -35.5 -70t-35 -88t-35.5 -109.5t-39 -135.5q-19 -5 -43.5 -7.5t-47.5 -2.5l-24 22l50 418l-70 6v47q35 12 80.5 21.5t87.5 11.5l23 -22l-50 -273l11 -3q24 78 43.5 135t39.5 94t43 55t53 18q22 0 34.5 -8.5t21.5 -22.5l-15 -92z" />
    <glyph glyph-name="s" unicode="s" horiz-adv-x="407" 
d="M256 290q24 -20 43.5 -37.5t33.5 -35.5t22 -38.5t8 -45.5q0 -68 -52 -107t-137 -39q-63 0 -107 22t-55 69l54 62l131 -93q22 3 37 10q8 11 11 23t3 24q0 15 -5 27t-15 24t-25.5 25.5t-37.5 31.5q-25 21 -45 39.5t-34.5 37t-22 38.5t-7.5 45q0 36 15 63.5t41 46t61.5 28.5
t76.5 10q56 0 96.5 -18.5t51.5 -59.5l-48 -60l-125 79q-25 -3 -40 -10q-8 -9 -13 -22.5t-5 -29.5q0 -15 5 -26.5t15.5 -23.5t27.5 -26t41 -33z" />
    <glyph glyph-name="t" unicode="t" horiz-adv-x="351" 
d="M352 468l-8 -34h-122q-8 -57 -15 -112.5t-12.5 -105t-9.5 -89.5t-5 -65q32 0 67.5 8t63.5 19l9 -46q-17 -12 -38.5 -22.5t-44.5 -18t-46 -11.5t-42 -4q-41 0 -63.5 19t-22.5 67q0 19 3.5 57t9.5 86.5t13.5 103t16.5 106.5l-59 10v47q15 5 34 10t39 8q6 34 12.5 61
t12.5 47q20 7 42.5 12.5t40.5 7.5l17 -17l-15 -116h122v-28z" />
    <glyph glyph-name="u" unicode="u" horiz-adv-x="589" 
d="M573 46q-32 -25 -71 -40.5t-72 -15.5q-29 0 -47 13.5t-18 42.5q0 24 11.5 78.5t28.5 152.5l-11 2q-27 -85 -50 -141t-46.5 -89.5t-51.5 -47.5t-65 -14q-57 0 -87.5 28.5t-30.5 89.5q0 24 4.5 61t11 80.5t15 91t16.5 92.5l-70 6v47q38 12 85 21.5t88 11.5l23 -21
q-2 -15 -7 -44t-11 -65.5t-12.5 -76t-12 -76.5t-9 -67t-3.5 -47q0 -26 10 -38.5t36 -12.5h9q6 0 13 1q37 49 79.5 156t90.5 282q19 5 42 7.5t46 2.5l25 -22l-52 -429q20 0 42 7.5t42 18.5z" />
    <glyph glyph-name="v" unicode="v" horiz-adv-x="520" 
d="M423 520q19 -6 33 -18t23 -28.5t13 -36t4 -38.5q0 -35 -13.5 -79t-37 -90t-55 -89.5t-68 -77.5t-76.5 -55t-79 -21q-42 0 -73 27.5t-31 89.5q0 22 4 59t11 81.5t15.5 92.5t16.5 93l-70 6v47q38 12 84 21.5t88 11.5l23 -22q-5 -32 -13.5 -83.5t-17 -106t-15 -103.5
t-6.5 -76q0 -29 10 -43t39 -14h9q5 0 10 1q52 48 95 119t69 159l-68 130z" />
    <glyph glyph-name="w" unicode="w" horiz-adv-x="812" 
d="M715 520q19 -6 32.5 -18t22.5 -28.5t13.5 -36t4.5 -38.5q0 -35 -13.5 -79t-37 -90t-55.5 -89.5t-69 -77.5t-77 -55t-80 -21t-65 22.5t-25 68.5q0 22 5.5 47t13.5 54l-11 3q-42 -100 -90.5 -147.5t-109.5 -47.5q-47 0 -79 28t-32 90q0 22 4 58.5t11 81t15.5 92.5t16.5 93
l-70 6v47q38 12 84 21.5t88 11.5l23 -22q-3 -17 -8 -46.5t-10.5 -65t-11.5 -73.5t-11 -73.5t-8 -65t-3 -46.5q0 -27 10.5 -41.5t40.5 -14.5l15 1q39 45 72 110t59 144q6 51 13 96t16 87q19 5 44 7.5t48 2.5l24 -22q0 -32 -8.5 -75.5t-24.5 -92.5q-3 -29 -5.5 -58.5
t-4.5 -56.5t-3.5 -49.5t-1.5 -36.5q0 -29 9 -43t38 -14h8q4 0 9 1q52 48 94.5 119t71.5 159l-68 130z" />
    <glyph glyph-name="x" unicode="x" horiz-adv-x="510" 
d="M401 67q20 2 40 9t39 16l10 -46q-29 -26 -62 -41t-66 -15q-22 0 -37.5 6t-26.5 17t-19.5 26.5t-16.5 35.5q-6 16 -12.5 34t-11.5 34.5t-9 30.5t-5 22h-11q-27 -105 -66 -156t-96 -51q-25 0 -41 9t-27 25l16 71l85 -8q26 29 53 71.5t52 93.5q-16 49 -30 92.5t-30 85.5
l-84 7v47q16 6 37 11.5t43.5 10t45 7.5t42.5 4l22 -22q11 -36 24 -82.5t24 -91.5h10q10 43 25.5 79.5t35 62.5t43.5 40.5t52 14.5q15 0 28 -3.5t21 -9.5l8 -81l-104 -21q-18 -20 -40 -53.5t-48 -79.5q20 -60 40.5 -108t46.5 -94z" />
    <glyph glyph-name="y" unicode="y" horiz-adv-x="521" 
d="M421 520q33 -10 54 -41.5t21 -81.5q0 -40 -14 -91.5t-40 -108.5t-63 -117t-83 -117q-63 -78 -126.5 -127t-120.5 -49q-28 0 -57.5 12t-52.5 36l15 49q29 -8 65.5 -16t78.5 -9q45 29 85 70q-12 66 -25.5 133.5t-27 132.5t-27 125t-25.5 110l-70 6v47q38 13 78 22t80 11
l24 -22q13 -60 26 -121.5t24 -120.5t19.5 -113t12.5 -100h12q18 26 38 61.5t38 76t32.5 84t22.5 85.5l-70 132z" />
    <glyph glyph-name="z" unicode="z" horiz-adv-x="438" 
d="M399 166q2 -19 2.5 -41.5t0.5 -36.5q0 -54 -20 -82.5t-65 -28.5q-21 0 -48.5 5t-57.5 13.5t-61 20t-59 24.5l-44 -57q-14 2 -27.5 7.5t-24.5 11.5l-8 15l292 379l-151 8l-17 -66h-64q-3 19 -3 42.5t2.5 48t8 47.5t13.5 41q74 0 142 -12t125 -35l37 48q14 -2 27.5 -7.5
t24.5 -11.5l8 -14l-286 -373q48 -10 91 -15t75 -6l27 82z" />
    <glyph glyph-name="braceleft" unicode="{" horiz-adv-x="308" 
d="M195 666q4 -32 9.5 -68.5t10.5 -72.5t8 -67.5t3 -53.5q0 -24 -5 -41.5t-17.5 -30.5t-35.5 -21.5t-59 -14.5v-11q57 -8 79.5 -26.5t22.5 -49.5q0 -20 -7.5 -55.5t-19.5 -78t-26.5 -88t-27.5 -87.5l100 -25l-5 -50q-14 -2 -28.5 -3t-29.5 -1q-23 0 -45 3.5t-39 12.5
t-27.5 24t-10.5 38q0 16 5.5 42t16 65.5t25.5 93t35 125.5l-79 37v4l4 54l84 37q-11 103 -20.5 172t-9.5 103q0 33 9.5 55t26.5 35t40 18t49 5q15 0 31 -1.5t32 -3.5l-1 -49z" />
    <glyph glyph-name="bar" unicode="|" horiz-adv-x="274" 
d="M107 -120v870h74v-870h-74z" />
    <glyph glyph-name="braceright" unicode="}" horiz-adv-x="299" 
d="M257 262l-86 -38q11 -107 20.5 -181t9.5 -109q0 -34 -9.5 -56t-26.5 -35t-40 -18.5t-50 -5.5q-14 0 -29.5 1.5t-31.5 3.5l1 50l98 25q-5 33 -10.5 72.5t-10 77.5t-7.5 71.5t-3 56.5q0 24 5 42t18 30.5t36 21t59 14.5v11q-28 5 -46.5 12t-29.5 16.5t-15.5 22t-4.5 28.5
q0 23 8 57t20 73t26.5 80.5t27.5 79.5l-100 25l4 50q14 2 28.5 3t28.5 1q24 0 46 -3.5t39.5 -12.5t28 -24t10.5 -38q0 -16 -5.5 -41t-16 -62t-26 -88t-35.5 -118l73 -37z" />
    <glyph glyph-name="asciitilde" unicode="~" 
d="M546 329q-8 -20 -20.5 -42.5t-29.5 -42t-38.5 -32.5t-47.5 -13q-19 0 -38.5 9t-58.5 34q-20 11 -51.5 29t-63.5 38l-83 -85l-36 29q8 21 20.5 43.5t30 42t39 32t47.5 12.5q16 0 36 -8.5t61 -34.5q29 -17 58.5 -33.5t56.5 -33.5l82 84z" />
    <glyph glyph-name="uni00A0" unicode="&#xa0;" horiz-adv-x="250" 
 />
    <glyph glyph-name="exclamdown" unicode="&#xa1;" horiz-adv-x="277" 
d="M174 520q24 0 44 -6q10 -19 10 -44q0 -20 -6.5 -39t-20.5 -42h-95l-6 118q14 5 33.5 9t40.5 4zM184 328q1 -50 1.5 -110.5t-1.5 -123t-6 -123t-10 -111.5q-31 -9 -56.5 -13.5t-57.5 -4.5l-22 23q10 50 20.5 109t21.5 120t21.5 121t19.5 113h69z" />
    <glyph glyph-name="cent" unicode="&#xa2;" horiz-adv-x="478" 
d="M315 503q-12 -93 -21 -197q-5 -51 -8.5 -99.5t-7.5 -93.5q29 2 66 16.5t77 43.5l13 -45q-32 -35 -73 -60t-88 -34l-7 -104l-52 -8l-15 9l12 98q-43 2 -75 18.5t-53 45t-31.5 67t-10.5 83.5q0 53 14 107t41.5 98.5t69 75.5t96.5 37q2 27 3.5 53t3.5 51l52 8l15 -9
l-14 -105q15 -2 27 -7t22 -11l2 14q33 10 67 10l26 -19q1 -5 1.5 -12t0.5 -16q0 -28 -5.5 -67.5t-14.5 -74.5h-70l-10 116q-27 9 -53 11zM172 252q0 -54 14 -84t37 -44q5 42 10 86.5t10 91.5q5 54 8.5 103t6.5 95q-9 -3 -18 -8q-18 -20 -31 -50t-21 -63.5t-12 -67t-4 -59.5z
" />
    <glyph glyph-name="sterling" unicode="&#xa3;" horiz-adv-x="562" 
d="M502 167q2 -13 4 -31t2 -35q0 -40 -14.5 -76t-46.5 -66q-84 4 -163.5 22.5t-140.5 50.5l-91 -58l-43 50q-1 45 23.5 62.5t69.5 17.5q26 25 36.5 53t10.5 57q0 14 -2 28.5t-5 30.5h-88v19l4 38h73q-3 18 -5.5 36.5t-2.5 37.5q0 43 14.5 80.5t42 66t68.5 45t95 16.5
q26 0 47 -4.5t39 -12.5l1 8q17 5 33 7t34 2l26 -19q1 -5 1.5 -11.5t0.5 -16.5q0 -27 -5.5 -67t-14.5 -78h-70l-10 123q-15 4 -30 5.5t-29 1.5q-19 0 -39 -3.5t-33 -10.5q-20 -19 -29 -50.5t-9 -60.5q0 -21 3.5 -45t8.5 -50h131v-19l-4 -38h-119q1 -8 1.5 -16.5t0.5 -16.5
q0 -26 -5.5 -47.5t-19.5 -40t-37 -35.5t-58 -32l3 -10q31 -5 64 -7.5t64 -4t59 -1.5t50 1l36 113z" />
    <glyph glyph-name="currency" unicode="&#xa4;" horiz-adv-x="533" 
d="M454 312q0 -29 -9.5 -60.5t-30.5 -60.5l73 -83l-58 -55l-76 87q-20 -10 -44 -15.5t-53 -5.5q-60 0 -101 25l-91 -86l-50 54l90 84q-18 33 -18 74q0 30 11 63.5t36 62.5l-74 86l59 54l79 -93q20 8 42.5 13t49.5 5q55 0 92 -20l97 90l47 -56l-91 -84q20 -35 20 -79z
M305 189q23 17 32 51.5t9 78.5q-1 37 -12.5 59t-51.5 22q-11 0 -22 -1.5t-23 -6.5q-20 -15 -30.5 -49t-10.5 -79q0 -42 12.5 -63t48.5 -21q22 0 48 9z" />
    <glyph glyph-name="yen" unicode="&#xa5;" horiz-adv-x="622" 
d="M626 550q-16 -7 -35.5 -13.5t-36.5 -8.5q-49 -95 -108 -185h93v-19l-5 -38h-125l-38 -55l-2 -26h154v-19l-4 -37h-156l-8 -91l82 -7v-23l-4 -28h-294v49q14 8 41.5 13.5t47.5 7.5l8 79h-158v19l4 37h159l2 26l-20 55h-130v19l4 38h104q-20 51 -40.5 101.5t-39.5 96.5
l-63 7v23l3 28h268v-49q-13 -6 -34 -12t-38 -8q10 -27 21 -57.5t21.5 -61t20 -60t17.5 -54.5h12q34 52 70.5 116.5t64.5 127.5l-63 7v23l3 28h202v-49z" />
    <glyph glyph-name="brokenbar" unicode="&#xa6;" horiz-adv-x="274" 
d="M107 442v308h74v-308h-74zM107 -120v308h74v-308h-74z" />
    <glyph glyph-name="section" unicode="&#xa7;" horiz-adv-x="502" 
d="M477 227q0 -93 -115 -129q23 -38 23 -80q0 -35 -15 -63.5t-40.5 -48t-59.5 -30t-73 -10.5q-66 0 -100.5 28.5t-34.5 73.5q0 23 8 38.5t22 26.5h62l11 -110q19 -3 34 -3q19 0 38.5 4t33.5 12q14 22 14 52q0 31 -27 60.5t-84 74.5q-37 31 -64 56t-45 47t-26.5 44t-8.5 47
q0 93 115 129q-23 38 -23 80q0 35 15 63.5t40.5 48t60 30t72.5 10.5q66 0 101 -28.5t35 -73.5q0 -23 -8.5 -38.5t-21.5 -26.5h-63l-10 110q-20 3 -34 3q-20 0 -39.5 -4t-33.5 -12q-6 -11 -10 -24t-4 -28q0 -16 7 -30.5t20.5 -30.5t34.5 -34t49 -40q37 -31 64 -56t45 -47
t26.5 -44t8.5 -47zM337 132q20 15 29.5 28.5t9.5 35.5q0 17 -6 30.5t-20.5 28.5t-39 35t-60.5 49q-24 19 -44 36.5t-36 36.5q-20 -15 -29 -28.5t-9 -35.5q0 -17 6 -30.5t20.5 -28.5t39 -35t60.5 -49q23 -19 43 -36.5t36 -36.5z" />
    <glyph glyph-name="dieresis" unicode="&#xa8;" horiz-adv-x="377" 
d="M150 731q10 0 20 -1.5t17 -4.5q5 -10 7.5 -19t2.5 -22q0 -20 -6.5 -37t-18.5 -36h-82l-7 107q14 5 31 9t36 4zM349 731q22 0 37 -6q5 -9 7.5 -18t2.5 -22q0 -20 -6.5 -37t-18.5 -37h-82l-7 107q14 5 31 9t36 4z" />
    <glyph glyph-name="copyright" unicode="&#xa9;" horiz-adv-x="771" 
d="M412 678q73 0 133 -20t103.5 -60t67.5 -99.5t24 -137.5q0 -75 -23.5 -143t-69.5 -119.5t-114.5 -81.5t-159.5 -30q-75 0 -134.5 21t-101.5 61.5t-64.5 99.5t-22.5 135q0 74 22 142t67 119.5t113 82t160 30.5zM377 44q72 0 125.5 26t89 70t52.5 100.5t17 118.5
q0 64 -18.5 113t-51.5 82t-79.5 50t-103.5 17q-73 0 -126 -26.5t-87 -70.5t-50 -100.5t-16 -116.5q0 -65 17.5 -114t50 -82t78 -50t102.5 -17zM423 483q-6 -1 -12.5 -2t-11.5 -3q-21 -23 -36 -68.5t-15 -102.5q0 -21 3.5 -40t11.5 -33.5t22.5 -22.5t37.5 -8q24 0 47 9t53 26
l10 -40q-23 -25 -63 -46t-94 -21q-71 0 -106 42t-35 118q0 46 13 90t39 78.5t64 55.5t88 21q19 0 38.5 -4t36 -12.5t27.5 -22t14 -32.5l-50 -50z" />
    <glyph glyph-name="ordfeminine" unicode="&#xaa;" horiz-adv-x="394" 
d="M398 253q-21 -18 -47.5 -27.5t-49.5 -9.5q-21 0 -33.5 8t-12.5 28q0 17 8.5 54t23.5 104l-11 3q-19 -60 -33.5 -98.5t-29.5 -61t-33.5 -31t-46.5 -8.5q-45 0 -69.5 24t-24.5 90q0 40 10 81.5t31.5 76t55 56.5t80.5 22t71 -24l6 18q11 4 28 5t32 1l16 -14l-33 -281
q13 0 27.5 4.5t27.5 12.5zM182 274q21 29 43.5 83.5t50.5 147.5q-23 15 -50 15q-10 0 -19.5 -2t-17.5 -4q-15 -19 -26 -42.5t-18 -48t-10.5 -49.5t-3.5 -48q0 -30 7.5 -42t25.5 -12q4 0 8.5 0.5t9.5 1.5z" />
    <glyph glyph-name="guillemotleft" unicode="&#xab;" horiz-adv-x="517" 
d="M381 276l56 -162l-54 -34l-125 178v32l167 178l47 -35zM175 276l56 -162l-54 -34l-125 178v32l167 178l47 -35z" />
    <glyph glyph-name="logicalnot" unicode="&#xac;" 
d="M487 86h-80l21 174h-338v26l6 48h398l19 -26z" />
    <glyph glyph-name="uni00AD" unicode="&#xad;" horiz-adv-x="319" 
d="M276 256h-228v29l6 52h228v-28z" />
    <glyph glyph-name="registered" unicode="&#xae;" horiz-adv-x="611" 
d="M342 721q58 0 104.5 -16.5t78.5 -47t49.5 -75t17.5 -100.5q0 -55 -18 -103.5t-52.5 -85t-85 -57.5t-116.5 -21q-57 0 -103 16t-79 46t-51 74.5t-18 101.5q0 55 17.5 104t52 85.5t85.5 57.5t118 21zM339 674q-54 0 -93.5 -18t-65 -48t-37.5 -70t-12 -83q0 -94 51 -144
t141 -50q54 0 93 18t64.5 48t38 70t12.5 84q0 94 -51.5 143.5t-140.5 49.5zM326 607q61 0 90 -16.5t29 -54.5q0 -32 -17.5 -50.5t-42.5 -28.5q11 -22 21.5 -44t19.5 -36l31 1l2 -26q-12 -7 -23.5 -11t-25.5 -4q-21 0 -32 8t-19 22q-7 13 -14 33t-13 46h-28l-8 -76l31 -3v-13
l-1 -13h-120v25q6 2 15 4t17 4l18 195l-30 3v15l3 14q23 3 50 4.5t47 1.5zM306 479h44q10 9 18 22t8 33q0 40 -43 40h-19z" />
    <glyph glyph-name="macron" unicode="&#xaf;" horiz-adv-x="325" 
d="M340 698q2 -6 2 -22q0 -10 -2 -25.5t-9 -30.5h-254q-2 6 -2 22q0 10 2.5 26t8.5 30h254z" />
    <glyph glyph-name="degree" unicode="&#xb0;" horiz-adv-x="354" 
d="M226 744q33 0 59.5 -11t45 -30.5t29 -45.5t10.5 -55q0 -32 -12.5 -60.5t-34.5 -49.5t-52 -33t-64 -12q-33 0 -59.5 11t-45 30t-29 45t-10.5 55q0 32 12.5 60.5t34.5 49.5t51.5 33.5t64.5 12.5zM222 674q-12 0 -24.5 -3t-22.5 -8q-14 -11 -22 -29t-8 -41q0 -36 18.5 -56
t49.5 -20q11 0 23.5 3t22.5 8q14 11 22 29t8 41q0 36 -19 56t-48 20z" />
    <glyph glyph-name="plusminus" unicode="&#xb1;" 
d="M367 385h156v-28l-6 -46h-160l-18 -153h-59l-24 9l17 144h-157v26l6 48h160l18 152h57l27 -8zM481 0h-401l-1 26l5 48h402v-27z" />
    <glyph glyph-name="uni00B2" unicode="&#xb2;" horiz-adv-x="301" 
d="M301 493q3 -18 3 -40q0 -21 -4.5 -40.5t-11.5 -30.5h-36q-38 1 -82.5 7t-77.5 17l-33 -24q-8 2 -16.5 7.5t-13.5 10.5l-1 13q37 30 70 56t58.5 50.5t40.5 49t15 50.5t-14 37t-33 11q-20 0 -33 -11t-13 -32q0 -12 5 -32l-41 -11q-12 13 -19 27t-7 32q0 38 35 65.5t95 27.5
q56 0 90.5 -25t34.5 -70q0 -46 -42 -90t-121 -93h96l10 39z" />
    <glyph glyph-name="uni00B3" unicode="&#xb3;" horiz-adv-x="308" 
d="M233 557q28 -4 49.5 -19t21.5 -51q0 -45 -38.5 -75t-110.5 -30q-28 0 -55 5.5t-53 19.5l4 34q16 -2 34 -3t31 -1q48 0 67.5 12.5t19.5 40.5q0 32 -30 43q-26 -10 -50 -13l-12 9q-1 5 -1.5 10.5t-0.5 11.5q0 7 0.5 11.5t0.5 7.5q7 3 17.5 4t18.5 1q5 0 10.5 -0.5
t10.5 -1.5q20 10 33.5 23.5t13.5 34.5q0 23 -14 31t-32 8q-28 0 -38.5 -14t-10.5 -32v-9l-41 -2q-7 11 -11 21t-4 21q0 14 8 28t23.5 25t39.5 18t57 7q53 0 87 -21t34 -65q0 -21 -8 -35t-20 -22.5t-25.5 -13.5t-25.5 -8v-11z" />
    <glyph glyph-name="acute" unicode="&#xb4;" horiz-adv-x="254" 
d="M233 778q14 -10 26 -26.5t18 -36.5l-155 -142h-55l104 205h62z" />
    <glyph glyph-name="mu" unicode="&#xb5;" horiz-adv-x="589" 
d="M573 46q-32 -25 -71 -40.5t-72 -15.5q-29 0 -47 13.5t-18 42.5q0 24 11.5 78.5t28.5 152.5l-11 2q-26 -85 -48 -141t-44.5 -89.5t-47.5 -47.5t-56 -14q-25 0 -39.5 10t-25.5 31l-10 -5q9 -57 18 -109t11 -115q-21 -8 -48.5 -10t-56.5 -2l-15 19q6 92 15 180t19.5 168
t22 150t21.5 126l-70 6v47q38 12 84.5 21.5t88.5 11.5l23 -21q-2 -15 -7 -44t-11 -65.5t-12.5 -76t-12 -76.5t-9 -67t-3.5 -47q0 -26 10 -38.5t36 -12.5h9q6 0 13 1q37 49 79.5 156t90.5 282q19 5 42 7.5t46 2.5l25 -22l-52 -429q20 0 42 7.5t42 18.5z" />
    <glyph glyph-name="paragraph" unicode="&#xb6;" horiz-adv-x="568" 
d="M272 209q-111 0 -170.5 51t-59.5 150q0 39 12 84t42.5 82.5t83 63t133.5 25.5h60l-43 -456h-58zM590 616q-17 -8 -40 -14t-42 -8l-45 -482q-10 -104 -61.5 -149.5t-137.5 -45.5q-47 0 -93.5 13t-76.5 40l25 44q29 -15 64.5 -25.5t77.5 -10.5q28 0 51.5 6.5t40.5 21.5
t28 39.5t14 61.5l52 558h143v-49z" />
    <glyph glyph-name="periodcentered" unicode="&#xb7;" horiz-adv-x="249" 
d="M143 372q13 0 26.5 -1.5t21.5 -4.5q11 -20 11 -48q0 -23 -8 -46t-22 -46h-101l-6 133q14 5 34.5 9t43.5 4z" />
    <glyph glyph-name="cedilla" unicode="&#xb8;" horiz-adv-x="267" 
d="M117 -62q32 -1 54.5 -13t22.5 -47q0 -38 -30 -64.5t-88 -26.5q-62 0 -95 30l12 41q16 -5 31 -9t30 -4q22 0 34 10.5t12 27.5q0 14 -10.5 19.5t-43.5 11.5h-1l26 92h53z" />
    <glyph glyph-name="uni00B9" unicode="&#xb9;" horiz-adv-x="235" 
d="M245 406l-2 -16h-194v31q28 11 55 13l20 209q-14 -2 -27.5 -3t-26.5 -1v18l3 27q23 2 54.5 13.5t52.5 35.5l42 -8l-28 -298l51 -6v-15z" />
    <glyph glyph-name="ordmasculine" unicode="&#xba;" horiz-adv-x="371" 
d="M224 564q74 0 108.5 -39.5t34.5 -101.5q0 -32 -9.5 -68.5t-31.5 -67.5t-58 -52t-90 -21q-37 0 -63.5 10.5t-44 29t-26 44.5t-8.5 57q0 32 9.5 68.5t31 68t57.5 52t90 20.5zM216 518q-9 0 -18 -1.5t-17 -5.5q-12 -13 -21 -34t-14.5 -45t-8.5 -49t-3 -46q0 -77 53 -77
q9 0 18.5 1.5t17.5 5.5q12 12 20.5 33.5t14.5 45.5t9 49t3 45q0 41 -13.5 59.5t-40.5 18.5z" />
    <glyph glyph-name="guillemotright" unicode="&#xbb;" horiz-adv-x="515" 
d="M451 258l-168 -178l-46 34l91 157l-55 162l53 35l125 -178v-32zM246 258l-168 -178l-46 34l91 157l-55 162l53 35l125 -178v-32z" />
    <glyph glyph-name="onequarter" unicode="&#xbc;" horiz-adv-x="791" 
d="M645 650q-59 -81 -117.5 -164t-114.5 -164q-55 -81 -109.5 -170.5t-112.5 -174.5l-49 21l-6 17q59 81 118 166t116 166q55 81 108.5 168.5t110.5 172.5l50 -22zM259 281l-2 -18h-224v34q16 6 35 9.5t36 5.5l28 267q-17 -4 -35 -5.5t-35 -1.5v20l3 28q27 1 63 15t61 43
l42 -8l-38 -366l67 -7zM764 116l-4 -35h-54l-7 -80h-89q2 20 3.5 40t3.5 40h-165l-15 38q28 56 52.5 108t46.5 109l-16 72l72 21q36 -25 36 -65q0 -16 -7 -36t-22 -46.5t-38.5 -61.5t-56.5 -81l3 -7q20 2 38 4t36 2h42l6 52q3 26 8 53q30 17 70 25l21 -10q-5 -31 -8.5 -60.5
t-7.5 -59.5h52v-22z" />
    <glyph glyph-name="onehalf" unicode="&#xbd;" horiz-adv-x="824" 
d="M645 650q-59 -81 -117.5 -164t-114.5 -164q-55 -81 -109.5 -170.5t-112.5 -174.5l-49 21l-6 17q59 81 118 166t116 166q55 81 108.5 168.5t110.5 172.5l50 -22zM259 281l-2 -18h-224v34q16 6 35 9.5t36 5.5l28 267q-17 -4 -35 -5.5t-35 -1.5v20l3 28q27 1 63 15t61 43
l42 -8l-38 -366l67 -7zM778 110q4 -20 4 -42q0 -24 -5 -45.5t-13 -34.5h-40q-21 0 -45.5 2t-49 5.5t-48 8.5t-41.5 11l-35 -26q-8 2 -17.5 7.5t-14.5 10.5l-1 14q41 33 80.5 65t70 64t49.5 65t19 67q0 35 -16.5 48.5t-42.5 13.5q-25 0 -42 -13.5t-17 -42.5q0 -17 6 -38
l-40 -13q-14 15 -21.5 30.5t-7.5 35.5q0 46 39 78t104 32q62 0 100.5 -30.5t38.5 -83.5q0 -60 -52 -117t-143 -118h122l12 47z" />
    <glyph glyph-name="threequarters" unicode="&#xbe;" horiz-adv-x="841" 
d="M695 650q-59 -81 -117.5 -164t-114.5 -164q-55 -81 -109.5 -170.5t-112.5 -174.5l-49 21l-6 17q59 81 118 166t116 166q55 81 108.5 168.5t110.5 172.5l50 -22zM240 467q42 -8 62 -28t20 -58q0 -56 -43 -92t-126 -36q-30 0 -60.5 6t-59.5 20l5 35q17 -2 32.5 -3t29.5 -1
q35 0 58 5t37 15t20 24t6 31q0 20 -8.5 33t-34.5 22q-14 -5 -28 -9t-27 -6l-12 10q-4 9 -4 24q0 12 3 21q7 4 19.5 5.5t23.5 1.5q6 0 11.5 -0.5t10.5 -1.5q24 14 41.5 33t17.5 47q0 26 -16.5 36.5t-40.5 10.5q-38 0 -51.5 -19t-13.5 -43v-12l-42 -2q-15 25 -15 47q0 18 9 35
t27 30.5t44 21.5t60 8q64 0 101 -28t37 -76q0 -23 -8.5 -39t-21.5 -27.5t-30 -18.5t-33 -11v-11zM814 116l-4 -35h-54l-7 -80h-89q2 20 3.5 40t3.5 40h-165l-15 38q28 56 52.5 108t46.5 109l-16 72l72 21q36 -25 36 -65q0 -16 -7 -36t-22 -46.5t-38.5 -61.5t-56.5 -81l3 -7
q20 2 38 4t36 2h42l6 52q3 26 8 53q30 17 70 25l21 -10q-5 -31 -8.5 -60.5t-7.5 -59.5h52v-22z" />
    <glyph glyph-name="questiondown" unicode="&#xbf;" horiz-adv-x="364" 
d="M192 131q-30 -15 -51.5 -26.5t-35 -23t-20 -25t-6.5 -31.5v-12q0 -7 2 -16q29 -17 81 -27t120 -9l-10 -106q-16 -3 -33 -5.5t-37 -2.5q-50 0 -83.5 16.5t-54 44.5t-29.5 63.5t-9 74.5q0 24 5 48.5t22.5 50t51.5 51t91 51.5l12 81h71q7 -18 12 -38.5t5 -45.5
q0 -24 -5.5 -39.5t-18 -27.5t-32.5 -22.5t-48 -23.5zM313 514q10 -19 10 -44q0 -20 -6.5 -39t-20.5 -42h-95l-6 118q14 5 33.5 9t40.5 4q24 0 44 -6z" />
    <glyph glyph-name="Agrave" unicode="&#xc0;" horiz-adv-x="648" 
d="M623 28l-3 -28h-265v49q14 8 34 13.5t36 7.5q-7 30 -13.5 59.5t-13.5 59.5h-214q-13 -33 -25.5 -65.5t-25.5 -65.5l68 -7v-23l-4 -28h-206v49q14 8 34.5 13.5t36.5 7.5q57 138 118 274.5t125 272.5l-10 46l26 22q29 0 52.5 -2.5t46.5 -8.5q33 -156 66.5 -309.5
t73.5 -307.5l63 -6v-23zM384 253q-14 65 -26.5 129t-25.5 128h-11q-29 -65 -56.5 -128.5t-54.5 -128.5h174zM321 719l-121 118q11 20 26 36.5t33 25.5h62l61 -180h-61z" />
    <glyph glyph-name="Aacute" unicode="&#xc1;" horiz-adv-x="648" 
d="M623 28l-3 -28h-265v49q14 8 34 13.5t36 7.5q-7 30 -13.5 59.5t-13.5 59.5h-214q-13 -33 -25.5 -65.5t-25.5 -65.5l68 -7v-23l-4 -28h-206v49q14 8 34.5 13.5t36.5 7.5q57 138 118 274.5t125 272.5l-10 46l26 22q29 0 52.5 -2.5t46.5 -8.5q33 -156 66.5 -309.5
t73.5 -307.5l63 -6v-23zM384 253q-14 65 -26.5 129t-25.5 128h-11q-29 -65 -56.5 -128.5t-54.5 -128.5h174zM494 900q32 -19 44 -62l-157 -119h-61l113 181h61z" />
    <glyph glyph-name="Acircumflex" unicode="&#xc2;" horiz-adv-x="648" 
d="M623 28l-3 -28h-265v49q14 8 34 13.5t36 7.5q-7 30 -13.5 59.5t-13.5 59.5h-214q-13 -33 -25.5 -65.5t-25.5 -65.5l68 -7v-23l-4 -28h-206v49q14 8 34.5 13.5t36.5 7.5q57 138 118 274.5t125 272.5l-10 46l26 22q29 0 52.5 -2.5t46.5 -8.5q33 -156 66.5 -309.5
t73.5 -307.5l63 -6v-23zM384 253q-14 65 -26.5 129t-25.5 128h-11q-29 -65 -56.5 -128.5t-54.5 -128.5h174zM436 707l-82 94h-9l-90 -82h-59l154 172h71l93 -140z" />
    <glyph glyph-name="Atilde" unicode="&#xc3;" horiz-adv-x="648" 
d="M623 28l-3 -28h-265v49q14 8 34 13.5t36 7.5q-7 30 -13.5 59.5t-13.5 59.5h-214q-13 -33 -25.5 -65.5t-25.5 -65.5l68 -7v-23l-4 -28h-206v49q14 8 34.5 13.5t36.5 7.5q57 138 118 274.5t125 272.5l-10 46l26 22q29 0 52.5 -2.5t46.5 -8.5q33 -156 66.5 -309.5
t73.5 -307.5l63 -6v-23zM384 253q-14 65 -26.5 129t-25.5 128h-11q-29 -65 -56.5 -128.5t-54.5 -128.5h174zM525 842q-7 -21 -17 -40t-23.5 -33.5t-30.5 -23.5t-38 -9q-26 0 -58 17l-76 38l-51 -53l-29 26q7 21 16.5 40t23 33.5t31 23t38.5 8.5q26 0 56 -15l77 -40l52 54z
" />
    <glyph glyph-name="Adieresis" unicode="&#xc4;" horiz-adv-x="648" 
d="M623 28l-3 -28h-265v49q14 8 34 13.5t36 7.5q-7 30 -13.5 59.5t-13.5 59.5h-214q-13 -33 -25.5 -65.5t-25.5 -65.5l68 -7v-23l-4 -28h-206v49q14 8 34.5 13.5t36.5 7.5q57 138 118 274.5t125 272.5l-10 46l26 22q29 0 52.5 -2.5t46.5 -8.5q33 -156 66.5 -309.5
t73.5 -307.5l63 -6v-23zM384 253q-14 65 -26.5 129t-25.5 128h-11q-29 -65 -56.5 -128.5t-54.5 -128.5h174zM260 861q10 0 19.5 -1t17.5 -5q10 -16 10 -40q0 -19 -5.5 -37t-18.5 -38h-83l-8 108q14 5 31.5 9t36.5 4zM490 861q10 0 19 -1t17 -5q10 -14 10 -39q0 -19 -5 -37.5
t-18 -38.5h-84l-7 108q14 5 31 9t37 4z" />
    <glyph glyph-name="Aring" unicode="&#xc5;" horiz-adv-x="648" 
d="M623 28l-3 -28h-265v49q14 8 34 13.5t36 7.5q-7 30 -13.5 59.5t-13.5 59.5h-214q-13 -33 -25.5 -65.5t-25.5 -65.5l68 -7v-23l-4 -28h-206v49q14 8 34.5 13.5t36.5 7.5q57 138 118 274.5t125 272.5l-10 46l26 22q29 0 52.5 -2.5t46.5 -8.5q33 -156 66.5 -309.5
t73.5 -307.5l63 -6v-23zM384 253q-14 65 -26.5 129t-25.5 128h-11q-29 -65 -56.5 -128.5t-54.5 -128.5h174zM379 906q48 0 73.5 -20.5t25.5 -62.5q0 -48 -33 -77.5t-94 -29.5q-48 0 -74 21t-26 62q0 48 34 77.5t94 29.5zM372 859q-16 0 -26 -6q-16 -22 -16 -52q0 -38 29 -38
q13 0 25 7q8 10 12.5 23.5t4.5 29.5q0 20 -7.5 28t-21.5 8z" />
    <glyph glyph-name="AE" unicode="&#xc6;" horiz-adv-x="870" 
d="M538 369l164 8l9 -22l-7 -55l-171 9l-24 -251h186l38 115l74 -6q1 -11 1.5 -21t0.5 -22q0 -32 -5.5 -64t-18.5 -74l-26 -3l-316 17h-140v49q17 7 38 13t41 9l12 121h-200q-17 -35 -34 -69l-33 -66l64 -6v-23l-3 -28h-198v49q12 7 29 12.5t31 8.5q33 64 70.5 134t76.5 140
t77 137.5t73 127.5l-63 3v24l4 29h471q17 5 35 9.5t35 4.5l25 -14q1 -6 1.5 -14t0.5 -19q0 -29 -5 -66.5t-14 -73.5h-72l-9 105l-195 8zM432 600h-20q-38 -68 -86.5 -158t-98.5 -186l173 -1z" />
    <glyph glyph-name="Ccedilla" unicode="&#xc7;" horiz-adv-x="599" 
d="M296 591q-23 -18 -42 -51.5t-33.5 -77t-22.5 -92.5t-8 -98q0 -53 9.5 -90t28 -60t46 -33t64.5 -10q36 0 87 16t100 54l13 -51q-47 -51 -111.5 -81t-131.5 -30q-64 0 -111 20.5t-77.5 57.5t-45 89t-14.5 115q0 72 19.5 145t59.5 131.5t101 95.5t144 37q34 0 58 -7.5
t44 -18.5l2 16q20 5 35.5 8t35.5 3l26 -19q1 -5 1.5 -12t0.5 -17q0 -28 -5.5 -69.5t-14.5 -83.5h-74l-10 119q-22 6 -44.5 9.5t-41.5 3.5q-42 0 -88 -19zM327 -62q32 -1 54 -13t22 -47q0 -38 -29.5 -64.5t-87.5 -26.5q-30 0 -55 8t-41 22l12 41q16 -5 31 -9t30 -4
q22 0 34.5 10.5t12.5 27.5q0 14 -11 19.5t-44 11.5l26 92h53z" />
    <glyph glyph-name="Egrave" unicode="&#xc8;" horiz-adv-x="575" 
d="M246 369l165 8l9 -22l-7 -55l-172 9l-23 -251h182l38 115l74 -6q1 -11 1.5 -21t0.5 -22q0 -32 -5.5 -64t-18.5 -74l-26 -3l-313 17h-137v49q17 7 37.5 12.5t40.5 9.5l48 528l-73 8v24l4 29q63 2 128 3.5t128 1.5h141q17 5 35 9.5t35 4.5l25 -14q1 -6 1.5 -14t0.5 -19
q0 -29 -5 -66.5t-14 -73.5h-72l-9 105l-197 8zM298 719l-121 118q11 20 26 36.5t33 25.5h62l61 -180h-61z" />
    <glyph glyph-name="Eacute" unicode="&#xc9;" horiz-adv-x="575" 
d="M246 369l165 8l9 -22l-7 -55l-172 9l-23 -251h182l38 115l74 -6q1 -11 1.5 -21t0.5 -22q0 -32 -5.5 -64t-18.5 -74l-26 -3l-313 17h-137v49q17 7 37.5 12.5t40.5 9.5l48 528l-73 8v24l4 29q63 2 128 3.5t128 1.5h141q17 5 35 9.5t35 4.5l25 -14q1 -6 1.5 -14t0.5 -19
q0 -29 -5 -66.5t-14 -73.5h-72l-9 105l-197 8zM471 900q32 -19 44 -62l-157 -119h-61l113 181h61z" />
    <glyph glyph-name="Ecircumflex" unicode="&#xca;" horiz-adv-x="575" 
d="M246 369l165 8l9 -22l-7 -55l-172 9l-23 -251h182l38 115l74 -6q1 -11 1.5 -21t0.5 -22q0 -32 -5.5 -64t-18.5 -74l-26 -3l-313 17h-137v49q17 7 37.5 12.5t40.5 9.5l48 528l-73 8v24l4 29q63 2 128 3.5t128 1.5h141q17 5 35 9.5t35 4.5l25 -14q1 -6 1.5 -14t0.5 -19
q0 -29 -5 -66.5t-14 -73.5h-72l-9 105l-197 8zM413 707l-82 94h-9l-90 -82h-59l154 172h71l93 -140z" />
    <glyph glyph-name="Edieresis" unicode="&#xcb;" horiz-adv-x="575" 
d="M246 369l165 8l9 -22l-7 -55l-172 9l-23 -251h182l38 115l74 -6q1 -11 1.5 -21t0.5 -22q0 -32 -5.5 -64t-18.5 -74l-26 -3l-313 17h-137v49q17 7 37.5 12.5t40.5 9.5l48 528l-73 8v24l4 29q63 2 128 3.5t128 1.5h141q17 5 35 9.5t35 4.5l25 -14q1 -6 1.5 -14t0.5 -19
q0 -29 -5 -66.5t-14 -73.5h-72l-9 105l-197 8zM237 861q10 0 19.5 -1t17.5 -5q10 -16 10 -40q0 -19 -5.5 -37t-18.5 -38h-83l-8 108q14 5 31.5 9t36.5 4zM467 861q10 0 19 -1t17 -5q10 -14 10 -39q0 -19 -5 -37.5t-18 -38.5h-84l-7 108q14 5 31 9t37 4z" />
    <glyph glyph-name="Igrave" unicode="&#xcc;" horiz-adv-x="342" 
d="M348 616q-17 -8 -39 -13.5t-40 -7.5l-50 -537l74 -7v-23l-3 -28h-275v49q16 8 38.5 13.5t39.5 7.5l49 537l-74 7v23l3 28h277v-49zM184 719l-121 118q11 20 26 36.5t33 25.5h62l61 -180h-61z" />
    <glyph glyph-name="Iacute" unicode="&#xcd;" horiz-adv-x="342" 
d="M348 616q-17 -8 -39 -13.5t-40 -7.5l-50 -537l74 -7v-23l-3 -28h-275v49q16 8 38.5 13.5t39.5 7.5l49 537l-74 7v23l3 28h277v-49zM357 900q32 -19 44 -62l-157 -119h-61l113 181h61z" />
    <glyph glyph-name="Icircumflex" unicode="&#xce;" horiz-adv-x="342" 
d="M348 616q-17 -8 -39 -13.5t-40 -7.5l-50 -537l74 -7v-23l-3 -28h-275v49q16 8 38.5 13.5t39.5 7.5l49 537l-74 7v23l3 28h277v-49zM299 707l-82 94h-9l-90 -82h-59l154 172h71l93 -140z" />
    <glyph glyph-name="Idieresis" unicode="&#xcf;" horiz-adv-x="342" 
d="M348 616q-17 -8 -39 -13.5t-40 -7.5l-50 -537l74 -7v-23l-3 -28h-275v49q16 8 38.5 13.5t39.5 7.5l49 537l-74 7v23l3 28h277v-49zM143 865q22 0 37 -6q11 -18 11 -41q0 -18 -5.5 -36.5t-20.5 -38.5h-83l-7 108q14 6 31.5 10t36.5 4zM331 865q21 0 36 -6q6 -9 8.5 -18
t2.5 -23q0 -19 -5.5 -37t-19.5 -38h-84l-6 108q14 6 31.5 10t36.5 4z" />
    <glyph glyph-name="Eth" unicode="&#xd0;" horiz-adv-x="675" 
d="M323 673q91 0 153.5 -20t100 -56.5t54 -89t16.5 -117.5q0 -40 -6.5 -84.5t-22 -88t-41.5 -83t-65 -69.5t-92.5 -47.5t-123.5 -17.5h-269v49q17 7 37.5 13t40.5 9l22 242h-72v20l6 43h72l20 223l-73 9v23l3 29q26 3 59 5l66 4q33 2 63.5 3t51.5 1zM424 98q22 27 37.5 62
t25 75.5t14 84t4.5 86.5q0 49 -7.5 87t-25.5 64t-48.5 39.5t-75.5 13.5h-66l-22 -234h115v-21l-6 -42h-114l-23 -249h58q44 0 76 8.5t58 25.5z" />
    <glyph glyph-name="Ntilde" unicode="&#xd1;" horiz-adv-x="706" 
d="M713 616q-15 -8 -38 -13.5t-40 -7.5l-56 -591q-47 -14 -100 -15l-22 5l-173 392q-23 54 -41 102t-30 89h-12l-32 -519l74 -7v-23l-4 -28h-224v49q17 8 38.5 14t38.5 8l50 527l-74 9v24l3 28q30 1 57.5 2.5t55.5 2t57.5 1t62.5 0.5l141 -322q25 -57 43.5 -105.5
t33.5 -90.5h11l24 459l-79 8v23l3 28h232v-49zM571 842q-7 -21 -17 -40t-23.5 -33.5t-30.5 -23.5t-38 -9q-26 0 -58 17l-76 38l-51 -53l-29 26q7 21 16.5 40t23 33.5t31 23t38.5 8.5q26 0 56 -15l77 -40l52 54z" />
    <glyph glyph-name="Ograve" unicode="&#xd2;" horiz-adv-x="686" 
d="M393 678q64 0 113.5 -20.5t83.5 -58t51 -90.5t17 -119q0 -71 -20 -142.5t-62 -129.5t-107.5 -94.5t-156.5 -36.5q-65 0 -114 20.5t-83 58t-51 91t-17 119.5q0 70 19.5 142t61.5 129.5t107.5 94t157.5 36.5zM382 610q-22 0 -42.5 -5t-43.5 -14q-23 -18 -42 -52
t-33.5 -78.5t-22.5 -97t-8 -107.5q0 -44 6.5 -80.5t22 -63.5t41.5 -42t65 -15q22 0 43 5t43 14q22 18 41.5 52t34 78.5t22.5 97t8 107.5q0 43 -6.5 80t-22 64t-41.5 42t-65 15zM358 719l-121 118q11 20 26 36.5t33 25.5h62l61 -180h-61z" />
    <glyph glyph-name="Oacute" unicode="&#xd3;" horiz-adv-x="686" 
d="M393 678q64 0 113.5 -20.5t83.5 -58t51 -90.5t17 -119q0 -71 -20 -142.5t-62 -129.5t-107.5 -94.5t-156.5 -36.5q-65 0 -114 20.5t-83 58t-51 91t-17 119.5q0 70 19.5 142t61.5 129.5t107.5 94t157.5 36.5zM382 610q-22 0 -42.5 -5t-43.5 -14q-23 -18 -42 -52
t-33.5 -78.5t-22.5 -97t-8 -107.5q0 -44 6.5 -80.5t22 -63.5t41.5 -42t65 -15q22 0 43 5t43 14q22 18 41.5 52t34 78.5t22.5 97t8 107.5q0 43 -6.5 80t-22 64t-41.5 42t-65 15zM531 900q32 -19 44 -62l-157 -119h-61l113 181h61z" />
    <glyph glyph-name="Ocircumflex" unicode="&#xd4;" horiz-adv-x="686" 
d="M393 678q64 0 113.5 -20.5t83.5 -58t51 -90.5t17 -119q0 -71 -20 -142.5t-62 -129.5t-107.5 -94.5t-156.5 -36.5q-65 0 -114 20.5t-83 58t-51 91t-17 119.5q0 70 19.5 142t61.5 129.5t107.5 94t157.5 36.5zM382 610q-22 0 -42.5 -5t-43.5 -14q-23 -18 -42 -52
t-33.5 -78.5t-22.5 -97t-8 -107.5q0 -44 6.5 -80.5t22 -63.5t41.5 -42t65 -15q22 0 43 5t43 14q22 18 41.5 52t34 78.5t22.5 97t8 107.5q0 43 -6.5 80t-22 64t-41.5 42t-65 15zM473 707l-82 94h-9l-90 -82h-59l154 172h71l93 -140z" />
    <glyph glyph-name="Otilde" unicode="&#xd5;" horiz-adv-x="686" 
d="M393 678q64 0 113.5 -20.5t83.5 -58t51 -90.5t17 -119q0 -71 -20 -142.5t-62 -129.5t-107.5 -94.5t-156.5 -36.5q-65 0 -114 20.5t-83 58t-51 91t-17 119.5q0 70 19.5 142t61.5 129.5t107.5 94t157.5 36.5zM382 610q-22 0 -42.5 -5t-43.5 -14q-23 -18 -42 -52
t-33.5 -78.5t-22.5 -97t-8 -107.5q0 -44 6.5 -80.5t22 -63.5t41.5 -42t65 -15q22 0 43 5t43 14q22 18 41.5 52t34 78.5t22.5 97t8 107.5q0 43 -6.5 80t-22 64t-41.5 42t-65 15zM562 842q-7 -21 -17 -40t-23.5 -33.5t-30.5 -23.5t-38 -9q-26 0 -58 17l-76 38l-51 -53l-29 26
q7 21 16.5 40t23 33.5t31 23t38.5 8.5q26 0 56 -15l77 -40l52 54z" />
    <glyph glyph-name="Odieresis" unicode="&#xd6;" horiz-adv-x="686" 
d="M393 678q64 0 113.5 -20.5t83.5 -58t51 -90.5t17 -119q0 -71 -20 -142.5t-62 -129.5t-107.5 -94.5t-156.5 -36.5q-65 0 -114 20.5t-83 58t-51 91t-17 119.5q0 70 19.5 142t61.5 129.5t107.5 94t157.5 36.5zM382 610q-22 0 -42.5 -5t-43.5 -14q-23 -18 -42 -52
t-33.5 -78.5t-22.5 -97t-8 -107.5q0 -44 6.5 -80.5t22 -63.5t41.5 -42t65 -15q22 0 43 5t43 14q22 18 41.5 52t34 78.5t22.5 97t8 107.5q0 43 -6.5 80t-22 64t-41.5 42t-65 15zM297 861q10 0 19.5 -1t17.5 -5q10 -16 10 -40q0 -19 -5.5 -37t-18.5 -38h-83l-8 108
q14 5 31.5 9t36.5 4zM527 861q10 0 19 -1t17 -5q10 -14 10 -39q0 -19 -5 -37.5t-18 -38.5h-84l-7 108q14 5 31 9t37 4z" />
    <glyph glyph-name="multiply" unicode="&#xd7;" 
d="M537 453l-168 -158l143 -156l-33 -40l-23 -15l-146 159l-168 -159l-39 36l-13 22l168 159l-144 156l33 39l23 15l146 -160l169 159l38 -33z" />
    <glyph glyph-name="Oslash" unicode="&#xd8;" horiz-adv-x="686" 
d="M586 605q35 -37 53 -90t19 -120q1 -71 -18.5 -143.5t-61.5 -131.5t-108 -96t-158 -37q-89 0 -151 39l-77 -104l-43 22l-5 15l79 106q-33 37 -50 89t-18 117q-1 71 18.5 143.5t61.5 131t108 95.5t158 37q87 0 146 -36l74 101l43 -21l4 -16zM296 591q-23 -18 -42 -52
t-33.5 -78.5t-22.5 -97t-8 -107.5q0 -49 7 -84l285 392q-16 22 -40.5 34t-59.5 12q-22 0 -42.5 -5t-43.5 -14zM411 74q22 18 41.5 52t34 78.5t22.5 97t8 107.5q0 53 -9 94l-287 -396q16 -25 41 -38.5t63 -13.5q22 0 43 5t43 14z" />
    <glyph glyph-name="Ugrave" unicode="&#xd9;" horiz-adv-x="662" 
d="M684 616q-16 -8 -40 -14t-41 -8q-3 -49 -7 -103t-8.5 -104.5t-8.5 -93.5t-8 -70q-17 -118 -79 -177t-177 -59q-112 0 -166.5 55t-54.5 162q0 27 3 72t8.5 99.5t11.5 114.5t12 117l-74 7v23l3 28h273v-49q-16 -8 -36 -13t-39 -8q-7 -66 -13.5 -127.5t-11.5 -114t-8 -94
t-3 -67.5q0 -73 27.5 -106.5t93.5 -33.5q55 0 97 22q21 22 35.5 58.5t21.5 96.5q3 28 7.5 71.5t8.5 94.5t8.5 106t7.5 105l-71 8v23l3 28h225v-49zM362 719l-121 118q11 20 26 36.5t33 25.5h62l61 -180h-61z" />
    <glyph glyph-name="Uacute" unicode="&#xda;" horiz-adv-x="662" 
d="M684 616q-16 -8 -40 -14t-41 -8q-3 -49 -7 -103t-8.5 -104.5t-8.5 -93.5t-8 -70q-17 -118 -79 -177t-177 -59q-112 0 -166.5 55t-54.5 162q0 27 3 72t8.5 99.5t11.5 114.5t12 117l-74 7v23l3 28h273v-49q-16 -8 -36 -13t-39 -8q-7 -66 -13.5 -127.5t-11.5 -114t-8 -94
t-3 -67.5q0 -73 27.5 -106.5t93.5 -33.5q55 0 97 22q21 22 35.5 58.5t21.5 96.5q3 28 7.5 71.5t8.5 94.5t8.5 106t7.5 105l-71 8v23l3 28h225v-49zM535 900q32 -19 44 -62l-157 -119h-61l113 181h61z" />
    <glyph glyph-name="Ucircumflex" unicode="&#xdb;" horiz-adv-x="662" 
d="M684 616q-16 -8 -40 -14t-41 -8q-3 -49 -7 -103t-8.5 -104.5t-8.5 -93.5t-8 -70q-17 -118 -79 -177t-177 -59q-112 0 -166.5 55t-54.5 162q0 27 3 72t8.5 99.5t11.5 114.5t12 117l-74 7v23l3 28h273v-49q-16 -8 -36 -13t-39 -8q-7 -66 -13.5 -127.5t-11.5 -114t-8 -94
t-3 -67.5q0 -73 27.5 -106.5t93.5 -33.5q55 0 97 22q21 22 35.5 58.5t21.5 96.5q3 28 7.5 71.5t8.5 94.5t8.5 106t7.5 105l-71 8v23l3 28h225v-49zM477 707l-82 94h-9l-90 -82h-59l154 172h71l93 -140z" />
    <glyph glyph-name="Udieresis" unicode="&#xdc;" horiz-adv-x="662" 
d="M684 616q-16 -8 -40 -14t-41 -8q-3 -49 -7 -103t-8.5 -104.5t-8.5 -93.5t-8 -70q-17 -118 -79 -177t-177 -59q-112 0 -166.5 55t-54.5 162q0 27 3 72t8.5 99.5t11.5 114.5t12 117l-74 7v23l3 28h273v-49q-16 -8 -36 -13t-39 -8q-7 -66 -13.5 -127.5t-11.5 -114t-8 -94
t-3 -67.5q0 -73 27.5 -106.5t93.5 -33.5q55 0 97 22q21 22 35.5 58.5t21.5 96.5q3 28 7.5 71.5t8.5 94.5t8.5 106t7.5 105l-71 8v23l3 28h225v-49zM301 861q10 0 19.5 -1t17.5 -5q10 -16 10 -40q0 -19 -5.5 -37t-18.5 -38h-83l-8 108q14 5 31.5 9t36.5 4zM531 861
q10 0 19 -1t17 -5q10 -14 10 -39q0 -19 -5 -37.5t-18 -38.5h-84l-7 108q14 5 31 9t37 4z" />
    <glyph glyph-name="Yacute" unicode="&#xdd;" horiz-adv-x="622" 
d="M579 595q-43 -93 -94 -181t-108 -179l-16 -177l79 -7v-23l-3 -28h-291v49q17 8 43 13.5t45 7.5l15 162q-35 100 -71 197t-71 178l-63 7v23l3 28h271v-49q-14 -7 -35.5 -12.5t-39.5 -7.5q12 -34 25.5 -71.5t27 -75.5t26 -75t22.5 -69h11q39 65 80.5 144.5t71.5 156.5
l-69 8v23l3 28h209v-49q-15 -8 -34.5 -13.5t-36.5 -7.5zM500 900q32 -19 44 -62l-157 -119h-61l113 181h61z" />
    <glyph glyph-name="Thorn" unicode="&#xde;" horiz-adv-x="582" 
d="M327 562q67 0 111.5 -13.5t70.5 -38.5t37 -59.5t11 -76.5q0 -109 -57 -171t-162 -62q-17 0 -32.5 2t-29.5 4v54q31 2 51 5.5t38 9.5q27 32 38.5 72.5t11.5 88.5q0 28 -4.5 50.5t-15.5 38t-31 23.5t-51 8h-54l-41 -437l85 -6v-25l-3 -29h-285v49q16 8 38 13.5t39 7.5
l50 537l-74 7v23l3 28h192l10 -17l-8 -86h62z" />
    <glyph glyph-name="germandbls" unicode="&#xdf;" horiz-adv-x="566" 
d="M379 367q40 -40 69.5 -70.5t48 -56.5t27.5 -49t9 -47q0 -30 -12.5 -58t-36 -50t-58 -35.5t-79.5 -13.5q-55 0 -84 20.5t-40 58.5l50 50l81 -71q26 2 50 9q8 11 13 24.5t5 33.5q0 14 -7.5 35.5t-41.5 56.5q-14 15 -26.5 27t-21.5 25t-14.5 27t-5.5 33q0 14 3 24t9 20.5
t15 23t20 31.5q38 60 51 106t12 94q0 44 -13 61.5t-43 17.5q-27 0 -50 -10q-16 -14 -30.5 -36t-26.5 -55t-21.5 -79t-15.5 -109l-35 -379q-12 -128 -56.5 -183.5t-117.5 -55.5q-32 0 -64.5 10.5t-57.5 33.5l15 49q26 -7 59.5 -13.5t69.5 -7.5q11 25 18 59t12 76l42 432
l-68 10v47q14 5 35.5 9.5t41.5 7.5q23 120 95.5 186.5t179.5 66.5q158 0 158 -135q0 -38 -12 -70.5t-33.5 -62.5t-51.5 -59t-66 -59z" />
    <glyph glyph-name="agrave" unicode="&#xe0;" horiz-adv-x="570" 
d="M554 46q-32 -25 -69 -40.5t-69 -15.5q-29 0 -47 13.5t-18 42.5q0 24 11.5 80t31.5 157l-11 2q-28 -88 -51 -145.5t-47.5 -91.5t-52.5 -47.5t-66 -13.5q-29 0 -53.5 8t-42 28t-27 53.5t-9.5 84.5q0 60 15 124t46 116t79.5 85.5t116.5 33.5q33 0 61 -9t48 -29l8 29
q16 5 38 7t42 2l24 -22l-52 -432q20 0 42 7.5t42 18.5zM238 71q16 22 32.5 53.5t34.5 76.5t37.5 104t42.5 135q-37 22 -80 22q-16 0 -30.5 -3t-25.5 -6q-23 -29 -39 -65.5t-26 -77t-15 -81t-5 -76.5q0 -48 10.5 -66.5t37.5 -18.5q11 0 26 3zM288 573l-121 142
q13 22 27.5 37.5t34.5 25.5h62l52 -205h-55z" />
    <glyph glyph-name="aacute" unicode="&#xe1;" horiz-adv-x="570" 
d="M554 46q-32 -25 -69 -40.5t-69 -15.5q-29 0 -47 13.5t-18 42.5q0 24 11.5 80t31.5 157l-11 2q-28 -88 -51 -145.5t-47.5 -91.5t-52.5 -47.5t-66 -13.5q-29 0 -53.5 8t-42 28t-27 53.5t-9.5 84.5q0 60 15 124t46 116t79.5 85.5t116.5 33.5q33 0 61 -9t48 -29l8 29
q16 5 38 7t42 2l24 -22l-52 -432q20 0 42 7.5t42 18.5zM238 71q16 22 32.5 53.5t34.5 76.5t37.5 104t42.5 135q-37 22 -80 22q-16 0 -30.5 -3t-25.5 -6q-23 -29 -39 -65.5t-26 -77t-15 -81t-5 -76.5q0 -48 10.5 -66.5t37.5 -18.5q11 0 26 3zM452 778q15 -10 27 -26.5
t17 -36.5l-155 -142h-55l105 205h61z" />
    <glyph glyph-name="acircumflex" unicode="&#xe2;" horiz-adv-x="570" 
d="M554 46q-32 -25 -69 -40.5t-69 -15.5q-29 0 -47 13.5t-18 42.5q0 24 11.5 80t31.5 157l-11 2q-28 -88 -51 -145.5t-47.5 -91.5t-52.5 -47.5t-66 -13.5q-29 0 -53.5 8t-42 28t-27 53.5t-9.5 84.5q0 60 15 124t46 116t79.5 85.5t116.5 33.5q33 0 61 -9t48 -29l8 29
q16 5 38 7t42 2l24 -22l-52 -432q20 0 42 7.5t42 18.5zM238 71q16 22 32.5 53.5t34.5 76.5t37.5 104t42.5 135q-37 22 -80 22q-16 0 -30.5 -3t-25.5 -6q-23 -29 -39 -65.5t-26 -77t-15 -81t-5 -76.5q0 -48 10.5 -66.5t37.5 -18.5q11 0 26 3zM387 566l-70 111h-9l-84 -103
h-55l144 195h71l82 -165z" />
    <glyph glyph-name="atilde" unicode="&#xe3;" horiz-adv-x="570" 
d="M554 46q-32 -25 -69 -40.5t-69 -15.5q-29 0 -47 13.5t-18 42.5q0 24 11.5 80t31.5 157l-11 2q-28 -88 -51 -145.5t-47.5 -91.5t-52.5 -47.5t-66 -13.5q-29 0 -53.5 8t-42 28t-27 53.5t-9.5 84.5q0 60 15 124t46 116t79.5 85.5t116.5 33.5q33 0 61 -9t48 -29l8 29
q16 5 38 7t42 2l24 -22l-52 -432q20 0 42 7.5t42 18.5zM238 71q16 22 32.5 53.5t34.5 76.5t37.5 104t42.5 135q-37 22 -80 22q-16 0 -30.5 -3t-25.5 -6q-23 -29 -39 -65.5t-26 -77t-15 -81t-5 -76.5q0 -48 10.5 -66.5t37.5 -18.5q11 0 26 3zM476 706q-7 -18 -17 -37.5
t-23 -35t-30 -26t-38 -10.5q-10 0 -23.5 3.5t-31.5 14.5l-61 36l-51 -53l-28 26q6 16 15.5 35t23 35.5t30.5 27t39 10.5q10 0 23.5 -3.5t31.5 -14.5l60 -36l52 54z" />
    <glyph glyph-name="adieresis" unicode="&#xe4;" horiz-adv-x="570" 
d="M554 46q-32 -25 -69 -40.5t-69 -15.5q-29 0 -47 13.5t-18 42.5q0 24 11.5 80t31.5 157l-11 2q-28 -88 -51 -145.5t-47.5 -91.5t-52.5 -47.5t-66 -13.5q-29 0 -53.5 8t-42 28t-27 53.5t-9.5 84.5q0 60 15 124t46 116t79.5 85.5t116.5 33.5q33 0 61 -9t48 -29l8 29
q16 5 38 7t42 2l24 -22l-52 -432q20 0 42 7.5t42 18.5zM238 71q16 22 32.5 53.5t34.5 76.5t37.5 104t42.5 135q-37 22 -80 22q-16 0 -30.5 -3t-25.5 -6q-23 -29 -39 -65.5t-26 -77t-15 -81t-5 -76.5q0 -48 10.5 -66.5t37.5 -18.5q11 0 26 3zM239 731q10 0 20 -1.5t17 -4.5
q5 -10 7.5 -19t2.5 -22q0 -20 -6.5 -37t-18.5 -36h-82l-7 107q14 5 31 9t36 4zM438 731q22 0 37 -6q5 -9 7.5 -18t2.5 -22q0 -20 -6.5 -37t-18.5 -37h-82l-7 107q14 5 31 9t36 4z" />
    <glyph glyph-name="aring" unicode="&#xe5;" horiz-adv-x="570" 
d="M554 46q-32 -25 -69 -40.5t-69 -15.5q-29 0 -47 13.5t-18 42.5q0 24 11.5 80t31.5 157l-11 2q-28 -88 -51 -145.5t-47.5 -91.5t-52.5 -47.5t-66 -13.5q-29 0 -53.5 8t-42 28t-27 53.5t-9.5 84.5q0 60 15 124t46 116t79.5 85.5t116.5 33.5q33 0 61 -9t48 -29l8 29
q16 5 38 7t42 2l24 -22l-52 -432q20 0 42 7.5t42 18.5zM238 71q16 22 32.5 53.5t34.5 76.5t37.5 104t42.5 135q-37 22 -80 22q-16 0 -30.5 -3t-25.5 -6q-23 -29 -39 -65.5t-26 -77t-15 -81t-5 -76.5q0 -48 10.5 -66.5t37.5 -18.5q11 0 26 3zM339 784q51 0 76 -23.5t25 -66.5
q0 -50 -32.5 -82t-93.5 -32q-51 0 -76.5 23.5t-25.5 66.5q0 51 33.5 82.5t93.5 31.5zM334 737q-14 0 -24 -5q-19 -22 -19 -64q0 -41 29 -41q6 0 12.5 1.5t11.5 4.5q8 11 14 27.5t6 36.5q0 22 -7.5 31t-22.5 9z" />
    <glyph glyph-name="ae" unicode="&#xe6;" horiz-adv-x="772" 
d="M549 73q34 0 76 18t83 51l13 -48q-41 -46 -96 -76.5t-124 -30.5q-51 0 -81 19.5t-44.5 50.5t-16.5 69t3 74l-12 3q-17 -54 -33 -94.5t-37 -67.5t-48.5 -40.5t-66.5 -13.5q-29 0 -53 8t-41.5 28.5t-27 54t-9.5 84.5q0 60 14.5 123.5t46 115.5t81 85.5t118.5 33.5
q43 0 79.5 -14.5t63.5 -43.5q34 32 72 45t82 13q43 0 73.5 -10t49.5 -27.5t28 -41t9 -51.5q0 -51 -26 -84.5t-68 -53.5t-95 -27.5t-107 -5.5v-13q0 -72 25.5 -102.5t68.5 -30.5zM365 353q11 23 21.5 42t22.5 35q-26 17 -49.5 24.5t-52.5 7.5q-18 0 -32 -3t-25 -6
q-23 -29 -39 -65.5t-26.5 -77t-15.5 -81t-5 -76.5q0 -49 11 -67t38 -18h9q6 0 12 2q21 32 37.5 65.5t31.5 69t30 72.5t32 76zM576 461q-26 0 -50 -11q-15 -15 -26 -37t-19.5 -47.5t-14 -53t-8.5 -53.5q90 10 129.5 45.5t39.5 93.5q0 31 -11 47t-40 16z" />
    <glyph glyph-name="ccedilla" unicode="&#xe7;" horiz-adv-x="453" 
d="M248 75q29 0 67 14.5t79 45.5l12 -49q-39 -45 -91.5 -72t-112.5 -27q-45 0 -77.5 16.5t-53.5 45t-31 66.5t-10 82q0 51 14 108t45 104.5t81.5 79t124.5 31.5q24 0 46.5 -4t41 -13.5t31.5 -24t18 -35.5l-48 -62l-123 79q-9 -2 -17 -4.5t-15 -5.5q-18 -20 -31 -49.5
t-21 -63.5t-12 -68t-4 -61q0 -74 24 -103.5t63 -29.5zM241 -62q32 -1 54 -13t22 -47q0 -38 -29.5 -64.5t-87.5 -26.5q-30 0 -55 8t-41 22l12 41q16 -5 31 -9t30 -4q22 0 34.5 10.5t12.5 27.5q0 14 -11 19.5t-44 11.5l26 92h53z" />
    <glyph glyph-name="egrave" unicode="&#xe8;" horiz-adv-x="475" 
d="M253 73q34 0 76 18t82 51l13 -48q-41 -48 -96.5 -77.5t-122.5 -29.5q-46 0 -79 16t-54.5 44t-31.5 66t-10 83q0 51 13.5 108t45 105t83 79.5t126.5 31.5q41 0 70.5 -10t48.5 -27.5t28 -41t9 -51.5q0 -50 -25.5 -84t-67.5 -54t-95 -27.5t-107 -5.5v-13q0 -72 25 -102.5
t69 -30.5zM279 461q-26 0 -50 -11q-15 -15 -26 -37t-19.5 -47.5t-13.5 -53t-8 -53.5q90 10 129 45.5t39 93.5q0 31 -11 47t-40 16zM270 573l-121 142q13 22 27.5 37.5t34.5 25.5h62l52 -205h-55z" />
    <glyph glyph-name="eacute" unicode="&#xe9;" horiz-adv-x="475" 
d="M253 73q34 0 76 18t82 51l13 -48q-41 -48 -96.5 -77.5t-122.5 -29.5q-46 0 -79 16t-54.5 44t-31.5 66t-10 83q0 51 13.5 108t45 105t83 79.5t126.5 31.5q41 0 70.5 -10t48.5 -27.5t28 -41t9 -51.5q0 -50 -25.5 -84t-67.5 -54t-95 -27.5t-107 -5.5v-13q0 -72 25 -102.5
t69 -30.5zM279 461q-26 0 -50 -11q-15 -15 -26 -37t-19.5 -47.5t-13.5 -53t-8 -53.5q90 10 129 45.5t39 93.5q0 31 -11 47t-40 16zM434 778q15 -10 27 -26.5t17 -36.5l-155 -142h-55l105 205h61z" />
    <glyph glyph-name="ecircumflex" unicode="&#xea;" horiz-adv-x="475" 
d="M253 73q34 0 76 18t82 51l13 -48q-41 -48 -96.5 -77.5t-122.5 -29.5q-46 0 -79 16t-54.5 44t-31.5 66t-10 83q0 51 13.5 108t45 105t83 79.5t126.5 31.5q41 0 70.5 -10t48.5 -27.5t28 -41t9 -51.5q0 -50 -25.5 -84t-67.5 -54t-95 -27.5t-107 -5.5v-13q0 -72 25 -102.5
t69 -30.5zM279 461q-26 0 -50 -11q-15 -15 -26 -37t-19.5 -47.5t-13.5 -53t-8 -53.5q90 10 129 45.5t39 93.5q0 31 -11 47t-40 16zM369 566l-70 111h-9l-84 -103h-55l144 195h71l82 -165z" />
    <glyph glyph-name="edieresis" unicode="&#xeb;" horiz-adv-x="475" 
d="M253 73q34 0 76 18t82 51l13 -48q-41 -48 -96.5 -77.5t-122.5 -29.5q-46 0 -79 16t-54.5 44t-31.5 66t-10 83q0 51 13.5 108t45 105t83 79.5t126.5 31.5q41 0 70.5 -10t48.5 -27.5t28 -41t9 -51.5q0 -50 -25.5 -84t-67.5 -54t-95 -27.5t-107 -5.5v-13q0 -72 25 -102.5
t69 -30.5zM279 461q-26 0 -50 -11q-15 -15 -26 -37t-19.5 -47.5t-13.5 -53t-8 -53.5q90 10 129 45.5t39 93.5q0 31 -11 47t-40 16zM221 731q10 0 20 -1.5t17 -4.5q5 -10 7.5 -19t2.5 -22q0 -20 -6.5 -37t-18.5 -36h-82l-7 107q14 5 31 9t36 4zM420 731q22 0 37 -6
q5 -9 7.5 -18t2.5 -22q0 -20 -6.5 -37t-18.5 -37h-82l-7 107q14 5 31 9t36 4z" />
    <glyph glyph-name="igrave" unicode="&#xec;" horiz-adv-x="283" 
d="M177 66q20 0 40.5 7.5t40.5 18.5l9 -46q-31 -25 -65 -40.5t-69 -15.5q-34 0 -54 15t-20 53q0 12 2.5 38t6 59t8 71.5t9.5 75.5t9.5 70.5t7.5 57.5l-70 6v47q38 12 85 21.5t88 11.5l23 -22zM149 573l-117 142q12 22 27 37.5t35 25.5h61l48 -205h-54z" />
    <glyph glyph-name="iacute" unicode="&#xed;" horiz-adv-x="283" 
d="M177 66q20 0 40.5 7.5t40.5 18.5l9 -46q-31 -25 -65 -40.5t-69 -15.5q-34 0 -54 15t-20 53q0 12 2.5 38t6 59t8 71.5t9.5 75.5t9.5 70.5t7.5 57.5l-70 6v47q38 12 85 21.5t88 11.5l23 -22zM289 778q14 -9 26.5 -26t17.5 -37l-132 -142h-55l82 205h61z" />
    <glyph glyph-name="icircumflex" unicode="&#xee;" horiz-adv-x="283" 
d="M177 66q20 0 40.5 7.5t40.5 18.5l9 -46q-31 -25 -65 -40.5t-69 -15.5q-34 0 -54 15t-20 53q0 12 2.5 38t6 59t8 71.5t9.5 75.5t9.5 70.5t7.5 57.5l-70 6v47q38 12 85 21.5t88 11.5l23 -22zM230 575l-52 95h-10l-64 -91h-55l125 190h71l64 -160z" />
    <glyph glyph-name="idieresis" unicode="&#xef;" horiz-adv-x="283" 
d="M177 66q20 0 40.5 7.5t40.5 18.5l9 -46q-31 -25 -65 -40.5t-69 -15.5q-34 0 -54 15t-20 53q0 12 2.5 38t6 59t8 71.5t9.5 75.5t9.5 70.5t7.5 57.5l-70 6v47q38 12 85 21.5t88 11.5l23 -22zM106 731q10 0 20 -1.5t17 -4.5q9 -18 9 -41q0 -20 -5.5 -37t-18.5 -36h-79
l-6 107q14 5 29.5 9t33.5 4zM285 731q9 0 18.5 -1.5t17.5 -4.5q5 -8 7 -18.5t2 -22.5q0 -18 -5 -35.5t-19 -37.5h-78l-7 107q32 13 64 13z" />
    <glyph glyph-name="eth" unicode="&#xf0;" horiz-adv-x="520" 
d="M355 660q41 -33 67.5 -70t42.5 -77t22 -82t6 -83q0 -68 -15 -133t-48 -116t-85 -82t-125 -31q-88 0 -139.5 50.5t-51.5 152.5q0 45 11.5 97t38.5 96.5t70.5 74.5t107.5 30q35 0 55.5 -9t38.5 -23l10 2q-6 43 -27 82.5t-59 76.5l-104 -58l-44 28l-2 14l102 56
q-23 17 -50 32t-58 30l29 41q46 -13 83.5 -28.5t69.5 -33.5l103 57l43 -28l1 -15zM288 58q37 36 56 115.5t20 183.5v23q0 11 -1 22q-18 8 -38 14t-44 6q-29 0 -52 -10q-17 -18 -30 -46.5t-22 -62.5t-13.5 -70t-4.5 -69q0 -56 16.5 -87.5t58.5 -31.5q25 0 54 13z" />
    <glyph glyph-name="ntilde" unicode="&#xf1;" horiz-adv-x="587" 
d="M565 46q-31 -25 -67.5 -40.5t-71.5 -15.5q-32 0 -52.5 15t-20.5 51q0 15 3.5 40.5t9.5 57t12 65.5t12 65.5t9.5 59t3.5 44.5q0 26 -10.5 38.5t-36.5 12.5h-10q-5 0 -13 -2q-38 -50 -80.5 -156t-87.5 -281q-19 -5 -44 -7.5t-45 -2.5l-24 22l50 418l-70 6v47q35 12 83 21.5
t89 11.5l23 -22l-49 -264l12 -2q27 85 50 141.5t46.5 90t51 47t65.5 13.5q118 0 118 -118q0 -24 -4.5 -62t-12 -83t-16 -94.5t-17.5 -96.5q21 0 43 7.5t42 18.5zM513 703q-7 -18 -17 -37.5t-23 -35t-30 -26t-38 -10.5q-10 0 -23.5 3.5t-31.5 14.5l-61 36l-51 -53l-28 26
q6 16 15.5 35t23 35.5t30.5 27t39 10.5q10 0 23.5 -3.5t31.5 -14.5l60 -36l52 54z" />
    <glyph glyph-name="ograve" unicode="&#xf2;" horiz-adv-x="526" 
d="M298 520q52 0 89.5 -16t61.5 -44.5t35.5 -68t11.5 -85.5q0 -49 -13.5 -105t-45 -103.5t-82.5 -79t-126 -31.5q-52 0 -89.5 16t-61.5 44.5t-35.5 67.5t-11.5 86q0 49 13.5 105t45 103.5t82.5 79t126 31.5zM286 461q-28 0 -52 -11q-19 -19 -33 -53t-23 -73.5t-13 -80.5
t-4 -75q0 -63 19.5 -92.5t61.5 -29.5q28 0 52 11q19 19 32.5 53t22.5 73.5t13 80.5t4 74q0 65 -19 94t-61 29zM269 573l-121 142q13 22 27.5 37.5t34.5 25.5h62l52 -205h-55z" />
    <glyph glyph-name="oacute" unicode="&#xf3;" horiz-adv-x="526" 
d="M298 520q52 0 89.5 -16t61.5 -44.5t35.5 -68t11.5 -85.5q0 -49 -13.5 -105t-45 -103.5t-82.5 -79t-126 -31.5q-52 0 -89.5 16t-61.5 44.5t-35.5 67.5t-11.5 86q0 49 13.5 105t45 103.5t82.5 79t126 31.5zM286 461q-28 0 -52 -11q-19 -19 -33 -53t-23 -73.5t-13 -80.5
t-4 -75q0 -63 19.5 -92.5t61.5 -29.5q28 0 52 11q19 19 32.5 53t22.5 73.5t13 80.5t4 74q0 65 -19 94t-61 29zM433 778q15 -10 27 -26.5t17 -36.5l-155 -142h-55l105 205h61z" />
    <glyph glyph-name="ocircumflex" unicode="&#xf4;" horiz-adv-x="526" 
d="M298 520q52 0 89.5 -16t61.5 -44.5t35.5 -68t11.5 -85.5q0 -49 -13.5 -105t-45 -103.5t-82.5 -79t-126 -31.5q-52 0 -89.5 16t-61.5 44.5t-35.5 67.5t-11.5 86q0 49 13.5 105t45 103.5t82.5 79t126 31.5zM286 461q-28 0 -52 -11q-19 -19 -33 -53t-23 -73.5t-13 -80.5
t-4 -75q0 -63 19.5 -92.5t61.5 -29.5q28 0 52 11q19 19 32.5 53t22.5 73.5t13 80.5t4 74q0 65 -19 94t-61 29zM368 566l-70 111h-9l-84 -103h-55l144 195h71l82 -165z" />
    <glyph glyph-name="otilde" unicode="&#xf5;" horiz-adv-x="526" 
d="M298 520q52 0 89.5 -16t61.5 -44.5t35.5 -68t11.5 -85.5q0 -49 -13.5 -105t-45 -103.5t-82.5 -79t-126 -31.5q-52 0 -89.5 16t-61.5 44.5t-35.5 67.5t-11.5 86q0 49 13.5 105t45 103.5t82.5 79t126 31.5zM286 461q-28 0 -52 -11q-19 -19 -33 -53t-23 -73.5t-13 -80.5
t-4 -75q0 -63 19.5 -92.5t61.5 -29.5q28 0 52 11q19 19 32.5 53t22.5 73.5t13 80.5t4 74q0 65 -19 94t-61 29zM457 706q-7 -18 -17 -37.5t-23 -35t-30 -26t-38 -10.5q-10 0 -23.5 3.5t-31.5 14.5l-61 36l-51 -53l-28 26q6 16 15.5 35t23 35.5t30.5 27t39 10.5
q10 0 23.5 -3.5t31.5 -14.5l60 -36l52 54z" />
    <glyph glyph-name="odieresis" unicode="&#xf6;" horiz-adv-x="526" 
d="M298 520q52 0 89.5 -16t61.5 -44.5t35.5 -68t11.5 -85.5q0 -49 -13.5 -105t-45 -103.5t-82.5 -79t-126 -31.5q-52 0 -89.5 16t-61.5 44.5t-35.5 67.5t-11.5 86q0 49 13.5 105t45 103.5t82.5 79t126 31.5zM286 461q-28 0 -52 -11q-19 -19 -33 -53t-23 -73.5t-13 -80.5
t-4 -75q0 -63 19.5 -92.5t61.5 -29.5q28 0 52 11q19 19 32.5 53t22.5 73.5t13 80.5t4 74q0 65 -19 94t-61 29zM220 731q10 0 20 -1.5t17 -4.5q5 -10 7.5 -19t2.5 -22q0 -20 -6.5 -37t-18.5 -36h-82l-7 107q14 5 31 9t36 4zM419 731q22 0 37 -6q5 -9 7.5 -18t2.5 -22
q0 -20 -6.5 -37t-18.5 -37h-82l-7 107q14 5 31 9t36 4z" />
    <glyph glyph-name="divide" unicode="&#xf7;" 
d="M352 559q25 0 46 -6q5 -10 7.5 -20t2.5 -24q0 -23 -8 -43.5t-22 -42.5h-95l-6 123q14 5 34 9t41 4zM536 260h-452v26l6 48h452v-26zM305 180q25 0 46 -6q5 -10 7.5 -19.5t2.5 -23.5q0 -23 -8 -43.5t-22 -43.5h-95l-6 123q14 5 34 9t41 4z" />
    <glyph glyph-name="oslash" unicode="&#xf8;" horiz-adv-x="526" 
d="M441 469q29 -29 42 -70.5t13 -92.5q0 -49 -13.5 -105t-45 -103.5t-82.5 -79t-126 -31.5q-58 0 -100 21l-61 -90l-43 21l-5 14l61 91q-26 29 -38 69t-12 88q0 49 13.5 105.5t45 103.5t82.5 78.5t126 31.5q55 0 94 -18l65 96l42 -21l5 -14zM230 449q-19 -19 -33 -52.5
t-23 -73t-13.5 -80.5t-4.5 -75v-19l191 288q-21 24 -59 24q-16 0 -31 -3.5t-27 -8.5zM298 58q19 19 33 52.5t23 73.5t13 81t4 74q0 10 -0.5 18.5t-1.5 16.5l-195 -296q20 -32 66 -32q15 0 30.5 3t27.5 9z" />
    <glyph glyph-name="ugrave" unicode="&#xf9;" horiz-adv-x="589" 
d="M573 46q-32 -25 -71 -40.5t-72 -15.5q-29 0 -47 13.5t-18 42.5q0 24 11.5 78.5t28.5 152.5l-11 2q-27 -85 -50 -141t-46.5 -89.5t-51.5 -47.5t-65 -14q-57 0 -87.5 28.5t-30.5 89.5q0 24 4.5 61t11 80.5t15 91t16.5 92.5l-70 6v47q38 12 85 21.5t88 11.5l23 -21
q-2 -15 -7 -44t-11 -65.5t-12.5 -76t-12 -76.5t-9 -67t-3.5 -47q0 -26 10 -38.5t36 -12.5h9q6 0 13 1q37 49 79.5 156t90.5 282q19 5 42 7.5t46 2.5l25 -22l-52 -429q20 0 42 7.5t42 18.5zM295 573l-121 142q13 22 27.5 37.5t34.5 25.5h62l52 -205h-55z" />
    <glyph glyph-name="uacute" unicode="&#xfa;" horiz-adv-x="589" 
d="M573 46q-32 -25 -71 -40.5t-72 -15.5q-29 0 -47 13.5t-18 42.5q0 24 11.5 78.5t28.5 152.5l-11 2q-27 -85 -50 -141t-46.5 -89.5t-51.5 -47.5t-65 -14q-57 0 -87.5 28.5t-30.5 89.5q0 24 4.5 61t11 80.5t15 91t16.5 92.5l-70 6v47q38 12 85 21.5t88 11.5l23 -21
q-2 -15 -7 -44t-11 -65.5t-12.5 -76t-12 -76.5t-9 -67t-3.5 -47q0 -26 10 -38.5t36 -12.5h9q6 0 13 1q37 49 79.5 156t90.5 282q19 5 42 7.5t46 2.5l25 -22l-52 -429q20 0 42 7.5t42 18.5zM459 778q15 -10 27 -26.5t17 -36.5l-155 -142h-55l105 205h61z" />
    <glyph glyph-name="ucircumflex" unicode="&#xfb;" horiz-adv-x="589" 
d="M573 46q-32 -25 -71 -40.5t-72 -15.5q-29 0 -47 13.5t-18 42.5q0 24 11.5 78.5t28.5 152.5l-11 2q-27 -85 -50 -141t-46.5 -89.5t-51.5 -47.5t-65 -14q-57 0 -87.5 28.5t-30.5 89.5q0 24 4.5 61t11 80.5t15 91t16.5 92.5l-70 6v47q38 12 85 21.5t88 11.5l23 -21
q-2 -15 -7 -44t-11 -65.5t-12.5 -76t-12 -76.5t-9 -67t-3.5 -47q0 -26 10 -38.5t36 -12.5h9q6 0 13 1q37 49 79.5 156t90.5 282q19 5 42 7.5t46 2.5l25 -22l-52 -429q20 0 42 7.5t42 18.5zM394 566l-70 111h-9l-84 -103h-55l144 195h71l82 -165z" />
    <glyph glyph-name="udieresis" unicode="&#xfc;" horiz-adv-x="589" 
d="M573 46q-32 -25 -71 -40.5t-72 -15.5q-29 0 -47 13.5t-18 42.5q0 24 11.5 78.5t28.5 152.5l-11 2q-27 -85 -50 -141t-46.5 -89.5t-51.5 -47.5t-65 -14q-57 0 -87.5 28.5t-30.5 89.5q0 24 4.5 61t11 80.5t15 91t16.5 92.5l-70 6v47q38 12 85 21.5t88 11.5l23 -21
q-2 -15 -7 -44t-11 -65.5t-12.5 -76t-12 -76.5t-9 -67t-3.5 -47q0 -26 10 -38.5t36 -12.5h9q6 0 13 1q37 49 79.5 156t90.5 282q19 5 42 7.5t46 2.5l25 -22l-52 -429q20 0 42 7.5t42 18.5zM246 731q10 0 20 -1.5t17 -4.5q5 -10 7.5 -19t2.5 -22q0 -20 -6.5 -37t-18.5 -36
h-82l-7 107q14 5 31 9t36 4zM445 731q22 0 37 -6q5 -9 7.5 -18t2.5 -22q0 -20 -6.5 -37t-18.5 -37h-82l-7 107q14 5 31 9t36 4z" />
    <glyph glyph-name="yacute" unicode="&#xfd;" horiz-adv-x="521" 
d="M421 520q33 -10 54 -41.5t21 -81.5q0 -40 -14 -91.5t-40 -108.5t-63 -117t-83 -117q-63 -78 -126.5 -127t-120.5 -49q-28 0 -57.5 12t-52.5 36l15 49q29 -8 65.5 -16t78.5 -9q45 29 85 70q-12 66 -25.5 133.5t-27 132.5t-27 125t-25.5 110l-70 6v47q38 13 78 22t80 11
l24 -22q13 -60 26 -121.5t24 -120.5t19.5 -113t12.5 -100h12q18 26 38 61.5t38 76t32.5 84t22.5 85.5l-70 132zM440 778q15 -10 27 -26.5t17 -36.5l-155 -142h-55l105 205h61z" />
    <glyph glyph-name="thorn" unicode="&#xfe;" horiz-adv-x="554" 
d="M389 520q29 0 53.5 -8t42 -28t27 -53t9.5 -84q0 -61 -14.5 -124.5t-45.5 -116t-79.5 -86t-115.5 -33.5q-30 0 -58.5 7.5t-48.5 24.5l-24 -219q-18 -8 -44.5 -10.5t-49.5 -2.5l-24 22l103 858l-58 16l5 47q35 9 76.5 15t79.5 8l24 -22l-34 -228q-14 -90 -28 -159t-25 -120
l11 -3q27 88 50.5 146t48 92t53 47.5t66.5 13.5zM307 55q22 28 38 65t26.5 77t15 80t4.5 76q0 50 -10.5 68t-37.5 18q-5 0 -11 -0.5t-14 -1.5q-17 -22 -33 -53.5t-34 -76t-38 -104t-44 -137.5q38 -20 82 -20q16 0 30.5 2.5t25.5 6.5z" />
    <glyph glyph-name="ydieresis" unicode="&#xff;" horiz-adv-x="521" 
d="M421 520q33 -10 54 -41.5t21 -81.5q0 -40 -14 -91.5t-40 -108.5t-63 -117t-83 -117q-63 -78 -126.5 -127t-120.5 -49q-28 0 -57.5 12t-52.5 36l15 49q29 -8 65.5 -16t78.5 -9q45 29 85 70q-12 66 -25.5 133.5t-27 132.5t-27 125t-25.5 110l-70 6v47q38 13 78 22t80 11
l24 -22q13 -60 26 -121.5t24 -120.5t19.5 -113t12.5 -100h12q18 26 38 61.5t38 76t32.5 84t22.5 85.5l-70 132zM227 731q10 0 20 -1.5t17 -4.5q5 -10 7.5 -19t2.5 -22q0 -20 -6.5 -37t-18.5 -36h-82l-7 107q14 5 31 9t36 4zM426 731q22 0 37 -6q5 -9 7.5 -18t2.5 -22
q0 -20 -6.5 -37t-18.5 -37h-82l-7 107q14 5 31 9t36 4z" />
    <glyph glyph-name="Amacron" unicode="&#x100;" horiz-adv-x="648" 
d="M623 28l-3 -28h-265v49q14 8 34 13.5t36 7.5q-7 30 -13.5 59.5t-13.5 59.5h-214q-13 -33 -25.5 -65.5t-25.5 -65.5l68 -7v-23l-4 -28h-206v49q14 8 34.5 13.5t36.5 7.5q57 138 118 274.5t125 272.5l-10 46l26 22q29 0 52.5 -2.5t46.5 -8.5q33 -156 66.5 -309.5
t73.5 -307.5l63 -6v-23zM384 253q-14 65 -26.5 129t-25.5 128h-11q-29 -65 -56.5 -128.5t-54.5 -128.5h174zM504 840q1 -2 2 -9t1 -15q0 -10 -2 -25.5t-9 -29.5h-275q-1 3 -2 9t-1 14q0 10 2.5 26t8.5 30h275z" />
    <glyph glyph-name="amacron" unicode="&#x101;" horiz-adv-x="570" 
d="M554 46q-32 -25 -69 -40.5t-69 -15.5q-29 0 -47 13.5t-18 42.5q0 24 11.5 80t31.5 157l-11 2q-28 -88 -51 -145.5t-47.5 -91.5t-52.5 -47.5t-66 -13.5q-29 0 -53.5 8t-42 28t-27 53.5t-9.5 84.5q0 60 15 124t46 116t79.5 85.5t116.5 33.5q33 0 61 -9t48 -29l8 29
q16 5 38 7t42 2l24 -22l-52 -432q20 0 42 7.5t42 18.5zM238 71q16 22 32.5 53.5t34.5 76.5t37.5 104t42.5 135q-37 22 -80 22q-16 0 -30.5 -3t-25.5 -6q-23 -29 -39 -65.5t-26 -77t-15 -81t-5 -76.5q0 -48 10.5 -66.5t37.5 -18.5q11 0 26 3zM455 698q1 -2 2 -8t1 -14
q0 -10 -2.5 -25.5t-9.5 -30.5h-253q-1 2 -2 8t-1 14q0 10 2.5 26t9.5 30h253z" />
    <glyph glyph-name="Abreve" unicode="&#x102;" horiz-adv-x="648" 
d="M623 28l-3 -28h-265v49q14 8 34 13.5t36 7.5q-7 30 -13.5 59.5t-13.5 59.5h-214q-13 -33 -25.5 -65.5t-25.5 -65.5l68 -7v-23l-4 -28h-206v49q14 8 34.5 13.5t36.5 7.5q57 138 118 274.5t125 272.5l-10 46l26 22q29 0 52.5 -2.5t46.5 -8.5q33 -156 66.5 -309.5
t73.5 -307.5l63 -6v-23zM384 253q-14 65 -26.5 129t-25.5 128h-11q-29 -65 -56.5 -128.5t-54.5 -128.5h174zM305 879q3 -42 20 -63t53 -21q38 0 59.5 22t39.5 61l40 -9q-18 -72 -59 -111t-107 -39q-36 0 -61 11t-40 30.5t-21.5 45t-4.5 55.5z" />
    <glyph glyph-name="abreve" unicode="&#x103;" horiz-adv-x="570" 
d="M554 46q-32 -25 -69 -40.5t-69 -15.5q-29 0 -47 13.5t-18 42.5q0 24 11.5 80t31.5 157l-11 2q-28 -88 -51 -145.5t-47.5 -91.5t-52.5 -47.5t-66 -13.5q-29 0 -53.5 8t-42 28t-27 53.5t-9.5 84.5q0 60 15 124t46 116t79.5 85.5t116.5 33.5q33 0 61 -9t48 -29l8 29
q16 5 38 7t42 2l24 -22l-52 -432q20 0 42 7.5t42 18.5zM238 71q16 22 32.5 53.5t34.5 76.5t37.5 104t42.5 135q-37 22 -80 22q-16 0 -30.5 -3t-25.5 -6q-23 -29 -39 -65.5t-26 -77t-15 -81t-5 -76.5q0 -48 10.5 -66.5t37.5 -18.5q11 0 26 3zM278 756q1 -47 13.5 -72.5
t50.5 -25.5q36 0 56 25.5t34 71.5l39 -11q-17 -82 -57 -121t-101 -39q-38 0 -62.5 14t-37.5 36t-16.5 49.5t0.5 54.5z" />
    <glyph glyph-name="Aogonek" unicode="&#x104;" horiz-adv-x="648" 
d="M623 28l-4 -28h-171q-23 -31 -33 -55.5t-10 -45.5q0 -28 13.5 -39t36.5 -11q13 0 25 3t23 6l2 -43q-21 -13 -45.5 -20.5t-53.5 -7.5q-54 0 -79 25t-25 66q0 50 35.5 94t92.5 78q-8 35 -16 69.5t-16 69.5h-214q-13 -33 -25.5 -65.5t-25.5 -65.5l68 -7v-23l-4 -28h-206v49
q14 8 34.5 13.5t36.5 7.5q57 138 118 274.5t125 272.5l-10 46l26 22q29 0 52.5 -2.5t46.5 -8.5q33 -156 66.5 -309.5t73.5 -307.5l63 -6v-23zM384 253q-14 65 -26.5 129t-25.5 128h-11q-29 -65 -56.5 -128.5t-54.5 -128.5h174z" />
    <glyph glyph-name="aogonek" unicode="&#x105;" horiz-adv-x="570" 
d="M478 -151q11 0 23.5 2.5t24.5 6.5l3 -43q-39 -28 -100 -28q-56 0 -79 23t-23 55q0 39 27.5 69t69.5 48l-2 11q-5 -1 -9 -1h-6q-25 2 -40.5 13.5t-15.5 39.5q0 26 12 81.5t32 156.5l-12 2q-28 -88 -51 -145.5t-47 -91.5t-52.5 -47.5t-65.5 -13.5q-30 0 -54.5 8t-42 28
t-27 53.5t-9.5 84.5q0 60 15 124t46.5 116t80 85.5t115.5 33.5q33 0 61.5 -9t47.5 -29l8 29q16 5 38 7t42 2l25 -22l-52 -432q19 0 41 7.5t42 18.5l10 -46q-25 -17 -47.5 -34.5t-39.5 -36t-27 -38.5t-10 -41q0 -47 48 -47zM238 71q17 22 33.5 53.5t34.5 76.5t37 104t42 135
q-37 22 -80 22q-16 0 -30 -3t-25 -6q-23 -29 -39 -65.5t-26.5 -77t-15.5 -81t-5 -76.5q0 -48 11 -66.5t37 -18.5q11 0 26 3z" />
    <glyph glyph-name="Cacute" unicode="&#x106;" horiz-adv-x="599" 
d="M296 591q-23 -18 -42 -51.5t-33.5 -77t-22.5 -92.5t-8 -98q0 -53 9.5 -90t28 -60t46 -33t64.5 -10q36 0 87 16t100 54l13 -51q-47 -51 -111.5 -81t-131.5 -30q-64 0 -111 20.5t-77.5 57.5t-45 89t-14.5 115q0 72 19.5 145t59.5 131.5t101 95.5t144 37q34 0 58 -7.5
t44 -18.5l2 16q20 5 35.5 8t35.5 3l26 -19q1 -5 1.5 -12t0.5 -17q0 -28 -5.5 -69.5t-14.5 -83.5h-74l-10 119q-22 6 -44.5 9.5t-41.5 3.5q-42 0 -88 -19zM508 900q32 -19 44 -62l-157 -119h-61l113 181h61z" />
    <glyph glyph-name="cacute" unicode="&#x107;" horiz-adv-x="453" 
d="M248 75q29 0 67 14.5t79 45.5l12 -49q-39 -45 -91.5 -72t-112.5 -27q-45 0 -77.5 16.5t-53.5 45t-31 66.5t-10 82q0 51 14 108t45 104.5t81.5 79t124.5 31.5q24 0 46.5 -4t41 -13.5t31.5 -24t18 -35.5l-48 -62l-123 79q-9 -2 -17 -4.5t-15 -5.5q-18 -20 -31 -49.5
t-21 -63.5t-12 -68t-4 -61q0 -74 24 -103.5t63 -29.5zM411 778q15 -10 27 -26.5t17 -36.5l-155 -142h-55l105 205h61z" />
    <glyph glyph-name="Ccircumflex" unicode="&#x108;" horiz-adv-x="599" 
d="M296 591q-23 -18 -42 -51.5t-33.5 -77t-22.5 -92.5t-8 -98q0 -53 9.5 -90t28 -60t46 -33t64.5 -10q36 0 87 16t100 54l13 -51q-47 -51 -111.5 -81t-131.5 -30q-64 0 -111 20.5t-77.5 57.5t-45 89t-14.5 115q0 72 19.5 145t59.5 131.5t101 95.5t144 37q34 0 58 -7.5
t44 -18.5l2 16q20 5 35.5 8t35.5 3l26 -19q1 -5 1.5 -12t0.5 -17q0 -28 -5.5 -69.5t-14.5 -83.5h-74l-10 119q-22 6 -44.5 9.5t-41.5 3.5q-42 0 -88 -19zM450 707l-82 94h-9l-90 -82h-59l154 172h71l93 -140z" />
    <glyph glyph-name="ccircumflex" unicode="&#x109;" horiz-adv-x="453" 
d="M248 75q29 0 67 14.5t79 45.5l12 -49q-39 -45 -91.5 -72t-112.5 -27q-45 0 -77.5 16.5t-53.5 45t-31 66.5t-10 82q0 51 14 108t45 104.5t81.5 79t124.5 31.5q24 0 46.5 -4t41 -13.5t31.5 -24t18 -35.5l-48 -62l-123 79q-9 -2 -17 -4.5t-15 -5.5q-18 -20 -31 -49.5
t-21 -63.5t-12 -68t-4 -61q0 -74 24 -103.5t63 -29.5zM346 566l-70 111h-9l-84 -103h-55l144 195h71l82 -165z" />
    <glyph glyph-name="Cdotaccent" unicode="&#x10a;" horiz-adv-x="599" 
d="M296 591q-23 -18 -42 -51.5t-33.5 -77t-22.5 -92.5t-8 -98q0 -53 9.5 -90t28 -60t46 -33t64.5 -10q36 0 87 16t100 54l13 -51q-47 -51 -111.5 -81t-131.5 -30q-64 0 -111 20.5t-77.5 57.5t-45 89t-14.5 115q0 72 19.5 145t59.5 131.5t101 95.5t144 37q34 0 58 -7.5
t44 -18.5l2 16q20 5 35.5 8t35.5 3l26 -19q1 -5 1.5 -12t0.5 -17q0 -28 -5.5 -69.5t-14.5 -83.5h-74l-10 119q-22 6 -44.5 9.5t-41.5 3.5q-42 0 -88 -19zM390 865q25 0 42 -6q5 -10 8 -20.5t3 -24.5q0 -20 -7 -39t-21 -42h-95l-6 118q14 6 33.5 10t42.5 4z" />
    <glyph glyph-name="cdotaccent" unicode="&#x10b;" horiz-adv-x="453" 
d="M248 75q29 0 67 14.5t79 45.5l12 -49q-39 -45 -91.5 -72t-112.5 -27q-45 0 -77.5 16.5t-53.5 45t-31 66.5t-10 82q0 51 14 108t45 104.5t81.5 79t124.5 31.5q24 0 46.5 -4t41 -13.5t31.5 -24t18 -35.5l-48 -62l-123 79q-9 -2 -17 -4.5t-15 -5.5q-18 -20 -31 -49.5
t-21 -63.5t-12 -68t-4 -61q0 -74 24 -103.5t63 -29.5zM301 740q23 0 40 -6q5 -10 8 -19.5t3 -23.5q0 -20 -7 -39.5t-21 -42.5h-94l-6 118q14 5 34 9t43 4z" />
    <glyph glyph-name="Ccaron" unicode="&#x10c;" horiz-adv-x="599" 
d="M296 591q-23 -18 -42 -51.5t-33.5 -77t-22.5 -92.5t-8 -98q0 -53 9.5 -90t28 -60t46 -33t64.5 -10q36 0 87 16t100 54l13 -51q-47 -51 -111.5 -81t-131.5 -30q-64 0 -111 20.5t-77.5 57.5t-45 89t-14.5 115q0 72 19.5 145t59.5 131.5t101 95.5t144 37q34 0 58 -7.5
t44 -18.5l2 16q20 5 35.5 8t35.5 3l26 -19q1 -5 1.5 -12t0.5 -17q0 -28 -5.5 -69.5t-14.5 -83.5h-74l-10 119q-22 6 -44.5 9.5t-41.5 3.5q-42 0 -88 -19zM397 809l91 82h58l-153 -172h-72l-94 142l81 41l80 -93h9z" />
    <glyph glyph-name="ccaron" unicode="&#x10d;" horiz-adv-x="453" 
d="M248 75q29 0 67 14.5t79 45.5l12 -49q-39 -45 -91.5 -72t-112.5 -27q-45 0 -77.5 16.5t-53.5 45t-31 66.5t-10 82q0 51 14 108t45 104.5t81.5 79t124.5 31.5q24 0 46.5 -4t41 -13.5t31.5 -24t18 -35.5l-48 -62l-123 79q-9 -2 -17 -4.5t-15 -5.5q-18 -20 -31 -49.5
t-21 -63.5t-12 -68t-4 -61q0 -74 24 -103.5t63 -29.5zM303 667l84 103h55l-144 -196h-72l-81 165l79 39l70 -111h9z" />
    <glyph glyph-name="Dcaron" unicode="&#x10e;" horiz-adv-x="663" 
d="M311 673q92 0 154 -20t100 -56.5t54 -89t16 -117.5q0 -40 -6.5 -84.5t-22 -88t-41 -83t-64.5 -69.5t-92.5 -47.5t-123.5 -17.5h-270v49q17 7 37.5 13t40.5 9l48 528l-73 9v23l3 29q26 3 59 5l66 4q33 2 63.5 3t51.5 1zM412 98q22 27 37.5 62t25.5 75.5t14.5 84t4.5 86.5
q0 49 -7.5 87t-26 64t-49 39.5t-75.5 13.5h-66l-50 -546h58q45 0 76.5 8.5t57.5 25.5zM392 809l91 82h58l-153 -172h-72l-94 142l81 41l80 -93h9z" />
    <glyph glyph-name="dcaron" unicode="&#x10f;" horiz-adv-x="664" 
d="M554 46q-32 -25 -69 -40.5t-69 -15.5q-29 0 -47 13.5t-18 42.5q0 24 12 80.5t32 156.5l-12 3q-27 -88 -50 -145.5t-47 -91.5t-52.5 -48t-66.5 -14q-30 0 -54.5 8t-42 28t-27 53.5t-9.5 84.5q0 60 15 124t46.5 116t80 85.5t116.5 33.5q29 0 57 -6.5t47 -19.5l18 173
l-59 16l6 47q35 9 76.5 15t79.5 8l24 -22l-81 -665q19 0 41.5 7.5t42.5 18.5zM237 71q34 45 69.5 134t79.5 240q-19 8 -39.5 12.5t-40.5 4.5q-17 0 -31 -3t-25 -6q-23 -29 -39 -65.5t-26.5 -77t-15.5 -81t-5 -76.5q0 -48 11 -66.5t37 -18.5q10 0 25 3zM649 757q22 0 40 -6.5
t28 -13.5q-6 -61 -26.5 -110t-65.5 -102h-45l31 127v99q8 3 19 4.5t19 1.5z" />
    <glyph glyph-name="Dcroat" unicode="&#x110;" horiz-adv-x="675" 
d="M323 673q91 0 153.5 -20t100 -56.5t54 -89t16.5 -117.5q0 -40 -6.5 -84.5t-22 -88t-41.5 -83t-65 -69.5t-92.5 -47.5t-123.5 -17.5h-269v49q17 7 37.5 13t40.5 9l22 242h-72v20l6 43h72l20 223l-73 9v23l3 29q26 3 59 5l66 4q33 2 63.5 3t51.5 1zM424 98q22 27 37.5 62
t25 75.5t14 84t4.5 86.5q0 49 -7.5 87t-25.5 64t-48.5 39.5t-75.5 13.5h-66l-22 -234h115v-21l-6 -42h-114l-23 -249h58q44 0 76 8.5t58 25.5z" />
    <glyph glyph-name="dcroat" unicode="&#x111;" horiz-adv-x="569" 
d="M605 641l-7 -32h-72l-66 -543q19 0 41.5 7.5t42.5 18.5l10 -46q-32 -25 -69 -40.5t-69 -15.5q-29 0 -47 13.5t-18 42.5q0 24 12 80.5t32 156.5l-12 3q-27 -88 -50 -145.5t-47 -91.5t-52.5 -48t-66.5 -14q-30 0 -54.5 8t-42 28t-27 53.5t-9.5 84.5q0 60 15 124t46.5 116
t80 85.5t116.5 33.5q29 0 57 -6.5t47 -19.5l12 115h-128v27l7 32h127l7 68q26 8 48.5 11.5t47.5 5.5l24 -22l-8 -63h72v-27zM236 70q34 46 70 135t80 240q-19 8 -39.5 12.5t-40.5 4.5q-17 0 -31 -3t-25 -6q-23 -29 -39 -65.5t-26.5 -77t-15.5 -81t-5 -76.5q0 -48 11 -66.5
t37 -18.5q5 0 11 0.5t13 1.5z" />
    <glyph glyph-name="Emacron" unicode="&#x112;" horiz-adv-x="575" 
d="M246 369l165 8l9 -22l-7 -55l-172 9l-23 -251h182l38 115l74 -6q1 -11 1.5 -21t0.5 -22q0 -32 -5.5 -64t-18.5 -74l-26 -3l-313 17h-137v49q17 7 37.5 12.5t40.5 9.5l48 528l-73 8v24l4 29q63 2 128 3.5t128 1.5h141q17 5 35 9.5t35 4.5l25 -14q1 -6 1.5 -14t0.5 -19
q0 -29 -5 -66.5t-14 -73.5h-72l-9 105l-197 8zM481 840q1 -2 2 -9t1 -15q0 -10 -2 -25.5t-9 -29.5h-275q-1 3 -2 9t-1 14q0 10 2.5 26t8.5 30h275z" />
    <glyph glyph-name="emacron" unicode="&#x113;" horiz-adv-x="475" 
d="M253 73q34 0 76 18t82 51l13 -48q-41 -48 -96.5 -77.5t-122.5 -29.5q-46 0 -79 16t-54.5 44t-31.5 66t-10 83q0 51 13.5 108t45 105t83 79.5t126.5 31.5q41 0 70.5 -10t48.5 -27.5t28 -41t9 -51.5q0 -50 -25.5 -84t-67.5 -54t-95 -27.5t-107 -5.5v-13q0 -72 25 -102.5
t69 -30.5zM279 461q-26 0 -50 -11q-15 -15 -26 -37t-19.5 -47.5t-13.5 -53t-8 -53.5q90 10 129 45.5t39 93.5q0 31 -11 47t-40 16zM437 698q1 -2 2 -8t1 -14q0 -10 -2.5 -25.5t-9.5 -30.5h-253q-1 2 -2 8t-1 14q0 10 2.5 26t9.5 30h253z" />
    <glyph glyph-name="Ebreve" unicode="&#x114;" horiz-adv-x="575" 
d="M246 369l165 8l9 -22l-7 -55l-172 9l-23 -251h182l38 115l74 -6q1 -11 1.5 -21t0.5 -22q0 -32 -5.5 -64t-18.5 -74l-26 -3l-313 17h-137v49q17 7 37.5 12.5t40.5 9.5l48 528l-73 8v24l4 29q63 2 128 3.5t128 1.5h141q17 5 35 9.5t35 4.5l25 -14q1 -6 1.5 -14t0.5 -19
q0 -29 -5 -66.5t-14 -73.5h-72l-9 105l-197 8zM282 879q3 -42 20 -63t53 -21q38 0 59.5 22t39.5 61l40 -9q-18 -72 -59 -111t-107 -39q-36 0 -61 11t-40 30.5t-21.5 45t-4.5 55.5z" />
    <glyph glyph-name="ebreve" unicode="&#x115;" horiz-adv-x="475" 
d="M253 73q34 0 76 18t82 51l13 -48q-41 -48 -96.5 -77.5t-122.5 -29.5q-46 0 -79 16t-54.5 44t-31.5 66t-10 83q0 51 13.5 108t45 105t83 79.5t126.5 31.5q41 0 70.5 -10t48.5 -27.5t28 -41t9 -51.5q0 -50 -25.5 -84t-67.5 -54t-95 -27.5t-107 -5.5v-13q0 -72 25 -102.5
t69 -30.5zM279 461q-26 0 -50 -11q-15 -15 -26 -37t-19.5 -47.5t-13.5 -53t-8 -53.5q90 10 129 45.5t39 93.5q0 31 -11 47t-40 16zM260 756q1 -47 13.5 -72.5t50.5 -25.5q36 0 56 25.5t34 71.5l39 -11q-17 -82 -57 -121t-101 -39q-38 0 -62.5 14t-37.5 36t-16.5 49.5
t0.5 54.5z" />
    <glyph glyph-name="Edotaccent" unicode="&#x116;" horiz-adv-x="575" 
d="M246 369l165 8l9 -22l-7 -55l-172 9l-23 -251h182l38 115l74 -6q1 -11 1.5 -21t0.5 -22q0 -32 -5.5 -64t-18.5 -74l-26 -3l-313 17h-137v49q17 7 37.5 12.5t40.5 9.5l48 528l-73 8v24l4 29q63 2 128 3.5t128 1.5h141q17 5 35 9.5t35 4.5l25 -14q1 -6 1.5 -14t0.5 -19
q0 -29 -5 -66.5t-14 -73.5h-72l-9 105l-197 8zM353 865q25 0 42 -6q5 -10 8 -20.5t3 -24.5q0 -20 -7 -39t-21 -42h-95l-6 118q14 6 33.5 10t42.5 4z" />
    <glyph glyph-name="edotaccent" unicode="&#x117;" horiz-adv-x="475" 
d="M253 73q34 0 76 18t82 51l13 -48q-41 -48 -96.5 -77.5t-122.5 -29.5q-46 0 -79 16t-54.5 44t-31.5 66t-10 83q0 51 13.5 108t45 105t83 79.5t126.5 31.5q41 0 70.5 -10t48.5 -27.5t28 -41t9 -51.5q0 -50 -25.5 -84t-67.5 -54t-95 -27.5t-107 -5.5v-13q0 -72 25 -102.5
t69 -30.5zM279 461q-26 0 -50 -11q-15 -15 -26 -37t-19.5 -47.5t-13.5 -53t-8 -53.5q90 10 129 45.5t39 93.5q0 31 -11 47t-40 16zM324 740q23 0 40 -6q5 -10 8 -19.5t3 -23.5q0 -20 -7 -39.5t-21 -42.5h-94l-6 118q14 5 34 9t43 4z" />
    <glyph glyph-name="Eogonek" unicode="&#x118;" horiz-adv-x="575" 
d="M246 369l165 8l9 -22l-7 -55l-172 9l-23 -251h182l38 115l74 -6q1 -11 1.5 -21t0.5 -22q0 -32 -5.5 -63.5t-18.5 -73.5h-57q-29 -27 -41 -49.5t-12 -42.5q0 -46 48 -46q11 0 24 2.5t24 6.5l3 -43q-39 -28 -101 -28q-54 0 -77.5 21.5t-23.5 56.5t24 63.5t67 49.5v10
l-217 12h-137v49q17 7 37.5 12.5t40.5 9.5l48 528l-73 8v24l4 29q63 2 128 3.5t128 1.5h141q17 5 35 9.5t35 4.5l25 -14q1 -6 1.5 -14t0.5 -19q0 -29 -5 -66.5t-14 -73.5h-72l-9 105l-197 8z" />
    <glyph glyph-name="eogonek" unicode="&#x119;" horiz-adv-x="475" 
d="M253 74q34 0 76 18t82 50l13 -48q-19 -20 -39.5 -38.5t-40.5 -35.5q-41 -34 -58.5 -63.5t-17.5 -57.5q0 -50 48 -50q11 0 24 2.5t24 6.5l3 -43q-39 -28 -100 -28q-55 0 -78.5 22.5t-23.5 55.5q0 21 8 38.5t20.5 32t29.5 26.5t35 24l-5 10q-14 -4 -25.5 -6.5t-27.5 -2.5
q-44 0 -76 16t-53 44t-31 66.5t-10 83.5q0 51 13.5 107.5t45 104.5t83 79.5t126.5 31.5q41 0 70.5 -10t48.5 -27.5t28 -41t9 -51.5q0 -50 -25.5 -84t-67.5 -54t-95 -27.5t-107 -5.5v-13q0 -71 25 -101.5t69 -30.5zM279 461q-26 0 -50 -11q-15 -15 -26 -37t-19.5 -47.5
t-13.5 -53t-8 -53.5q90 10 129 45.5t39 93.5q0 31 -11 47t-40 16z" />
    <glyph glyph-name="Ecaron" unicode="&#x11a;" horiz-adv-x="575" 
d="M246 369l165 8l9 -22l-7 -55l-172 9l-23 -251h182l38 115l74 -6q1 -11 1.5 -21t0.5 -22q0 -32 -5.5 -64t-18.5 -74l-26 -3l-313 17h-137v49q17 7 37.5 12.5t40.5 9.5l48 528l-73 8v24l4 29q63 2 128 3.5t128 1.5h141q17 5 35 9.5t35 4.5l25 -14q1 -6 1.5 -14t0.5 -19
q0 -29 -5 -66.5t-14 -73.5h-72l-9 105l-197 8zM360 809l91 82h58l-153 -172h-72l-94 142l81 41l80 -93h9z" />
    <glyph glyph-name="ecaron" unicode="&#x11b;" horiz-adv-x="475" 
d="M253 73q34 0 76 18t82 51l13 -48q-41 -48 -96.5 -77.5t-122.5 -29.5q-46 0 -79 16t-54.5 44t-31.5 66t-10 83q0 51 13.5 108t45 105t83 79.5t126.5 31.5q41 0 70.5 -10t48.5 -27.5t28 -41t9 -51.5q0 -50 -25.5 -84t-67.5 -54t-95 -27.5t-107 -5.5v-13q0 -72 25 -102.5
t69 -30.5zM279 461q-26 0 -50 -11q-15 -15 -26 -37t-19.5 -47.5t-13.5 -53t-8 -53.5q90 10 129 45.5t39 93.5q0 31 -11 47t-40 16zM326 667l84 103h55l-144 -196h-72l-81 165l79 39l70 -111h9z" />
    <glyph glyph-name="Gcircumflex" unicode="&#x11c;" horiz-adv-x="637" 
d="M603 247q-10 -5 -21 -9t-24 -7l-21 -225l-27 -18q-37 0 -67 9l-6 27q-29 -19 -64.5 -28t-74.5 -9q-59 0 -105.5 19.5t-79 56t-49.5 89.5t-17 120q0 70 20 142.5t60.5 131t101.5 95.5t144 37q35 0 62 -7t47 -18l1 15q20 5 35.5 8t35.5 3l26 -19q1 -5 1.5 -12t0.5 -17
q0 -28 -5.5 -69.5t-14.5 -83.5h-74l-10 120q-23 6 -47 9t-43 3q-44 0 -93 -19q-23 -18 -42 -53t-33.5 -80.5t-22.5 -98t-8 -105.5q0 -44 6.5 -80.5t22 -62.5t42 -41t66.5 -15q24 0 52 6t54 19l6 157l-69 6v25l4 28h230v-49zM450 707l-82 94h-9l-90 -82h-59l154 172h71
l93 -140z" />
    <glyph glyph-name="gcircumflex" unicode="&#x11d;" horiz-adv-x="497" 
d="M297 87q78 -23 117 -47.5t39 -71.5q0 -34 -19 -66.5t-56.5 -58t-92.5 -41t-128 -15.5q-184 0 -184 103q0 27 13 49t34 40t47.5 31.5t53.5 22.5q-16 19 -16 47q0 27 13.5 52t36.5 48q-56 14 -83.5 49.5t-27.5 89.5q0 40 15.5 76.5t45 64t71 44t93.5 16.5q64 0 108 -27
q21 113 106 113l31 -72l-106 -65q40 -43 40 -106q0 -35 -13.5 -69t-41.5 -61t-70.5 -43.5t-100.5 -16.5l-20 1l-7 -59zM211 451q-20 -17 -33 -56t-13 -82q0 -47 20 -64.5t46 -17.5q11 0 25 2.5t24 7.5q18 16 32 55t14 84q0 47 -19.5 64t-45.5 17q-12 0 -25.5 -2.5
t-24.5 -7.5zM328 -121q10 8 15.5 17.5t5.5 21.5q0 14 -9.5 23.5t-34.5 17.5l-117 37q-25 8 -40 16q-27 -23 -45.5 -47.5t-18.5 -49.5q0 -32 26 -50.5t79 -18.5q35 0 73.5 8t65.5 25zM335 566l-70 111h-9l-84 -103h-55l144 195h71l82 -165z" />
    <glyph glyph-name="Gbreve" unicode="&#x11e;" horiz-adv-x="637" 
d="M603 247q-10 -5 -21 -9t-24 -7l-21 -225l-27 -18q-37 0 -67 9l-6 27q-29 -19 -64.5 -28t-74.5 -9q-59 0 -105.5 19.5t-79 56t-49.5 89.5t-17 120q0 70 20 142.5t60.5 131t101.5 95.5t144 37q35 0 62 -7t47 -18l1 15q20 5 35.5 8t35.5 3l26 -19q1 -5 1.5 -12t0.5 -17
q0 -28 -5.5 -69.5t-14.5 -83.5h-74l-10 120q-23 6 -47 9t-43 3q-44 0 -93 -19q-23 -18 -42 -53t-33.5 -80.5t-22.5 -98t-8 -105.5q0 -44 6.5 -80.5t22 -62.5t42 -41t66.5 -15q24 0 52 6t54 19l6 157l-69 6v25l4 28h230v-49zM319 879q3 -42 20 -63t53 -21q38 0 59.5 22
t39.5 61l40 -9q-18 -72 -59 -111t-107 -39q-36 0 -61 11t-40 30.5t-21.5 45t-4.5 55.5z" />
    <glyph glyph-name="gbreve" unicode="&#x11f;" horiz-adv-x="497" 
d="M297 87q78 -23 117 -47.5t39 -71.5q0 -34 -19 -66.5t-56.5 -58t-92.5 -41t-128 -15.5q-184 0 -184 103q0 27 13 49t34 40t47.5 31.5t53.5 22.5q-16 19 -16 47q0 27 13.5 52t36.5 48q-56 14 -83.5 49.5t-27.5 89.5q0 40 15.5 76.5t45 64t71 44t93.5 16.5q64 0 108 -27
q21 113 106 113l31 -72l-106 -65q40 -43 40 -106q0 -35 -13.5 -69t-41.5 -61t-70.5 -43.5t-100.5 -16.5l-20 1l-7 -59zM211 451q-20 -17 -33 -56t-13 -82q0 -47 20 -64.5t46 -17.5q11 0 25 2.5t24 7.5q18 16 32 55t14 84q0 47 -19.5 64t-45.5 17q-12 0 -25.5 -2.5
t-24.5 -7.5zM328 -121q10 8 15.5 17.5t5.5 21.5q0 14 -9.5 23.5t-34.5 17.5l-117 37q-25 8 -40 16q-27 -23 -45.5 -47.5t-18.5 -49.5q0 -32 26 -50.5t79 -18.5q35 0 73.5 8t65.5 25zM226 756q1 -47 13.5 -72.5t50.5 -25.5q36 0 56 25.5t34 71.5l39 -11q-17 -82 -57 -121
t-101 -39q-38 0 -62.5 14t-37.5 36t-16.5 49.5t0.5 54.5z" />
    <glyph glyph-name="Gdotaccent" unicode="&#x120;" horiz-adv-x="637" 
d="M603 247q-10 -5 -21 -9t-24 -7l-21 -225l-27 -18q-37 0 -67 9l-6 27q-29 -19 -64.5 -28t-74.5 -9q-59 0 -105.5 19.5t-79 56t-49.5 89.5t-17 120q0 70 20 142.5t60.5 131t101.5 95.5t144 37q35 0 62 -7t47 -18l1 15q20 5 35.5 8t35.5 3l26 -19q1 -5 1.5 -12t0.5 -17
q0 -28 -5.5 -69.5t-14.5 -83.5h-74l-10 120q-23 6 -47 9t-43 3q-44 0 -93 -19q-23 -18 -42 -53t-33.5 -80.5t-22.5 -98t-8 -105.5q0 -44 6.5 -80.5t22 -62.5t42 -41t66.5 -15q24 0 52 6t54 19l6 157l-69 6v25l4 28h230v-49zM390 865q25 0 42 -6q5 -10 8 -20.5t3 -24.5
q0 -20 -7 -39t-21 -42h-95l-6 118q14 6 33.5 10t42.5 4z" />
    <glyph glyph-name="gdotaccent" unicode="&#x121;" horiz-adv-x="497" 
d="M297 87q78 -23 117 -47.5t39 -71.5q0 -34 -19 -66.5t-56.5 -58t-92.5 -41t-128 -15.5q-184 0 -184 103q0 27 13 49t34 40t47.5 31.5t53.5 22.5q-16 19 -16 47q0 27 13.5 52t36.5 48q-56 14 -83.5 49.5t-27.5 89.5q0 40 15.5 76.5t45 64t71 44t93.5 16.5q64 0 108 -27
q21 113 106 113l31 -72l-106 -65q40 -43 40 -106q0 -35 -13.5 -69t-41.5 -61t-70.5 -43.5t-100.5 -16.5l-20 1l-7 -59zM211 451q-20 -17 -33 -56t-13 -82q0 -47 20 -64.5t46 -17.5q11 0 25 2.5t24 7.5q18 16 32 55t14 84q0 47 -19.5 64t-45.5 17q-12 0 -25.5 -2.5
t-24.5 -7.5zM328 -121q10 8 15.5 17.5t5.5 21.5q0 14 -9.5 23.5t-34.5 17.5l-117 37q-25 8 -40 16q-27 -23 -45.5 -47.5t-18.5 -49.5q0 -32 26 -50.5t79 -18.5q35 0 73.5 8t65.5 25zM290 740q23 0 40 -6q5 -10 8 -19.5t3 -23.5q0 -20 -7 -39.5t-21 -42.5h-94l-6 118
q14 5 34 9t43 4z" />
    <glyph glyph-name="uni0122" unicode="&#x122;" horiz-adv-x="637" 
d="M603 247q-10 -5 -21 -9t-24 -7l-21 -225l-27 -18q-37 0 -67 9l-6 27q-29 -19 -64.5 -28t-74.5 -9q-59 0 -105.5 19.5t-79 56t-49.5 89.5t-17 120q0 70 20 142.5t60.5 131t101.5 95.5t144 37q35 0 62 -7t47 -18l1 15q20 5 35.5 8t35.5 3l26 -19q1 -5 1.5 -12t0.5 -17
q0 -28 -5.5 -69.5t-14.5 -83.5h-74l-10 120q-23 6 -47 9t-43 3q-44 0 -93 -19q-23 -18 -42 -53t-33.5 -80.5t-22.5 -98t-8 -105.5q0 -44 6.5 -80.5t22 -62.5t42 -41t66.5 -15q24 0 52 6t54 19l6 157l-69 6v25l4 28h230v-49zM289 -50q16 0 30 -2.5t27 -9.5q11 -14 11 -47
q0 -51 -28.5 -88t-91.5 -50l-11 31q26 13 42 27t16 39v11l-42 4l7 81q10 2 21 3t19 1z" />
    <glyph glyph-name="uni0123" unicode="&#x123;" horiz-adv-x="497" 
d="M297 87q78 -23 117 -47.5t39 -71.5q0 -34 -19 -66.5t-56.5 -58t-92.5 -41t-128 -15.5q-184 0 -184 103q0 27 13 49t34 40t47.5 31.5t53.5 22.5q-16 19 -16 47q0 27 13.5 52t36.5 48q-56 14 -83.5 49.5t-27.5 89.5q0 40 15.5 76.5t45 64t71 44t93.5 16.5q64 0 108 -27
q21 113 106 113l31 -72l-106 -65q40 -43 40 -106q0 -35 -13.5 -69t-41.5 -61t-70.5 -43.5t-100.5 -16.5l-20 1l-7 -59zM211 451q-20 -17 -33 -56t-13 -82q0 -47 20 -64.5t46 -17.5q11 0 25 2.5t24 7.5q18 16 32 55t14 84q0 47 -19.5 64t-45.5 17q-12 0 -25.5 -2.5
t-24.5 -7.5zM328 -121q10 8 15.5 17.5t5.5 21.5q0 14 -9.5 23.5t-34.5 17.5l-117 37q-25 8 -40 16q-27 -23 -45.5 -47.5t-18.5 -49.5q0 -32 26 -50.5t79 -18.5q35 0 73.5 8t65.5 25zM340 748q-28 -14 -44.5 -30t-16.5 -42v-11l42 -4l-7 -82q-10 -2 -21 -2.5t-19 -0.5
q-16 0 -30 2.5t-27 9.5q-11 14 -11 47q0 52 29.5 91.5t92.5 52.5z" />
    <glyph glyph-name="Hcircumflex" unicode="&#x124;" horiz-adv-x="715" 
d="M721 616q-17 -8 -39.5 -13.5t-39.5 -7.5l-50 -537l74 -7v-23l-3 -28h-273v49q16 8 37.5 13.5t38.5 7.5l22 242h-246l-23 -254l68 -7v-23l-4 -28h-268v49q16 8 38.5 13.5t39.5 7.5l49 537l-74 7v23l3 28h272v-49q-15 -8 -35.5 -13.5t-38.5 -7.5l-21 -220h246l21 232l-69 7
v23l3 28h272v-49zM492 707l-82 94h-9l-90 -82h-59l154 172h71l93 -140z" />
    <glyph glyph-name="hcircumflex" unicode="&#x125;" horiz-adv-x="581" 
d="M559 46q-31 -25 -67.5 -40.5t-71.5 -15.5q-32 0 -52 15t-20 51q0 15 3.5 40.5t9 57t12 65.5t12 65.5t9 59t3.5 44.5q0 26 -10 38.5t-36 12.5h-11q-6 0 -14 -2q-38 -50 -79.5 -156t-88.5 -281q-19 -5 -43.5 -7.5t-44.5 -2.5l-24 22l69 611l-59 16l6 47q34 9 76 15t79 8
l25 -22l-28 -210q-9 -73 -20 -135t-22 -112l12 -2q27 84 49.5 140.5t46 90t51.5 47.5t66 14q118 0 118 -118q0 -24 -4.5 -62t-11.5 -83t-16 -94.5t-17 -96.5q20 0 42 7.5t42 18.5zM211 748l130 149h71l77 -118l-78 -43l-66 77h-9l-66 -65h-59z" />
    <glyph glyph-name="Hbar" unicode="&#x126;" horiz-adv-x="742" 
d="M733 616q-17 -8 -39.5 -13.5t-40.5 -7.5l-9 -89h85v-21l-6 -40h-84l-36 -387l75 -7v-23l-3 -28h-273v49q16 8 37 13.5t38 7.5l19 208h-245l-20 -220l68 -7v-23l-4 -28h-268v49q16 8 38.5 13.5t39.5 7.5l34 375h-84v21l6 40h84l9 101l-74 7v23l3 28h272v-49
q-15 -8 -35.5 -13.5t-38.5 -7.5l-8 -89h244l9 101l-68 7v23l3 28h272v-49zM267 445l-10 -104h245l10 104h-245z" />
    <glyph glyph-name="hbar" unicode="&#x127;" horiz-adv-x="582" 
d="M560 46q-31 -25 -67.5 -40.5t-71.5 -15.5q-32 0 -52 15t-20 51q0 15 3.5 40.5t9 57t12 65.5t12 65.5t9 59t3.5 44.5q0 26 -10 38.5t-36 12.5h-11q-5 0 -13 -2q-37 -50 -79 -156t-89 -281q-20 -5 -44.5 -7.5t-44.5 -2.5l-24 22l67 598h-73v26l7 32h72l8 68q26 7 48.5 11
t47.5 6l24 -22l-8 -63h135v-26l-7 -32h-136l-17 -133q-10 -73 -21 -135t-21 -112l11 -2q27 84 50 140.5t46.5 90t51.5 47.5t66 14q118 0 118 -118q0 -24 -4.5 -62t-11.5 -83t-16 -94.5t-17 -96.5q20 0 42 7.5t42 18.5z" />
    <glyph glyph-name="Itilde" unicode="&#x128;" horiz-adv-x="342" 
d="M348 616q-17 -8 -39 -13.5t-40 -7.5l-50 -537l74 -7v-23l-3 -28h-275v49q16 8 38.5 13.5t39.5 7.5l49 537l-74 7v23l3 28h277v-49zM377 843q-18 -44 -46.5 -75t-65.5 -31q-25 0 -53 19l-57 36l-53 -55l-29 26q8 20 19.5 39t25.5 34t30.5 24t36.5 9q25 0 53 -19l55 -36
l55 55z" />
    <glyph glyph-name="itilde" unicode="&#x129;" horiz-adv-x="283" 
d="M177 66q20 0 40.5 7.5t40.5 18.5l9 -46q-31 -25 -65 -40.5t-69 -15.5q-34 0 -54 15t-20 53q0 12 2.5 38t6 59t8 71.5t9.5 75.5t9.5 70.5t7.5 57.5l-70 6v47q38 12 85 21.5t88 11.5l23 -22zM325 707q-14 -45 -40.5 -77.5t-61.5 -32.5q-12 0 -23 4.5t-25 15.5l-51 36
l-47 -54l-28 24q7 22 17 41.5t23 34.5t28.5 24t33.5 9q13 0 23.5 -4.5t24.5 -14.5l52 -36l47 54z" />
    <glyph glyph-name="Imacron" unicode="&#x12a;" horiz-adv-x="342" 
d="M348 616q-17 -8 -39 -13.5t-40 -7.5l-50 -537l74 -7v-23l-3 -28h-275v49q16 8 38.5 13.5t39.5 7.5l49 537l-74 7v23l3 28h277v-49zM367 840q1 -2 2 -9t1 -15q0 -10 -2 -25.5t-9 -29.5h-275q-1 3 -2 9t-1 14q0 10 2.5 26t8.5 30h275z" />
    <glyph glyph-name="imacron" unicode="&#x12b;" horiz-adv-x="283" 
d="M177 66q20 0 40.5 7.5t40.5 18.5l9 -46q-31 -25 -65 -40.5t-69 -15.5q-34 0 -54 15t-20 53q0 12 2.5 38t6 59t8 71.5t9.5 75.5t9.5 70.5t7.5 57.5l-70 6v47q38 12 85 21.5t88 11.5l23 -22zM298 698q1 -2 2 -8t1 -14q0 -10 -2 -25.5t-9 -30.5h-221q-1 2 -2 8t-1 14
q0 10 2.5 26t9.5 30h220z" />
    <glyph glyph-name="Ibreve" unicode="&#x12c;" horiz-adv-x="342" 
d="M348 616q-17 -8 -39 -13.5t-40 -7.5l-50 -537l74 -7v-23l-3 -28h-275v49q16 8 38.5 13.5t39.5 7.5l49 537l-74 7v23l3 28h277v-49zM168 879q3 -42 20 -63t53 -21q38 0 59.5 22t39.5 61l40 -9q-18 -72 -59 -111t-107 -39q-36 0 -61 11t-40 30.5t-21.5 45t-4.5 55.5z" />
    <glyph glyph-name="ibreve" unicode="&#x12d;" horiz-adv-x="283" 
d="M177 66q20 0 40.5 7.5t40.5 18.5l9 -46q-31 -25 -65 -40.5t-69 -15.5q-34 0 -54 15t-20 53q0 12 2.5 38t6 59t8 71.5t9.5 75.5t9.5 70.5t7.5 57.5l-70 6v47q38 12 85 21.5t88 11.5l23 -22zM151 755q0 -46 10.5 -71.5t42.5 -25.5q31 0 48.5 24t33.5 72l39 -9
q-37 -161 -146 -161q-31 0 -53.5 12t-36.5 32.5t-19 48.5t0 60z" />
    <glyph glyph-name="Iogonek" unicode="&#x12e;" horiz-adv-x="342" 
d="M348 616q-17 -8 -39 -13.5t-41 -7.5l-50 -537l75 -7v-23l-3 -28q-70 -22 -102 -49t-32 -59q0 -43 48 -43q12 0 25 3t24 6l3 -43q-41 -28 -100 -28q-54 0 -78 21.5t-24 55.5q0 42 32 74.5t83 50.5v11h-154v49q16 8 38.5 13.5t39.5 7.5l49 537l-74 7v23l3 28h277v-49z" />
    <glyph glyph-name="iogonek" unicode="&#x12f;" horiz-adv-x="283" 
d="M201 740q23 0 40 -6q5 -10 8 -19.5t3 -23.5q0 -20 -6.5 -39.5t-20.5 -42.5h-95l-6 118q14 5 34 9t43 4zM228 494q-4 -32 -10.5 -86.5t-14 -116t-15 -122t-12.5 -103.5q21 0 41 7.5t40 18.5l10 -46q-26 -17 -50 -34.5t-42.5 -36.5t-29.5 -38.5t-11 -40.5q0 -23 12.5 -35
t35.5 -12q11 0 24 2.5t24 6.5l4 -43q-40 -28 -101 -28q-55 0 -78.5 23t-23.5 55q1 40 31.5 69.5t72.5 47.5l-2 11q-10 -1 -18 0q-25 2 -41 16.5t-16 47.5q0 13 2.5 39t6 59t8.5 71.5t10 75.5t9.5 70.5t7.5 57.5l-70 6v47q38 12 85 21.5t87 11.5z" />
    <glyph glyph-name="Idotaccent" unicode="&#x130;" horiz-adv-x="342" 
d="M348 616q-17 -8 -39 -13.5t-40 -7.5l-50 -537l74 -7v-23l-3 -28h-275v49q16 8 38.5 13.5t39.5 7.5l49 537l-74 7v23l3 28h277v-49zM239 865q25 0 42 -6q5 -10 8 -20.5t3 -24.5q0 -20 -7 -39t-21 -42h-95l-6 118q14 6 33.5 10t42.5 4z" />
    <glyph glyph-name="dotlessi" unicode="&#x131;" horiz-adv-x="283" 
d="M177 66q20 0 40.5 7.5t40.5 18.5l9 -46q-31 -25 -65 -40.5t-69 -15.5q-34 0 -54 15t-20 53q0 12 2.5 38t6 59t8 71.5t9.5 75.5t9.5 70.5t7.5 57.5l-70 6v47q38 12 85 21.5t88 11.5l23 -22z" />
    <glyph glyph-name="IJ" unicode="&#x132;" horiz-adv-x="683" 
d="M15 0v49q16 8 38.5 13.5t39.5 7.5l49 537l-74 7v23l3 28h272v-49q-16 -8 -36.5 -13.5t-37.5 -7.5l-50 -537l73 -7v-23l-3 -28h-274zM690 616q-17 -8 -38.5 -13.5t-39.5 -8.5l-47 -484q-5 -51 -16.5 -93t-34 -73t-58.5 -48t-90 -17q-47 0 -87 12.5t-65 32.5l16 53
q41 -8 87.5 -12.5t85.5 -5.5q11 19 20.5 54t14.5 95l47 498l-84 6v24l4 29h285v-49z" />
    <glyph glyph-name="ij" unicode="&#x133;" horiz-adv-x="556" 
d="M454 17q-14 -122 -58 -176t-116 -54q-33 0 -64 10.5t-55 32.5l15 48q26 -6 58 -13t67 -6q13 26 20 60t12 74l53 437l-71 6v47q38 12 85.5 21.5t88.5 11.5l23 -22zM473 740q23 0 40 -6q5 -10 8 -19.5t3 -23.5q0 -20 -7 -39.5t-21 -42.5h-94l-6 118q14 5 34 9t43 4zM177 66
q20 0 40.5 7.5t40.5 18.5l9 -46q-31 -25 -65 -40.5t-69 -15.5q-34 0 -54 15t-20 53q0 12 2.5 38t6 59t8 71.5t9.5 75.5t9.5 70.5t7.5 57.5l-70 6v47q38 12 85 21.5t88 11.5l23 -22zM202 740q23 0 40 -6q5 -10 8 -19.5t3 -23.5q0 -20 -7 -39.5t-21 -42.5h-94l-6 118
q14 5 34 9t43 4z" />
    <glyph glyph-name="Jcircumflex" unicode="&#x134;" horiz-adv-x="456" 
d="M463 616q-17 -8 -39 -13.5t-40 -8.5l-47 -484q-5 -51 -16.5 -93.5t-34.5 -73t-59.5 -47.5t-91.5 -17q-54 0 -100 16.5t-74 48.5l20 54q47 -17 98 -27t96 -12q11 19 20.5 54t14.5 95l47 498l-130 6v24l4 29h332v-49zM385 707l-82 94h-9l-90 -82h-59l154 172h71l93 -140z
" />
    <glyph glyph-name="jcircumflex" unicode="&#x135;" horiz-adv-x="273" 
d="M171 17q-14 -122 -58 -176t-116 -54q-33 0 -64 10.5t-55 32.5l15 48q26 -6 58 -13t67 -6q13 26 20 60t12 74l53 437l-71 6v47q38 12 85.5 21.5t88.5 11.5l23 -22zM218 575l-52 95h-10l-64 -91h-55l125 190h71l64 -160z" />
    <glyph glyph-name="uni0136" unicode="&#x136;" horiz-adv-x="664" 
d="M658 616q-14 -7 -32.5 -12t-35.5 -8q-41 -59 -85 -115.5t-92 -111.5q16 -43 34 -85.5t36.5 -81.5t36.5 -72.5t35 -59.5l61 3l4 -52q-26 -16 -55 -23.5t-54 -7.5q-38 0 -61 17t-39 46q-22 37 -46 102t-44 150h-79l-23 -247l71 -7v-23l-4 -28h-271v49q16 8 38.5 13.5
t39.5 7.5l49 537l-74 7v23l3 28h276v-49q-16 -8 -38 -13.5t-40 -7.5l-22 -231l91 6q47 57 88.5 117t78.5 120l-73 7v23l3 28h223v-49zM315 -50q16 0 30 -2.5t27 -9.5q11 -14 11 -47q0 -51 -28.5 -88t-91.5 -50l-11 31q26 13 42 27t16 39v11l-42 4l7 81q10 2 21 3t19 1z" />
    <glyph glyph-name="uni0137" unicode="&#x137;" horiz-adv-x="575" 
d="M544 45q-27 -24 -61.5 -39.5t-70.5 -15.5q-24 0 -39.5 7t-26.5 20t-18.5 31t-14.5 41q-14 41 -20 74.5t-8 56.5l50 15q32 32 51 74.5t19 80.5q0 26 -11.5 37.5t-39.5 11.5h-11q-6 0 -14 -2q-38 -50 -80 -156t-89 -281q-19 -5 -42.5 -7.5t-46.5 -2.5l-24 22l73 655l-58 16
l5 47q35 9 76.5 15t79.5 8l24 -22l-32 -254q-11 -78 -21 -137.5t-21 -109.5l11 -2q29 88 52.5 145t48 89.5t52.5 45t66 12.5q60 0 96 -27.5t36 -89.5q0 -33 -11 -61.5t-29.5 -52t-44 -42t-55.5 -30.5q13 -37 27.5 -75.5t32.5 -74.5q21 2 40 8.5t39 16.5zM257 -50
q16 0 30 -2.5t27 -9.5q11 -14 11 -47q0 -51 -28.5 -88t-91.5 -50l-11 31q26 13 42 27t16 39v11l-42 4l7 81q10 2 21 3t19 1z" />
    <glyph glyph-name="kgreenlandic" unicode="&#x138;" horiz-adv-x="558" 
d="M450 67q20 2 39.5 9t38.5 16l10 -46q-29 -26 -62 -41t-66 -15q-41 0 -62.5 22.5t-37.5 62.5q-14 34 -26 76t-21 80h-69l-29 -231q-19 -5 -42.5 -7.5t-46.5 -2.5l-23 22l49 418l-70 6v47q18 6 40 12t45.5 10.5t46 7t40.5 3.5l23 -22l-26 -205l71 2q22 49 48 90.5t54 71.5
t58 47t61 17q16 0 31 -3.5t23 -9.5l8 -81l-116 -22q-17 -17 -40 -42t-49 -57q22 -70 45.5 -126t54.5 -109z" />
    <glyph glyph-name="Lacute" unicode="&#x139;" horiz-adv-x="528" 
d="M489 167q1 -11 1.5 -21t0.5 -22q0 -32 -5.5 -64t-18.5 -74l-25 -3l-289 17h-138v49q17 7 37.5 13t40.5 9l49 536l-74 7v23l3 28h282v-49q-17 -8 -40.5 -13.5t-43.5 -7.5l-50 -537h158l38 115zM360 900q32 -19 44 -62l-157 -119h-61l113 181h61z" />
    <glyph glyph-name="lacute" unicode="&#x13a;" horiz-adv-x="286" 
d="M301 897q32 -19 44 -62l-110 -86h-61l66 148h61zM241 686q-10 -86 -22 -178.5t-23 -177.5t-19 -154.5t-10 -109.5q20 0 46 7t46 17l10 -46q-30 -24 -68 -39t-73 -15q-32 0 -54.5 16t-22.5 60q0 23 6 78t15 130t20.5 165t22.5 183l-58 16l5 47q35 9 76 15t79 8z" />
    <glyph glyph-name="uni013B" unicode="&#x13b;" horiz-adv-x="528" 
d="M489 167q1 -11 1.5 -21t0.5 -22q0 -32 -5.5 -64t-18.5 -74l-25 -3l-289 17h-138v49q17 7 37.5 13t40.5 9l49 536l-74 7v23l3 28h282v-49q-17 -8 -40.5 -13.5t-43.5 -7.5l-50 -537h158l38 115zM227 -50q16 0 30 -2.5t27 -9.5q11 -14 11 -47q0 -51 -28.5 -88t-91.5 -50
l-11 31q26 13 42 27t16 39v11l-42 4l7 81q10 2 21 3t19 1z" />
    <glyph glyph-name="uni013C" unicode="&#x13c;" horiz-adv-x="286" 
d="M247 731q-7 -58 -15 -122t-16.5 -129t-16.5 -127.5t-15 -117.5t-11.5 -98.5t-5.5 -70.5q19 0 45.5 7.5t46.5 17.5l10 -46q-30 -24 -67.5 -39.5t-72.5 -15.5q-33 0 -55.5 16.5t-22.5 59.5q0 23 6.5 85t17 145.5t23 180.5t23.5 190l-60 16l5 47q35 9 77 15t80 8zM108 -50
q16 0 30 -2.5t27 -9.5q11 -14 11 -47q0 -51 -28.5 -88t-91.5 -50l-11 31q26 13 42 27t16 39v11l-42 4l7 81q10 2 21 3t19 1z" />
    <glyph glyph-name="Lcaron" unicode="&#x13d;" horiz-adv-x="528" 
d="M489 167q1 -11 1.5 -21t0.5 -22q0 -32 -5.5 -64t-18.5 -74l-25 -3l-289 17h-138v49q17 7 37.5 13t40.5 9l49 536l-74 7v23l3 28h282v-49q-17 -8 -40.5 -13.5t-43.5 -7.5l-50 -537h158l38 115zM466 675q22 0 40 -6.5t28 -13.5q-6 -61 -26.5 -110t-65.5 -102h-45l31 127v99
q8 3 19 4.5t19 1.5z" />
    <glyph glyph-name="lcaron" unicode="&#x13e;" horiz-adv-x="372" 
d="M248 731q-7 -58 -15 -122t-16.5 -129t-16.5 -127.5t-15 -117.5t-11.5 -98.5t-5.5 -70.5q19 0 45.5 7.5t46.5 17.5l10 -46q-30 -24 -67.5 -39.5t-72.5 -15.5q-33 0 -55.5 16.5t-22.5 59.5q0 23 6.5 85t17 145.5t23 180.5t23.5 190l-60 16l5 47q35 9 77 15t80 8zM357 757
q22 0 40 -6.5t28 -13.5q-6 -61 -26.5 -110t-65.5 -102h-45l31 127v99q8 3 19 4.5t19 1.5z" />
    <glyph glyph-name="Ldot" unicode="&#x13f;" horiz-adv-x="533" 
d="M475 447q26 0 43 -5q11 -20 11 -44q0 -42 -30 -82h-89l-4 119q13 5 31 8.5t38 3.5zM489 167q1 -11 1.5 -21t0.5 -22q0 -32 -5.5 -64t-18.5 -74l-25 -3l-289 17h-138v49q17 7 37.5 13t40.5 9l49 536l-74 7v23l3 28h282v-49q-17 -8 -40.5 -13.5t-43.5 -7.5l-50 -537h158
l38 115z" />
    <glyph glyph-name="ldot" unicode="&#x140;" horiz-adv-x="328" 
d="M311 422q11 0 22 -1.5t19 -4.5q5 -9 7.5 -19t2.5 -23q0 -22 -7.5 -42t-19.5 -40h-83l-4 118q12 5 28 8.5t35 3.5zM248 731q-7 -58 -15 -122t-16.5 -129t-16.5 -127.5t-15 -117.5t-11.5 -98.5t-5.5 -70.5q19 0 45.5 7.5t46.5 17.5l10 -46q-30 -24 -67.5 -39.5t-72.5 -15.5
q-33 0 -55.5 16.5t-22.5 59.5q0 23 6.5 85t17 145.5t23 180.5t23.5 190l-60 16l5 47q35 9 77 15t80 8z" />
    <glyph glyph-name="Lslash" unicode="&#x141;" horiz-adv-x="540" 
d="M501 167q1 -11 1.5 -21t0.5 -22q0 -32 -5.5 -64t-18.5 -74l-25 -3l-289 17h-138v49q17 7 37.5 13t40.5 9l18 199l-66 -28l-17 13v50l90 37l24 265l-74 7v23l3 28h282v-49q-17 -8 -40.5 -13.5t-43.5 -7.5l-20 -205l167 71l17 -13v-49l-190 -81l-24 -260h158l38 115z" />
    <glyph glyph-name="lslash" unicode="&#x142;" horiz-adv-x="305" 
d="M205 326q-11 -85 -18.5 -153.5t-9.5 -106.5q20 0 46 7.5t46 17.5l10 -46q-30 -24 -67.5 -39.5t-72.5 -15.5q-33 0 -55.5 16.5t-22.5 59.5q0 20 4.5 65.5t12.5 109.5l-54 -39l-17 13v50l81 58q10 80 21 169t22 175l-60 16l5 47q35 9 77 15t80 8l24 -22q-8 -74 -19 -157.5
t-22 -165.5l74 55l17 -13v-49z" />
    <glyph glyph-name="Nacute" unicode="&#x143;" horiz-adv-x="706" 
d="M713 616q-15 -8 -38 -13.5t-40 -7.5l-56 -591q-47 -14 -100 -15l-22 5l-173 392q-23 54 -41 102t-30 89h-12l-32 -519l74 -7v-23l-4 -28h-224v49q17 8 38.5 14t38.5 8l50 527l-74 9v24l3 28q30 1 57.5 2.5t55.5 2t57.5 1t62.5 0.5l141 -322q25 -57 43.5 -105.5
t33.5 -90.5h11l24 459l-79 8v23l3 28h232v-49zM540 900q32 -19 44 -62l-157 -119h-61l113 181h61z" />
    <glyph glyph-name="nacute" unicode="&#x144;" horiz-adv-x="587" 
d="M565 46q-31 -25 -67.5 -40.5t-71.5 -15.5q-32 0 -52.5 15t-20.5 51q0 15 3.5 40.5t9.5 57t12 65.5t12 65.5t9.5 59t3.5 44.5q0 26 -10.5 38.5t-36.5 12.5h-10q-5 0 -13 -2q-38 -50 -80.5 -156t-87.5 -281q-19 -5 -44 -7.5t-45 -2.5l-24 22l50 418l-70 6v47q35 12 83 21.5
t89 11.5l23 -22l-49 -264l12 -2q27 85 50 141.5t46.5 90t51 47t65.5 13.5q118 0 118 -118q0 -24 -4.5 -62t-12 -83t-16 -94.5t-17.5 -96.5q21 0 43 7.5t42 18.5zM489 775q15 -10 27 -26.5t17 -36.5l-155 -142h-55l105 205h61z" />
    <glyph glyph-name="uni0145" unicode="&#x145;" horiz-adv-x="706" 
d="M713 616q-15 -8 -38 -13.5t-40 -7.5l-56 -591q-47 -14 -100 -15l-22 5l-173 392q-23 54 -41 102t-30 89h-12l-32 -519l74 -7v-23l-4 -28h-224v49q17 8 38.5 14t38.5 8l50 527l-74 9v24l3 28q30 1 57.5 2.5t55.5 2t57.5 1t62.5 0.5l141 -322q25 -57 43.5 -105.5
t33.5 -90.5h11l24 459l-79 8v23l3 28h232v-49zM313 -50q16 0 30 -2.5t27 -9.5q11 -14 11 -47q0 -51 -28.5 -88t-91.5 -50l-11 31q26 13 42 27t16 39v11l-42 4l7 81q10 2 21 3t19 1z" />
    <glyph glyph-name="uni0146" unicode="&#x146;" horiz-adv-x="587" 
d="M565 46q-31 -25 -67.5 -40.5t-71.5 -15.5q-32 0 -52.5 15t-20.5 51q0 15 3.5 40.5t9.5 57t12 65.5t12 65.5t9.5 59t3.5 44.5q0 26 -10.5 38.5t-36.5 12.5h-10q-5 0 -13 -2q-38 -50 -80.5 -156t-87.5 -281q-19 -5 -44 -7.5t-45 -2.5l-24 22l50 418l-70 6v47q35 12 83 21.5
t89 11.5l23 -22l-49 -264l12 -2q27 85 50 141.5t46.5 90t51 47t65.5 13.5q118 0 118 -118q0 -24 -4.5 -62t-12 -83t-16 -94.5t-17.5 -96.5q21 0 43 7.5t42 18.5zM259 -50q16 0 30 -2.5t27 -9.5q11 -14 11 -47q0 -51 -28.5 -88t-91.5 -50l-11 31q26 13 42 27t16 39v11l-42 4
l7 81q10 2 21 3t19 1z" />
    <glyph glyph-name="Ncaron" unicode="&#x147;" horiz-adv-x="706" 
d="M713 616q-15 -8 -38 -13.5t-40 -7.5l-56 -591q-47 -14 -100 -15l-22 5l-173 392q-23 54 -41 102t-30 89h-12l-32 -519l74 -7v-23l-4 -28h-224v49q17 8 38.5 14t38.5 8l50 527l-74 9v24l3 28q30 1 57.5 2.5t55.5 2t57.5 1t62.5 0.5l141 -322q25 -57 43.5 -105.5
t33.5 -90.5h11l24 459l-79 8v23l3 28h232v-49zM429 809l91 82h58l-153 -172h-72l-94 142l81 41l80 -93h9z" />
    <glyph glyph-name="ncaron" unicode="&#x148;" horiz-adv-x="587" 
d="M565 46q-31 -25 -67.5 -40.5t-71.5 -15.5q-32 0 -52.5 15t-20.5 51q0 15 3.5 40.5t9.5 57t12 65.5t12 65.5t9.5 59t3.5 44.5q0 26 -10.5 38.5t-36.5 12.5h-10q-5 0 -13 -2q-38 -50 -80.5 -156t-87.5 -281q-19 -5 -44 -7.5t-45 -2.5l-24 22l50 418l-70 6v47q35 12 83 21.5
t89 11.5l23 -22l-49 -264l12 -2q27 85 50 141.5t46.5 90t51 47t65.5 13.5q118 0 118 -118q0 -24 -4.5 -62t-12 -83t-16 -94.5t-17.5 -96.5q21 0 43 7.5t42 18.5zM381 664l84 103h55l-144 -196h-72l-81 165l79 39l70 -111h9z" />
    <glyph glyph-name="napostrophe" unicode="&#x149;" horiz-adv-x="588" 
d="M566 46q-31 -25 -67.5 -40.5t-71.5 -15.5q-32 0 -52.5 15t-20.5 51q0 15 3.5 40.5t9.5 57t12 65.5t12 65.5t9.5 59t3.5 44.5q0 26 -10.5 38.5t-36.5 12.5h-10q-5 0 -13 -2q-38 -50 -80.5 -156t-87.5 -281q-19 -5 -44 -7.5t-45 -2.5l-24 22l50 418l-70 6v47q35 12 83 21.5
t89 11.5l23 -22l-49 -264l12 -2q27 85 50 141.5t46.5 90t51 47t65.5 13.5q118 0 118 -118q0 -24 -4.5 -62t-12 -83t-16 -94.5t-17.5 -96.5q21 0 43 7.5t42 18.5zM66 753q16 0 30 -2.5t27 -9.5q11 -14 11 -47q0 -51 -28.5 -88t-91.5 -50l-11 31q26 13 42 27t16 39v11l-42 4
l7 81q10 2 21 3t19 1z" />
    <glyph glyph-name="Eng" unicode="&#x14a;" horiz-adv-x="706" 
d="M713 616q-15 -8 -38 -13.5t-41 -7.5l-46 -485q-4 -51 -14.5 -93t-31.5 -73t-54 -48t-83 -17q-45 0 -83.5 14t-61.5 40l20 54q42 -12 84.5 -19t80.5 -9q10 11 19 34l-178 393q-25 54 -43 102t-30 89h-12l-32 -519l64 -7v-23l-4 -28h-214v49q17 8 38.5 14t38.5 8l50 527
l-74 9v24l3 28q30 1 57.5 2.5t55.5 2t57.5 1t62.5 0.5l138 -316q25 -57 44.5 -107t34.5 -91h11l24 455l-78 8v23l3 28h232v-49z" />
    <glyph glyph-name="eng" unicode="&#x14b;" horiz-adv-x="583" 
d="M404 520q58 0 87.5 -29t29.5 -95q0 -16 -2 -40t-7 -66t-14 -108t-22 -165q-16 -124 -59.5 -177t-113.5 -53q-34 0 -65 10.5t-55 32.5l15 48q26 -6 57.5 -12.5t66.5 -6.5q14 26 21 60t12 74q14 103 23.5 172t15 113t7.5 68.5t2 38.5q0 28 -9.5 41t-37.5 13h-10
q-5 0 -12 -1q-38 -51 -79.5 -157t-89.5 -281q-19 -5 -44 -7.5t-45 -2.5l-24 22l50 418l-70 6v47q35 12 83 21.5t89 11.5l23 -22l-49 -264l12 -2q27 84 49 140t46 89.5t52 48t67 14.5z" />
    <glyph glyph-name="Omacron" unicode="&#x14c;" horiz-adv-x="686" 
d="M393 678q64 0 113.5 -20.5t83.5 -58t51 -90.5t17 -119q0 -71 -20 -142.5t-62 -129.5t-107.5 -94.5t-156.5 -36.5q-65 0 -114 20.5t-83 58t-51 91t-17 119.5q0 70 19.5 142t61.5 129.5t107.5 94t157.5 36.5zM382 610q-22 0 -42.5 -5t-43.5 -14q-23 -18 -42 -52
t-33.5 -78.5t-22.5 -97t-8 -107.5q0 -44 6.5 -80.5t22 -63.5t41.5 -42t65 -15q22 0 43 5t43 14q22 18 41.5 52t34 78.5t22.5 97t8 107.5q0 43 -6.5 80t-22 64t-41.5 42t-65 15zM541 840q1 -2 2 -9t1 -15q0 -10 -2 -25.5t-9 -29.5h-275q-1 3 -2 9t-1 14q0 10 2.5 26t8.5 30
h275z" />
    <glyph glyph-name="omacron" unicode="&#x14d;" horiz-adv-x="526" 
d="M298 520q52 0 89.5 -16t61.5 -44.5t35.5 -68t11.5 -85.5q0 -49 -13.5 -105t-45 -103.5t-82.5 -79t-126 -31.5q-52 0 -89.5 16t-61.5 44.5t-35.5 67.5t-11.5 86q0 49 13.5 105t45 103.5t82.5 79t126 31.5zM286 461q-28 0 -52 -11q-19 -19 -33 -53t-23 -73.5t-13 -80.5
t-4 -75q0 -63 19.5 -92.5t61.5 -29.5q28 0 52 11q19 19 32.5 53t22.5 73.5t13 80.5t4 74q0 65 -19 94t-61 29zM436 698q1 -2 2 -8t1 -14q0 -10 -2.5 -25.5t-9.5 -30.5h-253q-1 2 -2 8t-1 14q0 10 2.5 26t9.5 30h253z" />
    <glyph glyph-name="Obreve" unicode="&#x14e;" horiz-adv-x="686" 
d="M393 678q64 0 113.5 -20.5t83.5 -58t51 -90.5t17 -119q0 -71 -20 -142.5t-62 -129.5t-107.5 -94.5t-156.5 -36.5q-65 0 -114 20.5t-83 58t-51 91t-17 119.5q0 70 19.5 142t61.5 129.5t107.5 94t157.5 36.5zM382 610q-22 0 -42.5 -5t-43.5 -14q-23 -18 -42 -52
t-33.5 -78.5t-22.5 -97t-8 -107.5q0 -44 6.5 -80.5t22 -63.5t41.5 -42t65 -15q22 0 43 5t43 14q22 18 41.5 52t34 78.5t22.5 97t8 107.5q0 43 -6.5 80t-22 64t-41.5 42t-65 15zM342 879q3 -42 20 -63t53 -21q38 0 59.5 22t39.5 61l40 -9q-18 -72 -59 -111t-107 -39
q-36 0 -61 11t-40 30.5t-21.5 45t-4.5 55.5z" />
    <glyph glyph-name="obreve" unicode="&#x14f;" horiz-adv-x="526" 
d="M298 520q52 0 89.5 -16t61.5 -44.5t35.5 -68t11.5 -85.5q0 -49 -13.5 -105t-45 -103.5t-82.5 -79t-126 -31.5q-52 0 -89.5 16t-61.5 44.5t-35.5 67.5t-11.5 86q0 49 13.5 105t45 103.5t82.5 79t126 31.5zM286 461q-28 0 -52 -11q-19 -19 -33 -53t-23 -73.5t-13 -80.5
t-4 -75q0 -63 19.5 -92.5t61.5 -29.5q28 0 52 11q19 19 32.5 53t22.5 73.5t13 80.5t4 74q0 65 -19 94t-61 29zM259 756q1 -47 13.5 -72.5t50.5 -25.5q36 0 56 25.5t34 71.5l39 -11q-17 -82 -57 -121t-101 -39q-38 0 -62.5 14t-37.5 36t-16.5 49.5t0.5 54.5z" />
    <glyph glyph-name="Ohungarumlaut" unicode="&#x150;" horiz-adv-x="686" 
d="M393 678q64 0 113.5 -20.5t83.5 -58t51 -90.5t17 -119q0 -71 -20 -142.5t-62 -129.5t-107.5 -94.5t-156.5 -36.5q-65 0 -114 20.5t-83 58t-51 91t-17 119.5q0 70 19.5 142t61.5 129.5t107.5 94t157.5 36.5zM382 610q-22 0 -42.5 -5t-43.5 -14q-23 -18 -42 -52
t-33.5 -78.5t-22.5 -97t-8 -107.5q0 -44 6.5 -80.5t22 -63.5t41.5 -42t65 -15q22 0 43 5t43 14q22 18 41.5 52t34 78.5t22.5 97t8 107.5q0 43 -6.5 80t-22 64t-41.5 42t-65 15zM374 889q31 -14 45 -54l-96 -116h-58l53 170h56zM547 889q31 -14 45 -54l-96 -116h-58l53 170
h56z" />
    <glyph glyph-name="ohungarumlaut" unicode="&#x151;" horiz-adv-x="526" 
d="M298 520q52 0 89.5 -16t61.5 -44.5t35.5 -68t11.5 -85.5q0 -49 -13.5 -105t-45 -103.5t-82.5 -79t-126 -31.5q-52 0 -89.5 16t-61.5 44.5t-35.5 67.5t-11.5 86q0 49 13.5 105t45 103.5t82.5 79t126 31.5zM286 461q-28 0 -52 -11q-19 -19 -33 -53t-23 -73.5t-13 -80.5
t-4 -75q0 -63 19.5 -92.5t61.5 -29.5q28 0 52 11q19 19 32.5 53t22.5 73.5t13 80.5t4 74q0 65 -19 94t-61 29zM300 778q31 -14 50 -55l-120 -150h-50l64 205h56zM468 778q31 -14 50 -55l-119 -150h-51l64 205h56z" />
    <glyph glyph-name="OE" unicode="&#x152;" horiz-adv-x="914" 
d="M584 369l166 8l9 -22l-7 -55l-174 9l-22 -251h183l38 115l74 -6q1 -11 1.5 -21t0.5 -22q0 -32 -5.5 -64t-18.5 -74l-26 -3l-313 17h-46q-37 -7 -70 -10t-59 -3q-131 0 -199 75.5t-68 209.5q0 70 19 142.5t60 131t107 95.5t160 37q29 0 58 -3.5t55 -9.5h300q17 5 35 9.5
t35 4.5l25 -14q1 -6 1.5 -14t0.5 -19q0 -29 -5 -66.5t-14 -73.5h-72l-9 105l-199 8zM478 585q-21 14 -45 19.5t-47 5.5t-44.5 -5t-44.5 -14q-23 -18 -42 -51.5t-33.5 -78.5t-22.5 -98t-8 -108q0 -44 6.5 -80.5t22 -63t42.5 -41.5t68 -15q20 0 49 4.5t52 17.5z" />
    <glyph glyph-name="oe" unicode="&#x153;" horiz-adv-x="798" 
d="M575 73q34 0 76 18t83 51l13 -48q-40 -47 -95 -77t-118 -30q-56 0 -86 25.5t-44 66.5h-11q-29 -42 -68 -67t-102 -25q-49 0 -85 16t-60 44.5t-35.5 68t-11.5 86.5q0 33 6 69t18.5 71.5t32.5 67.5t49 56.5t67 39t86 14.5q60 0 93 -24t55 -70h11q32 46 73 70t102 24
q40 0 69 -10t47.5 -27.5t27.5 -41t9 -51.5q0 -51 -26.5 -85t-68.5 -53.5t-95 -27t-106 -5.5v-13q0 -72 25.5 -102.5t68.5 -30.5zM294 57q19 19 32.5 53t22.5 73.5t13 80.5t4 74q0 65 -19 94t-61 29q-28 0 -52 -11q-19 -19 -33 -53t-23 -73.5t-13 -80.5t-4 -75
q0 -63 19.5 -92.5t61.5 -29.5q28 0 52 11zM602 461q-26 0 -50 -11q-15 -15 -26 -37t-19.5 -47.5t-14 -53t-8.5 -53.5q88 10 128.5 43.5t40.5 95.5q0 31 -11 47t-40 16z" />
    <glyph glyph-name="Racute" unicode="&#x154;" horiz-adv-x="628" 
d="M606 21q-26 -16 -54.5 -23.5t-54.5 -7.5q-42 0 -63.5 18.5t-36.5 44.5q-23 39 -43.5 95t-38.5 125h-80l-19 -215l75 -7v-23l-4 -28h-272v49q16 8 38.5 13.5t39.5 7.5l48 529l-73 9v24l3 28q65 7 128.5 10t109.5 3q139 -1 199 -45t60 -129q0 -77 -40.5 -126.5
t-101.5 -76.5q13 -32 28 -64t30 -61.5t29.5 -55.5t27.5 -45l62 3zM359 338q37 31 53.5 72.5t16.5 87.5q0 57 -27.5 83t-88.5 26h-48l-24 -269h118zM460 900q32 -19 44 -62l-157 -119h-61l113 181h61z" />
    <glyph glyph-name="racute" unicode="&#x155;" horiz-adv-x="405" 
d="M312 403q-18 -31 -35.5 -70t-35 -88t-35.5 -109.5t-39 -135.5q-19 -5 -43.5 -7.5t-47.5 -2.5l-24 22l50 418l-70 6v47q35 12 80.5 21.5t87.5 11.5l23 -22l-50 -273l11 -3q24 78 43.5 135t39.5 94t43 55t53 18q22 0 34.5 -8.5t21.5 -22.5l-15 -92zM403 775
q15 -10 27 -26.5t17 -36.5l-155 -142h-55l105 205h61z" />
    <glyph glyph-name="uni0156" unicode="&#x156;" horiz-adv-x="628" 
d="M606 21q-26 -16 -54.5 -23.5t-54.5 -7.5q-42 0 -63.5 18.5t-36.5 44.5q-23 39 -43.5 95t-38.5 125h-80l-19 -215l75 -7v-23l-4 -28h-272v49q16 8 38.5 13.5t39.5 7.5l48 529l-73 9v24l3 28q65 7 128.5 10t109.5 3q139 -1 199 -45t60 -129q0 -77 -40.5 -126.5
t-101.5 -76.5q13 -32 28 -64t30 -61.5t29.5 -55.5t27.5 -45l62 3zM359 338q37 31 53.5 72.5t16.5 87.5q0 57 -27.5 83t-88.5 26h-48l-24 -269h118zM311 -50q16 0 30 -2.5t27 -9.5q11 -14 11 -47q0 -51 -28.5 -88t-91.5 -50l-11 31q26 13 42 27t16 39v11l-42 4l7 81
q10 2 21 3t19 1z" />
    <glyph glyph-name="uni0157" unicode="&#x157;" horiz-adv-x="405" 
d="M312 403q-18 -31 -35.5 -70t-35 -88t-35.5 -109.5t-39 -135.5q-19 -5 -43.5 -7.5t-47.5 -2.5l-24 22l50 418l-70 6v47q35 12 80.5 21.5t87.5 11.5l23 -22l-50 -273l11 -3q24 78 43.5 135t39.5 94t43 55t53 18q22 0 34.5 -8.5t21.5 -22.5l-15 -92zM109 -50q16 0 30 -2.5
t27 -9.5q11 -14 11 -47q0 -51 -28.5 -88t-91.5 -50l-11 31q26 13 42 27t16 39v11l-42 4l7 81q10 2 21 3t19 1z" />
    <glyph glyph-name="Rcaron" unicode="&#x158;" horiz-adv-x="628" 
d="M606 21q-26 -16 -54.5 -23.5t-54.5 -7.5q-42 0 -63.5 18.5t-36.5 44.5q-23 39 -43.5 95t-38.5 125h-80l-19 -215l75 -7v-23l-4 -28h-272v49q16 8 38.5 13.5t39.5 7.5l48 529l-73 9v24l3 28q65 7 128.5 10t109.5 3q139 -1 199 -45t60 -129q0 -77 -40.5 -126.5
t-101.5 -76.5q13 -32 28 -64t30 -61.5t29.5 -55.5t27.5 -45l62 3zM359 338q37 31 53.5 72.5t16.5 87.5q0 57 -27.5 83t-88.5 26h-48l-24 -269h118zM371 809l91 82h58l-153 -172h-72l-94 142l81 41l80 -93h9z" />
    <glyph glyph-name="rcaron" unicode="&#x159;" horiz-adv-x="405" 
d="M312 403q-18 -31 -35.5 -70t-35 -88t-35.5 -109.5t-39 -135.5q-19 -5 -43.5 -7.5t-47.5 -2.5l-24 22l50 418l-70 6v47q35 12 80.5 21.5t87.5 11.5l23 -22l-50 -273l11 -3q24 78 43.5 135t39.5 94t43 55t53 18q22 0 34.5 -8.5t21.5 -22.5l-15 -92zM295 664l84 103h55
l-144 -196h-72l-81 165l79 39l70 -111h9z" />
    <glyph glyph-name="Sacute" unicode="&#x15a;" horiz-adv-x="523" 
d="M338 376q27 -18 51.5 -37.5t43 -43.5t29.5 -54t11 -67q0 -35 -11.5 -68.5t-39 -60t-74 -42.5t-116.5 -16q-63 0 -111.5 12t-80.5 27q-7 38 -7 77q0 23 2 45.5t5 45.5l79 5l28 -134q39 -12 82 -12q25 0 46.5 4t36.5 13q12 12 19.5 30.5t7.5 44.5q0 23 -6.5 40t-18 31
t-27.5 26t-36 25l-35 22q-66 42 -100 89.5t-34 110.5q0 40 14.5 74.5t41 60t64 40t84.5 14.5q34 0 59 -7.5t45 -19.5l2 17q20 5 35.5 8t35.5 3l26 -19q1 -5 1.5 -12t0.5 -16q0 -28 -5.5 -67.5t-14.5 -74.5h-74l-10 110q-20 6 -41.5 9t-39.5 3q-16 0 -34 -3t-32 -9
q-14 -11 -24 -29.5t-10 -45.5q0 -22 7.5 -39.5t20 -32.5t30.5 -28t39 -27zM453 900q32 -19 44 -62l-157 -119h-61l113 181h61z" />
    <glyph glyph-name="sacute" unicode="&#x15b;" horiz-adv-x="407" 
d="M256 290q24 -20 43.5 -37.5t33.5 -35.5t22 -38.5t8 -45.5q0 -68 -52 -107t-137 -39q-63 0 -107 22t-55 69l54 62l131 -93q22 3 37 10q8 11 11 23t3 24q0 15 -5 27t-15 24t-25.5 25.5t-37.5 31.5q-25 21 -45 39.5t-34.5 37t-22 38.5t-7.5 45q0 36 15 63.5t41 46t61.5 28.5
t76.5 10q56 0 96.5 -18.5t51.5 -59.5l-48 -60l-125 79q-25 -3 -40 -10q-8 -9 -13 -22.5t-5 -29.5q0 -15 5 -26.5t15.5 -23.5t27.5 -26t41 -33zM378 778q15 -10 27 -26.5t17 -36.5l-155 -142h-55l105 205h61z" />
    <glyph glyph-name="Scircumflex" unicode="&#x15c;" horiz-adv-x="523" 
d="M338 376q27 -18 51.5 -37.5t43 -43.5t29.5 -54t11 -67q0 -35 -11.5 -68.5t-39 -60t-74 -42.5t-116.5 -16q-63 0 -111.5 12t-80.5 27q-7 38 -7 77q0 23 2 45.5t5 45.5l79 5l28 -134q39 -12 82 -12q25 0 46.5 4t36.5 13q12 12 19.5 30.5t7.5 44.5q0 23 -6.5 40t-18 31
t-27.5 26t-36 25l-35 22q-66 42 -100 89.5t-34 110.5q0 40 14.5 74.5t41 60t64 40t84.5 14.5q34 0 59 -7.5t45 -19.5l2 17q20 5 35.5 8t35.5 3l26 -19q1 -5 1.5 -12t0.5 -16q0 -28 -5.5 -67.5t-14.5 -74.5h-74l-10 110q-20 6 -41.5 9t-39.5 3q-16 0 -34 -3t-32 -9
q-14 -11 -24 -29.5t-10 -45.5q0 -22 7.5 -39.5t20 -32.5t30.5 -28t39 -27zM395 707l-82 94h-9l-90 -82h-59l154 172h71l93 -140z" />
    <glyph glyph-name="scircumflex" unicode="&#x15d;" horiz-adv-x="407" 
d="M256 290q24 -20 43.5 -37.5t33.5 -35.5t22 -38.5t8 -45.5q0 -68 -52 -107t-137 -39q-63 0 -107 22t-55 69l54 62l131 -93q22 3 37 10q8 11 11 23t3 24q0 15 -5 27t-15 24t-25.5 25.5t-37.5 31.5q-25 21 -45 39.5t-34.5 37t-22 38.5t-7.5 45q0 36 15 63.5t41 46t61.5 28.5
t76.5 10q56 0 96.5 -18.5t51.5 -59.5l-48 -60l-125 79q-25 -3 -40 -10q-8 -9 -13 -22.5t-5 -29.5q0 -15 5 -26.5t15.5 -23.5t27.5 -26t41 -33zM313 566l-70 111h-9l-84 -103h-55l144 195h71l82 -165z" />
    <glyph glyph-name="Scedilla" unicode="&#x15e;" horiz-adv-x="523" 
d="M338 376q27 -18 51.5 -37.5t43 -43.5t29.5 -54t11 -67q0 -35 -11.5 -68.5t-39 -60t-74 -42.5t-116.5 -16q-63 0 -111.5 12t-80.5 27q-7 38 -7 77q0 23 2 45.5t5 45.5l79 5l28 -134q39 -12 82 -12q25 0 46.5 4t36.5 13q12 12 19.5 30.5t7.5 44.5q0 23 -6.5 40t-18 31
t-27.5 26t-36 25l-35 22q-66 42 -100 89.5t-34 110.5q0 40 14.5 74.5t41 60t64 40t84.5 14.5q34 0 59 -7.5t45 -19.5l2 17q20 5 35.5 8t35.5 3l26 -19q1 -5 1.5 -12t0.5 -16q0 -28 -5.5 -67.5t-14.5 -74.5h-74l-10 110q-20 6 -41.5 9t-39.5 3q-16 0 -34 -3t-32 -9
q-14 -11 -24 -29.5t-10 -45.5q0 -22 7.5 -39.5t20 -32.5t30.5 -28t39 -27zM263 -62q32 -1 54 -13t22 -47q0 -38 -29.5 -64.5t-87.5 -26.5q-30 0 -55 8t-41 22l12 41q16 -5 31 -9t30 -4q22 0 34.5 10.5t12.5 27.5q0 14 -11 19.5t-44 11.5l26 92h53z" />
    <glyph glyph-name="scedilla" unicode="&#x15f;" horiz-adv-x="407" 
d="M256 290q24 -20 43.5 -37.5t33.5 -35.5t22 -38.5t8 -45.5q0 -68 -52 -107t-137 -39q-63 0 -107 22t-55 69l54 62l131 -93q22 3 37 10q8 11 11 23t3 24q0 15 -5 27t-15 24t-25.5 25.5t-37.5 31.5q-25 21 -45 39.5t-34.5 37t-22 38.5t-7.5 45q0 36 15 63.5t41 46t61.5 28.5
t76.5 10q56 0 96.5 -18.5t51.5 -59.5l-48 -60l-125 79q-25 -3 -40 -10q-8 -9 -13 -22.5t-5 -29.5q0 -15 5 -26.5t15.5 -23.5t27.5 -26t41 -33zM195 -62q32 -1 54 -13t22 -47q0 -38 -29.5 -64.5t-87.5 -26.5q-30 0 -55 8t-41 22l12 41q16 -5 31 -9t30 -4q22 0 34.5 10.5
t12.5 27.5q0 14 -11 19.5t-44 11.5l26 92h53z" />
    <glyph glyph-name="Scaron" unicode="&#x160;" horiz-adv-x="523" 
d="M338 376q27 -18 51.5 -37.5t43 -43.5t29.5 -54t11 -67q0 -35 -11.5 -68.5t-39 -60t-74 -42.5t-116.5 -16q-63 0 -111.5 12t-80.5 27q-7 38 -7 77q0 23 2 45.5t5 45.5l79 5l28 -134q39 -12 82 -12q25 0 46.5 4t36.5 13q12 12 19.5 30.5t7.5 44.5q0 23 -6.5 40t-18 31
t-27.5 26t-36 25l-35 22q-66 42 -100 89.5t-34 110.5q0 40 14.5 74.5t41 60t64 40t84.5 14.5q34 0 59 -7.5t45 -19.5l2 17q20 5 35.5 8t35.5 3l26 -19q1 -5 1.5 -12t0.5 -16q0 -28 -5.5 -67.5t-14.5 -74.5h-74l-10 110q-20 6 -41.5 9t-39.5 3q-16 0 -34 -3t-32 -9
q-14 -11 -24 -29.5t-10 -45.5q0 -22 7.5 -39.5t20 -32.5t30.5 -28t39 -27zM342 809l91 82h58l-153 -172h-72l-94 142l81 41l80 -93h9z" />
    <glyph glyph-name="scaron" unicode="&#x161;" horiz-adv-x="407" 
d="M256 290q24 -20 43.5 -37.5t33.5 -35.5t22 -38.5t8 -45.5q0 -68 -52 -107t-137 -39q-63 0 -107 22t-55 69l54 62l131 -93q22 3 37 10q8 11 11 23t3 24q0 15 -5 27t-15 24t-25.5 25.5t-37.5 31.5q-25 21 -45 39.5t-34.5 37t-22 38.5t-7.5 45q0 36 15 63.5t41 46t61.5 28.5
t76.5 10q56 0 96.5 -18.5t51.5 -59.5l-48 -60l-125 79q-25 -3 -40 -10q-8 -9 -13 -22.5t-5 -29.5q0 -15 5 -26.5t15.5 -23.5t27.5 -26t41 -33zM270 667l84 103h55l-144 -196h-72l-81 165l79 39l70 -111h9z" />
    <glyph glyph-name="uni0162" unicode="&#x162;" horiz-adv-x="573" 
d="M590 665q1 -6 1.5 -14t0.5 -19q0 -29 -5 -66.5t-14 -73.5h-72l-9 106l-102 6l-50 -546l81 -7v-23l-3 -28h-294v49q18 8 43.5 13.5t45.5 7.5l51 537h-98l-38 -117l-69 5q-1 11 -1.5 21t-0.5 23q0 31 5.5 66.5t18.5 73.5l26 3l225 -17h163q17 5 35 9.5t35 4.5zM292 -62
q32 -1 54 -13t22 -47q0 -38 -29.5 -64.5t-87.5 -26.5q-30 0 -55 8t-41 22l12 41q16 -5 31 -9t30 -4q22 0 34.5 10.5t12.5 27.5q0 14 -11 19.5t-44 11.5l26 92h53z" />
    <glyph glyph-name="uni0163" unicode="&#x163;" horiz-adv-x="351" 
d="M352 468l-8 -34h-122q-8 -57 -15 -112.5t-12.5 -105t-9.5 -89.5t-5 -65q32 0 67.5 8t63.5 19l9 -46q-17 -12 -38.5 -22.5t-44.5 -18t-46 -11.5t-42 -4q-41 0 -63.5 19t-22.5 67q0 19 3.5 57t9.5 86.5t13.5 103t16.5 106.5l-59 10v47q15 5 34 10t39 8q6 34 12.5 61
t12.5 47q20 7 42.5 12.5t40.5 7.5l17 -17l-15 -116h122v-28zM167 -62q32 -1 54.5 -13t22.5 -47q0 -38 -30 -64.5t-88 -26.5q-62 0 -95 30l12 41q16 -5 31 -9t30 -4q22 0 34 10.5t12 27.5q0 14 -10.5 19.5t-43.5 11.5h-1l26 92h53z" />
    <glyph glyph-name="Tcaron" unicode="&#x164;" horiz-adv-x="573" 
d="M590 665q1 -6 1.5 -14t0.5 -19q0 -29 -5 -66.5t-14 -73.5h-72l-9 106l-102 6l-50 -546l81 -7v-23l-3 -28h-294v49q18 8 43.5 13.5t45.5 7.5l51 537h-98l-38 -117l-69 5q-1 11 -1.5 21t-0.5 23q0 31 5.5 66.5t18.5 73.5l26 3l225 -17h163q17 5 35 9.5t35 4.5zM368 809
l91 82h58l-153 -172h-72l-94 142l81 41l80 -93h9z" />
    <glyph glyph-name="tcaron" unicode="&#x165;" horiz-adv-x="374" 
d="M352 468l-8 -34h-122q-8 -57 -15 -112.5t-12.5 -105t-9.5 -89.5t-5 -65q32 0 67.5 8t63.5 19l9 -46q-17 -12 -38.5 -22.5t-44.5 -18t-46 -11.5t-42 -4q-41 0 -63.5 19t-22.5 67q0 19 3.5 57t9.5 86.5t13.5 103t16.5 106.5l-59 10v47q15 5 34 10t39 8q6 34 12.5 61
t12.5 47q20 7 42.5 12.5t40.5 7.5l17 -17l-15 -116h122v-28zM359 753q22 0 39.5 -6.5t28.5 -12.5q-5 -56 -24 -98t-60 -88h-46l24 97v103q8 2 18.5 3.5t19.5 1.5z" />
    <glyph glyph-name="Tbar" unicode="&#x166;" horiz-adv-x="573" 
d="M590 665q1 -6 1.5 -14t0.5 -19q0 -29 -5 -66.5t-14 -73.5h-72l-9 106l-102 6l-26 -279h120v-23l-6 -41h-120l-18 -203l81 -7v-23l-3 -28h-294v49q18 8 43.5 13.5t45.5 7.5l18 191h-115v22l6 42h115l27 282h-98l-38 -117l-69 5q-1 11 -1.5 21t-0.5 23q0 31 5.5 66.5
t18.5 73.5l26 3l225 -17h163q17 5 35 9.5t35 4.5z" />
    <glyph glyph-name="tbar" unicode="&#x167;" horiz-adv-x="357" 
d="M355 468l-8 -34h-122l-12 -92h125v-27l-8 -35h-125q-8 -70 -14 -127.5t-8 -90.5q32 0 67.5 8t63.5 19l9 -46q-17 -12 -38.5 -22.5t-44.5 -18t-46 -11.5t-42 -4q-41 0 -63.5 19t-22.5 67q0 25 5.5 81t15.5 125l-54 2v51q14 3 30.5 5.5t32.5 4.5l13 84l-59 10v47
q15 5 34 10t39 8q6 34 12.5 61t12.5 47q20 7 42.5 12.5t40.5 7.5l17 -17l-15 -116h122v-28z" />
    <glyph glyph-name="Utilde" unicode="&#x168;" horiz-adv-x="662" 
d="M684 616q-16 -8 -40 -14t-41 -8q-3 -49 -7 -103t-8.5 -104.5t-8.5 -93.5t-8 -70q-17 -118 -79 -177t-177 -59q-112 0 -166.5 55t-54.5 162q0 27 3 72t8.5 99.5t11.5 114.5t12 117l-74 7v23l3 28h273v-49q-16 -8 -36 -13t-39 -8q-7 -66 -13.5 -127.5t-11.5 -114t-8 -94
t-3 -67.5q0 -73 27.5 -106.5t93.5 -33.5q55 0 97 22q21 22 35.5 58.5t21.5 96.5q3 28 7.5 71.5t8.5 94.5t8.5 106t7.5 105l-71 8v23l3 28h225v-49zM566 842q-7 -21 -17 -40t-23.5 -33.5t-30.5 -23.5t-38 -9q-26 0 -58 17l-76 38l-51 -53l-29 26q7 21 16.5 40t23 33.5t31 23
t38.5 8.5q26 0 56 -15l77 -40l52 54z" />
    <glyph glyph-name="utilde" unicode="&#x169;" horiz-adv-x="589" 
d="M573 46q-32 -25 -71 -40.5t-72 -15.5q-29 0 -47 13.5t-18 42.5q0 24 11.5 78.5t28.5 152.5l-11 2q-27 -85 -50 -141t-46.5 -89.5t-51.5 -47.5t-65 -14q-57 0 -87.5 28.5t-30.5 89.5q0 24 4.5 61t11 80.5t15 91t16.5 92.5l-70 6v47q38 12 85 21.5t88 11.5l23 -21
q-2 -15 -7 -44t-11 -65.5t-12.5 -76t-12 -76.5t-9 -67t-3.5 -47q0 -26 10 -38.5t36 -12.5h9q6 0 13 1q37 49 79.5 156t90.5 282q19 5 42 7.5t46 2.5l25 -22l-52 -429q20 0 42 7.5t42 18.5zM483 706q-7 -18 -17 -37.5t-23 -35t-30 -26t-38 -10.5q-10 0 -23.5 3.5t-31.5 14.5
l-61 36l-51 -53l-28 26q6 16 15.5 35t23 35.5t30.5 27t39 10.5q10 0 23.5 -3.5t31.5 -14.5l60 -36l52 54z" />
    <glyph glyph-name="Umacron" unicode="&#x16a;" horiz-adv-x="662" 
d="M684 616q-16 -8 -40 -14t-41 -8q-3 -49 -7 -103t-8.5 -104.5t-8.5 -93.5t-8 -70q-17 -118 -79 -177t-177 -59q-112 0 -166.5 55t-54.5 162q0 27 3 72t8.5 99.5t11.5 114.5t12 117l-74 7v23l3 28h273v-49q-16 -8 -36 -13t-39 -8q-7 -66 -13.5 -127.5t-11.5 -114t-8 -94
t-3 -67.5q0 -73 27.5 -106.5t93.5 -33.5q55 0 97 22q21 22 35.5 58.5t21.5 96.5q3 28 7.5 71.5t8.5 94.5t8.5 106t7.5 105l-71 8v23l3 28h225v-49zM545 840q1 -2 2 -9t1 -15q0 -10 -2 -25.5t-9 -29.5h-275q-1 3 -2 9t-1 14q0 10 2.5 26t8.5 30h275z" />
    <glyph glyph-name="umacron" unicode="&#x16b;" horiz-adv-x="589" 
d="M573 46q-32 -25 -71 -40.5t-72 -15.5q-29 0 -47 13.5t-18 42.5q0 24 11.5 78.5t28.5 152.5l-11 2q-27 -85 -50 -141t-46.5 -89.5t-51.5 -47.5t-65 -14q-57 0 -87.5 28.5t-30.5 89.5q0 24 4.5 61t11 80.5t15 91t16.5 92.5l-70 6v47q38 12 85 21.5t88 11.5l23 -21
q-2 -15 -7 -44t-11 -65.5t-12.5 -76t-12 -76.5t-9 -67t-3.5 -47q0 -26 10 -38.5t36 -12.5h9q6 0 13 1q37 49 79.5 156t90.5 282q19 5 42 7.5t46 2.5l25 -22l-52 -429q20 0 42 7.5t42 18.5zM462 698q1 -2 2 -8t1 -14q0 -10 -2.5 -25.5t-9.5 -30.5h-253q-1 2 -2 8t-1 14
q0 10 2.5 26t9.5 30h253z" />
    <glyph glyph-name="Ubreve" unicode="&#x16c;" horiz-adv-x="662" 
d="M684 616q-16 -8 -40 -14t-41 -8q-3 -49 -7 -103t-8.5 -104.5t-8.5 -93.5t-8 -70q-17 -118 -79 -177t-177 -59q-112 0 -166.5 55t-54.5 162q0 27 3 72t8.5 99.5t11.5 114.5t12 117l-74 7v23l3 28h273v-49q-16 -8 -36 -13t-39 -8q-7 -66 -13.5 -127.5t-11.5 -114t-8 -94
t-3 -67.5q0 -73 27.5 -106.5t93.5 -33.5q55 0 97 22q21 22 35.5 58.5t21.5 96.5q3 28 7.5 71.5t8.5 94.5t8.5 106t7.5 105l-71 8v23l3 28h225v-49zM346 879q3 -42 20 -63t53 -21q38 0 59.5 22t39.5 61l40 -9q-18 -72 -59 -111t-107 -39q-36 0 -61 11t-40 30.5t-21.5 45
t-4.5 55.5z" />
    <glyph glyph-name="ubreve" unicode="&#x16d;" horiz-adv-x="589" 
d="M573 46q-32 -25 -71 -40.5t-72 -15.5q-29 0 -47 13.5t-18 42.5q0 24 11.5 78.5t28.5 152.5l-11 2q-27 -85 -50 -141t-46.5 -89.5t-51.5 -47.5t-65 -14q-57 0 -87.5 28.5t-30.5 89.5q0 24 4.5 61t11 80.5t15 91t16.5 92.5l-70 6v47q38 12 85 21.5t88 11.5l23 -21
q-2 -15 -7 -44t-11 -65.5t-12.5 -76t-12 -76.5t-9 -67t-3.5 -47q0 -26 10 -38.5t36 -12.5h9q6 0 13 1q37 49 79.5 156t90.5 282q19 5 42 7.5t46 2.5l25 -22l-52 -429q20 0 42 7.5t42 18.5zM285 756q1 -47 13.5 -72.5t50.5 -25.5q36 0 56 25.5t34 71.5l39 -11
q-17 -82 -57 -121t-101 -39q-38 0 -62.5 14t-37.5 36t-16.5 49.5t0.5 54.5z" />
    <glyph glyph-name="Uring" unicode="&#x16e;" horiz-adv-x="662" 
d="M684 616q-16 -8 -40 -14t-41 -8q-3 -49 -7 -103t-8.5 -104.5t-8.5 -93.5t-8 -70q-17 -118 -79 -177t-177 -59q-112 0 -166.5 55t-54.5 162q0 27 3 72t8.5 99.5t11.5 114.5t12 117l-74 7v23l3 28h273v-49q-16 -8 -36 -13t-39 -8q-7 -66 -13.5 -127.5t-11.5 -114t-8 -94
t-3 -67.5q0 -73 27.5 -106.5t93.5 -33.5q55 0 97 22q21 22 35.5 58.5t21.5 96.5q3 28 7.5 71.5t8.5 94.5t8.5 106t7.5 105l-71 8v23l3 28h225v-49zM420 906q48 0 73.5 -20.5t25.5 -62.5q0 -48 -33 -77.5t-94 -29.5q-48 0 -74 21t-26 62q0 48 34 77.5t94 29.5zM413 859
q-16 0 -26 -6q-16 -22 -16 -52q0 -38 29 -38q13 0 25 7q8 10 12.5 23.5t4.5 29.5q0 20 -7.5 28t-21.5 8z" />
    <glyph glyph-name="uring" unicode="&#x16f;" horiz-adv-x="589" 
d="M573 46q-32 -25 -71 -40.5t-72 -15.5q-29 0 -47 13.5t-18 42.5q0 24 11.5 78.5t28.5 152.5l-11 2q-27 -85 -50 -141t-46.5 -89.5t-51.5 -47.5t-65 -14q-57 0 -87.5 28.5t-30.5 89.5q0 24 4.5 61t11 80.5t15 91t16.5 92.5l-70 6v47q38 12 85 21.5t88 11.5l23 -21
q-2 -15 -7 -44t-11 -65.5t-12.5 -76t-12 -76.5t-9 -67t-3.5 -47q0 -26 10 -38.5t36 -12.5h9q6 0 13 1q37 49 79.5 156t90.5 282q19 5 42 7.5t46 2.5l25 -22l-52 -429q20 0 42 7.5t42 18.5zM346 784q51 0 76 -23.5t25 -66.5q0 -50 -32.5 -82t-93.5 -32q-51 0 -76.5 23.5
t-25.5 66.5q0 51 33.5 82.5t93.5 31.5zM341 737q-14 0 -24 -5q-19 -22 -19 -64q0 -41 29 -41q6 0 12.5 1.5t11.5 4.5q8 11 14 27.5t6 36.5q0 22 -7.5 31t-22.5 9z" />
    <glyph glyph-name="Uhungarumlaut" unicode="&#x170;" horiz-adv-x="662" 
d="M684 616q-16 -8 -40 -14t-41 -8q-3 -49 -7 -103t-8.5 -104.5t-8.5 -93.5t-8 -70q-17 -118 -79 -177t-177 -59q-112 0 -166.5 55t-54.5 162q0 27 3 72t8.5 99.5t11.5 114.5t12 117l-74 7v23l3 28h273v-49q-16 -8 -36 -13t-39 -8q-7 -66 -13.5 -127.5t-11.5 -114t-8 -94
t-3 -67.5q0 -73 27.5 -106.5t93.5 -33.5q55 0 97 22q21 22 35.5 58.5t21.5 96.5q3 28 7.5 71.5t8.5 94.5t8.5 106t7.5 105l-71 8v23l3 28h225v-49zM378 889q31 -14 45 -54l-96 -116h-58l53 170h56zM551 889q31 -14 45 -54l-96 -116h-58l53 170h56z" />
    <glyph glyph-name="uhungarumlaut" unicode="&#x171;" horiz-adv-x="589" 
d="M573 46q-32 -25 -71 -40.5t-72 -15.5q-29 0 -47 13.5t-18 42.5q0 24 11.5 78.5t28.5 152.5l-11 2q-27 -85 -50 -141t-46.5 -89.5t-51.5 -47.5t-65 -14q-57 0 -87.5 28.5t-30.5 89.5q0 24 4.5 61t11 80.5t15 91t16.5 92.5l-70 6v47q38 12 85 21.5t88 11.5l23 -21
q-2 -15 -7 -44t-11 -65.5t-12.5 -76t-12 -76.5t-9 -67t-3.5 -47q0 -26 10 -38.5t36 -12.5h9q6 0 13 1q37 49 79.5 156t90.5 282q19 5 42 7.5t46 2.5l25 -22l-52 -429q20 0 42 7.5t42 18.5zM326 778q31 -14 50 -55l-120 -150h-50l64 205h56zM494 778q31 -14 50 -55l-119 -150
h-51l64 205h56z" />
    <glyph glyph-name="Uogonek" unicode="&#x172;" horiz-adv-x="662" 
d="M684 616q-17 -8 -40.5 -14t-40.5 -8q-4 -53 -8 -107t-8 -104t-8 -91.5t-8 -68.5q-5 -36 -13 -63.5t-20 -50t-28.5 -42t-38.5 -38.5q-15 -13 -30.5 -27t-28.5 -30t-21.5 -34t-8.5 -40q0 -49 48 -49q11 0 23.5 2.5t24.5 6.5l3 -43q-39 -28 -100 -28q-55 0 -78.5 22
t-23.5 57q0 40 25.5 70.5t67.5 53.5l-2 10q-18 -6 -34 -8.5t-35 -2.5q-45 0 -82.5 13.5t-65.5 40.5t-43.5 68t-15.5 96q0 26 3 70.5t8.5 98.5t11.5 114t12 117l-74 7v23l3 28h273v-49q-16 -8 -36 -13t-39 -8q-7 -66 -13.5 -127.5t-11.5 -114t-8 -94t-3 -67.5
q0 -73 27.5 -106.5t93.5 -33.5q55 0 97 22q21 22 35 58.5t22 96.5q4 27 8 70.5t8.5 95t8.5 106.5t7 105l-71 8v23l3 28h225v-49z" />
    <glyph glyph-name="uogonek" unicode="&#x173;" horiz-adv-x="589" 
d="M489 -151q11 0 24 2.5t24 6.5l3 -43q-39 -28 -100 -28q-56 0 -79 23t-23 55q0 40 30.5 69.5t72.5 47.5l-2 11q-5 -1 -8 -1h-7q-25 2 -42 13.5t-17 40.5q0 24 11.5 78.5t28.5 152.5l-11 2q-27 -85 -50 -141t-46.5 -89.5t-51.5 -47.5t-65 -14q-57 0 -87.5 28.5t-30.5 89.5
q0 24 4.5 61t11 80.5t15 91t16.5 92.5l-70 6v47q38 12 85 21.5t88 11.5l23 -21q-2 -15 -7 -44t-11 -65.5t-12.5 -76t-12 -76.5t-9 -67t-3.5 -47q0 -26 10 -38.5t36 -12.5h9q6 0 13 1q37 49 79.5 156t90.5 282q19 5 42 7.5t46 2.5l25 -22l-52 -429q20 0 42 7.5t42 18.5l9 -46
q-26 -17 -49.5 -34.5t-42 -36.5t-29.5 -38.5t-11 -40.5q0 -47 48 -47z" />
    <glyph glyph-name="Wcircumflex" unicode="&#x174;" horiz-adv-x="980" 
d="M1004 616q-12 -6 -28 -11t-30 -8q-22 -69 -51.5 -150t-60.5 -161t-61.5 -153.5t-54.5 -128.5q-25 -8 -48 -10.5t-49 -3.5l-29 20q-8 40 -17 87.5t-18 99t-18 105t-17 105.5h-11q-33 -108 -72.5 -206.5t-82.5 -196.5q-25 -8 -48 -10.5t-49 -3.5l-30 20q-13 60 -28 135.5
t-30 156t-30 159.5t-27 147l-61 6v23l3 28h262v-49q-14 -8 -33 -13.5t-35 -7.5q9 -61 19.5 -129t21 -133.5t20 -124.5t16.5 -102h11q15 34 34 84.5t40 108t41.5 117t37.5 112.5l-15 81l-46 5v23l3 28h249v-49q-14 -8 -34 -13.5t-36 -7.5q10 -62 20.5 -130t21 -133.5t20 -124
t16.5 -101.5h11q16 41 38.5 101.5t46 128.5t45.5 138.5t38 131.5l-75 8v23l3 28h207v-49zM638 707l-82 94h-9l-90 -82h-59l154 172h71l93 -140z" />
    <glyph glyph-name="wcircumflex" unicode="&#x175;" horiz-adv-x="812" 
d="M715 520q19 -6 32.5 -18t22.5 -28.5t13.5 -36t4.5 -38.5q0 -35 -13.5 -79t-37 -90t-55.5 -89.5t-69 -77.5t-77 -55t-80 -21t-65 22.5t-25 68.5q0 22 5.5 47t13.5 54l-11 3q-42 -100 -90.5 -147.5t-109.5 -47.5q-47 0 -79 28t-32 90q0 22 4 58.5t11 81t15.5 92.5t16.5 93
l-70 6v47q38 12 84 21.5t88 11.5l23 -22q-3 -17 -8 -46.5t-10.5 -65t-11.5 -73.5t-11 -73.5t-8 -65t-3 -46.5q0 -27 10.5 -41.5t40.5 -14.5l15 1q39 45 72 110t59 144q6 51 13 96t16 87q19 5 44 7.5t48 2.5l24 -22q0 -32 -8.5 -75.5t-24.5 -92.5q-3 -29 -5.5 -58.5
t-4.5 -56.5t-3.5 -49.5t-1.5 -36.5q0 -29 9 -43t38 -14h8q4 0 9 1q52 48 94.5 119t71.5 159l-68 130zM531 566l-70 111h-9l-84 -103h-55l144 195h71l82 -165z" />
    <glyph glyph-name="Ycircumflex" unicode="&#x176;" horiz-adv-x="622" 
d="M579 595q-43 -93 -94 -181t-108 -179l-16 -177l79 -7v-23l-3 -28h-291v49q17 8 43 13.5t45 7.5l15 162q-35 100 -71 197t-71 178l-63 7v23l3 28h271v-49q-14 -7 -35.5 -12.5t-39.5 -7.5q12 -34 25.5 -71.5t27 -75.5t26 -75t22.5 -69h11q39 65 80.5 144.5t71.5 156.5
l-69 8v23l3 28h209v-49q-15 -8 -34.5 -13.5t-36.5 -7.5zM442 707l-82 94h-9l-90 -82h-59l154 172h71l93 -140z" />
    <glyph glyph-name="ycircumflex" unicode="&#x177;" horiz-adv-x="521" 
d="M421 520q33 -10 54 -41.5t21 -81.5q0 -40 -14 -91.5t-40 -108.5t-63 -117t-83 -117q-63 -78 -126.5 -127t-120.5 -49q-28 0 -57.5 12t-52.5 36l15 49q29 -8 65.5 -16t78.5 -9q45 29 85 70q-12 66 -25.5 133.5t-27 132.5t-27 125t-25.5 110l-70 6v47q38 13 78 22t80 11
l24 -22q13 -60 26 -121.5t24 -120.5t19.5 -113t12.5 -100h12q18 26 38 61.5t38 76t32.5 84t22.5 85.5l-70 132zM375 566l-70 111h-9l-84 -103h-55l144 195h71l82 -165z" />
    <glyph glyph-name="Ydieresis" unicode="&#x178;" horiz-adv-x="622" 
d="M579 595q-43 -93 -94 -181t-108 -179l-16 -177l79 -7v-23l-3 -28h-291v49q17 8 43 13.5t45 7.5l15 162q-35 100 -71 197t-71 178l-63 7v23l3 28h271v-49q-14 -7 -35.5 -12.5t-39.5 -7.5q12 -34 25.5 -71.5t27 -75.5t26 -75t22.5 -69h11q39 65 80.5 144.5t71.5 156.5
l-69 8v23l3 28h209v-49q-15 -8 -34.5 -13.5t-36.5 -7.5zM266 861q10 0 19.5 -1t17.5 -5q10 -16 10 -40q0 -19 -5.5 -37t-18.5 -38h-83l-8 108q14 5 31.5 9t36.5 4zM496 861q10 0 19 -1t17 -5q10 -14 10 -39q0 -19 -5 -37.5t-18 -38.5h-84l-7 108q14 5 31 9t37 4z" />
    <glyph glyph-name="Zacute" unicode="&#x179;" horiz-adv-x="558" 
d="M517 167q1 -11 1.5 -21t0.5 -22q0 -32 -5.5 -64t-18.5 -74l-26 -3l-338 17l-102 -1l-8 40q72 110 124.5 189.5t90.5 136t63.5 93.5t43.5 63t31 43.5t27 35.5l-3 8l-231 -10l-19 -106h-73q-4 27 -6 53t-2 48t2 40t5 32l26 14q18 0 34.5 -4.5t33.5 -9.5h380l8 -39
q-66 -102 -116 -178t-87 -132t-63.5 -95t-46.5 -67.5t-35 -49t-30 -39.5l4 -8l223 1l38 115zM468 900q32 -19 44 -62l-157 -119h-61l113 181h61z" />
    <glyph glyph-name="zacute" unicode="&#x17a;" horiz-adv-x="438" 
d="M399 166q2 -19 2.5 -41.5t0.5 -36.5q0 -54 -20 -82.5t-65 -28.5q-21 0 -48.5 5t-57.5 13.5t-61 20t-59 24.5l-44 -57q-14 2 -27.5 7.5t-24.5 11.5l-8 15l292 379l-151 8l-17 -66h-64q-3 19 -3 42.5t2.5 48t8 47.5t13.5 41q74 0 142 -12t125 -35l37 48q14 -2 27.5 -7.5
t24.5 -11.5l8 -14l-286 -373q48 -10 91 -15t75 -6l27 82zM390 778q15 -10 27 -26.5t17 -36.5l-155 -142h-55l105 205h61z" />
    <glyph glyph-name="Zdotaccent" unicode="&#x17b;" horiz-adv-x="558" 
d="M517 167q1 -11 1.5 -21t0.5 -22q0 -32 -5.5 -64t-18.5 -74l-26 -3l-338 17l-102 -1l-8 40q72 110 124.5 189.5t90.5 136t63.5 93.5t43.5 63t31 43.5t27 35.5l-3 8l-231 -10l-19 -106h-73q-4 27 -6 53t-2 48t2 40t5 32l26 14q18 0 34.5 -4.5t33.5 -9.5h380l8 -39
q-66 -102 -116 -178t-87 -132t-63.5 -95t-46.5 -67.5t-35 -49t-30 -39.5l4 -8l223 1l38 115zM350 865q25 0 42 -6q5 -10 8 -20.5t3 -24.5q0 -20 -7 -39t-21 -42h-95l-6 118q14 6 33.5 10t42.5 4z" />
    <glyph glyph-name="zdotaccent" unicode="&#x17c;" horiz-adv-x="438" 
d="M399 166q2 -19 2.5 -41.5t0.5 -36.5q0 -54 -20 -82.5t-65 -28.5q-21 0 -48.5 5t-57.5 13.5t-61 20t-59 24.5l-44 -57q-14 2 -27.5 7.5t-24.5 11.5l-8 15l292 379l-151 8l-17 -66h-64q-3 19 -3 42.5t2.5 48t8 47.5t13.5 41q74 0 142 -12t125 -35l37 48q14 -2 27.5 -7.5
t24.5 -11.5l8 -14l-286 -373q48 -10 91 -15t75 -6l27 82zM280 740q23 0 40 -6q5 -10 8 -19.5t3 -23.5q0 -20 -7 -39.5t-21 -42.5h-94l-6 118q14 5 34 9t43 4z" />
    <glyph glyph-name="Zcaron" unicode="&#x17d;" horiz-adv-x="558" 
d="M517 167q1 -11 1.5 -21t0.5 -22q0 -32 -5.5 -64t-18.5 -74l-26 -3l-338 17l-102 -1l-8 40q72 110 124.5 189.5t90.5 136t63.5 93.5t43.5 63t31 43.5t27 35.5l-3 8l-231 -10l-19 -106h-73q-4 27 -6 53t-2 48t2 40t5 32l26 14q18 0 34.5 -4.5t33.5 -9.5h380l8 -39
q-66 -102 -116 -178t-87 -132t-63.5 -95t-46.5 -67.5t-35 -49t-30 -39.5l4 -8l223 1l38 115zM357 809l91 82h58l-153 -172h-72l-94 142l81 41l80 -93h9z" />
    <glyph glyph-name="zcaron" unicode="&#x17e;" horiz-adv-x="438" 
d="M399 166q2 -19 2.5 -41.5t0.5 -36.5q0 -54 -20 -82.5t-65 -28.5q-21 0 -48.5 5t-57.5 13.5t-61 20t-59 24.5l-44 -57q-14 2 -27.5 7.5t-24.5 11.5l-8 15l292 379l-151 8l-17 -66h-64q-3 19 -3 42.5t2.5 48t8 47.5t13.5 41q74 0 142 -12t125 -35l37 48q14 -2 27.5 -7.5
t24.5 -11.5l8 -14l-286 -373q48 -10 91 -15t75 -6l27 82zM282 667l84 103h55l-144 -196h-72l-81 165l79 39l70 -111h9z" />
    <glyph glyph-name="longs" unicode="&#x17f;" horiz-adv-x="283" 
d="M269 669q-15 -4 -29 -12q-2 -22 -4 -43t-4.5 -47t-6 -60.5t-7.5 -83.5l-38 -397q-12 -128 -56.5 -183.5t-118.5 -55.5q-38 0 -77.5 13.5t-68.5 39.5l14 48q32 -10 71.5 -19.5t83.5 -9.5q12 24 19 58.5t11 76.5l42 432l-68 10v47q14 5 35 9.5t40 7.5q9 78 33.5 127.5
t57 77t69.5 38t72 10.5q74 0 114 -40l-23 -83z" />
    <glyph glyph-name="uni018F" unicode="&#x18f;" horiz-adv-x="583" 
d="M313 678q64 0 110 -21.5t75.5 -59.5t43.5 -89.5t14 -111.5q0 -72 -20 -145t-61 -131.5t-104 -95.5t-150 -37q-97 0 -146 45.5t-49 118.5q0 65 35.5 109t91 70t124.5 37t136 11v15q0 53 -9.5 90t-28.5 60t-46 33t-61 10q-38 0 -80 -12.5t-91 -47.5l-13 49q45 46 99.5 74.5
t129.5 28.5zM307 74q21 18 38 44.5t29.5 59t21 69t13.5 73.5q-126 -15 -188 -53.5t-62 -120.5q0 -91 76 -91q20 0 37.5 5.5t34.5 13.5z" />
    <glyph glyph-name="florin" unicode="&#x192;" horiz-adv-x="494" 
d="M518 593q1 -5 1.5 -11.5t0.5 -16.5q0 -27 -5.5 -65t-14.5 -73h-70l-10 121q-5 1 -11 1h-10q-13 0 -28 -3t-29 -9q-11 -22 -20 -52.5t-16 -63.5l-10 -47h101v-24l-4 -38h-111l-39 -181q-23 -108 -64.5 -161t-114.5 -53q-35 0 -68 12.5t-64 40.5l14 49q30 -10 63 -20
t71 -10q13 24 22 58.5t18 76.5l39 188h-82v25l4 37h90l6 28q23 109 74 159t119 50q28 0 55 -8q17 5 33 7t34 2z" />
    <glyph glyph-name="uni01E2" unicode="&#x1e2;" horiz-adv-x="870" 
d="M538 369l164 8l9 -22l-7 -55l-171 9l-24 -251h186l38 115l74 -6q1 -11 1.5 -21t0.5 -22q0 -32 -5.5 -64t-18.5 -74l-26 -3l-316 17h-140v49q17 7 38 13t41 9l12 121h-200q-17 -35 -34 -69l-33 -66l64 -6v-23l-3 -28h-198v49q12 7 29 12.5t31 8.5q33 64 70.5 134t76.5 140
t77 137.5t73 127.5l-63 3v24l4 29h471q17 5 35 9.5t35 4.5l25 -14q1 -6 1.5 -14t0.5 -19q0 -29 -5 -66.5t-14 -73.5h-72l-9 105l-195 8zM432 600h-20q-38 -68 -86.5 -158t-98.5 -186l173 -1zM674 839q2 -6 2 -22q0 -10 -2 -25.5t-9 -30.5h-254q-2 6 -2 22q0 10 2.5 26
t8.5 30h254z" />
    <glyph glyph-name="uni01E3" unicode="&#x1e3;" horiz-adv-x="772" 
d="M549 73q34 0 76 18t83 51l13 -48q-41 -46 -96 -76.5t-124 -30.5q-51 0 -81 19.5t-44.5 50.5t-16.5 69t3 74l-12 3q-17 -54 -33 -94.5t-37 -67.5t-48.5 -40.5t-66.5 -13.5q-29 0 -53 8t-41.5 28.5t-27 54t-9.5 84.5q0 60 14.5 123.5t46 115.5t81 85.5t118.5 33.5
q43 0 79.5 -14.5t63.5 -43.5q34 32 72 45t82 13q43 0 73.5 -10t49.5 -27.5t28 -41t9 -51.5q0 -51 -26 -84.5t-68 -53.5t-95 -27.5t-107 -5.5v-13q0 -72 25.5 -102.5t68.5 -30.5zM365 353q11 23 21.5 42t22.5 35q-26 17 -49.5 24.5t-52.5 7.5q-18 0 -32 -3t-25 -6
q-23 -29 -39 -65.5t-26.5 -77t-15.5 -81t-5 -76.5q0 -49 11 -67t38 -18h9q6 0 12 2q21 32 37.5 65.5t31.5 69t30 72.5t32 76zM576 461q-26 0 -50 -11q-15 -15 -26 -37t-19.5 -47.5t-14 -53t-8.5 -53.5q90 10 129.5 45.5t39.5 93.5q0 31 -11 47t-40 16zM590 698q2 -6 2 -22
q0 -10 -2 -25.5t-9 -30.5h-254q-2 6 -2 22q0 10 2.5 26t8.5 30h254z" />
    <glyph glyph-name="Aringacute" unicode="&#x1fa;" horiz-adv-x="648" 
d="M357 815l91 152h58q28 -19 40 -55l-130 -97h-59zM624 28l-4 -28h-265v49q14 8 34 13.5t37 7.5q-8 30 -14.5 59.5t-12.5 59.5h-215q-13 -33 -25.5 -65.5t-25.5 -65.5l68 -7v-23l-4 -28h-206v49q14 8 34.5 13.5t36.5 7.5q57 136 116 269.5t122 267.5q-42 19 -42 70
q0 45 33 75t93 30q48 0 75 -20.5t27 -62.5q0 -29 -14 -52t-41 -37q30 -131 62 -273t67 -280l64 -6v-23zM353 729q-16 -22 -16 -49q0 -37 29 -37q6 0 13.5 1.5t12.5 4.5q16 19 16 49q0 20 -7.5 28.5t-21.5 8.5q-16 0 -26 -6zM385 253q-14 65 -26.5 129t-25.5 128h-12
q-29 -65 -56.5 -128.5t-54.5 -128.5h175z" />
    <glyph glyph-name="aringacute" unicode="&#x1fb;" horiz-adv-x="570" 
d="M554 46q-32 -25 -69 -40.5t-69 -15.5q-29 0 -47 13.5t-18 42.5q0 24 11.5 80t31.5 157l-11 2q-28 -88 -51 -145.5t-47.5 -91.5t-52.5 -47.5t-66 -13.5q-29 0 -53.5 8t-42 28t-27 53.5t-9.5 84.5q0 60 15 124t46 116t79.5 85.5t116.5 33.5q33 0 61 -9t48 -29l8 29
q16 5 38 7t42 2l24 -22l-52 -432q20 0 42 7.5t42 18.5zM238 71q16 22 32.5 53.5t34.5 76.5t37.5 104t42.5 135q-37 22 -80 22q-16 0 -30.5 -3t-25.5 -6q-23 -29 -39 -65.5t-26 -77t-15 -81t-5 -76.5q0 -48 10.5 -66.5t37.5 -18.5q11 0 26 3zM449 927q28 -21 41 -55l-124 -92
h-54l81 147h56zM341 752q50 0 75.5 -22.5t25.5 -64.5q0 -50 -33 -80t-93 -30q-51 0 -76.5 22.5t-25.5 64.5q0 50 33.5 80t93.5 30zM335 705q-16 0 -25 -6q-8 -11 -12.5 -26t-4.5 -31q0 -40 29 -40q14 0 25 7q8 10 12.5 25t4.5 32q0 21 -7.5 30t-21.5 9z" />
    <glyph glyph-name="AEacute" unicode="&#x1fc;" horiz-adv-x="870" 
d="M538 369l164 8l9 -22l-7 -55l-171 9l-24 -251h186l38 115l74 -6q1 -11 1.5 -21t0.5 -22q0 -32 -5.5 -64t-18.5 -74l-26 -3l-316 17h-140v49q17 7 38 13t41 9l12 121h-200q-17 -35 -34 -69l-33 -66l64 -6v-23l-3 -28h-198v49q12 7 29 12.5t31 8.5q33 64 70.5 134t76.5 140
t77 137.5t73 127.5l-63 3v24l4 29h471q17 5 35 9.5t35 4.5l25 -14q1 -6 1.5 -14t0.5 -19q0 -29 -5 -66.5t-14 -73.5h-72l-9 105l-195 8zM432 600h-20q-38 -68 -86.5 -158t-98.5 -186l173 -1zM672 900q32 -19 44 -62l-157 -119h-61l113 181h61z" />
    <glyph glyph-name="aeacute" unicode="&#x1fd;" horiz-adv-x="772" 
d="M549 73q34 0 76 18t83 51l13 -48q-41 -46 -96 -76.5t-124 -30.5q-51 0 -81 19.5t-44.5 50.5t-16.5 69t3 74l-12 3q-17 -54 -33 -94.5t-37 -67.5t-48.5 -40.5t-66.5 -13.5q-29 0 -53 8t-41.5 28.5t-27 54t-9.5 84.5q0 60 14.5 123.5t46 115.5t81 85.5t118.5 33.5
q43 0 79.5 -14.5t63.5 -43.5q34 32 72 45t82 13q43 0 73.5 -10t49.5 -27.5t28 -41t9 -51.5q0 -51 -26 -84.5t-68 -53.5t-95 -27.5t-107 -5.5v-13q0 -72 25.5 -102.5t68.5 -30.5zM365 353q11 23 21.5 42t22.5 35q-26 17 -49.5 24.5t-52.5 7.5q-18 0 -32 -3t-25 -6
q-23 -29 -39 -65.5t-26.5 -77t-15.5 -81t-5 -76.5q0 -49 11 -67t38 -18h9q6 0 12 2q21 32 37.5 65.5t31.5 69t30 72.5t32 76zM576 461q-26 0 -50 -11q-15 -15 -26 -37t-19.5 -47.5t-14 -53t-8.5 -53.5q90 10 129.5 45.5t39.5 93.5q0 31 -11 47t-40 16zM587 775
q15 -10 27 -26.5t17 -36.5l-155 -142h-55l105 205h61z" />
    <glyph glyph-name="Oslashacute" unicode="&#x1fe;" horiz-adv-x="686" 
d="M586 605q35 -37 53 -90t19 -120q1 -71 -18.5 -143.5t-61.5 -131.5t-108 -96t-158 -37q-89 0 -151 39l-77 -104l-43 22l-5 15l79 106q-33 37 -50 89t-18 117q-1 71 18.5 143.5t61.5 131t108 95.5t158 37q87 0 146 -36l74 101l43 -21l4 -16zM296 591q-23 -18 -42 -52
t-33.5 -78.5t-22.5 -97t-8 -107.5q0 -49 7 -84l285 392q-16 22 -40.5 34t-59.5 12q-22 0 -42.5 -5t-43.5 -14zM411 74q22 18 41.5 52t34 78.5t22.5 97t8 107.5q0 53 -9 94l-287 -396q16 -25 41 -38.5t63 -13.5q22 0 43 5t43 14zM531 900q32 -19 44 -62l-157 -119h-61
l113 181h61z" />
    <glyph glyph-name="oslashacute" unicode="&#x1ff;" horiz-adv-x="526" 
d="M441 469q29 -29 42 -70.5t13 -92.5q0 -49 -13.5 -105t-45 -103.5t-82.5 -79t-126 -31.5q-58 0 -100 21l-61 -90l-43 21l-5 14l61 91q-26 29 -38 69t-12 88q0 49 13.5 105.5t45 103.5t82.5 78.5t126 31.5q55 0 94 -18l65 96l42 -21l5 -14zM230 449q-19 -19 -33 -52.5
t-23 -73t-13.5 -80.5t-4.5 -75v-19l191 288q-21 24 -59 24q-16 0 -31 -3.5t-27 -8.5zM298 58q19 19 33 52.5t23 73.5t13 81t4 74q0 10 -0.5 18.5t-1.5 16.5l-195 -296q20 -32 66 -32q15 0 30.5 3t27.5 9zM437 775q15 -10 27 -26.5t17 -36.5l-155 -142h-55l105 205h61z" />
    <glyph glyph-name="uni0218" unicode="&#x218;" horiz-adv-x="523" 
d="M338 376q27 -18 51.5 -37.5t43 -43.5t29.5 -54t11 -67q0 -35 -11.5 -68.5t-39 -60t-74 -42.5t-116.5 -16q-63 0 -111.5 12t-80.5 27q-7 38 -7 77q0 23 2 45.5t5 45.5l79 5l28 -134q39 -12 82 -12q25 0 46.5 4t36.5 13q12 12 19.5 30.5t7.5 44.5q0 23 -6.5 40t-18 31
t-27.5 26t-36 25l-35 22q-66 42 -100 89.5t-34 110.5q0 40 14.5 74.5t41 60t64 40t84.5 14.5q34 0 59 -7.5t45 -19.5l2 17q20 5 35.5 8t35.5 3l26 -19q1 -5 1.5 -12t0.5 -16q0 -28 -5.5 -67.5t-14.5 -74.5h-74l-10 110q-20 6 -41.5 9t-39.5 3q-16 0 -34 -3t-32 -9
q-14 -11 -24 -29.5t-10 -45.5q0 -22 7.5 -39.5t20 -32.5t30.5 -28t39 -27zM226 -50q16 0 30 -2.5t27 -9.5q11 -14 11 -47q0 -51 -28.5 -88t-91.5 -50l-11 31q26 13 42 27t16 39v11l-42 4l7 81q10 2 21 3t19 1z" />
    <glyph glyph-name="uni0219" unicode="&#x219;" horiz-adv-x="407" 
d="M256 290q24 -20 43.5 -37.5t33.5 -35.5t22 -38.5t8 -45.5q0 -68 -52 -107t-137 -39q-63 0 -107 22t-55 69l54 62l131 -93q22 3 37 10q8 11 11 23t3 24q0 15 -5 27t-15 24t-25.5 25.5t-37.5 31.5q-25 21 -45 39.5t-34.5 37t-22 38.5t-7.5 45q0 36 15 63.5t41 46t61.5 28.5
t76.5 10q56 0 96.5 -18.5t51.5 -59.5l-48 -60l-125 79q-25 -3 -40 -10q-8 -9 -13 -22.5t-5 -29.5q0 -15 5 -26.5t15.5 -23.5t27.5 -26t41 -33zM158 -50q16 0 30 -2.5t27 -9.5q11 -14 11 -47q0 -51 -28.5 -88t-91.5 -50l-11 31q26 13 42 27t16 39v11l-42 4l7 81q10 2 21 3
t19 1z" />
    <glyph glyph-name="uni021A" unicode="&#x21a;" horiz-adv-x="573" 
d="M590 665q1 -6 1.5 -14t0.5 -19q0 -29 -5 -66.5t-14 -73.5h-72l-9 106l-102 6l-50 -546l81 -7v-23l-3 -28h-294v49q18 8 43.5 13.5t45.5 7.5l51 537h-98l-38 -117l-69 5q-1 11 -1.5 21t-0.5 23q0 31 5.5 66.5t18.5 73.5l26 3l225 -17h163q17 5 35 9.5t35 4.5zM255 -50
q16 0 30 -2.5t27 -9.5q11 -14 11 -47q0 -51 -28.5 -88t-91.5 -50l-11 31q26 13 42 27t16 39v11l-42 4l7 81q10 2 21 3t19 1z" />
    <glyph glyph-name="uni021B" unicode="&#x21b;" horiz-adv-x="351" 
d="M352 468l-8 -34h-122q-8 -57 -15 -112.5t-12.5 -105t-9.5 -89.5t-5 -65q32 0 67.5 8t63.5 19l9 -46q-17 -12 -38.5 -22.5t-44.5 -18t-46 -11.5t-42 -4q-41 0 -63.5 19t-22.5 67q0 19 3.5 57t9.5 86.5t13.5 103t16.5 106.5l-59 10v47q15 5 34 10t39 8q6 34 12.5 61
t12.5 47q20 7 42.5 12.5t40.5 7.5l17 -17l-15 -116h122v-28zM130 -50q16 0 30 -2.5t27 -9.5q11 -14 11 -47q0 -51 -28.5 -88t-91.5 -50l-11 31q26 13 42 27t16 39v11l-42 4l7 81q10 2 21 3t19 1z" />
    <glyph glyph-name="uni0232" unicode="&#x232;" horiz-adv-x="622" 
d="M579 595q-43 -93 -94 -181t-108 -179l-16 -177l79 -7v-23l-3 -28h-291v49q17 8 43 13.5t45 7.5l15 162q-35 100 -71 197t-71 178l-63 7v23l3 28h271v-49q-14 -7 -35.5 -12.5t-39.5 -7.5q12 -34 25.5 -71.5t27 -75.5t26 -75t22.5 -69h11q39 65 80.5 144.5t71.5 156.5
l-69 8v23l3 28h209v-49q-15 -8 -34.5 -13.5t-36.5 -7.5zM502 839q2 -6 2 -22q0 -10 -2 -25.5t-9 -30.5h-254q-2 6 -2 22q0 10 2.5 26t8.5 30h254z" />
    <glyph glyph-name="uni0233" unicode="&#x233;" horiz-adv-x="521" 
d="M421 520q33 -10 54 -41.5t21 -81.5q0 -40 -14 -91.5t-40 -108.5t-63 -117t-83 -117q-63 -78 -126.5 -127t-120.5 -49q-28 0 -57.5 12t-52.5 36l15 49q29 -8 65.5 -16t78.5 -9q45 29 85 70q-12 66 -25.5 133.5t-27 132.5t-27 125t-25.5 110l-70 6v47q38 13 78 22t80 11
l24 -22q13 -60 26 -121.5t24 -120.5t19.5 -113t12.5 -100h12q18 26 38 61.5t38 76t32.5 84t22.5 85.5l-70 132zM443 702q2 -6 2 -22q0 -10 -2 -25.5t-9 -30.5h-254q-2 6 -2 22q0 10 2.5 26t8.5 30h254z" />
    <glyph glyph-name="uni0237" unicode="&#x237;" horiz-adv-x="273" 
d="M171 17q-14 -122 -58 -176t-116 -54q-33 0 -64 10.5t-55 32.5l15 48q26 -6 58 -13t67 -6q13 26 20 60t12 74l53 437l-71 6v47q38 12 85.5 21.5t88.5 11.5l23 -22z" />
    <glyph glyph-name="uni0259" unicode="&#x259;" horiz-adv-x="474" 
d="M267 520q47 0 80.5 -16t55 -44t31.5 -66t10 -83q0 -51 -13.5 -108t-45 -105t-82.5 -79.5t-126 -31.5q-83 0 -120 37t-37 93q0 50 26 84t68 54t95 27.5t107 5.5v14q0 68 -24.5 98.5t-74.5 30.5q-32 0 -67 -12t-71 -38l-12 47q35 42 86.5 67t113.5 25zM195 46q26 0 50 11
q15 15 26 37t19.5 47.5t14 53t8.5 53.5q-90 -10 -129.5 -45.5t-39.5 -93.5q0 -31 11 -47t40 -16z" />
    <glyph glyph-name="uni02BB" unicode="&#x2bb;" horiz-adv-x="252" 
d="M257 713q-16 -8 -31 -19t-27 -24t-19 -28.5t-7 -31.5v-13l49 -6l-8 -112q-11 -2 -24 -3t-23 -1q-17 0 -34.5 3.5t-31.5 12.5q-13 24 -13 63q0 25 6.5 54.5t24.5 56.5t48.5 49t77.5 33z" />
    <glyph glyph-name="uni02BC" unicode="&#x2bc;" horiz-adv-x="253" 
d="M167 739q17 0 35 -3.5t32 -11.5q5 -12 9 -28t4 -36q0 -24 -6.5 -53t-24 -56.5t-48 -50t-78.5 -33.5l-13 34q16 8 31 19t27 24t19 28t7 32v13l-48 6l7 112q11 2 24 3t23 1z" />
    <glyph glyph-name="circumflex" unicode="&#x2c6;" horiz-adv-x="354" 
d="M285 566l-70 111h-9l-84 -103h-55l145 195h71l81 -165z" />
    <glyph glyph-name="caron" unicode="&#x2c7;" horiz-adv-x="354" 
d="M242 667l85 103h55l-144 -196h-72l-81 165l79 39l69 -111h9z" />
    <glyph glyph-name="breve" unicode="&#x2d8;" horiz-adv-x="333" 
d="M166 756q1 -47 13.5 -72.5t50.5 -25.5q36 0 56 25.5t34 71.5l39 -11q-17 -82 -57 -121t-101 -39q-38 0 -62.5 14t-37.5 36t-16.5 49.5t0.5 54.5z" />
    <glyph glyph-name="dotaccent" unicode="&#x2d9;" horiz-adv-x="192" 
d="M161 740q23 0 40 -6q5 -10 8 -19.5t3 -23.5q0 -20 -6.5 -39.5t-20.5 -42.5h-95l-6 118q14 5 34 9t43 4z" />
    <glyph glyph-name="ring" unicode="&#x2da;" horiz-adv-x="286" 
d="M205 784q51 0 76 -23.5t25 -66.5q0 -50 -33 -82t-93 -32q-51 0 -76.5 23.5t-25.5 66.5q0 51 33.5 82.5t93.5 31.5zM200 737q-14 0 -24 -5q-8 -11 -13.5 -27.5t-5.5 -36.5q0 -41 29 -41q14 0 25 6q8 11 13.5 27.5t5.5 36.5q0 22 -7.5 31t-22.5 9z" />
    <glyph glyph-name="ogonek" unicode="&#x2db;" horiz-adv-x="269" 
d="M177 15q-49 -36 -68 -65.5t-19 -54.5q0 -46 48 -46q11 0 24 2.5t24 6.5l3 -43q-39 -28 -100 -28q-55 0 -78.5 22t-23.5 57q0 26 12 48.5t33 41.5t49.5 34t60.5 27z" />
    <glyph glyph-name="tilde" unicode="&#x2dc;" horiz-adv-x="354" 
d="M376 706q-7 -18 -17 -37.5t-23 -35t-30 -26t-38 -10.5q-11 0 -24 3.5t-31 14.5l-62 36l-50 -53l-29 26q7 16 16.5 35t23 35.5t30.5 27t38 10.5q11 0 24 -3.5t31 -14.5l61 -36l52 54z" />
    <glyph glyph-name="hungarumlaut" unicode="&#x2dd;" horiz-adv-x="380" 
d="M187 778q31 -14 50 -55l-120 -150h-50l64 205h56zM355 778q32 -15 49 -55l-118 -150h-51l64 205h56z" />
    <glyph glyph-name="gravecomb" unicode="&#x300;" horiz-adv-x="0" 
d="M-98 573l-121 142q13 22 27.5 37.5t34.5 25.5h62l52 -205h-55z" />
    <glyph glyph-name="acutecomb" unicode="&#x301;" horiz-adv-x="0" 
d="M-69 778q15 -10 27 -26.5t17 -36.5l-155 -142h-55l105 205h61z" />
    <glyph glyph-name="uni0302" unicode="&#x302;" horiz-adv-x="0" 
d="M-84 566l-70 111h-9l-84 -103h-55l144 195h71l82 -165z" />
    <glyph glyph-name="tildecomb" unicode="&#x303;" horiz-adv-x="0" 
d="M-25 706q-7 -18 -17 -37.5t-23 -35t-30 -26t-38 -10.5q-10 0 -23.5 3.5t-31.5 14.5l-61 36l-51 -53l-28 26q6 16 15.5 35t23 35.5t30.5 27t39 10.5q10 0 23.5 -3.5t31.5 -14.5l60 -36l52 54z" />
    <glyph glyph-name="uni0304" unicode="&#x304;" horiz-adv-x="0" 
d="M2 698q1 -2 2 -8t1 -14q0 -10 -2.5 -25.5t-9.5 -30.5h-253q-1 2 -2 8t-1 14q0 10 2.5 26t9.5 30h253z" />
    <glyph glyph-name="uni0306" unicode="&#x306;" horiz-adv-x="0" 
d="M-172 756q1 -47 13.5 -72.5t50.5 -25.5q36 0 56 25.5t34 71.5l39 -11q-17 -82 -57 -121t-101 -39q-38 0 -62.5 14t-37.5 36t-16.5 49.5t0.5 54.5z" />
    <glyph glyph-name="uni0307" unicode="&#x307;" horiz-adv-x="0" 
d="M-76 740q23 0 40 -6q5 -10 8 -19.5t3 -23.5q0 -20 -7 -39.5t-21 -42.5h-94l-6 118q14 5 34 9t43 4z" />
    <glyph glyph-name="uni0308" unicode="&#x308;" horiz-adv-x="1" 
d="M-248 731q10 0 20 -1.5t17 -4.5q5 -10 7.5 -19t2.5 -22q0 -20 -6.5 -37t-18.5 -36h-82l-7 107q14 5 31 9t36 4zM-49 731q22 0 37 -6q5 -9 7.5 -18t2.5 -22q0 -20 -6.5 -37t-18.5 -37h-82l-7 107q14 5 31 9t36 4z" />
    <glyph glyph-name="uni030A" unicode="&#x30a;" horiz-adv-x="0" 
d="M-133 784q51 0 76 -23.5t25 -66.5q0 -50 -32.5 -82t-93.5 -32q-51 0 -76.5 23.5t-25.5 66.5q0 51 33.5 82.5t93.5 31.5zM-138 737q-14 0 -24 -5q-19 -22 -19 -64q0 -41 29 -41q6 0 12.5 1.5t11.5 4.5q8 11 14 27.5t6 36.5q0 22 -7.5 31t-22.5 9z" />
    <glyph glyph-name="uni030B" unicode="&#x30b;" horiz-adv-x="0" 
d="M-251 778q31 -14 50 -55l-120 -150h-50l64 205h56zM-83 778q31 -14 50 -55l-119 -150h-51l64 205h56z" />
    <glyph glyph-name="uni030C" unicode="&#x30c;" horiz-adv-x="0" 
d="M-126 667l84 103h55l-144 -196h-72l-81 165l79 39l70 -111h9z" />
    <glyph glyph-name="uni0312" unicode="&#x312;" horiz-adv-x="1" 
d="M-59 748q-28 -14 -44.5 -30t-16.5 -42v-11l42 -4l-7 -82q-10 -2 -21 -2.5t-19 -0.5q-16 0 -30 2.5t-27 9.5q-11 14 -11 47q0 52 29.5 91.5t92.5 52.5z" />
    <glyph glyph-name="uni0326" unicode="&#x326;" horiz-adv-x="0" 
d="M-261 -50q16 0 30 -2.5t27 -9.5q11 -14 11 -47q0 -51 -28.5 -88t-91.5 -50l-11 31q26 13 42 27t16 39v11l-42 4l7 81q10 2 21 3t19 1z" />
    <glyph glyph-name="uni0327" unicode="&#x327;" horiz-adv-x="0" 
d="M-202 -62q32 -1 54 -13t22 -47q0 -38 -29.5 -64.5t-87.5 -26.5q-30 0 -55 8t-41 22l12 41q16 -5 31 -9t30 -4q22 0 34.5 10.5t12.5 27.5q0 14 -11 19.5t-44 11.5l26 92h53z" />
    <glyph glyph-name="uni0328" unicode="&#x328;" horiz-adv-x="0" 
d="M-143 15q-49 -36 -68 -65.5t-19 -54.5q0 -22 12.5 -34t35.5 -12q11 0 24 2.5t24 6.5l4 -43q-40 -28 -101 -28q-55 0 -78.5 22t-23.5 57q0 26 12 48.5t33 41.5t49.5 34t60.5 27z" />
    <glyph glyph-name="uni0394" unicode="&#x394;" horiz-adv-x="551" 
d="M508 0h-520l-5 16l285 648l62 14l23 -4l163 -658zM388 93l-105 440l-189 -440h294z" />
    <glyph glyph-name="uni03A9" unicode="&#x3a9;" horiz-adv-x="681" 
d="M656 167q1 -11 1.5 -21t0.5 -22q0 -29 -4 -57.5t-15 -66.5h-272l17 171q42 22 67.5 55t39 69t18 72t4.5 66q0 39 -6.5 71.5t-21.5 56t-41 36.5t-65 13q-23 0 -43.5 -5t-42.5 -14q-20 -12 -37.5 -36.5t-30.5 -56.5t-20.5 -69.5t-7.5 -77.5q0 -69 22.5 -113t64.5 -67
l-17 -171h-266q-5 58 -0.5 96.5t13.5 70.5l71 6l10 -79l120 -11l6 64q-32 10 -61 27.5t-52 44t-37 62t-15 82.5q-1 55 17.5 111.5t59 101.5t104.5 73.5t153 28.5q130 0 197.5 -63.5t67.5 -177.5q0 -42 -11 -86t-35.5 -84.5t-65.5 -73t-101 -50.5l-6 -60l126 11l26 79z" />
    <glyph glyph-name="uni03BC" unicode="&#x3bc;" horiz-adv-x="589" 
d="M573 46q-32 -25 -71 -40.5t-72 -15.5q-29 0 -47 13.5t-18 42.5q0 24 11.5 78.5t28.5 152.5l-11 2q-26 -85 -48 -141t-44.5 -89.5t-47.5 -47.5t-56 -14q-25 0 -39.5 10t-25.5 31l-10 -5q9 -57 18 -109t11 -115q-21 -8 -48.5 -10t-56.5 -2l-15 19q6 92 15 180t19.5 168
t22 150t21.5 126l-70 6v47q38 12 84.5 21.5t88.5 11.5l23 -21q-2 -15 -7 -44t-11 -65.5t-12.5 -76t-12 -76.5t-9 -67t-3.5 -47q0 -26 10 -38.5t36 -12.5h9q6 0 13 1q37 49 79.5 156t90.5 282q19 5 42 7.5t46 2.5l25 -22l-52 -429q20 0 42 7.5t42 18.5z" />
    <glyph glyph-name="pi" unicode="&#x3c0;" horiz-adv-x="572" 
d="M581 462l-15 -63h-72l-41 -332q21 2 42 9t40 16l10 -46q-31 -24 -67.5 -40t-73.5 -16q-34 0 -52.5 17t-18.5 50q0 13 4.5 49.5t12 85t16 103t16.5 104.5h-150l-48 -399q-23 -5 -46 -7.5t-50 -2.5l-24 22l49 244l17 143q-22 -1 -46.5 -8t-57.5 -28l-18 38q15 25 32 44.5
t38.5 32.5t50 19.5t66.5 6.5h386v-42z" />
    <glyph glyph-name="Wgrave" unicode="&#x1e80;" horiz-adv-x="980" 
d="M1004 616q-12 -6 -28 -11t-30 -8q-22 -69 -51.5 -150t-60.5 -161t-61.5 -153.5t-54.5 -128.5q-25 -8 -48 -10.5t-49 -3.5l-29 20q-8 40 -17 87.5t-18 99t-18 105t-17 105.5h-11q-33 -108 -72.5 -206.5t-82.5 -196.5q-25 -8 -48 -10.5t-49 -3.5l-30 20q-13 60 -28 135.5
t-30 156t-30 159.5t-27 147l-61 6v23l3 28h262v-49q-14 -8 -33 -13.5t-35 -7.5q9 -61 19.5 -129t21 -133.5t20 -124.5t16.5 -102h11q15 34 34 84.5t40 108t41.5 117t37.5 112.5l-15 81l-46 5v23l3 28h249v-49q-14 -8 -34 -13.5t-36 -7.5q10 -62 20.5 -130t21 -133.5t20 -124
t16.5 -101.5h11q16 41 38.5 101.5t46 128.5t45.5 138.5t38 131.5l-75 8v23l3 28h207v-49zM523 719l-121 118q11 20 26 36.5t33 25.5h62l61 -180h-61z" />
    <glyph glyph-name="wgrave" unicode="&#x1e81;" horiz-adv-x="812" 
d="M715 520q19 -6 32.5 -18t22.5 -28.5t13.5 -36t4.5 -38.5q0 -35 -13.5 -79t-37 -90t-55.5 -89.5t-69 -77.5t-77 -55t-80 -21t-65 22.5t-25 68.5q0 22 5.5 47t13.5 54l-11 3q-42 -100 -90.5 -147.5t-109.5 -47.5q-47 0 -79 28t-32 90q0 22 4 58.5t11 81t15.5 92.5t16.5 93
l-70 6v47q38 12 84 21.5t88 11.5l23 -22q-3 -17 -8 -46.5t-10.5 -65t-11.5 -73.5t-11 -73.5t-8 -65t-3 -46.5q0 -27 10.5 -41.5t40.5 -14.5l15 1q39 45 72 110t59 144q6 51 13 96t16 87q19 5 44 7.5t48 2.5l24 -22q0 -32 -8.5 -75.5t-24.5 -92.5q-3 -29 -5.5 -58.5
t-4.5 -56.5t-3.5 -49.5t-1.5 -36.5q0 -29 9 -43t38 -14h8q4 0 9 1q52 48 94.5 119t71.5 159l-68 130zM432 573l-121 142q13 22 27.5 37.5t34.5 25.5h62l52 -205h-55z" />
    <glyph glyph-name="Wacute" unicode="&#x1e82;" horiz-adv-x="980" 
d="M1004 616q-12 -6 -28 -11t-30 -8q-22 -69 -51.5 -150t-60.5 -161t-61.5 -153.5t-54.5 -128.5q-25 -8 -48 -10.5t-49 -3.5l-29 20q-8 40 -17 87.5t-18 99t-18 105t-17 105.5h-11q-33 -108 -72.5 -206.5t-82.5 -196.5q-25 -8 -48 -10.5t-49 -3.5l-30 20q-13 60 -28 135.5
t-30 156t-30 159.5t-27 147l-61 6v23l3 28h262v-49q-14 -8 -33 -13.5t-35 -7.5q9 -61 19.5 -129t21 -133.5t20 -124.5t16.5 -102h11q15 34 34 84.5t40 108t41.5 117t37.5 112.5l-15 81l-46 5v23l3 28h249v-49q-14 -8 -34 -13.5t-36 -7.5q10 -62 20.5 -130t21 -133.5t20 -124
t16.5 -101.5h11q16 41 38.5 101.5t46 128.5t45.5 138.5t38 131.5l-75 8v23l3 28h207v-49zM696 900q32 -19 44 -62l-157 -119h-61l113 181h61z" />
    <glyph glyph-name="wacute" unicode="&#x1e83;" horiz-adv-x="812" 
d="M715 520q19 -6 32.5 -18t22.5 -28.5t13.5 -36t4.5 -38.5q0 -35 -13.5 -79t-37 -90t-55.5 -89.5t-69 -77.5t-77 -55t-80 -21t-65 22.5t-25 68.5q0 22 5.5 47t13.5 54l-11 3q-42 -100 -90.5 -147.5t-109.5 -47.5q-47 0 -79 28t-32 90q0 22 4 58.5t11 81t15.5 92.5t16.5 93
l-70 6v47q38 12 84 21.5t88 11.5l23 -22q-3 -17 -8 -46.5t-10.5 -65t-11.5 -73.5t-11 -73.5t-8 -65t-3 -46.5q0 -27 10.5 -41.5t40.5 -14.5l15 1q39 45 72 110t59 144q6 51 13 96t16 87q19 5 44 7.5t48 2.5l24 -22q0 -32 -8.5 -75.5t-24.5 -92.5q-3 -29 -5.5 -58.5
t-4.5 -56.5t-3.5 -49.5t-1.5 -36.5q0 -29 9 -43t38 -14h8q4 0 9 1q52 48 94.5 119t71.5 159l-68 130zM596 778q15 -10 27 -26.5t17 -36.5l-155 -142h-55l105 205h61z" />
    <glyph glyph-name="Wdieresis" unicode="&#x1e84;" horiz-adv-x="980" 
d="M1004 616q-12 -6 -28 -11t-30 -8q-22 -69 -51.5 -150t-60.5 -161t-61.5 -153.5t-54.5 -128.5q-25 -8 -48 -10.5t-49 -3.5l-29 20q-8 40 -17 87.5t-18 99t-18 105t-17 105.5h-11q-33 -108 -72.5 -206.5t-82.5 -196.5q-25 -8 -48 -10.5t-49 -3.5l-30 20q-13 60 -28 135.5
t-30 156t-30 159.5t-27 147l-61 6v23l3 28h262v-49q-14 -8 -33 -13.5t-35 -7.5q9 -61 19.5 -129t21 -133.5t20 -124.5t16.5 -102h11q15 34 34 84.5t40 108t41.5 117t37.5 112.5l-15 81l-46 5v23l3 28h249v-49q-14 -8 -34 -13.5t-36 -7.5q10 -62 20.5 -130t21 -133.5t20 -124
t16.5 -101.5h11q16 41 38.5 101.5t46 128.5t45.5 138.5t38 131.5l-75 8v23l3 28h207v-49zM462 861q10 0 19.5 -1t17.5 -5q10 -16 10 -40q0 -19 -5.5 -37t-18.5 -38h-83l-8 108q14 5 31.5 9t36.5 4zM692 861q10 0 19 -1t17 -5q10 -14 10 -39q0 -19 -5 -37.5t-18 -38.5h-84
l-7 108q14 5 31 9t37 4z" />
    <glyph glyph-name="wdieresis" unicode="&#x1e85;" horiz-adv-x="812" 
d="M715 520q19 -6 32.5 -18t22.5 -28.5t13.5 -36t4.5 -38.5q0 -35 -13.5 -79t-37 -90t-55.5 -89.5t-69 -77.5t-77 -55t-80 -21t-65 22.5t-25 68.5q0 22 5.5 47t13.5 54l-11 3q-42 -100 -90.5 -147.5t-109.5 -47.5q-47 0 -79 28t-32 90q0 22 4 58.5t11 81t15.5 92.5t16.5 93
l-70 6v47q38 12 84 21.5t88 11.5l23 -22q-3 -17 -8 -46.5t-10.5 -65t-11.5 -73.5t-11 -73.5t-8 -65t-3 -46.5q0 -27 10.5 -41.5t40.5 -14.5l15 1q39 45 72 110t59 144q6 51 13 96t16 87q19 5 44 7.5t48 2.5l24 -22q0 -32 -8.5 -75.5t-24.5 -92.5q-3 -29 -5.5 -58.5
t-4.5 -56.5t-3.5 -49.5t-1.5 -36.5q0 -29 9 -43t38 -14h8q4 0 9 1q52 48 94.5 119t71.5 159l-68 130zM383 731q10 0 20 -1.5t17 -4.5q5 -10 7.5 -19t2.5 -22q0 -20 -6.5 -37t-18.5 -36h-82l-7 107q14 5 31 9t36 4zM582 731q22 0 37 -6q5 -9 7.5 -18t2.5 -22q0 -20 -6.5 -37
t-18.5 -37h-82l-7 107q14 5 31 9t36 4z" />
    <glyph glyph-name="uni1E9E" unicode="&#x1e9e;" horiz-adv-x="698" 
d="M592 309q31 -33 49 -66.5t18 -81.5q0 -82 -53 -128t-152 -46q-51 0 -83.5 11t-61.5 25q-6 36 -6 70q0 23 2.5 44t5.5 43l65 4l24 -125q21 -6 43 -6q19 0 36 3.5t32 11.5q8 14 12.5 29.5t4.5 37.5q0 15 -3 27.5t-10 24.5t-18 25.5t-26 30.5q-38 41 -60.5 73t-22.5 76
q0 61 41 109t121 86v11q-24 8 -53.5 11t-55.5 3q-43 0 -76.5 -10.5t-58 -33.5t-39.5 -60.5t-20 -92.5l-38 -415h-201v49q17 8 40 13.5t40 7.5l32 344q13 140 88.5 202t202.5 62q56 0 115 -11t107 -35v-65q-61 -26 -92.5 -60.5t-31.5 -75.5q0 -19 6.5 -33.5t17.5 -28
t26.5 -28t32.5 -32.5z" />
    <glyph glyph-name="Ygrave" unicode="&#x1ef2;" horiz-adv-x="622" 
d="M579 595q-43 -93 -94 -181t-108 -179l-16 -177l79 -7v-23l-3 -28h-291v49q17 8 43 13.5t45 7.5l15 162q-35 100 -71 197t-71 178l-63 7v23l3 28h271v-49q-14 -7 -35.5 -12.5t-39.5 -7.5q12 -34 25.5 -71.5t27 -75.5t26 -75t22.5 -69h11q39 65 80.5 144.5t71.5 156.5
l-69 8v23l3 28h209v-49q-15 -8 -34.5 -13.5t-36.5 -7.5zM327 719l-121 118q11 20 26 36.5t33 25.5h62l61 -180h-61z" />
    <glyph glyph-name="ygrave" unicode="&#x1ef3;" horiz-adv-x="521" 
d="M421 520q33 -10 54 -41.5t21 -81.5q0 -40 -14 -91.5t-40 -108.5t-63 -117t-83 -117q-63 -78 -126.5 -127t-120.5 -49q-28 0 -57.5 12t-52.5 36l15 49q29 -8 65.5 -16t78.5 -9q45 29 85 70q-12 66 -25.5 133.5t-27 132.5t-27 125t-25.5 110l-70 6v47q38 13 78 22t80 11
l24 -22q13 -60 26 -121.5t24 -120.5t19.5 -113t12.5 -100h12q18 26 38 61.5t38 76t32.5 84t22.5 85.5l-70 132zM276 573l-121 142q13 22 27.5 37.5t34.5 25.5h62l52 -205h-55z" />
    <glyph glyph-name="uni2007" unicode="&#x2007;" horiz-adv-x="565" 
 />
    <glyph glyph-name="uni2008" unicode="&#x2008;" horiz-adv-x="250" 
 />
    <glyph glyph-name="uni2009" unicode="&#x2009;" horiz-adv-x="175" 
 />
    <glyph glyph-name="uni200B" unicode="&#x200b;" horiz-adv-x="0" 
 />
    <glyph glyph-name="endash" unicode="&#x2013;" horiz-adv-x="500" 
d="M457 260h-409v26l6 48h409v-26z" />
    <glyph glyph-name="emdash" unicode="&#x2014;" horiz-adv-x="1000" 
d="M928 260h-851v26l6 48h851v-26z" />
    <glyph glyph-name="quoteleft" unicode="&#x2018;" horiz-adv-x="252" 
d="M257 713q-16 -8 -31 -19t-27 -24t-19 -28.5t-7 -31.5v-13l49 -6l-8 -112q-11 -2 -24 -3t-23 -1q-17 0 -34.5 3.5t-31.5 12.5q-13 24 -13 63q0 25 6.5 54.5t24.5 56.5t48.5 49t77.5 33z" />
    <glyph glyph-name="quoteright" unicode="&#x2019;" horiz-adv-x="253" 
d="M167 739q17 0 35 -3.5t32 -11.5q5 -12 9 -28t4 -36q0 -24 -6.5 -53t-24 -56.5t-48 -50t-78.5 -33.5l-13 34q16 8 31 19t27 24t19 28t7 32v13l-48 6l7 112q11 2 24 3t23 1z" />
    <glyph glyph-name="quotesinglbase" unicode="&#x201a;" horiz-adv-x="253" 
d="M96 119q17 0 35 -3.5t32 -12.5q5 -11 9 -27t4 -36q0 -24 -6.5 -53t-24 -56.5t-48 -50t-78.5 -33.5l-13 33q16 8 31 19t27 24.5t19 28.5t7 32v13l-48 6l7 111q11 3 24 4t23 1z" />
    <glyph glyph-name="quotedblleft" unicode="&#x201c;" horiz-adv-x="441" 
d="M446 713q-16 -8 -31 -19t-27 -24t-19 -28.5t-7 -31.5v-13l49 -6l-8 -112q-11 -2 -24 -3t-23 -1q-17 0 -34.5 3.5t-31.5 12.5q-13 24 -13 63q0 25 6.5 54.5t24.5 56.5t48.5 49t77.5 33zM257 713q-16 -8 -31 -19t-27 -24t-19 -28.5t-7 -31.5v-13l49 -6l-8 -112
q-11 -2 -24 -3t-23 -1q-17 0 -34.5 3.5t-31.5 12.5q-13 24 -13 63q0 25 6.5 54.5t24.5 56.5t48.5 49t77.5 33z" />
    <glyph glyph-name="quotedblright" unicode="&#x201d;" horiz-adv-x="442" 
d="M356 739q17 0 35 -3.5t32 -11.5q5 -12 9 -28t4 -36q0 -24 -6.5 -53t-24 -56.5t-48 -50t-78.5 -33.5l-13 34q16 8 31 19t27 24t19 28t7 32v13l-48 6l7 112q11 2 24 3t23 1zM167 739q17 0 35 -3.5t32 -11.5q5 -12 9 -28t4 -36q0 -24 -6.5 -53t-24 -56.5t-48 -50
t-78.5 -33.5l-13 34q16 8 31 19t27 24t19 28t7 32v13l-48 6l7 112q11 2 24 3t23 1z" />
    <glyph glyph-name="quotedblbase" unicode="&#x201e;" horiz-adv-x="442" 
d="M285 119q17 0 35 -3.5t32 -12.5q5 -11 9 -27t4 -36q0 -24 -6.5 -53t-24 -56.5t-48 -50t-78.5 -33.5l-13 33q16 8 31 19t27 24.5t19 28.5t7 32v13l-48 6l7 111q11 3 24 4t23 1zM96 119q17 0 35 -3.5t32 -12.5q5 -11 9 -27t4 -36q0 -24 -6.5 -53t-24 -56.5t-48 -50
t-78.5 -33.5l-13 33q16 8 31 19t27 24.5t19 28.5t7 32v13l-48 6l7 111q11 3 24 4t23 1z" />
    <glyph glyph-name="dagger" unicode="&#x2020;" horiz-adv-x="476" 
d="M289 493q8 -29 12 -51t4 -45q0 -54 -15 -119t-32 -140h-46q-4 42 -6.5 78t-2.5 74q0 44 6.5 93t35.5 110h44zM437 581q22 0 44 -5v-26l-9 -64q-10 -2 -21.5 -2.5t-20.5 -0.5q-31 0 -66.5 8.5t-59.5 18.5l5 43q26 9 62 18.5t66 9.5zM336 735q1 -5 1 -9v-9q0 -35 -13 -74.5
t-28 -71.5h-44q-6 22 -11.5 52.5t-5.5 56.5q0 17 2 31t7 29h62zM110 581q31 0 66.5 -9t59.5 -19l-5 -43q-26 -9 -62 -18t-66 -9q-10 0 -22 1t-22 3v27l9 63q10 2 21.5 3t20.5 1z" />
    <glyph glyph-name="daggerdbl" unicode="&#x2021;" horiz-adv-x="502" 
d="M298 493q9 -28 12.5 -49.5t3.5 -42.5q0 -30 -7.5 -67.5t-32.5 -86.5h-44q-9 28 -12.5 49.5t-3.5 41.5q0 28 7 66.5t32 88.5h45zM446 581q22 0 44 -5v-26l-9 -64q-10 -2 -21.5 -2.5t-20.5 -0.5q-31 0 -66.5 8.5t-59.5 18.5l5 43q26 9 62 18.5t66 9.5zM417 257q10 0 22 -1
t22 -3v-27l-9 -63q-10 -2 -21.5 -3t-20.5 -1q-31 0 -66.5 9t-59.5 19l5 43q26 9 62 18t66 9zM89 257q31 0 66.5 -8.5t59.5 -18.5l-5 -43q-26 -9 -62 -18.5t-66 -9.5q-22 0 -44 5v26l9 64q10 2 21.5 2.5t20.5 0.5zM345 735q1 -5 1 -9v-9q0 -35 -13 -74.5t-28 -71.5h-44
q-6 22 -11.5 52.5t-5.5 56.5q0 17 2 31t7 29h62zM119 581q31 0 66.5 -9t59.5 -19l-5 -43q-26 -9 -62 -18t-66 -9q-10 0 -22 1t-22 3v27l9 63q10 2 21.5 3t20.5 1zM267 169q6 -22 11.5 -52.5t5.5 -56.5q0 -17 -2 -31t-7 -29h-62l-30 5q-1 5 -1 9v9q0 35 13 74.5t28 71.5h44z
" />
    <glyph glyph-name="bullet" unicode="&#x2022;" horiz-adv-x="411" 
d="M210 439q70 0 107.5 -38.5t37.5 -104.5q0 -67 -37.5 -105t-107.5 -38t-107 38t-37 105q0 66 37 104.5t107 38.5z" />
    <glyph glyph-name="ellipsis" unicode="&#x2026;" horiz-adv-x="750" 
d="M618 146q13 0 26.5 -1.5t21.5 -4.5q11 -20 11 -48q0 -23 -8 -46t-22 -46h-101l-6 133q14 5 34.5 9t43.5 4zM118 146q13 0 26.5 -1.5t21.5 -4.5q11 -20 11 -48q0 -23 -8 -46t-22 -46h-101l-6 133q14 5 34.5 9t43.5 4zM367 146q13 0 26.5 -1.5t21.5 -4.5q11 -20 11 -48
q0 -23 -8 -46t-22 -46h-101l-6 133q14 5 34.5 9t43.5 4z" />
    <glyph glyph-name="perthousand" unicode="&#x2030;" horiz-adv-x="1196" 
d="M674 583q-131 -153 -237.5 -307t-196.5 -297l-54 22l-8 23q27 37 59.5 82t68 92.5t71.5 96t70.5 92.5t65.5 81.5t55 64.5l-8 8q-38 -36 -72 -47.5t-71 -11.5q-17 0 -33.5 1.5t-32.5 6.5q3 -21 3 -43q0 -32 -8 -68t-27.5 -66.5t-52.5 -50.5t-82 -20q-71 0 -102.5 42
t-32.5 108q0 40 10.5 77t29.5 66t46 49t60 27l21 -33q-34 -21 -54 -74t-20 -124q0 -49 11.5 -70t40.5 -21q18 0 37 7q12 13 20.5 35t14 48t8 52t2.5 47q0 14 -2 28.5t-5 27.5q-20 17 -35 42q8 13 19.5 23t22.5 15h23q19 -25 31 -54q25 -13 50 -18t48 -5q41 0 87 18t107 71
l47 -22zM651 355q36 0 61.5 -11t42 -31t24.5 -47.5t8 -59.5q0 -33 -9 -71.5t-30 -71.5t-56 -54.5t-87 -21.5q-71 0 -103.5 41.5t-32.5 107.5q0 34 9 72.5t30.5 71t56.5 54t86 21.5zM1022 355q36 0 61.5 -11t42 -31t24.5 -47.5t8 -59.5q0 -33 -9 -71.5t-30 -71.5t-56 -54.5
t-87 -21.5q-71 0 -103.5 41.5t-32.5 107.5q0 34 9 72.5t30.5 71t56.5 54t86 21.5zM1014 309q-19 0 -38 -8q-12 -14 -20.5 -36t-13.5 -47.5t-7.5 -51.5t-2.5 -46q0 -45 13 -65.5t39 -20.5q18 0 37 7q12 13 21 36t14 48.5t7.5 51.5t2.5 46q0 46 -13.5 66t-38.5 20zM650 41
q12 13 21 36t14 48.5t7.5 51.5t2.5 46q0 46 -13.5 66t-38.5 20q-19 0 -38 -8q-12 -14 -20.5 -36t-13.5 -47.5t-7.5 -51.5t-2.5 -46q0 -45 13 -65.5t39 -20.5q18 0 37 7z" />
    <glyph glyph-name="minute" unicode="&#x2032;" horiz-adv-x="230" 
d="M140 471h-76l50 250q33 8 57.5 11t54.5 3l16 -25z" />
    <glyph glyph-name="second" unicode="&#x2033;" horiz-adv-x="401" 
d="M140 471h-76l50 250q33 8 57.5 11t54.5 3l16 -25zM337 471h-76l50 250q33 8 57.5 11t54.5 3l16 -25z" />
    <glyph glyph-name="uni2034" unicode="&#x2034;" horiz-adv-x="624" 
d="M140 471h-76l50 250q33 8 57.5 11t54.5 3l16 -25zM337 471h-76l50 250q33 8 57.5 11t54.5 3l16 -25zM534 471h-76l50 250q33 8 57.5 11t54.5 3l16 -25z" />
    <glyph glyph-name="guilsinglleft" unicode="&#x2039;" horiz-adv-x="311" 
d="M174 276l56 -162l-54 -34l-125 178v32l167 178l47 -35z" />
    <glyph glyph-name="guilsinglright" unicode="&#x203a;" horiz-adv-x="309" 
d="M264 258l-168 -178l-46 34l91 157l-55 162l53 35l125 -178v-32z" />
    </font>
</defs>
</svg>
